<?xml version="1.0" encoding="utf-8"?>
<!-- Generator: Adobe Illustrator 23.1.0, SVG Export Plug-In . SVG Version: 6.00 Build 0)  -->
<svg version="1.1" id="logo" xmlns="http://www.w3.org/2000/svg" xmlns:xlink="http://www.w3.org/1999/xlink" x="0px" y="0px"
	 viewBox="0 0 1080 1080" style="enable-background:new 0 0 1080 1080;" xml:space="preserve">
<g>
	<path style="fill:#FFFFFF;" d="M271.9,589.5l27.3-205.2L62.4,219.9l216.4,73.3l51.1-78.4L516.5,99l411.4,226.6l21.3,345.8
		L765.9,926.1l-144.9,22.2L696,811.2v-132l-54.5-103.1l-55.3-36.7L501,627.2v92.9l-66.4,62.2l-84.4,10.2l-37.4,21.2l-61.3-19.6
		l-25.6-92l46-64.7V589.5z"/>
	<path style="fill:#94A6C3;" d="M650.1,218.2c-45.1-9.3-94.5-6.9-94.5-6.9s-16.2,74.9-116.7,94.6C439.7,305.9,571.7,351,650.1,218.2
		z"/>
	<path style="fill:#94A6C3;" d="M691,897.9c54.5-42.6,95.4-101.3,114.2-167.8c0.9-2.5,8.5-6.9,13.6-10.2c8.5-5.1,17.1-9.3,18.7-16.2
		c3.4-19.6,5.1-40,5.1-60.5c0-7.6-7.7-15.3-15.3-22.9c-6-5.1-12-11.1-12-15.3c-8.5-77.5-44.2-150-101.3-202.7l-6,6
		c55.3,52,91.1,122.7,98.9,197.6c0.9,6.9,7.6,13.6,14.5,20.4c6,5.1,12.9,12.9,12.9,16.2c0,19.6-1.8,39.1-5.1,58.7
		c-0.9,3.4-8.5,6.9-14.5,10.2c-8.5,4.2-16.2,8.5-17.8,15.3c-20.4,72.4-67.3,135.5-129.5,176.4c11.1-23.8,46-101.3,64.7-140.6
		l-3.4-126L620.3,531.8l-61.3,8.5l-67.3,109.1c0,0,31.5,40-12.9,86.9c-43.4,46-77.5,56.2-77.5,56.2l-31.5-17.1
		c9.3-12,28.2-29.8,42.6-41.8c24.7-20.4,49.4-22.2,49.4-44.2c1-46.1-48.5-33.4-48.5-33.4l-18,17.1l-7.6,63.1L350.3,783l-4.2-0.9
		l-61.3-13.6c0,0,37.5-19.6,43.5-41.8c6-21.3-12-92-12.9-96.2c0.9,0.9,18,15.3,25.6,39.1c13.6-37.5,31.5-73.3,36.7-76.7
		c5.1-3.4,74-40,74-40l-22.9,60.5l17.1-9.3l40.9-100.5c0,0,40-19.6,69.8-19.6c53.6-0.9,132.9-66.4,97.1-184
		c10.2,4.2,187.4,92.9,218,266.6C894.6,700.3,818.8,825.5,691,897.9z"/>
	<path style="fill:#1B314F;" d="M488.3,236.8c19.6-23.1,12-57.1,12-57.1l-57.1,84.4C442.3,264.2,463.5,265,488.3,236.8z"/>
	<path style="fill:#1B314F;" d="M296.6,697.7l6.9-34c0,0-28.2,49.4-30.7,56.2c-2.6,7.7,1.8,21.3,12.7,20.4
		c11.1-0.9,24.7-17.1,24.7-28.9C310.2,696.1,296.6,697.7,296.6,697.7z"/>
	<path style="fill:#1B314F;" d="M802.6,155.9c0,0,42.6,1.8,86.9,6.9C789.7,84.4,695.2,61.5,618.6,61.5c-105.6,0-177.1,43.5-181.5,46
		l33.3-52.9c0,0-132.9-12.9-179.8,127.8c-12-29.8-22.9-73.3-22.9-73.3s-69.1,60.6-36.7,161.1c-79.3-28.9-192.5-69.1-196.8-69.8
		c-6-0.9-7.7,1.8-7.7,1.8s-1.8,2.5,3.4,6.9c9.5,7.4,188.4,139.6,227.7,165.2c-8.5,30.7-8.5,45.1,0,59.6c12,19.6,12.7,29.8,11.1,44.2
		c-1.8,14.5-17.1,139.7-20.4,155.1c-3.4,15.3-39.1,69.8-37.5,86c1.8,16.2,23.8,85.1,43.5,92.9c14.5,5.1,50.2,16.2,74,16.2
		c8.5,0,16.2-1.8,19.6-5.1c14.5-12.7,18.7-15.3,28.9-15.3c0.9,0,1.8,0,2.5,0c4.2,0,9.3,0.9,15.3,0.9c13.6,0,31.5-2.6,44.2-14.5
		c18.7-18.7,51.1-44.2,61.3-56.2c12.9-16.2,19.6-38.3,16.2-60.5c-2.6-20.4,8.5-38.4,21.3-56.2c16.2-21.3,46-59.6,46-59.6
		C642.4,605.7,679,673,679,747.9c0,132.9-115.8,240.2-258.9,240.2c-22.2,0-43.4-2.5-64.7-7.6c65.6,22.9,120.9,30.7,166.2,30.7
		c96.2,0,147.3-34.9,147.3-34.9s-17.8,23.1-46.9,49.4c0.9,0,0.9,0,0.9,0c159.3-22.2,236.9-153.3,236.9-153.3s-6,42.6-13.6,71.6
		c211.9-159.3,176.1-358.6,175.2-365.4c1.8,2.5,23.1,28,34,41.8C1089.7,269.3,802.6,155.9,802.6,155.9z M476.3,716.5
		c-3.4,4.2-17.8,17.1-28,26.4c-10.2,9.3-21.3,18.7-29.8,27.3c-3.4,3.4-10.2,5.1-20.4,5.1c-3.4,0-6.9,0-9.3,0c-1.8,0-3.4,0-5.1,0
		s-2.6,0-3.4,0c-2.6,0-5.1,0-7.7,0c12.9-17.1,50.2-56.2,63.1-64.7c15.3-10.2,23.1-20.4,13.6-38.3c-9.3-18-34-13.6-34-13.6
		s14.5-6,27.3-6c-16.2-4.2-36.7,0-46,9.3c-10.2,9.3-8.5,42.6-12.7,63.8c-4.2,22.2-18.7,33.3-40.9,53.7c-12,11.1-20.4,14.5-27.3,14.5
		c-14.5-2.5-31.5-6.9-43.5-11.1c-8.5-11.1-21.3-47.8-24.7-63.1c2.5-8.5,12.7-26.4,17.8-36.7c10.2-19.6,16.2-30.7,18-40.9
		c3.4-14.5,14.5-104,18.7-141.4c11.1,14.5,26.4,38.4,22.9,53.7c24.7-34.9,6.9-69.1-1.8-82.7c-7.6-13.6-17.8-40.9-9.3-69.8
		c8.5-28.9,39.1-109.1,39.1-109.1s10.2,18,24.7,14.5c14.5-3.4,131.1-178.9,131.1-178.9s31.5,68.9-1.8,119.3
		c-34,50.2-67.3,59.6-67.3,59.6s46.9,8.5,90.2-23.1c17.8,41.8,34.9,85.1,35.8,91.1c-2.6,6-36.7,87.8-40,92.9
		c-1.8,1.8-13.6,5.1-22.2,6.9c-14.5,4.2-22.9,6.9-26.4,9.3c-6,5.1-33.3,80-46,116.7c-15.3,4.2-30.7,12.9-41.8,29.8
		c6-4.2,24.7-6.9,38.4-8.5c12-0.9,48.5,18.7,58,55.3c0,0.9,0,0.9,0,1.8C487.4,693.5,483.2,706.3,476.3,716.5z M396.3,726.8
		c7.7-11.1,6.9-29.8,7.7-35.8c0.9-6,2.5-17.1,9.3-18.7c6.9-1.8,23.1,0.9,23.1,12.7c0,11.1-12,13.6-20.4,21.3
		C409.9,712.2,397.9,725,396.3,726.8z M736.1,564c8.5-43.4,9.3-80.9,6.9-111.6c33.1,44.2,53.6,98,59.6,153.3
		c0.9,6.9,7.6,13.6,14.5,20.4c6,5.1,12.9,12,12.9,16.2c0,19.6-1.8,39.1-5.1,58.8c-0.9,2.5-8.5,6.9-14.5,10.2
		c-8.5,4.2-16.2,8.5-17.8,15.3c-18.7,65.6-58.8,123.5-112.4,164.4C759.2,808.5,797.5,672.2,736.1,564z M682.5,898.8
		c55.3-42.6,98-102.2,116.7-169.5c0.9-2.5,8.5-6.9,13.6-10.2c8.5-4.2,17.1-9.3,18.7-16.2c3.4-19.6,5.1-40,5.1-60.5
		c0-7.6-7.7-15.3-15.3-22.9c-4.2-5.1-11.1-11.1-11.1-15.3c-6.9-62.2-31.5-120.9-69.8-169.5c-17.1-102.2-85.1-133.8-86.9-134.6
		c1.8,2.6,46,66.4,15.3,141.4c-31.5,75.8-112.4,64-119.3,64.7c-6.9,0-33.1,34-66.4,97.1c-4.2-1.8-22.2-6-42.6-2.5
		c15.3-42.6,38.4-103.1,42.6-108.2c1.8-1.8,14.5-5.1,23.1-7.6c16.2-4.2,23.8-6.9,26.4-10.2c1.8-2.6,10.2-22.2,18.7-42.6
		c7.7,0,27.3-1.8,28.9-2.6c1.8-1.8,18-43.4,18-48.5c0-4.2-33.3-86.9-46-118.4c6-6.9,12-15.3,17.8-24.7
		c174.6,18.8,311,167.1,311,346.7C881,722.4,800.1,842.6,682.5,898.8z"/>
	<path style="fill:#1B314F;" d="M455.9,438.8c16.2-18.7,7.7-53.6-22.2-59.6c7.7-17.8,18.7-53.6,18.7-53.6s-86.9,136.2-94.5,138.9
		c-7.7,2.6-15.3-27.3-15.3-27.3c-16.2,62.2,27.3,70.7,32.4,51.1C398.8,482.2,439.7,456.6,455.9,438.8z"/>
	<path style="fill:#FFD923;" d="M381.7,472l44.2-75.8c0,0,25.6,12.9,12.7,33.3C422.6,453.3,381.7,472,381.7,472z"/>
	<path style="fill:#D82122;" d="M929.5,823c-12.9,17.1-27.3,34.9-44.2,52c109.8-211.3,5.1-404.6,0.9-412.2
		c7.7,7.7,15.3,16.2,22.2,23.8C992.6,580.2,1002.8,720.8,929.5,823z"/>
	<path style="fill:#D82122;" d="M1031.7,551.2c-38.4-103.1-92.9-190.9-212.9-270c-115.8-76.7-240.2-70.7-247.1-69.8
		c-0.9,0-1.8,0-1.8,0c4.2-1.8,8.5-2.6,12.7-3.4c26.4-8.5,60.5-15.3,94.6-19.6c90.4-13,181.5,17.7,243.7,83.4
		c0.9,0.9,0.9,0.9,1.8,1.8C993.4,348.6,1030.1,442.2,1031.7,551.2z"/>
	<path style="fill:#D82122;" d="M791.5,129.5c-126.9-23.8-208.7-12-267.5,10.2c-1.8-6.9-7.7-20.4-12.9-31.5
		c-17.7,21.3-36.5,46.9-48.3,63.1c-32.4,22.2-46,43.5-46,43.5c18.7-64,73.3-111.6,139.7-123.5c18.7-3.4,39.1-5.1,61.3-5.1
		C676.5,87,735.3,101.5,791.5,129.5z"/>
	<path style="fill:#D82122;" d="M322.1,293.1c-99.6-3.4-66.4-119.3-64.7-126C257.4,167.9,264.2,258.2,322.1,293.1z"/>
	<path style="fill:#D82122;" d="M420.1,84.4c-76.7,46-61.3,155.8-61.3,155.8C285.5,128.8,414.1,87,420.1,84.4z"/>
	<path style="fill:#FFFFFF;" d="M294.1,323.7c5.1,4.2,10.2,12,4.2,23.1c-3.4,6-8.5,5.1-16.2,1.8c-10.2-5.1-71.6-40.9-126.9-77.5
		c63.1,22.2,126.9,46,137.1,51.1C292.3,322.1,293.2,323,294.1,323.7z"/>
</g>
</svg>
