
<svg version="1.1" id="Layer_1" xmlns="http://www.w3.org/2000/svg" xmlns:xlink="http://www.w3.org/1999/xlink" x="0px" y="0px"
	 viewBox="0 0 1080 1080" style="enable-background:new 0 0 1080 1080;" xml:space="preserve">
<circle style="fill:#FFFFFF;" cx="540" cy="540" r="540"/>
<g>
	<path style="fill:#FDEAEF;" d="M414,959.7c0,0.2,0,0.5,0,0.7c-5.2,0-10.5,0-15.7,0c0-0.2,0-0.5,0-0.7
		C403.5,957.5,408.7,957.6,414,959.7z"/>
	<path style="fill:#E38095;" d="M868.7,580.1c4,4.4,8.1,8.8,11.3,13.9c-0.1,0.2-0.2,0.3-0.2,0.5c-0.6,4.1,2.3,8.1,6.3,8.8
		c0.9,0.1,1.2,1,2,1.3c1.2,0.9,2.5,1.7,2.3,3.6c-0.9,2.6-1.1,5.4,0.9,7.2c3.6,3.3,4.4,7.6,5.6,11.9c0.3,1.2,0.4,2.5,1.7,3.3
		c2-1.4-0.1-3.8,1.4-5.2c0.6-0.3,1.2-0.2,1.7,0.3c0.9,1.4,1.8,2.8,2.7,4.1c0.4,0.8,0.6,1.7,0.2,2.5c-0.5,1-1.7,1.8,0.8,1.7
		c1.4-0.1,1.8,1.7,2.2,2.9c0.8,2.4,2,4.5,3.9,6.1c2.2,4.7,4.4,9.4,6.6,14c-1,5.1-0.3,10,2,14.7c0.8,1.7,2.5,1.1,3.6,1.9
		c2.6,2.6,3.2,6.1,3.9,9.3c1.6,6.7,4.1,13.1,4.6,20.1c0.7,1.9,0.2,4,0.6,6c-1,2.6-1.5,5.2-1.2,8c0,11.6,0,23.1,0,34.7
		c0,1.8-0.4,3.8,1,5.4c0.4,0.4,0.7,0.8,0.9,1.3c0,2.1,0.1,4.1-0.4,6.1c0,0.2,0,0.4-0.1,0.6c-1,2.6-1.6,5.3-1.6,8.1
		c-0.6,2.5-1.3,5.1-1.9,7.6c-3.4,5.8-5.1,12.2-6.9,18.6c-0.7,3.4-2.5,6.4-4.2,9.4c-1.3,0.8-1.4,2.3-1.9,3.6c-0.3,0.5-0.6,1.1-1,1.6
		c-1.2,0.4-1.2,2.2-2.8,2.1c-4.3-0.2-5.2,3.4-6.6,6.3c-0.6,1.1-0.8,2.5-1.1,3.7c-1.1,4.4-3.1,7-8.3,6.6c-3.8-0.3-3.3,3-3.5,6.3
		c2.6-2.5,3.9-6.9,8.3-4.1c-11.3,15.7-24.6,29.1-41.6,38.5c-2.3,0.9-4.8,1.2-6.3,3.5c-2.3,1-4.3,2.7-6.9,2.6
		c-0.7-0.7-0.8-1.4-0.4-2.3c0.6-1.1,2.1-1.3,2.9-2.4c-1.4,0.2-1.8,1.5-2.6,2.1c-0.3,0.3-0.7,0.6-1.1,0.6c-2.1,0.1-4.3,0.3-6.4,0.2
		c-0.2,0.1,0,0,0.3,0.3c1.2,0.7,1.9,1.4,3.4,0c1.2-1.1,2.9,0.2,4,1.5c-5.9,3.4-12.3,5.3-19.1,6.1c-0.9,0.5-1.8,0.4-2.8,0.2
		c-2.3-1.1-4.7-0.9-7.1-0.7c-8.9-0.1-17.7-0.1-26.6-0.1c-2.6,0-5.2,0-7.8,0c-1.9,0-3.8-0.1-5.7-0.1c-0.6,0-1.1-0.1-1.7-0.1
		c-1,0-1.8-0.8-2.8-0.5c0.6,0.2,1.4,0.2,1.1,1.3c-0.4,0.3-0.8,0.3-1.2,0c-3.5-0.6-7.2-0.3-10.4-2.4c-5.5-1.8-10.8-4.2-16.7-4.6
		c-4-0.4-7.5-2.3-11.2-3.7c-0.7-1.7-2.5-0.9-3.6-1.6c-13.3-5-26-11.1-38.2-18.2c-1.5-0.9-2.9-1.7-4.4-2.6c-1.7-1.8-3.9-2.8-6.2-3.6
		c-4-1.9-7.8-4.1-11.2-6.9c-1.3-3.7-5.6-4.9-6.9-8.5c-0.4-1.1-1-0.6-1.6-0.2c-1.8,1.2-3.6,0.3-5.3-0.1c-18.5-13-36.7-26.5-53.2-42.1
		c-4.1-3.9-5.4-3.4-7,2.1c-0.7,2.3-1.8,4.6-2.7,6.8c-3.5,5.1-4.7,11.2-6.9,16.8c-1.8,5.2-4.7,9.8-7.1,14.6c-1.7,1.5-2.8,3.3-3.3,5.4
		c-6.4,12.7-14.9,24.1-24.2,34.8c-0.5,0.4-1.1,0.6-1.7,0.5c-1.2-0.2-2.5-1.5-3.5,0c-1.1,1.7-2.9,3-3.3,5c-0.1,0.6,1.5,0.6,1.7,1.6
		c0.1,0.6-0.1,1.2-0.4,1.8c-2,2.3-3.4,5.1-6,6.8c-3.4,1.3-5,4.4-7.1,7l0,0c-1.8,0.6-2.9,1.8-3.5,3.6c-3.3,2.7-5.8,6.3-9.4,8.6
		c-2,0.9-3.5,2.4-4.6,4.2c-8.7,7.5-17.6,14.6-27.7,20.2c-1.5,0.5-2.4,1.8-3.8,2.5c-0.5,0.3-1,0.6-1.6,0.9c-3.1,1.5-6.4,2.7-8.8,5.3
		l0,0c-1.2,0.6-2.8,0.4-3.5,1.9c-3.3,2-6.6,3.9-10.3,5.1c-1.2,0.6-3,0-3.7,1.7c-4.7,2.2-9.4,4.5-14.6,5.3c-2.4,0.4-4.8,0.8-7,1.9
		c-2.2-0.5-4.4-1-6.6-0.9c-4.3,0.4-8.7-0.9-12.9,0.8c-0.4,0.2-0.8,0.4-1.3,0.6c-2.7,0.6-5.5,0.2-8.2,0.4c-1.6,0.1-3.2-0.3-4.4,1.2
		c-1.1,1.1-2.6,1.1-3.9,1.5c-6.6-0.1-12.9-2.5-19.4-3.2c-2.4-0.3-4.9,0.2-7.3-0.7c-10.2-2.5-20.3-5.2-29.6-10.2c-1-1.6-3-1.2-4.4-2
		l0,0c-1.8-1.8-4.1-2.5-6.3-3.5c-0.8-0.3-1.6-0.6-2.4-1c-0.9-1.2-0.7-2.3,0.4-3.5c-1.2,1.4-2.5,1.9-4.1,1c-3-0.6-5.1-2.8-7.6-4.5
		c-0.6-1.3-1.9-2-3-2.8c-2.2-1.9-5.2-2.9-6.7-5.8c-1-1.9-3.6-1.7-5.3-2.7c-0.3-0.3-0.5-0.5-0.8-0.8c0.5-3.1-2.3-1.9-3.5-2.7
		c-6.4-5.4-12.3-11.4-17.4-18.1c-0.5-3.3-1.7-6-5.2-7.1l0,0c-0.5-0.9-0.8-2-1.8-2.6l0.1,0c-0.4-0.5-0.5-1.1-0.4-1.8
		c-0.1-6.1-1.9-11.4-6.8-15.6c-0.1,2.1,3,3.3,1,5.5c-0.6,0.2-1.2,0.1-1.8-0.3c-10-17-16.9-35-18.1-54.8c-1-2.6,0.3-5.4-0.7-8
		c-0.2-10.5-0.8-21.1,1.7-31.4c0.5-0.7,1-1.5,2-0.8c0.7,0.6,0.6,2,2.1,2.3c-0.7-5.8,3.3-10.6,2.6-16.4c-0.2-1.8-0.2-3.5-2.4-4
		c-1.3-1.5,0.7-3.1,0-4.7c1.7-9.4,4.7-18.4,7.9-27.3c3.2-8.9,6.3-17.9,10.8-26.4c0.4-0.8,0.3-2,0.5-3c0.1-3.9,1.6-7.2,3.7-10.4
		c2.5-4.2,4.8-8.5,7.3-13.5c-8.5-0.7-16.6,0-24.6-0.4c-2.8-0.8-5.7-0.6-8.6-0.8c-2.5-0.2-4.9-0.6-6.9-2.2c-2.1-3.4-5.2-4.9-9.2-4.7
		c-1,0.1-2,0-3,0c-2.1-0.1-4.3-0.6-4.5-3.1c-0.2-2.8,2.4-2.3,4.1-2.7c2.5-0.6,4.9-1.7,7.6-2.4c-6.4-2-11.4,1.6-16.6,3.5
		c-4.3,1.6-7.5,1-10.8-1.9c-1.4-1.3-2.4-2.4-5-0.9c-2.2,1.3-5.1-1.4-7.8-1.8c-2.2-2.5-4.2-4.8-8.1-5c-3-0.2-3.2-2.2-0.5-5.6
		c-2.5,0.8-4.8,0.6-7,0.7c-2.8,0.1-4.3-1-4.5-3.8c-0.3-0.2-0.6-0.5-0.9-0.7c-1.7-1.3-3.7-0.6-5.5-1c-3.9-1.4-7.1-4.3-11.3-5.2
		c-10.1-5.5-17.9-13.5-24.7-22.5c-3.1-4.1-6.8-7.9-8.3-13c0.7-3.3-3-6-1.6-9.4c0.1-0.2,0.5-0.5,0.5-0.7c0-1.5,2.1,0.5,1.9-1.1
		c-0.2-1-0.9-1.8-2.2-1.7c-0.7,0.1-1.4,0.5-2.1,0.6c-1.4,0.1-2.3-0.9-3.3-1.4c-0.4-0.3-0.6-0.6-0.9-1c-0.4-0.8-0.5-1.7-0.5-2.6
		c0.1-2,1-3.9,0.7-6c-1.1-6.3-0.5-12.9-3.8-18.7c-0.9-3.1-0.4-6.3-0.4-9.5c-0.1,1-0.6,1.5-1.6,1.5c-3-2.5-1.1-5.1-0.1-8
		c-0.6,1-0.7,2.5-2.1,1.9c-1.4-0.6-0.9-1.9-0.8-3.3c-0.4,1.6,0.4,3.5-1.6,4.1c-2.1-7.2-2.5-14.7-3.3-22c2-4.8,0.1-9.7,0.3-14.6
		c0.6-12.1-0.3-24.3,0.5-36.5c0.1-1.6-0.1-3.2-0.8-4.7c0-2.4-0.6-4.8,0.8-7c1.1-2-0.2-4.3,0.8-6.3c0.6-9.7,2-19.1,5.8-28.2
		c1.7-4.2,2.4-9,3.5-13.5c4.9-19.1,15.4-34.6,30.1-47.4c4.9-4.3,10.9-7.4,16.4-11.1c1.3-0.3,2.2-1.4,3.3-2c0.3-0.2,0.7-0.3,1.1-0.4
		c3,0.1,5-1.8,7-3.6c4.6-2.6,9.8-3.4,14.7-5.2c0.7-0.1,1.3-0.2,2-0.3c0.7,0,1.4,0,2.1,0c1.2,0,2.3,0.1,3.3,0.9
		c0.8,2-0.6,2.5-2.1,2.9c-1.3,0.3-2.6,0.2-3.9,0.1c-0.4-0.1-0.8,0.1-1.2,0.4c0.5,0.1,1-0.2,1.5,0c4.7,1.8,9.6,0.5,14.4,0.9
		c8.4-0.4,16.7,0.7,23.6,0.4c-5.7,0.3-12.8-0.6-19.9-0.6c-2.3,0-5.4-0.1-3.9-4.1c4.4-1.8,8.9-0.5,13.4-0.9
		c9.5,0.1,18.7,2.3,27.9,4.7c0.6,0.3,1.2,0.7,1.7,1.2c3.1,3.4,7.6,3.8,11.7,4.6c6.2,1.2,12.3,3,17.9,5.8c2.8,1.4,5.2,0.8,7.7,1.4
		c1.3,0.1,2.5,0.6,3.8,0.9c4.8,2.1,10.1,3.2,14.4,6.4c5.5,3.3,10.6,7.4,17.2,8.5c1.3,0.2,2.3,1.2,3.5,1.6c1.5,0.8,1.8,1.8,0.5,3.1
		c-1.1,0.8-2.5,0.6-4.4,1c2.2,1.1,4,2,5.9,2.3c3.6,0.6,6.5,2.3,9.4,4.3c1.2,0.8,2.6,1.3,4,1.5c0.9,0.2,2,0.6,1.8-1.1
		c4.4,1.8,9.2,2.5,13.3,4.9c1.5,0.8,3.1,2.1,2.3,4.2c-0.8,1.9-2.5,2.6-4.5,2.8c-1.8,0.2-3.3-0.8-5.2-1c5.2,3.3,7.7,2.7,11-2.3
		c0.6-0.9,1.2-1.6,2.1-2.2c3.1-1.8,3.5-4.8,3.3-8c-0.4-5.2,2.7-7,8.3-7c-2.9-2.7-4.7-2-6.5-0.6c-2.3,1.9-4.7,2.8-7.3,0.5
		c-3.2-14.1-4.5-28.4-7.6-42.5c-1.2-5.4-2.2-10.7-1.8-16.3c0.1-1.4,0.1-2.9,1.4-3.8c0.7-0.3,2.3,1.7,2.2-0.9
		c-0.2-3.3,0.4-6.6-0.6-9.8c-0.3-3.7-1.9-7.2-0.6-11.1c0.3-0.9-1,0.7-1.5-0.4c-0.8-1.6-0.7-3.4-1.3-5c-0.7-5.2-0.2-10.4-0.3-15.7
		c-0.1-3.3,0.2-6.7-1.1-9.9c-0.4-0.9-0.4-2-0.1-3c1.8-5.9,0.9-12.1,2-18.1c1.7-8.9,2.8-17.9,7.3-26c1-1.7,0.9-3.6,1.4-5.5
		c0.7-2.9,1.3-5.8,3.7-8.1c2.1-2.1,1.9-5.4,2.7-8.1c0.4-2.7,1.9-5,3-7.5c2.1-3.9,4.3-7.7,7.2-11c3.3-1.8,4.5-5,5.7-8.1
		c0.2-0.6,0.5-1.1,0.9-1.6c0.2-0.3,0.5-0.7,0.8-1c2.3-2.8,5.2-5,7.7-7.7c3.9-3.2,7.6-6.7,12.7-8c4.9-0.5,8.7-3,12.4-6
		c0.7-0.6,1.4-1,2.3-1.1c4.2-0.5,8.6-0.6,11.8-4.1c1.1-1.1,2.5-1.3,4-1.4c3.5-0.1,7.1,0.6,10.4-1.3c1.1-0.6,2.5-0.4,3.8,0
		c3.2,1.8,6.5,2.1,9.9,0.4c0.4-0.2,0.8-0.4,1.3-0.4c4.6-0.4,9.2-0.4,13.8,0.4c8.8,0.6,17.5-1.7,26.3-0.2c4,2.9,8.4,0.8,11.2,1.2
		c-2.4,0.3-6.3,0.9-10.1-0.3c-4-2.1-8.4-1.9-12.5-1.4c-5.3,0.8-10.5,0.4-15.8,0.5c-4.5-1-9.2,0.2-13.7-0.9c-0.8-2.5,1.6-2.1,2.7-3
		c11.1-2,22.2-1.7,33.3-0.5c2,0.2,4.1,0,6.1,0.3c1.8,0.4,3.6,0.9,5.5,1c0.4,0.1,0.9,0.2,1.3,0.3c2,0.5,4.1,0.9,6.1,1.2
		c0.4,0,0.9,0,1.3,0.1c3.5,0.3,6.8,1.6,10.2,2c1.2,0.3,2.4,0.6,3.7,1c1.9,0.7,3.9,1.3,5.9,1.7c0.4,0.1,0.8,0.2,1.2,0.3
		c9.6,3.5,19.4,6.6,28.3,11.6c0.4,0.2,0.7,0.4,1.1,0.6c3.9,1.9,7.5,4.3,11.1,6.8c0.9,0.7,2,1.3,2.8,2.1c0.6,0.6,1,1.3,1.3,2
		c0.5,2,2.1,2.6,3.8,3c1,0.5,1.7,1.2,1.8,2.3c0,1.3-0.9,2.4-1.1,3.8c1.4-0.9,2.8-1.4,4.4-0.9c3.9,1.6,6.1,5.1,8.1,8.2
		c5.4,8.7,11,17.3,15.4,26.5c0.7,1.6,1.5,3.1,1.7,4.9c0.3,5.3,2.5,10,4.4,14.8c0,2.9,0.7,5.6,2,8.3c1.9,3.8,1.4,8.2,2.3,12.2
		c0.3,1.4,0.3,2.9,1.7,3.7c0.8,0.9,1.1,2,1.5,3c0.3,0.9,0.4,1.8,0.4,2.7c0,0.7,0,1.3,0,2c0.1,2.2-0.4,4.4,0.9,6.4
		c1.3,2.4,0.5,5.2,1.5,7.7c0.2,4.6,0.7,9.2,1.2,13.7c-0.2,6.5,0.3,13-0.3,19.5c-1.2,2-1.5,4.1-1.2,6.4c-0.4,1.6-0.3,3.4-0.9,5
		c-1.2,1.5-1.4,3.3-1.6,5.1c-0.1,1,0.8-0.2,1.1,0.3c1.3,1.6,1.3,3.9,3,5.3c0,1.6,1,2.7,2.3,3.5c0.6,0.6-0.1,2.2,1,1.9
		c1.1-0.3,0-1.4,0-2.2c0.4-2,0.8-4,2.9-5.1c0.9,0.4,1,1.3,1.6,2.7c0.1-2.4,0.2-4.1-0.9-5.6c-0.6,0,0.6-2.2-1.1-1
		c-0.7,0.5-1.3,1.2-2.3,0.7c-0.4-0.5-0.5-1.1-0.4-1.7c2-3.6,5.8-5.1,8.7-7.6c1-0.8,1.9-1.6,3-2.2c9.9-7,20.5-12.9,31.3-18.3
		c1.4-0.7,2.8-1.4,4.3-1.9c8.5-4.2,17.2-8,26.2-11.2c24.4-8.8,49.4-14,75.4-13.2c14.2,0.4,28.3,2.7,41.9,7.3
		c1.2,0.4,2.5,0.7,3.4,1.8c0.2,2.1-1.7,0.8-2.3,1.5c-0.3,0.2-0.6,0.6-1.1,0.5c0.6,0.1,0.9-0.5,1.4-0.6c2.9,0,5.7,1.4,8.7,1.1
		c5.6,1.5,10.7,4.3,15.8,6.9c15.1,8,28.1,18.7,40.3,30.6c1.4,1.3,2.3,2.9,3.3,4.6c0.3,3.5,2.6,5.4,5.4,6.9c0.3,0.3,0.5,0.6,0.7,1
		c0.7,2,1.8,3.7,3.5,5.1c2.5,6.6,8.8,10.8,11.1,17.7c0.9,2.9,4.9,4.5,6,8c0.4,1.3,1.5,2.5,0.8,4c-0.3,0.4-0.8,0.8,0,1.3
		c2.8,1.6,3.3,4.7,2,6.8c-2.2,3.5-1.3,6.9-1.2,10.5c0.2,3.9,0.7,7.7,1.4,12.1c1.9-2.1,1.2-3.8,0.9-5.4c-0.5-2.4-1.2-4.8-0.9-7.3
		c0.1-1.2,0.4-2.4,1.7-2.8c1.3-0.4,2.1,0.4,3,1.2c3.4,2.8,4.3,6.5,4.5,10.6c0.5,0.5,1.2,1.1,1,1.8c-0.7,2.3,1.2-0.2,1.2,0.7
		c1.4,1.9,2.2,3.9,0.9,6.2c1,11,0.7,22,0.9,33c0,4.4-0.9,8.5-2.6,12.6c-1.3,0.6-1.3,0.6-0.2,2.3c-2.9,15.2-9.5,28.8-17.4,41.9
		c-1.4,0.8-1.7,2.4-2.5,3.6l0-0.1c-1.9,2.9-4.9,5-5.5,8.6c-1.3,1.8-2.7,3.6-4,5.3c-3.2,1.4-4.4,4.5-6.2,7.1c-1.6,2-2.9,4.3-5,6
		c-1.2,0.9-2.5,1.7-2.9,3.3c-0.3,0.3-0.6,0.6-0.9,1c-3.4,0.9-4.7,4.1-6.8,6.4c-2,2-4,3.9-6,5.9c-4.6,1.1-7,4.8-9.7,8.1
		c-1.5,1.6-2.7,3.6-5.1,4.2c-4,0.9-6.2,4.5-9.4,6.6c-1,0.7-1.7,2.4-0.1,3.7c2.5,1.1,4.5,2.8,5.9,5.1c0.4,1.2-0.5,1.5-1.3,1.7
		c-1.2,0.4-2.6-0.9-3.7,0.2c-0.4,0.4-0.1,1.2,0.3,1.5c1.9,1.6,3.1-0.6,4.6-1c2.6,0.5,4.8,1.7,5.4,4.6c-2.3,4.7,1.5,3,3.5,3.3
		C866.5,578.4,867.3,579.8,868.7,580.1z"/>
	<path style="fill:#ECDCDF;" d="M825.7,280.9c-11.2-4.5-23-6.6-35-7.9c-25.7-2.8-50.5,1.5-75,8.8c-3.7,1.1-7.4,2.3-11.2,3.5
		c-9.2,2-17.6,5.7-25.4,11c-12.5,5.8-24.3,12.7-35.8,20.3c-3.2-2.3-3.5-6.2-5.1-9.4c-1.2-2.5-2.1-5.1-3.3-7.6
		c-0.4-0.8-0.7-1.5-1.1-2.3c-1.7-5.1-5.6-9.3-5.9-14.9c-0.3-4.1-0.5-8.3-1-12.4c-0.6-3.3-1.4-6.5-3.6-9.1c0-0.8-0.1-1.7-0.1-2.5
		c-0.5-7.2-3.5-13.9-3.9-21.1c-0.2-3-3-5.5-3.6-8.6c-2.2-3.8-3.3-8.1-4.6-12.3c-3-8.3-7.6-15.7-12.2-23.1
		c-3.6-5.7-6.6-11.8-12.2-16.1c-1.4-0.9-3.2-1.4-3.4-3.5c-0.6-0.6-1.2-1.1-1.8-1.7c-0.3-0.2-0.6-0.5-0.8-0.9c-0.1-3-2.5-3.4-4.6-4.3
		c-0.8-0.6-1.7-1.2-2.5-1.8c-3-3.5-6.9-5.7-11.4-7l0,0c-0.5-0.5-0.5-1.1-0.3-1.8c0.6-1.4,2-1.9,3.7-3c-7.4-2.3-14.6-4.1-21.2-9.5
		c1.2,1.7,2.9,1.6,2.5,2.9c-0.5,1.8-2.4,1.3-3.6,1.7c-3.8,0.2-7-2.1-10.6-2.6l0,0c-1.7-1.7-4.2-0.8-6.2-1.8
		c-1.2-0.2-2.5,0.3-3.4-0.7c-3.7-0.9-7.2-2.9-11.2-2.1c-0.3,0-0.6,0-0.9,0c-0.7-1.1-0.4-1.7-0.1-1.8c-1.3,0.6-3.7,1-6.1,0.2l0,0
		c-1.6-1.2-3.7,0.1-5.3-0.8c-10.3-0.6-20.7-1.4-31.1-0.9c-3.3,0.2-6.6,0.6-9.9,0.9c-8.9,2.7-18.2,3-27.1,5.1
		c-1.2,0.1-2.5-0.3-3.4,0.8c-3.7,2.6-8.2,3-12.3,4.4c-0.6,0.2-1.1,0.5-1.7,0.7c-4.3,2.3-8.5,4.6-13,6.3c-4.6,1.8-8.1,5.2-12.2,7.9
		c-2.6,2.6-6.6,3.8-7.9,7.8l-0.1,0c-1.3,0.6-1.7,1.8-1.9,3.1c-1.3,2.8-2.9,5.3-5.1,7.4c-2.2,3.5-4.5,7.1-6.7,10.6
		c-2.7,3.1-4.3,6.8-5.5,10.7c-0.1,0.4-0.3,0.8-0.5,1.2c-1.4,1.7-1.8,3.9-2.4,5.9c-1.4,4.4-2.9,8.8-4.5,13.2
		c-3.5,9.7-5.7,19.7-6.9,29.9c-1.5,12.2-2.1,24.5-1.9,36.9c0.1,3.9,1,7.8,0.9,11.7c0,0.7,0,1.5,0,2.2c0,2.3-0.3,4.7,0.5,7
		c0.2,0.9,0.3,1.9,0.4,2.8c-0.2,3.1,1.4,6.1,0.6,9.2c-0.6,2.5-1.4,4.9-1.4,7.4c0.8-0.7-0.7-2.4,1-2.9c2.5,2,1.2,4.9,1.6,7.3
		c1.9,10.5,4.2,21,5.3,31.7c0.1,6.8,1.6,13.4,1.2,20.2c-2,1.2-3.4,2.9-4.4,5c-3.9-0.1-7.3-2.5-11.1-3c-0.4-0.1-0.8-0.3-1.1-0.5
		c-1.6-1.3-3.7-1.9-4.6-4c-1.4-2.9-4.3-3.4-6.9-3.7c-3-0.4-5.1-1.7-7.1-3.7c-0.9-0.9-2.5-1.4-1.9-3c0.7-1.8,2.3-2.4,4.2-2.6
		c1.9-0.2,3.4,1.5,6.1,0.9c-2.7-2.1-5-2.9-7.8-1.6c-1.5,0.6-3,1.1-4.6,1c-4-0.9-7.7-2.9-11.9-3.2c-1.2-0.1-2.1-0.9-2.6-2
		c-0.5-4.7-1.6-9.5,0.8-14.1c1.8-3.5,1.1-7.3,1.6-11c2.3-19.3,5.6-38.5,10.2-57.4c4.4-17.9,10-35.3,17.3-52.1
		c5.6-12.6,12.2-24.8,19.8-36.4c4.7-7.2,9.8-14,15.3-20.3c5.1-5.8,10.6-11.4,16.5-16.5c11.4-9.8,23.8-17.9,37.5-24.1
		c13.1-5.9,26.8-9.7,41.1-11.7c10.2-1.4,20.5-2.5,30.6-2.3c35.9,1,69.7,9.8,99.9,30.1c26,17.5,46.4,40.1,62.5,66.9
		c6,10,10.6,20.6,15.7,30.9c3.7,7.4,3.5,7.4,12,4.8c15.7-4.8,31.8-8.3,48.2-10c14.4-1.5,28.8-1.5,43-0.4
		c18.2,1.4,36.1,5.7,53.3,12.6c24,9.7,45.9,23.2,66.8,38.2c13.1,9.4,25.1,20.3,36.6,31.6c12.1,11.8,23.3,24.5,33.5,37.9
		c9.9,12.9,19.2,26.3,27.5,40.4c1.3,2.2,0.7,3.1-0.7,4.3c-7.9,6.4-15.7,13.1-24.2,18.7c-1.4,0.9-2.2,2.2-3.2,3.4
		c-1.6,2.1-4.4,1.5-5.5-0.8c-2.8-5.7-6.1-11.3-10.9-15.3c-3.6-3-7.3-5.6-9.6-9.7c-0.6-1.1-1.9-1.2-3.1-1.1c-0.5-2.1-0.5-4.4-1.8-6.3
		c-1.1-1.9-2-3.8-2.1-6c-1.1-5-3.9-9.3-5.4-14.1c-1.5-2.8-2.2-6-4.1-8.6c-0.2-0.3-0.4-0.7-0.5-1.1c-1.3-4.6-4.8-8.1-6.3-12.5
		c-0.7-6.4-4.5-10.7-9.5-14.2c-1.1-0.6-2.1-1.1-2.9-2.1c-0.6-2.4-3.1-3.5-4-5.8l0,0c-2.1-2.3-4.5-4.4-6.1-7.1
		c-16.1-18.7-35.5-32.7-58.5-41.7C830.4,282.4,827.4,283.3,825.7,280.9z"/>
	<path style="fill:#EDDCDF;" d="M126.9,604.6c6.6,12.5,15.8,22.7,27,31.2c1.7,1.3,3.6,2.4,5.3,3.6c2.7,1.6,6,2.5,6.9,6.1
		c-2.7,1.1-4-1.4-6-2.3c1.5,2.5,3.5,3.3,6.2,2c3.1-0.5,5.1,1.6,7.4,2.9c4.9,3.3,10.3,5.8,15.5,8.5c1.6,0.8,3.6,1.4,4.1,3.5
		c-0.7,0.8-1,1.9-2.2,2.2c-2.6-1.9-5.1-4.1-8.9-3.3c-1,0.2-3.2-0.1-2.9-2.6c0.2-1.5-1.6-1.8-2.7-2.3c-3-1.3-6.2-2.2-9-4.2
		c-0.9-0.7-2.5-1.1-3.1,0.2c-0.7,1.5,0.9,1.9,1.9,2.3c1.1,0.4,2.1,1.4,3.2,1.2c6-0.6,9.2,3.8,13.1,7c2.3,2,5.1,1.8,7.7,2.5
		c1,0.5,2.1,1,2.1,2.4c0,0.3-0.6,0.9-0.1,0.8c4.7-1.3,8.4,2.2,12.7,2.6c1.5,0.1,2.9,1,4.8,0.7c-5.4-1.1-10.2-3.1-14.5-6.1
		c-1.3-0.9-3-1.4-2.2-3.6c1.2-0.7,2.1-0.1,3.1,0.5c14.3,4.6,28.5,9.8,43.4,12.5c0.9,0.2,1.7,0.5,2.3,1.1c5,2.4,10.6,1,15.7,2.6
		c0.2,0.4,0.2,0.8-0.1,1.1c-2.2,1.1-4.5,0.4-6.4,0.6c2.9,0.4,6.2-0.4,9.5,0.2c3.8,1.4,7.7,0.9,11.6,1.4c1.9,0.2,4.3,0.6,1.7,3.4
		c-4.3,1.2-8.7,1.2-13,0.1c-3-2.8-6.7-0.9-9.3-1.4c2.3,0.4,5.5-1,8.5,0.8c0.8,0.8,1.1,1.9,1.1,3c0.1,1.1-0.2,2.2-0.3,3.4
		c1.6-2.5,4.2-2.8,6.2-1.6c3.7,2.2,1.1,5.7,1.2,8.7c1.8-1.2,1.5-3.2,1.9-4.9c0.4-1.6,0.3-3.9,2.8-3.6c2.4,0.2,2,2.4,2.2,4.1
		c0,0.3,0,0.6-0.2,0.8c-1.5,3.2-2.9,6.4-4.4,9.6c-0.2-2.2-2.3-2.3-3.6-2.5c-11.3-2-22.1-5.6-32.9-9.2c-26-8.8-51.6-18.8-74.8-34
		c-5.3-3.5-9.9-8.1-15-11.7c-9.3-6.7-17.2-14.6-25-22.8c-12.5-13.3-23.6-27.7-31.1-44.5c-2.5-5.5-2.5-6,2.6-9
		c4.6-2.7,9.5-5,14.9-5.8c2.6,0.1,1.8,2.4,2.4,3.9c-0.2-1.4-0.9-2.8,0.3-4.1c3.1,2,2.3,5.6,3.2,8.4c-2.8,5.8-1.3,11.2,1.3,16.6
		c0.9,1.9,2.3,1.9,3.9,1.8c1-0.1,1.5,0.7,2,1.3c0.2,0,0.5,0.1,0.7,0.1C123.2,594.8,124.7,599.9,126.9,604.6z"/>
	<path style="fill:#EEDBDF;" d="M302.3,352.5c0,4.9,0,9.9,0,14.8c-0.1,0.1-0.2,0.2-0.3,0.3c-0.1,0.1-0.3,0.1-0.4,0.2
		c4.1,0.5,7.6,2,10.8,4.8c1.6,1.4,2.7-0.7,3.8-1.8c1.3,0,2.5-0.1,3.7-0.9c3.5-2.3,6.7-0.1,9.6,1.5c1.2,0.7,1,2.5-0.9,2.8
		c-1.3,0.3-2.5,0.1-3.7-0.7c-2.4-1.7-4.5-1.3-6,0.9c3.1,5.5,9,4.9,13.7,6.9c1.9,0.8,2.5,1.6,1.9,3.5c-0.6,0.8-1.5,0.9-2.5,1
		c-3.5-0.2-6-2.9-9.2-3.7c-7.1-2.7-13.8-6.2-20.5-9.6c-4.7-2-9.3-4.1-14-6.1c-0.6-0.6-0.9-1.4-1-2.2c-0.2-1.3-0.3-2.8-2-2.5
		c-1.2,0.2,0.1,1.4-0.3,2.1c-0.4,0.5-0.9,0.8-1.5,0.8c-0.4,0-0.8-0.1-1.2-0.2c-1.2-0.6-2.4-1.3-3.7-1.6c-0.4-0.1-0.7-0.3-1-0.5
		c-1.1-0.6-2.3-0.1-3.4-0.6c-9.1-2.5-18.1-5-26.9-8.4c-0.3-0.3-0.6-0.5-0.9-0.8c-0.6-0.8-1.1-1.7-1.1-2.7c0.1-3-1.6-3.9-4.4-4
		c-5-0.2-9.8-2.2-14.9-2c-2,0.1-3.6-1.1-3.1-3.6c14.9-0.3,29.5,1.8,44.2,4C279.1,346.1,290.6,349.5,302.3,352.5z"/>
	<path style="fill:#E9DEE1;" d="M222.9,340.3c0.6,1.1,1,2.7,2.6,2.5c5.5-0.8,10.6,1.9,15.9,1.7c4.3-0.1,5.8,1.3,5.1,5.4
		c-0.5,0.5-1.2,0.6-1.9,0.5c-1.9-0.7-3.8-1.3-5.9-1c-5.5-0.4-10.8-1.7-16.1-2.9c-4-0.9-8.1-0.4-12.1-0.5c-1.6-0.1-3.2,0-4.8-0.4
		c-0.5-0.2-0.9-0.4-1.3-0.8c-0.7-1.3-0.6-2.4,0.3-3.6C210.6,339.2,216.8,340.7,222.9,340.3z"/>
	<path style="fill:#E77F99;" d="M108.5,549.8c0.9-1.3,0.9-2.9,1.2-4.6c1.4,0.7-0.1,2.7,1.5,3c1.4,0.2,0.4-1.8,1.6-2.1
		c0.8,2.9-1.4,5.9,0.2,8.7c2,2.2,0.7,5.6,2.6,7.8c2.4,2.3,3.1,5.6,3.3,8.6c0.2,3.6,0.8,7.1,1.1,10.6c-0.6,0.4-0.3,1.5-1,1.7
		c-1,0.3-1.2-0.6-1.3-1.2c-0.1-2.4-2.1-3.5-3.5-5c-1-0.9-1.5-2-1.9-3.2c-0.1-0.4-0.2-0.8-0.3-1.3c-0.2-4.1-2.4-7.8-2.5-11.9
		C110,557.2,108.5,553.5,108.5,549.8z"/>
	<path style="fill:#E77F97;" d="M901.6,834.8c-5.1-0.9-6.1,3.1-7.6,6.9c-2.8-2.9-2.1-6-1-8.9c1-2.7,3.5-1.3,5.3-1.4
		c4-0.2,5.8-2.3,6.6-8.8c0.5-3.6,3.3-5.5,5-8.2c0.9-1.4,2.3,0,3,1.2c1.1,1.5-0.5,2.5-0.8,3.7c0.1,1.2-0.6,1.9-1.5,2.5
		c-2.7,2.5-4.4,5.9-6.3,9C903.4,832.2,902.5,833.5,901.6,834.8z"/>
	<path style="fill:#EFDADE;" d="M188.9,348.1c-4.8,2.2-10.2,2.8-14.9,5.3c-2.5,1.4-5,2.8-7.8,3.4l0,0c-0.9,0.4-1.5,1.5-2.7,0.8
		c4.8-6.2,10.4-11.2,18.3-13C184.8,344.7,187.4,345.3,188.9,348.1z"/>
	<path style="fill:#EB7E96;" d="M933,758.1c-0.3,0-0.6,0-0.9,0c-0.8-1-0.8-2.1-0.8-3.3c0-11.9,0-23.8,0-35.7c0-0.9,0-1.7,0.5-2.5
		c2.7-1.6,2.3,0.6,2.5,2.1c1.1,6.3,0.8,12.7,0.9,19c0,1-0.2,2,0.4,3c0,1.2,0,2.3,0,3.5c-1,2,0.2,4.3-0.7,6.4c0,1.4-0.1,2.7-0.1,4.1
		C933.5,755.5,935.4,757.8,933,758.1z"/>
	<path style="fill:#EB7E98;" d="M105.2,472c1.7,1.5,1.7,3.6,1.7,5.6c0,12.2,0.5,24.4-0.3,36.5c-0.3,4.5,2.4,9.5-1.4,13.7
		c-0.1-2.5-0.1-5.1-0.2-7.6c-0.8-8.8-0.2-17.6-0.3-26.4c0-5.3-0.5-10.7,0.3-16C105.1,475.9,105.2,473.9,105.2,472z"/>
	<path style="fill:#E87E97;" d="M899.8,625.5c0.1,0.6,0.2,1.1,0.4,1.7c0.8,2.1,0.7,4.5-1.6,5c-1.9,0.4-2.3-2.2-2.7-3.7
		c-1.1-4.8-2.4-9.4-6.1-13.1c-2.3-2.3-1.8-4.9,0.4-7.3c0.1,0.2,0.1,0.5,0.1,0.7c0.6,1.4,1.2,2.7,2.2,3.9c0.3,0.5,0.6,0.9,1.1,1.3
		c1.9,1,2.1,3.3,3.8,4.5l0,0C898,620.8,900.9,622.4,899.8,625.5z"/>
	<path style="fill:#EA7D96;" d="M266.5,876.7c0-1.9-1.5-2.7-2.5-3.9c-0.7-0.8-1.4-1.8-0.4-2.6c1-0.9,2.2-0.6,2.9,0.6
		c2,3.4,6.1,5.5,5.5,10.3c-0.1,0.9,1.2,1.9,1.8,2.9c0.9,1.5,0.9,2.8-1.2,3.2c-2.5,0.1-2.3-3-4.2-3.6c-0.1-0.2-0.2-0.4-0.2-0.6
		C268.2,880.8,265.5,879.3,266.5,876.7z"/>
	<path style="fill:#E97F98;" d="M397.4,958.7c0.9-0.6,1.7-1.1,2.6-1.7c2.2-1.6,4.8-0.6,7.2-0.9c2.3-0.3,4.7,0.7,6.8-0.9h0
		c2.2-1.6,4.8-0.6,7.2-0.9c2.3-0.3,4.7,0.7,6.8-0.9c2.2,0,4.5-0.3,6.1,1.7c-5.3,2.2-11.1,2.3-16.6,3.5c-0.2,0.1-0.4,0.1-0.6,0.1
		C410.3,959.1,403.9,959.6,397.4,958.7z"/>
	<path style="fill:#EA7F95;" d="M776.8,883.7c2,0,4.1,0,6.1,0c2.8,1.4,5.7,0.7,8.6,0.9c6,0,12.1-0.1,18.1,0.1
		c2.1,0.1,4.8-0.4,5.6,2.6c-6.4,0.7-12.9,0.1-19.3,0.3c-1.7,0.1-3.4-0.3-5.1,0.3c-2.2,0.6-4.1-0.7-6.1-0.8c-2.6-0.6-5.3-1-7.9-1.6
		C776.3,884.9,776.3,884.3,776.8,883.7z"/>
	<path style="fill:#DF8491;" d="M815.2,887.2c-4.3-2.5-9-1.6-13.5-1.7c-3.6-0.1-7.3,0-10.9,0c-0.5-0.6-0.5-1.2,0-1.7
		c9.3,0,18.6,0,27.9,0c0.5,0.5,1.1,1,1.2,1.8c0.1,0.9-0.6,1.2-1.2,1.7c-0.2,0.1-0.4,0.2-0.7,0.1
		C817.1,887.7,816.1,887.8,815.2,887.2z"/>
	<path style="fill:#D48497;" d="M397.4,958.7c6.5,0,12.9,0.1,19.4,0.1c-0.7,1-1.9,0.7-2.8,0.9c-5.2,0-10.5,0-15.7,0
		c-9.5-0.6-18.8-2.1-28-4.5c7.9-0.5,15.5,0.4,22.9,3.2C394.4,959,396,958.6,397.4,958.7z"/>
	<path style="fill:#EADADA;" d="M188.9,348.1c-2.3-1.2-4.7-2.4-7-3.5c0.6-1,1.7-0.8,2.7-0.8c3.7,0.3,7.3-0.7,11-0.6
		c3.1,0.1,6.3-0.4,9.1,1.5l0,0c0.6,0.7,1.5,0.7,2.3,1c0.9,0.3,2,0.7,0.8,2c-2.1-0.3-4.2,0.8-6.3,0.5c-3.6-0.5-7.2-1.8-10.8-0.1
		C190.1,348,189.5,348.1,188.9,348.1z"/>
	<path style="fill:#F3D8DD;" d="M204.6,344.6c-5.3,0-10.6,0-16,0c-1.4,0-2.9,0.5-4.1-0.8c6.5-2.2,13.3-2.4,20-2.6
		C204.6,342.3,204.6,343.4,204.6,344.6z"/>
	<path style="fill:#DA8494;" d="M657.3,833.1c2.9,0.3,5.5,0.1,7.1-3.4c-0.8,6,6.9,6.8,6.8,12.3C666.2,839.6,662,836.1,657.3,833.1z"
		/>
	<path style="fill:#D58095;" d="M935.5,740.6c-1.6-2.5-0.8-5.3-0.7-7.9c0.2-4.9-0.9-9.6-1-14.5c0-1.2-0.5-1.9-1.7-2
		c-0.2-0.2-0.3-0.4-0.5-0.5c-0.7-2.2-0.4-4.3,0.5-6.4c0-2.1,0.1-4.2,0.1-6.3C935.4,715.3,936.1,727.9,935.5,740.6z"/>
	<path style="fill:#E58098;" d="M923.6,673.5c-2.6,1.1-3.8,1.2-5-2.4c-1.3-3.8-2.2-7.4-2.1-11.3c0-1.3-0.4-2.6,1.5-2.9
		c0.3,1.2,0.6,2.3,0.9,3.5c-0.6,4.9,2.6,8.3,4.7,12.1C924.2,672.9,924.3,673.2,923.6,673.5z"/>
	<path style="fill:#D38594;" d="M249.1,781.6c-0.6,0.3-1.2,0.6-1.8,0.9c0.7-8,1.9-15.9,4.4-23.5c1.8,1.5-0.2,2.9,0,4.4
		c0.5,0.6,0.7,1.2,0.6,1.9c-0.5,2.3-0.2,4.6-0.4,6.9C251.3,775.4,251.6,779,249.1,781.6z"/>
	<path style="fill:#D58595;" d="M922.6,799.3c-0.3-3.7-0.2-7.2,2.7-10c0.7-0.7,0.8-1.6,0.6-2.4c-1.1-3.5,1-4.9,3.6-6.2
		C927.8,787.2,926,793.5,922.6,799.3z"/>
	<path style="fill:#D18597;" d="M105.1,477.8c0,14.1,0,28.2,0,42.3c-0.9-0.7-0.8-1.8-0.8-2.8c0-12.2,0-24.5,0-36.7
		C104.3,479.6,104.2,478.6,105.1,477.8z"/>
	<path style="fill:#D48497;" d="M417.4,958.7c5.3-2.1,11.1-2.3,16.6-3.5c2-2.6,4.7-1.6,7.2-1.6C433.7,957.1,425.7,958.5,417.4,958.7
		z"/>
	<path style="fill:#D98596;" d="M301.2,920.4c3.3-0.3,6.2-0.2,7.4,3.9c0.6,2.3,4.3,2.1,5,4.7c-0.4,0.4-0.7,0.4-1.2,0.1
		C308.6,926.4,304,924.5,301.2,920.4z"/>
	<path style="fill:#D38595;" d="M911.4,642.8c-3.2-0.5-3.7-3.2-4.6-5.6c-0.6-1.4-0.5-3.8-3.3-2.5c-0.8,0.4-1.3-0.4-0.8-1.3
		c0.7-1.2,1.9-2.2,1.6-3.8C907.1,633.8,909.6,638.1,911.4,642.8z"/>
	<path style="fill:#D58499;" d="M746.1,878.5c6.3-1.1,11.6,1.4,16.7,4.6C756.9,882.7,751.5,880.7,746.1,878.5z"/>
	<path style="fill:#E38095;" d="M923.6,672.5c-3.1-3.5-7.4-6.5-4.7-12.1C920.7,664.4,923.3,668,923.6,672.5z"/>
	<path style="fill:#D48699;" d="M865,548.2c2-4.2,3.6-8.8,9.7-8.1C871.9,543.2,868.9,546.3,865,548.2z"/>
	<path style="fill:#D28595;" d="M587.6,816.7c0.6-5.3,2.8-10.1,4.7-15c0.4-1,1-1.8,2.2-1.8C592.8,805.8,590.6,811.4,587.6,816.7z"/>
	<path style="fill:#D88497;" d="M850.4,562.6c-2-2.1-1.8-3.7,0.7-5.5c1.7-1.3,4-2,5-4.4c0.4-1.1,2.5-1.2,3.9-0.4
		c-1.8,2.5-4.6,3.7-6.9,5.6C851.6,559.1,849.4,560,850.4,562.6z"/>
	<path style="fill:#D08496;" d="M815.2,887.2c0.9,0,1.9,0.1,2.8,0.1c-4.2,1.7-8.6,0.7-12.8,0.8c-4.8,0.2-9.6-0.1-14.4-0.2
		c4.2-1.6,8.5-0.5,12.7-0.7C807.4,887,811.3,887.2,815.2,887.2z"/>
	<path style="fill:#D38694;" d="M274.3,891.7c3.8-0.8,6.4,2.7,5.2,7.1C277,897,275.6,894.4,274.3,891.7z"/>
	<path style="fill:#D18499;" d="M861.5,574.9c-1.2-2.1-3.1-3.4-5.2-4.4c-1-0.1-2.1-0.2-1.7-1.7c0.8,0,1.5-0.3,1.8-1.1
		c2.4,2.8,6.5,4,7.8,7.8c0.2,0.2,0.3,0.5,0.3,0.7c0,0.3-0.1,0.4-0.2,0.4C862.6,577.1,862.1,575.9,861.5,574.9z"/>
	<path style="fill:#F6D3DA;" d="M109.5,560.9c1.6,3.9,2.6,8,3.5,12.2c-1.8,0.6-1.9,0.5-1.7-1.7c-0.9-2.9-1.7-5.8-2.6-8.7
		c-0.6-0.6-0.5-1.1,0-1.7C109,561,109.2,561,109.5,560.9z"/>
	<path style="fill:#D48894;" d="M323.8,936.1c1.8,0.1,2.9-0.7,3.6-2.3c0.5-1,1.3-1.7,2.3-0.7c0.8,0.8,0.7,2.1-0.3,2.6
		c-1.4,0.6-2,1.5-1.8,2.9C326.1,938.1,324.7,937.5,323.8,936.1z"/>
	<path style="fill:#D5859B;" d="M880.7,534.2c1.3-3.1,2.1-6.9,6.8-6.4C885.5,530.1,883.8,532.9,880.7,534.2z"/>
	<path style="fill:#D08495;" d="M545.7,880.4c0-0.6,0-1.3-0.1-1.9c1.2-2.7,2.5-5.4,5.2-7c0.7,0,1.3,0.1,2,0.1
		C551,874.9,548.7,878,545.7,880.4z"/>
	<path style="fill:#D08695;" d="M532.6,894.2c1.9-2.8,2.1-7.3,7.1-7C537.6,889.8,535.4,892.3,532.6,894.2z"/>
	<path style="fill:#CE8896;" d="M896.4,517.5c1.1-3.2,1.8-6.8,6.2-7.1C900.7,512.9,899.1,515.7,896.4,517.5z"/>
	<path style="fill:#D58295;" d="M904.3,830.8c1.1-3.7,2.6-7.1,6.3-9C908.8,825.1,907.1,828.3,904.3,830.8z"/>
	<path style="fill:#CF8397;" d="M906.7,505.1c-0.2-4.2,2.8-6.3,5.5-8.6C911.3,499.9,908.2,502,906.7,505.1z"/>
	<path style="fill:#D98596;" d="M296.9,916.9c0.7,0,1.5-0.2,2.2-0.1c1.1,0.2,1.8-2.2,2.9-0.8c1.2,1.6-0.8,2.5-1.5,3.6
		C299.3,918.7,298.1,917.8,296.9,916.9z"/>
	<path style="fill:#BE8791;" d="M776.8,885.4c2.7,0,5.4,0.3,7.9,1.7c-3.9,0.2-7.8-0.4-11.5-1.6c0.3,0,0.7-0.1,1-0.1
		C775.1,884.7,776,884.7,776.8,885.4z"/>
	<path style="fill:#CE8395;" d="M473.3,939.6c2-3.4,5.3-4.5,8.8-5.3C479.6,936.7,476.4,938.1,473.3,939.6z"/>
	<path style="fill:#CF8795;" d="M899.8,625.5c-0.9-2.4-1.7-4.7-2.6-7.1c2.1,2,3.8,4.2,4.3,7.1C901,625.5,900.4,625.5,899.8,625.5z"
		/>
	<path style="fill:#D08497;" d="M931.3,773.1c-1.3-3.1-0.2-5.6,1.6-8.1C933.3,767.9,932.6,770.6,931.3,773.1z"/>
	<path style="fill:#D08798;" d="M897.3,618.4c-2.6-0.2-2.5-3.3-4.5-4.3c-0.2-0.9,0.2-1.2,1-0.9C895.9,614.4,896.9,616.3,897.3,618.4
		z"/>
	<path style="fill:#CC8696;" d="M818.7,887.1c0.3-0.6,0.6-1.1,0.9-1.7c1.7-1.4,3.4-0.9,5.2-0.1c0.9,0,1.9,0.1,2.8,0.1
		C824.8,886.7,821.7,886.9,818.7,887.1z"/>
	<path style="fill:#CD8596;" d="M933,758.1c1.4-0.8,0.3-2.7,1.7-3.5c0.4,3.4-0.3,6.7-1.6,9.8C933,762.3,933,760.2,933,758.1z"/>
	<path style="fill:#D18397;" d="M879.9,593.9c2,1.3,3.3,3.1,4.3,5.2c0.4,0.4,0.4,0.8,0,1.2c-3.2-0.8-5-2.7-4.4-6.2L879.9,593.9z"/>
	<path style="fill:#F77999;" d="M932,451c-1.6-0.2-1.7-1.3-1.6-2.5c0-0.8-0.3-2.1,0.7-2.1c1.5-0.1,0.8,1.5,1.1,2.3
		C932.1,449.4,932.1,450.2,932,451z"/>
	<path style="fill:#DAE1DB;" d="M108.7,561c0,0.6,0,1.1,0,1.7c0,1.4,0,2.8,0,5c-1.3-2.1-1.1-4.1-2.6-5
		C106.9,562.1,107.8,561.5,108.7,561z"/>
	<path style="fill:#CE8792;" d="M330,939.6c2.7,0.1,5,0.9,6.3,3.5C334.1,942,331.5,941.9,330,939.6z"/>
	<path style="fill:#CA8797;" d="M266.5,876.7c0.1,2.2,2.2,3.9,1.7,6.3c-1.2-2.1-2.4-4.2-3.7-6.3
		C265.2,876.8,265.9,876.7,266.5,876.7z"/>
	<path style="fill:#CF8698;" d="M682.4,848.9c2.6,0.3,5.1,0.7,6.2,3.6C686.2,852,684.4,850.3,682.4,848.9z"/>
	<path style="fill:#C78490;" d="M515.1,910.6c0-3,2.2-3.7,4.6-4.2C518.4,908.1,517.1,909.7,515.1,910.6z"/>
	<path style="fill:#CA8596;" d="M853.6,876.8c1-3.1,3.6-3.4,6.3-3.5C857.8,874.5,855.7,875.7,853.6,876.8z"/>
	<path style="fill:#D08597;" d="M864.1,576.6c0-0.4,0.1-0.7,0.1-1.1c2.2,0.8,2.9,3.1,4.5,4.5c-1.7,0.5-2.7-0.6-3.7-1.7
		C864.3,578,864,577.4,864.1,576.6z"/>
	<path style="fill:#C58590;" d="M268.4,883.6c2.5-0.1,2.4,2.9,4.2,3.6c0,0.6,0,1.2,0,1.8C270.4,887.9,269.6,885.6,268.4,883.6z"/>
	<path style="fill:#D08395;" d="M884.1,600.2c0-0.3,0-0.7,0.1-1c1.8,1.4,2.9,3.2,3.7,5.3c-0.7-0.3-1.4-0.5-2-0.8
		C884.3,603,883.6,601.9,884.1,600.2z"/>
	<path style="fill:#CA8792;" d="M912.1,819.3c0.3-1.2,0.5-2.5,0.8-3.7c0.9-0.5,1.2-1.9,2.6-1.8C914.6,815.8,914.1,818,912.1,819.3z"
		/>
	<path style="fill:#BF8699;" d="M245.7,813.9c1.6,2.5,0.5,5.3,0.7,8C244.8,819.4,245.8,816.6,245.7,813.9z"/>
	<path style="fill:#CF8596;" d="M577.1,836.8c-0.2-2.6,1-4.4,3.4-5.4C579.7,833.4,578.6,835.2,577.1,836.8z"/>
	<path style="fill:#D08695;" d="M529.2,897.8c-0.3-2.6,0.8-3.9,3.5-3.6C531.8,895.7,530.6,896.9,529.2,897.8z"/>
	<path style="fill:#D58095;" d="M934.8,750.5c0.2-2.1-0.8-4.4,0.7-6.4C935.5,746.3,936.2,748.5,934.8,750.5z"/>
	<path style="fill:#D18496;" d="M336.3,943.1c1.8,0,3.7-0.5,4.4,2C339,944.8,337.4,944.4,336.3,943.1z"/>
	<path style="fill:#C4879C;" d="M106.8,458.7c-0.2,2.1,0.9,4.4-0.8,6.3C106.1,462.8,105.4,460.6,106.8,458.7z"/>
	<path style="fill:#E38095;" d="M892,613.3c-1.4-1.2-1.8-2.7-1.7-4.5c0.6,0.6,1.2,1.1,1.7,1.7C892.6,611.4,892.8,612.4,892,613.3z"
		/>
	<path style="fill:#CF8397;" d="M912.1,496.5c0.2-1.7,0.4-3.2,2.5-3.6C914,494.3,913.6,495.7,912.1,496.5z"/>
	<path style="fill:#CD8496;" d="M483.7,933.4c0.8-1.5,1.8-2.7,3.8-2.5C486.5,932.1,485.6,933.5,483.7,933.4z"/>
	<path style="fill:#C78793;" d="M888.5,526.8c-0.2-2.2,1.2-2.9,2.9-3.3C891,525.1,889.6,525.8,888.5,526.8z"/>
	<path style="fill:#C6889D;" d="M469.9,941.5c0.1-2.6,2-1.8,3.5-1.9C472.4,940.7,471.2,941.1,469.9,941.5z"/>
	<path style="fill:#C68390;" d="M892,613.3c0-0.9,0-1.9,0-2.8c1.1,0.6,1.8,1.4,1.9,2.7c-0.3,0.3-0.7,0.6-1,0.9
		C892.6,613.8,892.3,613.6,892,613.3z"/>
	<path style="fill:#CF8895;" d="M312.5,929.2c0.4,0,0.8-0.1,1.2-0.1c1.6,0.1,2.5,0.9,2.6,2.6C315,930.8,313.8,930,312.5,929.2z"/>
	<path style="fill:#D38694;" d="M272.5,889c1.9,0,1.9,1.3,1.8,2.6C273.1,891.2,272.5,890.3,272.5,889z"/>
	<path style="fill:#C9849D;" d="M916.5,812.3c-0.1-1.6,0-3,1.9-3.6C918,810.1,917.5,811.3,916.5,812.3z"/>
	<path style="fill:#C08996;" d="M731.3,873.3c1.4,0.1,3.2-0.8,3.6,1.6C733.8,874.2,732.2,874.4,731.3,873.3z"/>
	<path style="fill:#BC8893;" d="M455.8,948.2c0.4-2.4,2.3-1.6,3.7-1.7C458.6,947.8,457,947.6,455.8,948.2z"/>
	<path style="fill:#D690A1;" d="M163.6,357.6c0.9-0.3,1.8-0.5,2.7-0.8c-0.7,1.7-2.1,1.9-3.6,1.7
		C162.9,358.2,163.2,357.9,163.6,357.6z"/>
	<path style="fill:#FCEBA6;" d="M609.3,493c0.1,1.2,0.7,2,1.6,2.7c2.1,1.3,2.8,3.5,3.3,5.7c-0.2,2,0.6,4-0.6,5.9
		c-0.4,1.3-0.9,2.6,0.2,4c1.1-1.3,0.3-3,0.9-4.3c0.1-0.4,0.4-0.8,0.6-1.1c1.8-0.4,1.2,1.3,1.9,2c1.8,4.9,3.5,9.8,5.3,14.6
		c3.7,6.6,4.5,13.9,5.5,21.1c1.7,12-0.5,23.9-1.5,35.8c-0.3,3.9-1.9,7.5-3.2,11.1c-0.7,0.4-0.8,1.1-0.7,1.8c0.7,1.4-0.1,2.5-1,3.5
		c-1.2,2.9-2.4,5.8-3.7,8.7c-2,0.4-1,3.6-3.4,3.7c-0.6-0.4-1.2-1.3-2-0.1c-2.1,3.1-2.9,6.2-1.4,9.8c0.7,1.5-0.3,2.5-1,3.7
		c-0.2,0.3-0.4,0.6-0.7,0.9c-0.7,0.6-1.3,1.3-1.9,1.9c-1,0.9-1.4,2.1-1.7,3.3c-0.6,2-1.9,3.5-3.6,4.7c-2.7,1.8-4,4.7-6.1,7
		c-0.3,0.3-0.6,0.5-0.9,0.7c-3.8,0.5-5.4,3.3-6.8,6.3l0,0c-2.9,1.4-4.6,4.2-7,6.2c0,0.3,0,0.5,0,0.8c-0.3,0.2-0.7,0.5-1,0.7
		c-3.5-0.1-6.2,1.7-8.2,4.3c-1.9,2.5-4.3,3.7-7.2,4.1c-2.1-1-4.4-1.5-6.9-1c-0.1,1.3,1.3,1.4,1.7,2.2c0.7,2-0.7,2.5-2.2,2.8
		c-1.5,0.3-2.6,1.1-3.4,2.3c-0.3,0.3-0.6,0.6-1,0.8c-1,0.4-2.1,0.4-3.1,0.1c-2-0.9-4-1.2-6.1-1.5c-2.6-0.3-2.8,1-2.8,2.8
		c0,1.3-0.6,2.3-1.7,3.1l0.1,0.2c-0.7,0.5-1.4,0.7-2.3,0.8c-14,2.2-28,2.7-42.2,1.7c-3.6,0-7.2,0.3-10.5-1.7
		c-0.4-0.1-0.9-0.3-1.2-0.5c-1.1-1.2-3-2-2.4-4.2c0.2-0.6,1.1-1.7,0.1-1.7c-6.6-0.3-11.9-4.4-18-6.1c-2.1-0.6-2,1-3,1.5
		c-3.5,0-5.8-3.5-9.5-3c-0.6-0.2-1.2-0.5-1.7-0.9l0,0c-2-0.8-3.8-1.9-5.2-3.5l0,0c-1.6-0.8-3.1-1.6-3.5-3.5
		c-0.1-0.6-0.2-1.3-0.1-1.9c0.3-0.8,0.5-1.7,1.6-1.5c2.2,2.1,5.6,2.2,7.7,4.6c0.5,0.6,1.3,0.7,1.8,0c0.6-0.9,0.2-1.6-0.6-2.2
		c-1.3-0.9-2.9-1.2-4.5-1.3c-1.6,0-3.2,0.1-4.4-1.1c-1.2-0.7-0.5-3.1-3.1-2.8c-1.8,0.2-2.3-2-2.2-3.6c0.1-4.1-1.7-6.3-5.8-6.4
		c-2.1-0.1-3.1-1.4-4.2-3.2c-2-3.4-2.5-7.7-6.3-10.5c-0.8,2.1,1.2,3.6,0.3,5.2c-2.9,1.6-3.5-2-5.5-2.4c-0.3-0.3-0.5-0.6-0.7-1.1
		c-1.1-2.2-3.1-4.2-2.4-7c1.3-3.2,1.2-6.2-1.1-8.9c-1.7-2-1.7-4.5-2.1-6.9c-1.1-6.2-1-6.2-7-7.2c-0.6-0.1-1.1-0.3-1.6-0.6
		c-1.4-0.9-0.5-3.1-2.1-3.9c-3.5-9.1-4.7-18.6-5.9-28.2c-0.4-3.4-0.6-6.9-0.9-10.3c-1.9-4.5-2-8.8,0.7-13.1c0.3-2.1,0.5-4.1,0.8-6.2
		c-0.6-4.3,0.4-8.2,2.2-12.1c0.2,0,0.4,0,0.6-0.1c1.4-0.8,0.5-3.2,2.4-3.7c0.3,0,0.4,0.3,0.6,0.4c0.2,0.1,0.3-0.1,0.1-0.4
		c-0.5-0.7-0.9-1.3-0.8-2.2c0.9-2.3,1.7-4.7,2.1-7.2c0-0.6,0-1.1,0.1-1.7c0.4-0.5,0.5-1.1,1-1.5c1.4-0.8,2-2.2,2.5-3.7
		c0.4-1.2,0.6-2.9,2.5-2.8c1.6,0.7,1,2.3,1.3,4.1c1.8-2.9-0.3-3.3-1.5-4.3c0.1-2.8,1.4-4.7,4.1-5.5c1.3,0.3,2.9,1.2,2.9-1.4
		c0-1.2-0.2-2.3-0.4-3.4c0.5-4.2,4.7-5.7,6.4-9.1c2-0.8,2.2,1.8,4.3,2c-0.2-2.2-2-2.2-3.1-2.8c-0.6-0.3-0.9-0.8-1.1-1.4
		c0-0.7,0.4-1.1,1-1.4c2.9-0.3,3.7-2.5,4.5-4.8c0.6-1.7,2.1-2.4,3.4-3.4c0.9-0.8,1.9-1.7,2.8-2.5c0.9-1.6,2.4-2.7,4.1-3.4
		c2.2-0.2,3.5-1.5,4.4-3.3c0.8-1,1.7-1.8,3.1-1.9c2.7,0.2,5.3,1.5,8.1,1.4c2.9-0.1,4.6-0.7,3.3-4.1c-0.2-0.5-0.1-1.1,0.1-1.7
		c0.6-1.1,1.3-2.8,2.6-2.6c3.1,0.6,5-2.2,7.9-2c1.3,0,2.2,1.2,3.9,1.5c-0.5-1.9-2.4-1.2-2.9-2.2c-0.3-0.6-0.3-1.2,0-1.8
		c0.4-0.5,1-0.7,1.6-0.8c1-0.2,1.9,0,2.9,0.3c0.2,0.1,0.6,0.3,0.9,0c-0.4,0.1-0.8-0.1-1.1-0.5c0-0.4,0.1-0.8,0.4-1.1
		c0.8-0.5,1.6-0.7,2.5-0.7c1.6,0,3.2,0.3,4.6,1.2c2.1,2.1,5,2.2,7.6,2.9c3.8,1.4,7.6,2.4,11.3-0.4c-1.8-0.8-1-3.5-2.9-4.2
		c-1.2-1.5-0.9-2.7,1-3.1c1.2-0.3,2.5-0.4,3.6-1.1c0.7-0.2,1.4-0.1,2,0.4c7,0.1,13.9,0.1,20.9,0.2c0.2,0.2,0.3,0.5,0.2,0.7
		c-0.1,0.2-0.1,0.4-0.2,0.4c-0.4,0.6-1.9,1.1-0.8,1.9c1.9,1.4,3.7,3.2,6.4,2.3c5.5-0.4,10.3,1.3,14.7,4.5c2.6,2,4.1,1.7,6.6-1.4
		c2.3-0.6,3.8,1.5,5.9,1.5c0.5,0.3,0.8,0.8,1.1,1.3c0.8,1.6,2.2,0.3,3.2,0.6c1.1,0.4,2.1,1.1,2.5,2.2c1.4,3.5,4.4,5.2,7.5,6.6
		c1.4,2.9,2.8,2.4,4.1,0c3.2-0.7,4.5,3.6,7.7,2.8c6.6,3.5,11.7,8.6,16.5,14.2c1,1-0.6,3.7,2.3,3.5c1.8,0.7,3,2,3.9,3.6
		c0.4,0.7,0.7,1.5,0.8,2.2c1.9,2.6,1,7.1,5.4,8.1C608.8,492.4,609.1,492.7,609.3,493z"/>
	<path style="fill:#CB697E;" d="M612,494.6c2.5-5.1,6.7-9,10.1-13.4c10.1-13.2,21.3-25.6,32.7-37.7c1.5-1.6,2.8-3.3,4.1-5
		c6-7.5,13.3-13.3,21-19c10.6-7.7,20.7-16.2,31.7-23.2c18.4-11.7,38.2-20,59.9-22.8c23.3-3.1,46.4-1.2,69,5.6c1.9,0.6,3.9,1,5.7,3
		c-6.6,0-12.8-0.1-19,0c-17.1,0.2-34,2.3-50.7,5.6c-11.6,2.3-22.8,5.3-33.6,10c-11.4,4.8-21.9,11.1-31.5,18.9
		c-7.6,6.1-15.7,11.4-23.1,17.6c-14.8,12.5-29.4,25.3-42.6,39.5c-8.3,9-16.1,18.6-24.1,27.9c-3.8,1.1-2.4-3.9-5.6-3.8
		c-0.4,0.4-0.1,2.1-1.6,2.3C612.3,498.8,611.9,496.8,612,494.6z"/>
	<path style="fill:#CB697E;" d="M844.9,773.8c-2.2,0.2-4-0.9-5.6-2c-8.5-5.8-16.8-11.6-25.2-17.5c-8.4-5.8-16.6-12-25.1-17.5
		c-8.6-5.6-16.4-12.3-24.8-18.2c-10.6-7.5-20.8-15.6-31.5-23c-13.4-9.3-27.1-18.1-41.3-26.2c-6.9-3.9-13.8-7.8-21.3-10.5
		c-0.7-0.3-1.6-0.3-2-0.7c-7.4-7.7-17.7-10.3-26.8-14.8c-11.2-5.6-23-10.2-34.5-15.2c-0.8,0.3-1.1-0.2-1.3-0.8
		c0.1-1.1,0.8-1.8,1.5-2.4c1.6-0.3,1.3-2.1,2.3-2.8l0-0.1c3.5-1.8,5.1,2.1,7.9,2.7c15.4,6.2,31.2,11.8,46.1,19
		c13.5,6.5,27.1,12.7,40.1,20c19.7,11.1,38.4,23.6,57.6,35.6c12.6,7.9,25.1,16.1,37,25c16.6,12.3,34.5,22.8,50.8,35.5
		c2.1,1.6,4,3.3,5.5,5.4c1.3,3.1,0.1,5.3-2.8,6.1C849.2,771.7,848,775.3,844.9,773.8z"/>
	<path style="fill:#CB697E;" d="M390.4,551.4c-8.6-3.8-17.2-7.7-25.9-11.2c-14.9-6.1-30.1-11.2-45.5-15.7
		c-13.3-3.9-26.7-7.5-40.4-10c-11.4-2.1-22.7-3.7-34.3-4.3c-25.2-1.1-47.3,7.1-67.9,20.8c-0.4,0.2-0.8,0.4-1.1,0.6
		c-1.8,1.1-3.1,4.3-5.2,3.2c-2.4-1.3-1.2-4.5-1-6.9c0.3-6.7,3.6-11.8,9.3-15.3c16-9.7,33.6-14.1,52.1-16.5c8.3-1.1,16.7-1.4,25-2.3
		c8.1-0.9,16.1,1.3,24,2.8c16.4,3.1,32.2,8.4,47.8,14.3c15.2,5.7,30.2,11.8,45,18.3c6.4,2.8,12.8,5.8,19.1,8.9
		C390.5,542.6,391.3,547,390.4,551.4z"/>
	<path style="fill:#CB697D;" d="M484.6,676.1c-4.3,6.7-7,14.2-10.9,21.2c-8.9,16.2-18,32.3-28,47.9c-13,20.3-25.7,40.9-39.1,60.9
		c-6.9,10.2-13.3,20.9-23.9,28.3c-9.1,6.3-19.1,10.2-29.7,12.6c-4,0.9-8.2,1.4-12.8,1.1c4.3-4,8.4-8,12.8-11.9
		c5.8-5.2,12.1-9.9,17.7-15.4c7.2-7.1,15.7-12.8,22.5-20.4c8.5-9.5,15.5-20.2,22.9-30.5c7.8-10.7,14.9-22,22.1-33.1
		c9.3-14.4,18.6-28.8,27.6-43.3c4-6.4,8.5-12.6,11.5-19.6c0.1-0.3,0.7-0.3,1.1-0.5c2-1.5,3.6,0,5.2,0.9l-0.1,0.2
		C484.3,674.8,485.2,675.1,484.6,676.1z"/>
	<path style="fill:#CB697D;" d="M499.5,436.9c-0.6,0.1-1.2,0.2-1.8,0.3c-0.6,0.3-1.2,0.4-1.7-0.2c0.1-11.9-0.5-23.8-1.1-35.6
		c-0.8-14.8-2.5-29.6-3.9-44.4c-1.8-19.4-4.7-38.6-7.4-57.9c-1.5-10.7-4.2-21.2-5.9-31.9c-2.6-16.1-6.7-31.9-10.8-47.7
		c-0.4-1.4-1-2.7-1.5-4.1c-0.6-1.1-0.6-1.8,0.9-1.8c3.9,6.3,6.8,13,9.6,19.8c4.6,10.9,8.6,22.1,11.7,33.5
		c3.3,12.1,5.5,24.4,7.6,36.8c1.9,11.4,2.7,22.9,4.1,34.3c0.9,7.6,1.7,15.2,1.7,22.9c0.1,9.7,0.7,19.4,1.3,29.1
		c0.7,11.1-0.1,22.3,1.1,33.4c0.3,2.4-0.8,4.8-0.1,7.3C504.1,434,503.4,436.6,499.5,436.9z"/>
	<path style="fill:#DC8496;" d="M345.1,302.8c-2.1-22.4-0.8-44.6,4.4-66.5c1.9-8.2,4.4-16.2,8-23.8c0.4-0.9,0.5-1.9,0.8-2.9
		c1-1.7,1.2-3.9,2.6-5.3l0,0c1-1.7,0.4-4.4,3.3-4.6c-0.8,4.1-0.6,8.4-4.7,11.6c-1.6,1.3-1.9,4.8-2,7.3c0,1.9-0.4,3.2-1.5,4.6
		c-2.1,2.8-2.3,6.4-3.5,9.5c-4.1,11-2.8,22.8-5.5,34c-0.7,2.7,1.9,4.5,1.7,7.4c-0.5,6.9-0.2,13.9-0.2,20.9
		c-0.9,4.2,1.3,8.1,1.1,12.2c-0.1,1.9,0.8,4.7-2.9,4.6C344.8,309,347.1,305.5,345.1,302.8z"/>
	<path style="fill:#FDFAFC;" d="M635.5,299.2c3.4,5.5,5.1,11.7,7.8,17.4c-0.9,0.6-1.7,1.2-2.6,1.8c-2.7,0.6-1.3-2.3-2.5-3.1
		c-2.6,2.2-4.7,5-7.8,6.4c-1.3,0.6-0.8,1.6-1.1,2.5c-0.4,1.1-1,1.8-2.1,0.6c-1.5-4.3-0.4-8.6-0.2-12.8c0.3-7.2,0.6-14.3-0.1-21.5
		c-0.7-4.6-1.1-9.3-1-14c0.4-0.2,0.8-0.2,1.2,0c0.8,1.9,1.8,3.8,1.5,6.1c1.3,5.2,5.1,9.4,6.1,14.8c0,3,0,6,0,8.8
		C635.1,304.1,633.8,301.5,635.5,299.2z"/>
	<path style="fill:#DE8496;" d="M242.1,674.4c-8.8-0.3-16.9-3.3-25.2-5.8c-7.1-2.1-14.2-4.4-21-7.6c-0.1-0.6,0.1-1,0.8-0.7
		c1.9,0.2,4-0.5,5.7,1.2c0.5,0.5,2,1.7,3-0.7c0.7-1.6,3.2-0.2,3.9,0.8c4.2,5.7,9.6,3.9,13.9,1.3c5.3-3.1,10.6-2.6,16.7-2.5
		c-3.2,3.9-7.4,4.1-11.2,5.1c-1.1,0.3-3-0.7-2.9,1.4c0.1,1.7,1.6,2.2,3.2,2.1c2-0.1,4.1-0.2,6.1,0
		C238.5,669.6,241.6,670.4,242.1,674.4z"/>
	<path style="fill:#EBDBDD;" d="M275.3,692.8c-1.3-1.1-0.1-4.2-2.3-4.1c-2.4,0.2-0.8,2.9-1.5,4.4c-0.9,2-0.3,5.3-4,4.9
		c-1.8-3,4.1-7.3-1.3-9.5c-3.9-1.6-3.9,2.3-4.8,5.7c-1.4-3.1-0.8-5.4-1-7.5c2.2-1.8,4.9-1.1,7.4-1.2c2.4-0.1,4.9,0,6.6-2.2
		c0.9-2.6-1.2-1.6-2.2-1.7c-4-0.4-8.2,1-11.8-1.8c-0.7-0.8-2.1-0.7-2.6-1.7c0-0.3,0-0.6,0-0.9c8.5-0.1,17,0.4,26.3-0.4
		C281.4,682.3,278.6,687.7,275.3,692.8z"/>
	<path style="fill:#E57F9A;" d="M625.9,526c0-0.4-0.1-0.9,0.1-1.3c0.6-1.3,0.2-3.6,2.2-3.7c1.9-0.1,0.7,2.6,2.1,3.2
		c2.7,5.6,2.7,11.6,3,17.5c0.1,2.3-0.8,4.9,1.4,6.9c0,3.3,0.1,6.7,0,10c0,1.6,0.8,3.8-2.1,3.9c-2.8,0.1-2.1-2.1-2.3-3.7
		c-0.4-2.8,0.9-5.8-0.9-8.4c-2-1.7-1.9-4.1-2.1-6.3c-0.4-4.9-0.8-9.7-2-14.4C625,528.4,625,527.1,625.9,526z"/>
	<path style="fill:#DF8396;" d="M925.2,376c2.4,4.7,4.6,9.4,5.2,14.7c0.5,1.5,0.7,3-0.1,4.5c-1.6-0.1-3.1,0.1-1.7-2.4
		c1.1-2-2.3-9.1-4.4-9.6c-1.4-0.3-1.6,0.8-1.7,1.9c-0.3,2.8,0.7,5.4,1.2,8.1c0.2,1.3,0.5,2.6,0.5,3.8c0,1.5-0.9,2.4-2.5,2.4
		c-1.6,0-1.7-1.2-1.8-2.4c-0.3-4.2-0.2-8.4-1-12.5c-0.7-3.5-0.9-6.1,1.4-9.3c1-1.4,2.2-5.9-3.1-5.1c-0.7,0.1-0.8-0.8-0.7-1.3
		c0.1-1.7,1.4-1.6,2.5-1.6c0.6-0.5,1.2-0.5,1.8-0.1l0,0C922.7,369.9,922.5,373.7,925.2,376z"/>
	<path style="fill:#E67F99;" d="M578.8,660.4c-1,0.7-0.8,1.8-0.9,2.7c-0.6,5.2-6.1,9.1-11.3,7.9c-1.6-0.3-2.3,0.5-3.1,1.6
		c-2,2.6-11,2.5-13.4,0c0.8-0.9,1.8-0.9,2.9-0.8c1.9,0.4,3.4,0.1,4.4-1.8c3.4-2.3,6.6-5.1,11.1-5.5c2.5-0.2,2.7-3.6,4.8-4.5
		c1.3-0.5,2.3-1.8,3.9-1.4l0,0C577.5,659.4,579.4,658.7,578.8,660.4z"/>
	<path style="fill:#DC8496;" d="M353,367.1c-1.6-13.1-3.8-26.2-6.1-39.2c-0.9-1.3-0.5-2.8-0.2-4.2c0.7-3.3-1.1-6.4-0.6-9.7
		c0.4-0.3,0.9-0.2,1.3,0.1c2,2,1.5,4.5,1.4,6.8c0,1.5-0.6,3.1,0.6,4.4c-0.5,9.5,2.2,18.6,3.9,27.8c1.9,10.5,3.5,21,4.8,31.5
		c0.9,1.1,1,2.2,0.2,3.4c-0.9,0.5-1.3-0.1-1.8-0.8C354.6,380.8,354.5,373.8,353,367.1z"/>
	<path style="fill:#F8EEA3;" d="M400,594.1c1.6,0,3.3-0.3,4.8,0.1c2.5,0.6,4.7,1.5,4.9,4.9c0.2,3.9,0.5,7.7,3.4,11.2
		c1.6,1.9,2.5,5.8-0.9,8.2c-3.4-4.1-6.6-8.4-7.6-13.7c-0.4-2.4-1.3-4.1-3.5-4.9c-0.5-0.4-0.7-1-1.1-1.5c0-0.8-0.1-1.6-0.1-2.4
		C399.5,595.3,399.5,594.7,400,594.1z"/>
	<path style="fill:#DC8498;" d="M196.8,660.4c-0.3,0.2-0.5,0.5-0.8,0.7c-0.9-0.2-1.8-0.5-2.7-0.7l0,0c-4.9-3.9-10.9-5.6-16.1-8.9
		c-1.3-0.9-2.7-1.7-4-2.5c-0.2-1.8-3.9-1.5-2.6-4.2c2,0.6,4.8-1.4,6.1,1.7c0,0,0,0,0,0c0.7,0.1,1.7,0,2,0.4c2.1,3.1,5.5,4.1,9,2.4
		c1-0.5,1.9-1.8,2.7-0.1c0.6,1.3-0.1,2.2-1.5,2.5c-1.2,0.2-1.8,0.9-1.6,2.1c0.3,1.6,1.7,1.4,2.8,1.3
		C193.9,654.8,195.9,656.8,196.8,660.4z"/>
	<path style="fill:#D48D88;" d="M625.9,526c1.8,8,1.1,16.5,3.5,24.4c0.8,10-2.4,19.7-1.7,29.7c1,1.5,0.3,2.5-0.9,3.5
		c-1.5,2.2-1.2,5.2-3.5,7c1.2-7.8,2.9-15.6,3.8-23.5c1.4-13.3-0.2-26.2-3.2-39.1c-0.4-1.8-0.9-3.6-1.4-5.4
		C624.9,522.4,623.4,526.2,625.9,526z"/>
	<path style="fill:#E67F94;" d="M204.6,348.1c-0.2,3.1,2,2.6,3.9,2.6c8.4-0.2,16.7,1.5,25.1,0.9c0.6,0,1.3,0.3,1.9,0.4
		c0,0.4,0,0.8-0.1,1.3c-10.3,0-20.5,0-30.8,0c-2.1-1.5-4.5-0.6-6.7-0.9c-2.7-0.3-5.5,0.6-8.1-0.9c-0.7-0.1-1.7,0.3-1.9-0.6
		c-0.1-0.8,0.8-0.9,1.5-1.1c2.1-0.7,5,1.5,6.5-1.7C198.8,346.3,201.7,347.8,204.6,348.1z"/>
	<path style="fill:#DE8396;" d="M360.7,400.4c-1.4,0-1.9,1.1-2.3,2.2c-2.2,5-10.1,6.5-13.7,2.5c-0.5-0.6-0.6-1.4-0.2-2
		c0.7-1.3,2.2-1.3,3-0.7c1.6,1.2,3.3,1.6,5.2,1.5c1.5-0.1,2.5-1.1,3-2.2c0.7-1.3-0.9-1.9-1.6-2.7c-0.6-0.6-1.4-1.2-2.2-1.3
		c-4.1-0.5-7.8-2-11.2-4.3c-1.6,0-1.3-1-1-1.9c1.2-1,2.6-1,4-0.8c3.1,0.2,5.5,2.4,8.3,3.4c2.9,1.3,5.2,3.6,8.3,4.4
		C361.2,399,361.4,399.6,360.7,400.4z"/>
	<path style="fill:#DF8393;" d="M634.6,548.7c-1.4,0-2.7-0.2-2.6-2c0.6-7.6-1.1-14.9-1.8-22.4c0.1-1.5-0.5-3.4,2.1-3.5
		c2.8,0,2.1,2.1,2.3,3.7c0.4,3.4-1,6.9,0.9,10.2c0.3-0.3,0.6-0.3,0.9,0C637.5,539.6,634.5,544,634.6,548.7z"/>
	<path style="fill:#F3D8DD;" d="M208.1,346.9c-1-1-3.4,0.2-3.5-2.3c3.7,0,7.5,0,11.2,0c6.1-0.1,11.9,1.4,17.7,3.2
		c1.8,0.6,4,0.2,6,0.3c1.5,1.3,3.6,0.7,5.2,1.7c0.6,0,1.2,0,1.7,0c0,0.9,0,1.8,0,2.7c-6.8-1-13.5-3.1-20.4-3.9
		c-2.4-0.3-4.9-0.5-7.3-0.6C215.3,346.7,211.5,348.8,208.1,346.9z"/>
	<path style="fill:#E67E9A;" d="M593.6,470.2c1-2.6,1.1-2.7,1.9-2.4c3.5,1.2,8.3,0,9.5,5.5c0.7,3.1,0.5,6.5,2.6,9.2
		c0.5,1.5-0.1,2.4-1.5,2.9c-1.5-0.4-2.2-1.7-3.3-2.6c-0.7-1.1-1.7-2-2-3.3c-0.7-2.5-2.1-4.2-4.6-5.2
		C594.7,473.7,592.4,472.8,593.6,470.2z"/>
	<path style="fill:#E57F9B;" d="M446.2,451c-1.6-4.8,1.6-8.8,6.7-10.6c5.6-2,11.3-0.9,16.8-2.5c0.4,0.2,0.6,0.5,0.8,0.9
		c0.3,0.8,0.6,1.6-0.2,2.2c-0.4,0.2-0.7,0.3-1.2,0.4c-2.8,0-5.4,0.4-7.6,2.2c-1.8,1.4-4,1.6-6.2,1.5c-2.8-0.1-5.1,0.2-5.2,3.9
		c0,1-0.6,1.9-1.5,2.5C447.8,451.8,446.9,451.7,446.2,451z"/>
	<path style="fill:#FDE7AC;" d="M553.5,447.5c-2.4,0.6-4.1-0.9-6.1-1.7c-2.2,1.6-4.2,0.2-6.2-0.6c-5.1-1.8-10.2-3.1-15.6-2.1
		c-1.6,0.5-8.3-2.1-8.4-3.4c-0.2-2.7,2.1-1.4,3.3-1.9c1.7-0.6,3.4-0.4,5.1-0.2c1.4,2.4,3.8,1.8,6,2.1c1.5,0.3,3.1,0,4.5,0.7
		c5.5,0.8,10.7,2.5,15.7,5.1C552.1,446.6,554.1,445.9,553.5,447.5z"/>
	<path style="fill:#E97E95;" d="M339.8,391.7c0,0.7,0.2,1.4,0.9,1.7c-0.1,0.6,2,1.1,0.2,1.7c-1.2,0.4-3,0.6-3.8-0.1
		c-5.7-4.8-13.5-5.2-20.2-9.5c2.8-1.3,5.1-0.6,7.2-0.8C327.7,383.9,338.1,388.6,339.8,391.7z"/>
	<path style="fill:#E47F9B;" d="M461.9,669.1c0.7,2.2,0.6,3-2.4,3.7c-4.9,1.1-8-0.9-11.6-3.4c-1.7-1.2-1.8-2.4-1.6-3.9
		c0.3-2.1,2.1-1.4,3.4-1.6c3.1,0.1,5.3,3.4,8.6,2.4c0.9,0,1.7,0.2,2.5,0.6C461.7,667.4,461.9,668.2,461.9,669.1z"/>
	<path style="fill:#E97E96;" d="M349.4,325.4c-2.4-0.4-1.6-2.3-1.7-3.8c-0.2-2.5,0.5-5.2-0.9-7.6c-0.6-0.9-0.6-1.7,0-2.6
		c3.3-1.6,1.9-4.7,1.4-6.8c-0.7-3.4-1.4-6.5,0.3-9.8c2.8,5.2,3.3,10.8,3.5,16.6c-1,3.4,0.5,7.3-1.7,10.5
		C349,322.8,349.5,324.2,349.4,325.4z"/>
	<path style="fill:#E97F95;" d="M251.7,765.1c0-0.6,0-1.2,0-1.7c2.4-0.8,3.7-0.7,3.5,2.5c-0.3,4.3,0.2,8.7-2.3,12.6
		c-0.8,1.3-0.5,2.8-0.2,4.3c0.4,1.4,1.3,2.9-1.2,3.2c-2.4,0.3-2.6-1.2-2.5-3c0-0.4,0-0.9,0-1.3c0.6-3.2,1.2-6.4,1.7-9.6
		C251.8,769.8,251,767.3,251.7,765.1z"/>
	<path style="fill:#D98D8A;" d="M537.9,674.4c0.6,0,1.1,0.1,1.7,0.1c0.1,1.9-2.9,1.4-2.7,3.4c-0.9,0.6-1.7,0.6-2.6,0
		c-10.9,1.3-21.8,2.3-32.9,1.8c-2-0.1-4.1,0-5.6-1.7c0.6-0.9,1.6-1.2,2.6-1.3C511.8,677.7,524.9,676.9,537.9,674.4z"/>
	<path style="fill:#D98899;" d="M920.8,367.2c-0.6,0-1.2,0-1.8,0.1c-2.1-3.1-1.8-7.9-6.4-9.2c-0.4-0.1-0.9-0.9-1-1.4
		c-0.5-6.9-7.9-9.9-9.3-16.3c-0.2-1.1-2.8-0.8-1.6-2.8c0.3-0.4,0.6-0.4,0.9,0c0.8,0.6,1.6,1.2,2.5,1.8c4.5,4.3,8,9.2,10.5,14.9
		C915.8,359,920.1,362.3,920.8,367.2z"/>
	<path style="fill:#DE8396;" d="M358.1,388.2c0-1.2,0-2.4,0-3.5c2.5-0.2,4.9,0.6,6.6-2.6c1-1.9,4.3-1.1,6.4-0.5
		c1.4,0.4,1,2.2,0.8,3.5c-0.2,1.3-1.3,1.5-2.3,1.2c-5.4-1.7-5.4,1.8-5.4,5.4c-1,0.9,0.1,2.6-1.1,3.5c-1.5-0.6-1.8-2-1.4-3.1
		c0.6-1.9-0.6-0.8-1.2-1.1c-2.5-1.3,0,2.8-2,1.7C356.8,391.4,356.9,389.8,358.1,388.2z"/>
	<path style="fill:#FDE4B0;" d="M483.8,674.3c-1.7-0.3-3.5-0.6-5.2-0.9c-2.4-1.5-5.6-0.5-7.9-2.5c-1.4-0.7-3.1-0.5-4.3-1.8l0,0
		c-1.7-1-3.9-0.9-5.6-2.2c-3.2-0.8-6.1-2.2-8.9-3.9c-0.6-0.7-1.7-1.3-1.3-2.6c4-1,6.5,2.1,9.6,3.5c1.7-1.1,3,0.2,4.3,0.8
		c3.7,1.8,7.5,3.3,11.7,3.7c1.3,0.7,2.5,1.4,3.9,1.7c0.4,0.2,0.7,0.4,1,0.8C481.5,672.4,483.8,672.4,483.8,674.3z"/>
	<path style="fill:#D88B9B;" d="M247.3,353.3c7.7,0.9,14.7,4.1,22,6.2c1.9,0.6,3.9,1.1,5.8,1.7c0.7,1,2-0.1,2.6,0.9l0,0
		c1.4,0.8,3.1,0.6,4.4,1.7c0.2,0.1,0.5,0.1,0.8,0.1c0.6,0.6,2.2,0,2,1.6c-3,0.1-5.6-0.3-8.6-1.5c-8.2-3.3-16.6-6-25.4-7.5
		C250.6,356.4,246.8,356.3,247.3,353.3z"/>
	<path style="fill:#D98592;" d="M932.1,716.2c0,14,0,27.9,0,41.9c-2.6-0.6-1.7-2.7-1.7-4.2c-0.1-12.5,0-25.1,0-37.6
		C930.9,715.7,931.5,715.7,932.1,716.2L932.1,716.2z"/>
	<path style="fill:#D58E88;" d="M553.5,672.6c-1.2,0-2.3,0-3.5,0c-2.8,1.4-5.7,2.1-8.8,1.7c1.7-3.5,5.5-2.9,8.3-4.1
		c1.2-0.5,2.8-0.3,4.1-1l0,0c5.8-3.6,12.1-6.3,18.3-9.4c0.7-0.1,1.3,0.1,1.8,0.7c-2.4,6.1-9.1,5.5-13.5,8.7
		c-0.8,0.6-1.8,0.8-2.3,1.8C556.7,672,554.9,671.7,553.5,672.6z"/>
	<path style="fill:#FDDFB6;" d="M410.5,492.9c-2.4,1-3.3,3.2-4.4,5.2c-1.4,1.1-1.6,2.7-1.9,4.2c-0.3,1.7-1.2,3-3.2,2.7
		c-1.2-1.5,0.1-2.4,0.8-3.5c0.1-0.7,0.2-1.4,0.9-1.8c1.1-3.3,2.9-6.1,4.5-9.1c2.6-2.3,2.9-6.4,6.1-8.2c0.3-0.3,0.5-0.6,0.8-0.8
		c0.4-1.3,1.4-2,2.4-2.7c0.1-0.2,0.2-0.5,0.2-0.7c0.6-0.9,0.8-2.5,2.5-1.9c0.3,0.3,0.6,0.6,0.9,0.9c0.1,0.8-0.4,1.3-0.9,1.7
		c-0.6,3.9-5.4,4.9-6.1,8.7c-0.1,0.2-0.2,0.4-0.2,0.5c-1,1.3-1.3,2.9-1.9,4.3C410.8,492.6,410.6,492.8,410.5,492.9z"/>
	<path style="fill:#F6F9F7;" d="M628.5,325.4c-1.6-5.5,4.8-5.2,6.1-8.5c0.1-0.2,0.5-0.2,0.8-0.3c1.6-0.6,1.3-3.7,3.6-3.1
		c2.6,0.8,0.3,3.1,1,4.5c0.1,0.2,0.5,0.3,0.7,0.4c-2.9,2.3-5.8,4.6-8.7,6.9c-0.7,0.9-1.6,1.2-2.6,1.3
		C628.7,326.5,628.3,326.2,628.5,325.4z"/>
	<path style="fill:#FDE2B4;" d="M401,599.3c3.4-0.6,4.8,1.9,4.7,4.2c-0.2,3.6,1.5,6,3.5,8.4c1.7,1.9,1.7,4.5,3,6.6
		c1.1,2.3,2.4,4.5,2.5,7.1c-0.3,0.3-0.5,0.3-0.8,0c-0.3-0.3-0.6-0.6-0.9-1c-2.4-1.3-2.9-4-4.3-6c-3.2-4.7-5.2-10-7.4-15.2
		C400.8,602.2,399.9,600.8,401,599.3z"/>
	<path style="fill:#D68988;" d="M593.6,470.2c0,1.3,0.7,2.6,1.7,2.8c4.6,0.8,6.1,4,7,8c0.1,0.5,0.6,0.9,0.9,1.4
		c-0.5,0.5-1.1,0.5-1.6,0c-1.1-1.2-2.3-2.4-3.4-3.6c-1.3-0.8-1.8-2.3-2.8-3.4c-4.5-5.5-9.7-10.1-15.6-14c-0.3-0.3-0.5-0.6-0.5-1
		c0.2-0.6,0.5-1.1,1.3-0.7c5.4,0.9,6.6,6.9,11,8.9C592.4,469,593,469.7,593.6,470.2z"/>
	<path style="fill:#FDE5AD;" d="M553.5,447.5c-0.6-0.6-1.1-1.3-1.7-1.9c5.4,0.9,9.5,4.8,14.7,6.3c0.7,0.3,1.4,0.7,1.7,1.5
		c0.5,0.9,0.8,1.8,0.5,2.8c-0.2,0.8-0.6,1.4-1.4,1.8c-3.7,0-6.1-2.1-7.6-5.2c-0.7-1.5-1.3-2.8-2.9-3.5c-1.2,0.6-2.3,0.8-3.5,0
		C553.5,448.7,553.5,448.1,553.5,447.5z"/>
	<path style="fill:#D98B89;" d="M401,599.3c2,6.4,4.9,12.3,8.2,18.1c1.3,2.4,2.6,4.8,3.9,7.2c-2,1.5-2.7-0.9-3.2-1.6
		c-4.6-7.7-9.7-15.2-9.9-24.6C400.3,598.7,400.6,599,401,599.3z"/>
	<path style="fill:#E67F9C;" d="M626.8,583.6c0.3-1.2,0.6-2.3,0.9-3.5c1.7-2.2,0.5-4.7,0.9-7.1c0.1-0.8-0.3-1.9,1.1-1.8
		c0.8,0.1,1.9,0,2.1,1.1c0.9,6.3-1.5,11.9-2.4,17.9c-0.4,0-0.8,0-1.2-0.1C627.6,588,627.2,585.8,626.8,583.6z"/>
	<path style="fill:#E97E98;" d="M253.6,828.5c-1.2,5.2,2.5,9.3,1.6,14c-0.2,1.1,0.1,2.5-1.5,2.7c-1.7,0.3-2.8-1.3-2.6-2.3
		c1.2-4.7-1.1-9.1-1.1-13.6c0-0.3,0.4-0.6,0.6-1c1.7,0.6,0.6,2.2,1.4,3C253.2,830.8,252.1,829.5,253.6,828.5z"/>
	<path style="fill:#FAE0AA;" d="M496,437c0.6,0.1,1.1,0.1,1.7,0.2c-0.8,2-5.5-1.1-4.3,3.4c-0.3,0.4-0.7,0.6-1.1,0.8
		c-1.6,0.5-3.3,0.3-4.9,0.4c-3.5,0.6-6.8,2.5-10.6,1.4c-1.4-0.9-2.9-0.9-4.5-0.9c0.2-1.8,1.8-1.9,3-2.5c5.7-1,11.4-2.3,17.3-2.6
		C493.7,437.1,494.8,437,496,437z"/>
	<path style="fill:#D68A9B;" d="M431.3,143.9c8.8-3.2,17.9-4.5,27.1-5.1c-0.9,0.6-1.7,1.1-2.6,1.7c0.5,0.6,0.5,1.2,0,1.7l0,0
		c-3.2,1.4-6.4,1.3-9.6,0C441.2,142.1,436.5,145.3,431.3,143.9z"/>
	<path style="fill:#F7D0D8;" d="M562.2,156.2c0,0.6,0,1.2,0,1.8c-9.6-4.7-19.8-8.1-29.7-12.2c3.9-0.3,7.4,2.5,11.4,1.7
		c5.3,1.3,10.1,3.9,15.2,5.9C560.5,154,561.7,154.7,562.2,156.2z"/>
	<path style="fill:#DA8591;" d="M617.2,624.6c-2.9,0-5-2.4-7.9-2.7c0.5-1.2,1.1-2.3,1.6-3.5c0-0.6,0-1.2,0.2-1.8
		c2.1-3.1,2.6-7.2,6-9.5c2.4,3.3-1.1,5.2-1.7,7.8c-1.4,1.6-0.2,2.5,0.9,3.5C615.6,620.7,614.5,622.9,617.2,624.6z"/>
	<path style="fill:#F7D4DA;" d="M679.1,296.3c0.4-3.3,3.7-3.2,5.6-4.3c6.1-3.5,12.3-7.1,19.7-6.7C696,289,687.6,292.7,679.1,296.3z"
		/>
	<path style="fill:#F7E9A6;" d="M454.1,451c0.3,1,0.6,1.9,1,2.8c1.4,2.9,0.2,3.9-2.7,4.1c-3.7,0.3-7.2-0.4-10.6-1.8
		c-0.4-1.6,1.4-1,1.8-1.7c0.7,0,1.3-0.2,1.7-0.9c0.3-0.3,0.7-0.4,1.1-0.3c2.9,1.1,4.7-0.7,6.5-2.4
		C453.4,450.8,453.7,450.8,454.1,451z"/>
	<path style="fill:#E97D96;" d="M630.3,335.9c-3,0.4-3.7-0.8-2.6-3.5c1.2-1.9,2-4.2,4.4-5.2c1.3-1.2,2.5-2.6,4.4-3.2
		c1.1,1.5-1.4,2-0.9,3.2c0.2,1.3,0.2,2.5-0.9,3.5c-0.9,1.7-1.7,3.5-2.6,5.2C631.4,336.3,630.9,336.4,630.3,335.9z"/>
	<path style="fill:#E97E96;" d="M279.3,701.9c-2.8-1.9-2.6-4-1.9-6.1c0.6-1.7,2-3.4,2-5c-0.1-2.5,2.2-1.9,2.7-1.9
		c1.7,0.1,1.2,1.9,0.9,2.7C282,695,280.6,698.3,279.3,701.9z"/>
	<path style="fill:#D88B9B;" d="M339.8,391.7c-4.8-3.3-10.4-4.8-15.7-7c0.4-1,0.6-1.8-0.9-1.7c-0.5-0.5-0.5-1.1,0-1.6
		c2.9,1.1,5.7,2.3,8.6,3.4c2.5,0.9,4.9,1.9,7.1,3.5l0,0c1.7,1.2,4.9,0.2,5.4,3.4C342.8,391.7,341.3,391.7,339.8,391.7z"/>
	<path style="fill:#F5D8DF;" d="M616.1,227.8c1.7,4.5,4.7,8.2,5,13.7c0.3,5.5,3,11,2.2,16.8c-0.9-0.7-0.7-1.8-0.9-2.7
		c-1.7-1.5-1.7-3.7-1.9-5.7c-0.7-6.7-3.8-12.8-4.6-19.4C615.9,229.6,615.5,228.7,616.1,227.8z"/>
	<path style="fill:#D5899C;" d="M616.2,230.3c2.6,8.3,4.8,16.7,6.1,25.3c-1.2,0-2.3-0.1-2.5-1.7c-0.8-6.4-1.2-12.9-4.2-18.8
		c-0.6-1.3-0.1-3.1-0.2-4.7C615.7,229.9,616,229.9,616.2,230.3z"/>
	<path style="fill:#E68096;" d="M497.7,142.2c-9.3,0-18.6,0-27.9,0c-0.2-0.2-0.3-0.4-0.2-0.6c0.1-0.2,0.1-0.3,0.2-0.3
		c5.3-0.4,10.6,0.5,16-1.4c3.4-1.2,7.9,0.4,11.8,0.8C497.7,140.7,497.7,141.7,497.7,142.2L497.7,142.2z"/>
	<path style="fill:#DA8798;" d="M323.2,381.4c0,0.5,0,1.1,0,1.6c-7-1.8-13.1-5.6-19.5-8.7c-0.9-0.5-1.4-0.9-1.4-1.9
		C309.8,374.3,316.2,378.5,323.2,381.4z"/>
	<path style="fill:#DC8495;" d="M715.8,861c-0.2-2.2-2-1.5-3.3-1.9c-1.1-0.3-1.7-1.3-1.6-2.3c0.2-1.4,1.5-1,2.4-1
		c4.4,0.2,7.3,2.9,7.6,6.9C718.5,864.3,716.9,863.3,715.8,861z"/>
	<path style="fill:#DC8496;" d="M359,392.7c0-0.7,1.3-2,3.5-3.6c0,1.8,0,3.5,0,5.8c0.8-1.4,1.3-2.3,1.8-3.2c0.4,3.5-0.4,6.6-3.5,8.7
		c-0.2-0.6-0.5-1.2-0.7-1.7C357.9,397,357.3,395,359,392.7z"/>
	<path style="fill:#D26883;" d="M614.6,499.9c1.3-1.4-0.1-3,0.2-4.4c4,0.3,4,4.7,6.8,6.2c-1.2,1.4-1.7,3.4-3.5,4.3
		C615.9,504.5,614.3,502.7,614.6,499.9z"/>
	<path style="fill:#D48D86;" d="M440.9,653.6c0.9,1.1,1.8,2.1,2.8,3.2c-3.7,0.9-5.4-1.6-7.1-4.3c-0.9,0.4-1.4-0.1-1.7-0.9
		c-0.4-0.8-0.9-1.4-1.8-1.7c-1.6,0.5-1.8-1.1-2.6-1.8l0,0c-0.6-0.6-1.3-1.1-1.8-1.7c-1.3-0.9-0.8-2.3-0.9-3.4
		c0.2-0.1,0.4-0.2,0.5-0.3C433.2,645.7,437,649.7,440.9,653.6z"/>
	<path style="fill:#EB7E98;" d="M550.9,871.5c-1.8,2.3-2.5,5.4-5.2,7c-2.4-0.6-3.9-1.4-1.4-3.9c0.8-0.8,1.7-1.7,2.1-2.7
		C547.7,868.3,549.2,869.4,550.9,871.5z"/>
	<path style="fill:#F4D6DC;" d="M626.8,276.6c-0.3,0-0.6,0-0.9,0c-1.8-2,0.2-4.9-1.6-7c-1.3-2.2,0.3-4.7-1-6.9
		c0-0.6,0.1-1.2,0.1-1.8c4.1,1.6,3.9,5.3,4.3,8.7C627.3,271.9,628.5,274.4,626.8,276.6z"/>
	<path style="fill:#FEEEED;" d="M628.5,325.4c0.3,0.3,0.6,0.6,0.9,0.9c0.2,1.6-0.7,2.6-2,2.6c-1.5,0.1-1.3-1.5-1.6-2.5
		c0-5,0-10,1.1-15c0-7,0-13.9,0-20.9c1.4,1.3,0.8,3,0.8,4.5c0.1,8.6,0,17.3,0.1,25.9C627.7,322.4,627.1,324.1,628.5,325.4z"/>
	<path style="fill:#E97E9B;" d="M534.3,677.8c0.9,0,1.7,0,2.6,0c0.9,0.1,2.2-0.3,2.4,1.2c0.2,1.1-0.7,1.6-1.5,1.8
		c-3.2,0.7-6.4,0.7-9.5,2.2c-0.7,0.4-2.2,0.4-2.5-1c-0.3-1.5,1.1-1.4,2-1.8c2.6-1.2,5.4-0.3,8.2-0.7
		C536,678.3,534.5,678.8,534.3,677.8z"/>
	<path style="fill:#EB7F99;" d="M114.1,434.2c-1.2,4.4-3.1,8.6-2.1,13.3c0.2,1.1,0.6,3.1-1.2,3.1c-1.9,0-1.4-1.9-1.3-3
		c0.5-3.5,1.1-7.1,1.8-10.5C111.7,435.8,112.3,434.4,114.1,434.2z"/>
	<path style="fill:#D98592;" d="M350.3,321.9c0.5-3.5-1.3-7.4,1.7-10.5c1.8,4,0.5,8.2,0.8,12.3c0.1,0.8-0.4,1.5-1.3,1.4
		C349.7,324.7,350.5,323.1,350.3,321.9z"/>
	<path style="fill:#D48B85;" d="M413.9,625.6c0.3,0,0.5,0,0.8,0c0,0,0,0,0,0c4.7,5,8.3,10.8,13.1,15.8c0.4,0.4,0.4,1,0.1,1.6
		c0,0-0.1,0-0.1,0c-2.8,0.4-3.7-2-5.2-3.5c-1.5,0.4-2-0.8-2.6-1.8c-1.6-2.8-3-5.7-4.9-8.2C414.3,628.2,413.9,627,413.9,625.6z"/>
	<path style="fill:#E9809A;" d="M884.1,600.2c0.6,1.2,1.2,2.3,1.8,3.5c-2.3,1.1-4.2,1.3-4.6-2.1c-0.1-1.1-1.1-1.8-2.2-2.4
		c-1.7-1-1.1-4.3,0.7-5C880.2,596.9,882.2,598.5,884.1,600.2z"/>
	<path style="fill:#F6D1D8;" d="M113.1,574c0.5,0.9,1.1,1.8,1.6,2.7c2.3,3.5,3.3,7.5,4.4,11.4c0,0.8,0.1,1.7,0.1,2.5
		c-0.6-0.3-1.2-0.6-1.8-0.8c-4.2-3.8-5.3-8.9-5.7-14.3C111.6,574.6,111.8,573.7,113.1,574z"/>
	<path style="fill:#D8899D;" d="M126.9,604.6c-3.3-4.2-5.4-9-7.1-14c1.4-0.3,1.8,1.1,2.7,1.7c2.3,0.1,2.4,1.9,2.6,3.5
		C124.5,599,127.9,601.4,126.9,604.6z"/>
	<path style="fill:#DA8A8D;" d="M567.5,453.4c-0.3-0.5-0.7-1-1-1.5c2.2-1.9,3.8,0.1,5.3,1.1c3,2.1,5.8,4.5,8.7,6.7
		c-0.3,0.3-0.6,0.6-0.9,0.9C574.8,459.7,571.4,456.2,567.5,453.4z"/>
	<path style="fill:#ED7C93;" d="M715.8,861c1.8,0.5,3.1,2.4,5.2,1.7c0,1.7,0.3,3.8-2.5,3.4c-2.5-0.4-5-1.6-5.7-4
		C712.3,860.4,714.7,861.4,715.8,861z"/>
	<path style="fill:#DA8998;" d="M626.6,327.1c1.7,2.4,2.1,0.3,2.8-0.8c0.7-0.9,1.7-0.7,2.6-1c0,0.6,0,1.2,0,1.8
		c-1.1,2-2,4.3-4.4,5.2c-2.4-1-2.4-3.2-2.6-5.2c-0.7-0.8-0.4-1.5,0.5-1.9C626.6,325.4,626.2,326.5,626.6,327.1z"/>
	<path style="fill:#D58F9B;" d="M170.6,644.7c-0.1,2,2.8,2.1,2.6,4.2c-2.3-1.2-4.2-3-6.9-3.4l0,0c-2.3-2-4.7-4-7-6.1
		C163.6,639.9,166.7,643.2,170.6,644.7z"/>
	<path style="fill:#D7878B;" d="M492.6,437.1c-5.8,1.2-11.7,2.3-17.5,3.5c-1.5,0.5-3,1-4.4-0.1c-0.3-0.6-0.6-1.1-0.8-1.7
		c2.6-1.4,5.2-1.2,7.8,0C482.5,437.5,487.5,436.7,492.6,437.1z"/>
	<path style="fill:#D88692;" d="M115.6,562.7c-3.3-1.8-2.5-5-2.6-7.8c1.8-1.5,0-3.9,2.6-5.6C115.6,553.7,115.6,558.2,115.6,562.7z"
		/>
	<path style="fill:#D38D84;" d="M443.6,454.5c-0.6,0.6-1.2,1.1-1.8,1.7c-0.8,0.6-1.7,1.2-2.5,1.8c-1.2,1.5-2.9,2.4-4.4,3.4
		c-1.4,0.9-2.8,1.8-4.2,2.7C432.5,459.3,438.9,454.5,443.6,454.5z"/>
	<path style="fill:#FDE2B2;" d="M553.6,669.2c-3.7,2.8-8.5,2.8-12.4,5.1c-0.6,0-1.1-0.1-1.7-0.1c0.3-1.1,0.6-2.2,0.9-3.4
		c0.3-0.3,0.6-0.6,1-0.8c2-0.5,4.2-0.1,6.1-1.4c0.9,0,1.7-0.1,2.5,0.5C551.2,669.1,552.4,669.1,553.6,669.2z"/>
	<path style="fill:#E77F96;" d="M854.5,568.8c0.6,0.6,1.2,1.1,1.7,1.7c-1.9,2.8-5,3.6-5.9,1.5c-0.5-1.1-0.8-3-0.2-3.6
		C851.4,567.1,853.1,568.1,854.5,568.8z"/>
	<path style="fill:#E67E9D;" d="M559.6,444.1c2.5,0,4,0,5.6,0c1.1,0,2.1,0.2,2.2,1.5c0.1,1.1,0.5,2.4-0.6,3.2
		c-1.1,0.8-1.7-0.6-2.5-0.9C562.6,447.2,561.5,446,559.6,444.1z"/>
	<path style="fill:#FCDFB2;" d="M617.2,607.2c-1.8,3.4-3.6,6.9-5.5,10.3c-3-1.7-1.2-3.9-0.5-5.8c0.6-1.6,1.6-3,3.4-3.7
		c1.4-0.9,0.4-4.1,3.3-3.5C617.7,605.4,617.4,606.3,617.2,607.2z"/>
	<path style="fill:#D68A9D;" d="M400.8,156.1c4-2.9,8.1-5.3,13-6.3C410.3,153.6,406.2,156.2,400.8,156.1z"/>
	<path style="fill:#D37186;" d="M844.9,773.8c3.5-2.6,9.5-2.4,9.6-8.7c3.3,2.5,2,5.2-0.8,6.1C850.8,772.1,848.7,776.2,844.9,773.8z"
		/>
	<path style="fill:#D78692;" d="M189.8,351.6c3.8,0,7.7,0,11.5,0c1.4,0,3-0.4,3.3,1.7c-3.6,0-7.2,0-10.8,0
		C192.2,353.3,190.6,353.4,189.8,351.6z"/>
	<path style="fill:#D78695;" d="M414,955.2c-0.3,2.1-1.9,1.7-3.3,1.7c-3.6,0-7.1,0-10.7,0c0.3-2.1,1.9-1.7,3.3-1.7
		C406.8,955.2,410.4,955.2,414,955.2z"/>
	<path style="fill:#DA8596;" d="M427.9,953.5c-0.3,2.1-1.9,1.7-3.3,1.7c-3.6,0-7.1,0-10.7,0c0.3-2.1,1.9-1.7,3.3-1.7
		C420.8,953.5,424.4,953.5,427.9,953.5z"/>
	<path style="fill:#DE8396;" d="M357.5,408.9c7.7-4.2,8-4.2,9.4,0C364.2,408.9,361.5,408.9,357.5,408.9z"/>
	<path style="fill:#E9819D;" d="M731.3,280.7c-0.8,0.1-1.6,0.3-2.5,0.4c0.6,1.3,2.4,0.7,2.8,2.4c-3.8-1.2-7.9,1.6-11.5-1.4
		C724.2,283.1,727.4,279.4,731.3,280.7z"/>
	<path style="fill:#E888A0;" d="M931.5,443.1c0-4.4-1.2-9,1.4-14.1C934.8,434.5,932.3,438.7,931.5,443.1z"/>
	<path style="fill:#D68297;" d="M119.1,588.1c-2.3-3.5-3.6-7.4-4.4-11.4c1.6,1.6,4.3,2.2,3.8,5.6c-0.2,1.5,0.8-0.6,1.5-0.4
		C119.7,583.9,119.4,586,119.1,588.1z"/>
	<path style="fill:#E77D9D;" d="M636.4,534.8c-0.3,0-0.6,0-0.9,0c0-4.5,0-8.9,0-13.4c0.5,0,0.9,0,1.4,0
		C637.2,525.9,638.1,530.3,636.4,534.8z"/>
	<path style="fill:#E97FA0;" d="M434.9,651.6c0.6,0.3,1.1,0.6,1.7,0.9c-1,1.3,0.5,3.7-1.7,4.2c-1.2,0.3-3.1,0.7-3.4-1.5
		C431.1,652.7,432.3,651.5,434.9,651.6z"/>
	<path style="fill:#D08C82;" d="M497.7,677.1c-0.6,0.3-1.2,0.5-1.8,0.8c-3.8-0.7-8,1.5-11.3-1.7c-0.3-0.5-0.6-1.1-0.9-1.6
		c3.5,0.5,6.8,2,10.4,1.6C495.1,677.1,496.7,675.9,497.7,677.1z"/>
	<path style="fill:#E77F96;" d="M869.2,585.1c0,1.8-1.1,2-2.3,2c-1.7,0-2.7-0.8-2.7-2.6c0-1.5,0.7-2.7,2.3-2.5
		C868.1,582.3,869.1,583.6,869.2,585.1z"/>
	<path style="fill:#DB868F;" d="M634.7,587.2c-0.2,1.4,0.4,3.2-1.8,3.2c-1.9,0-1.7-1.6-1.7-2.8c0-1.6,0.2-3.6,2-3.7
		C635.4,583.9,634.3,586.1,634.7,587.2z"/>
	<path style="fill:#EE7D97;" d="M469.8,141.3c0,0.3,0,0.6,0,0.9c-4.7,0-9.3,0-14,0c0-0.6,0-1.2,0-1.7
		C460.5,140.9,465.2,139.5,469.8,141.3z"/>
	<path style="fill:#EC7AA0;" d="M392.2,580.1c-0.3,1.3,0.5,3.3-1.4,3.2c-2.1-0.1-2.1-2.3-2.2-4c0-1.1-0.1-2.5,1.6-2.5
		C392.9,576.7,391.8,578.9,392.2,580.1z"/>
	<path style="fill:#D5889B;" d="M415.6,149.1c3.8-2.3,8-3.5,12.3-4.4c0,1,0.2,2.5-1.1,2.5C422.9,147.1,419.6,150.3,415.6,149.1z"/>
	<path style="fill:#C59198;" d="M208.1,346.9c3.5,0.9,7.2-0.6,10.6,1.1c-4.7,0-9.4,0.1-14.1,0.1c-2.9,0-5.8,0-8.7,0
		c-1.2,0-2.3,0-3.5-0.1c2.6-2.6,5.7-0.8,8.6-1.1C203.4,346.9,205.7,346.9,208.1,346.9z"/>
	<path style="fill:#EB7E99;" d="M846.7,879.4c-1.4,0.1-2.8-2-4.4,0.6c-0.7,1.1-3.1-2.1-5.3-1.9c3-2.4,6.5-1,9.6-1.4
		C846.6,877.6,846.7,878.5,846.7,879.4C846.7,879.4,846.7,879.4,846.7,879.4z"/>
	<path style="fill:#E77F96;" d="M864.1,576.6c0.7,0.4,0.9,1,0.9,1.8c0.1,5.8-2.8-1.7-3.4,0.8c-1-1.2-2.7-2.2-2.9-3.5
		c-0.2-1.2,1.8-0.5,2.8-0.8C862.8,574.8,863.2,576.1,864.1,576.6z"/>
	<path style="fill:#E97D9E;" d="M420.1,637.7c1.4-0.1,1.7,1.2,2.6,1.8c-0.3,1.7-0.6,3.5-2.9,3.4c-1.5-0.1-1.9-1.5-2.2-2.8
		C417.2,638,418.5,637.6,420.1,637.7z"/>
	<path style="fill:#F7D4D7;" d="M562.2,157.9c5,0,10.4,3.2,11.4,7C569.8,162.6,566,160.3,562.2,157.9z"/>
	<path style="fill:#FDDEB6;" d="M588.5,646.5c0.4-4.3,2.3-7.1,7-7c0.1,1.5-0.6,2.6-1.9,3.4l0,0c-0.9,1.8-2.4,2.9-4.2,3.6
		C589.1,646.5,588.8,646.5,588.5,646.5z"/>
	<path style="fill:#DC8496;" d="M634.6,330.6c0.1-1.2-0.4-2.6,0.9-3.5c3.6,2.3,0.9,5.4,1.9,8.9C634.4,334.3,634.7,332.4,634.6,330.6
		z"/>
	<path style="fill:#D98A8D;" d="M450.6,660.4c0.6,0.6,1.1,1.2,1.7,1.8c0.6,2.1,2.8,1.9,4.2,2.9c0.8,0.6,2.4,0.5,2,2.2
		c-3.6,0.6-6.3-1.1-8.7-3.5c-0.3-1.2-0.6-2.4-0.8-3.6C449.4,660.3,450,660.4,450.6,660.4z"/>
	<path style="fill:#E68096;" d="M497.7,142.2c4.3,0,8.6,0,13.7,0c-4.4,2.3-8.3,1.7-12.1,1.7C498.2,143.9,497.8,143.1,497.7,142.2
		C497.7,142.2,497.7,142.2,497.7,142.2z"/>
	<path style="fill:#D49184;" d="M601.6,482.4c0.5,0,1.1,0,1.6,0c1.7,0,2,1.5,2.6,2.6c1.1,0.5,1.8,1.3,1.7,2.6
		c1.2,1.6,2.1,3.2,1.7,5.3c-0.2-0.1-0.5-0.1-0.8-0.1c-3.4-2-3.9-6-6.2-8.7C602.1,483.6,601.9,483,601.6,482.4z"/>
	<path style="fill:#EA7C9E;" d="M391.1,528.7c-3.3-1.4-2.3-4.1-2.3-6.5c0-1.1,0.9-1.4,1.9-1.3c1.2,0.1,1.1,0.8,1,1.8
		C391.4,524.7,391.2,526.7,391.1,528.7z"/>
	<path style="fill:#BB726B;" d="M614.6,499.9c1.2,2,2.3,4.1,3.5,6.1c-0.8,0.4-0.8,1.2-0.9,1.9c-0.6-0.7-1.1-1.3-1.7-2
		c-1.3-1.1-1.9-2.6-1.9-4.3c-0.9-2-1.7-4-2.6-6c0.3-0.4,0.7-0.7,1-1.1C613,496.3,612.8,498.6,614.6,499.9z"/>
	<path style="fill:#ED7C9A;" d="M125.2,595.8c-0.9-1.2-1.7-2.3-2.6-3.5c0.8-1.7,2.3-1.9,3.9-1.6c1.3,0.2,1.1,1.4,1.3,2.3
		C128.5,595.4,125.9,594.7,125.2,595.8z"/>
	<path style="fill:#FEE0BE;" d="M400,507.7c0.2,2.8,0.2,5.5-1.7,7.9c0.5,0.6,0.5,1.2,0,1.7c-1.5,0.7-0.1,3.6-2.6,3.5
		C396.5,516.3,397.6,511.8,400,507.7z"/>
	<path style="fill:#DB8B9D;" d="M616.2,230.3c-0.3,0-0.5,0-0.8,0c-2.6-4.3-3.8-9.1-4.3-14c1.7,3.8,3.3,7.6,5,11.5
		C616.1,228.6,616.2,229.5,616.2,230.3z"/>
	<path style="fill:#F5CED4;" d="M380.8,171.8c-1.1-6.4,5.3-5.1,7.9-7.8C386.4,167,383.5,169.3,380.8,171.8z"/>
	<path style="fill:#F6D2D9;" d="M364.2,199.6c-1.8,1-1.8,3.4-3.3,4.6c0.2-4.8,2.6-8.4,6.2-11.3C366,195.1,365.1,197.4,364.2,199.6z"
		/>
	<path style="fill:#D88D8B;" d="M407.8,491.1c-1.4,3.1-3,6.1-5.2,8.7c-0.2-4.2,1.8-7.4,4.4-10.4
		C407.7,489.8,407.3,490.6,407.8,491.1z"/>
	<path style="fill:#D98497;" d="M583.3,173.5c1.4,1,2.6,2.1,3.4,3.5c-2.2-0.1-4.1,0.1-4.2,3.4C581.1,177.7,581.2,175.5,583.3,173.5z
		"/>
	<path style="fill:#DA878D;" d="M390,597.7c0.3,1.3-0.5,1.6-1.4,1.6c-1.5,0.1-2.6-0.4-2.5-2.1c0.1-1.1-0.4-2.7,1.1-2.8
		C389.2,594.3,389.1,596.5,390,597.7z"/>
	<path style="fill:#D49184;" d="M573.6,660.4c-0.6,0-1.2,0-1.8,0c1.5-4.1,5.7-4.9,8.8-6.9c0.3,0,0.5,0,0.8,0.1
		c0.8,3.6-3.6,2.9-4.4,5.1C576.1,659.6,575.2,660.7,573.6,660.4z"/>
	<path style="fill:#FDDDB9;" d="M536.2,440.5c-2.6,0-5.2,0-7.8,0c-1.8,0.1-2.8-0.5-2.7-2.4c0.5-0.8,1-0.7,1.6-0.1
		C530,439.4,533.5,438.6,536.2,440.5z"/>
	<path style="fill:#FDDEB6;" d="M581.5,652.7c1.3-3.3,2.7-6.3,7-6.2c-0.3,0.6-0.6,1.1-0.8,1.7c-0.8,2.5-2.7,3.9-5.2,4.5
		C582.1,652.7,581.8,652.7,581.5,652.7z"/>
	<path style="fill:#D98694;" d="M400.8,489.2c-0.4-0.6-0.7-0.8-0.7-1c0-1.8-0.8-3.7,0.6-5.3c0.4-0.4,1.2-0.3,1.5,0.3
		C403,485.3,402.9,487.3,400.8,489.2z"/>
	<path style="fill:#D98C9D;" d="M891.2,325.3c2.5,2,4.9,4,6.1,7.1c-0.4-0.2-0.7-0.5-1.1-0.6C892.8,330.9,891,328.9,891.2,325.3z"/>
	<path style="fill:#C58693;" d="M626.6,327.1c-0.2-0.6-0.5-1.1-0.7-1.7c-0.6-0.5-0.8-1.3-0.8-2.1c0.9-2.1-0.1-4.5,0.9-6.6
		c0.2-1.8-2.8-4.1,0.9-5.3C626.8,316.6,626.7,321.9,626.6,327.1z"/>
	<path style="fill:#EF7A94;" d="M446.2,142.2c3.2,0,6.4,0,9.6,0C453.5,144.7,448.6,144.7,446.2,142.2z"/>
	<path style="fill:#CF8F7F;" d="M395,520.9c-0.7,4-1.4,8-2.2,12.1C391.3,529.5,392.5,522.7,395,520.9z"/>
	<path style="fill:#D38E83;" d="M407.8,491.1c-0.7-0.4-0.8-1-0.8-1.7c2.5-1.9,1.9-6.7,6.3-6.9C411.4,485.4,409.6,488.3,407.8,491.1z
		"/>
	<path style="fill:#D48D9D;" d="M373.7,182.3c1.5-2.6,3-5.1,4.5-7.7c0.4-0.6,0.7-1.4,1.6-1.1C378.8,177.1,377.9,180.8,373.7,182.3z"
		/>
	<path style="fill:#D7928B;" d="M427.8,466.7c-0.9,1.1-1.7,2.3-2.6,3.4c-1,1.2-1.3,3.1-3.4,2.9c-0.2-0.2-0.3-0.5-0.2-0.7
		c0.1-0.2,0.1-0.3,0.2-0.3C422.5,468.7,424.2,466.6,427.8,466.7z"/>
	<path style="fill:#DC8496;" d="M630.3,335.9c0.6,0,1.2,0,1.7,0c1.8,0.3,2.1,1.5,1.3,2.7c-0.8,1.2-2.5,1.1-3.5,0.6
		C627.5,338,631.1,337.1,630.3,335.9z"/>
	<path style="fill:#D78793;" d="M383.3,184c0,1.3-0.7,1.8-1.9,1.8c-1.3,0-2.3-0.2-2.3-1.8c0-1.4,1-1.6,2.1-1.6
		C382.3,182.4,383.3,182.6,383.3,184z"/>
	<path style="fill:#EF7B90;" d="M849.3,873.3c0.6,0.2,2.3-0.5,1.9,1.1c-0.3,1.3-1.6,2.4-3.3,2.3c-0.5,0-1.4,0.6-1.3-0.8
		C846.7,874.1,847.1,873.1,849.3,873.3z"/>
	<path style="fill:#B66B6C;" d="M390.4,551.4c0.5-4.4-1-8.8,0.9-13.1c0.2,0.3,0.5,0.6,0.7,0.9c-0.2,4.4-0.5,8.7-0.7,13.1
		C391,551.9,390.7,551.6,390.4,551.4z"/>
	<path style="fill:#D28A84;" d="M582.4,652.7c1.7-1.5,3.5-3,5.2-4.5C588.7,650.9,586,653.2,582.4,652.7z"/>
	<path style="fill:#EA7BA0;" d="M607.6,487.7c-0.6-0.9-1.2-1.7-1.7-2.6c0.6-0.9,1.2-1.7,1.7-2.6
		C610.3,484.2,610.3,485.9,607.6,487.7z"/>
	<path style="fill:#D88695;" d="M878.4,604.5c-1.1,0-2-0.3-2-1.6c-0.1-1.2,0.6-1.8,1.8-1.8c1.4,0.1,2,1.1,2.1,2.2
		C880.4,604.6,879.3,604.5,878.4,604.5z"/>
	<path style="fill:#D38D83;" d="M421.8,472c0,0.3,0,0.6,0,0.8c0.7,1.8-1,1.9-1.8,2.6c-0.3,0.3-0.5,0.6-0.8,0.9
		c-0.8,0.6-1.7,1.3-2.5,1.9C416.2,474.3,419.2,473.3,421.8,472z"/>
	<path style="fill:#ED7CA6;" d="M477.6,438.8c-2.6,0-5.2,0-7.8,0c0-0.3,0-0.6,0-0.9C472.5,436.7,475.3,436,477.6,438.8z"/>
	<path style="fill:#E77F97;" d="M886.7,845.5c1.4-0.1,1.8,0.6,1.8,1.8c0,0.8,0.3,1.9-1.1,1.7c-1.1-0.1-2.4-0.4-2.6-1.8
		C884.5,845.8,885.9,845.9,886.7,845.5z"/>
	<path style="fill:#CB8891;" d="M825.7,280.9c2.4,0.6,4.8,1.2,6.9,2.6c-3.4,0.8-6.4-1.2-9.5-1.7l0,0
		C823.7,280.8,824.7,280.9,825.7,280.9z"/>
	<path style="fill:#F3CBD3;" d="M511.7,141.2c4.2-1.8,7.7,0.5,11.2,2.1C519.2,142.6,515.4,141.9,511.7,141.2z"/>
	<path style="fill:#ED7D96;" d="M790.8,883.7c0,0.6,0,1.2,0,1.7c-2.7-0.2-5.7,0.8-7.8-1.7C785.6,883.7,788.2,883.7,790.8,883.7z"/>
	<path style="fill:#F6D2D9;" d="M576.1,166.7c3.4-0.5,5.9,0,5.3,4.3c-2.3,0.3-3.1-1.6-4.3-2.8C576.8,167.7,576.5,167.2,576.1,166.7z
		"/>
	<path style="fill:#F27B96;" d="M625.9,323.7c0,0.6,0,1.1,0,1.7c-0.7,0.4-0.8,1-0.9,1.8c-0.6,0.1-1.6,1.2-1.5,0.7
		c0.2-2-1.8-4.7,1.5-5.9C625.7,322.3,625.3,323.2,625.9,323.7z"/>
	<path style="fill:#F37795;" d="M576.5,171c-2.1,1-3.5,1.4-4.4-0.2c-0.4-0.6-0.3-1.7,0.4-2C574.7,167.9,574.7,170.3,576.5,171z"/>
	<path style="fill:#D9768B;" d="M466.3,213.7c-0.7,0.4-0.9,1-0.9,1.8c-1.8-1.6-2-3.5-1.3-6C466.1,210.6,466.3,212.1,466.3,213.7z"/>
	<path style="fill:#D690A1;" d="M166.2,356.8c2.4-1.5,4.9-3.1,7.8-3.4C172.1,356.2,169.6,357.3,166.2,356.8z"/>
	<path style="fill:#D98C9D;" d="M901.6,337.6c-0.3,0-0.6,0-0.9,0c-3.5-0.2-2.7-3.2-3.4-5.3C899.1,333.8,901.1,335.1,901.6,337.6z"/>
	<path style="fill:#D38F83;" d="M605.9,627.2c0.3,0.3,0.6,0.6,0.9,1c-1,1.9-1,4.9-4.4,4.3c0.2-2.1,2.7-3,2.7-5.1
		C605.2,626.8,605.5,626.8,605.9,627.2z"/>
	<path style="fill:#F3D8DD;" d="M201,347c-2.8,0.7-5.9-0.5-8.6,1.1c-0.6,0-1.2-0.1-1.7-0.1C193.8,344.7,197.5,346.5,201,347z"/>
	<path style="fill:#F07C99;" d="M932.1,716.2c-0.6,0-1.2,0-1.7,0c0.1-2.4-0.6-5.1,1.7-7C932.1,711.6,932.1,713.9,932.1,716.2z"/>
	<path style="fill:#F3CBD3;" d="M504.6,139.6c2.5-0.3,5.1-0.6,7.8-0.9c-0.2,1.2-2,1.3-1.7,2.5C508.8,140.7,506.7,140.2,504.6,139.6z
		"/>
	<path style="fill:#F27A98;" d="M824.8,885.4c-1.7,0-3.5,0.1-5.2,0.1c-0.7-0.4-0.9-1-0.9-1.8C820.8,884,823.3,882.7,824.8,885.4z"/>
	<path style="fill:#EE7F9C;" d="M371.9,195.9c-2.3-1.6-3.2-3.1-0.9-5.3C372.3,192.3,371.7,194,371.9,195.9z"/>
	<path style="fill:#D58895;" d="M846.2,871c2.2-1.7,3.6-1.1,5.6-0.9C850.2,872.1,848.6,871.4,846.2,871z"/>
	<path style="fill:#D2919F;" d="M577.1,168.2c1.8,0.3,2.7,2,4.3,2.8c0,0.3,0.1,0.5,0.1,0.8C578.7,172.2,577.2,171.1,577.1,168.2z"/>
	<path style="fill:#F7D0D8;" d="M526.4,144c1.8,0,3.7-0.1,5.5,0c1.5,0,0.9,1,0.7,1.8C530.3,145.8,528.2,145.2,526.4,144z"/>
	<path style="fill:#E77F96;" d="M863.6,589.2c0,0.9-0.4,1.2-1,1.2c-1.2,0.1-1.9-0.5-1.9-1.7c0-0.5,0.1-1.5,0.8-1.2
		C862.3,587.9,862.9,588.7,863.6,589.2z"/>
	<path style="fill:#D68A88;" d="M386.6,576.1c1.5,2.4,1.3,3.8,0.6,5.5C385.4,580.2,386.1,578.6,386.6,576.1z"/>
	<path style="fill:#F7CED6;" d="M285,365.5c-0.7-0.5-1.3-1.1-2-1.6c0.6,0,1.2,0,1.9-0.1c1.2-1.1,2.3-0.8,3.5,0c0,0.8,0,1.6,0,2.5
		C287.2,366,286.1,365.7,285,365.5z"/>
	<path style="fill:#F179A2;" d="M443.7,452.8c-1.3-0.2-2.8,0.5-4.4-1.2c2.3-0.5,4.1-1.7,5.2,1.1
		C444.2,453.1,443.9,453.1,443.7,452.8z"/>
	<path style="fill:#D38D84;" d="M443.7,452.8c0.3,0,0.5,0,0.8,0c0.9-0.3,1.4-0.9,1.8-1.7c0.9,0,1.7,0,2.6-0.1
		c0.4-0.2,0.8-0.2,1.1,0.2c-0.2,2.3-1.8,2.7-3.6,2.5c-0.3,0-0.6-0.1-0.9-0.1C444.6,453.6,444,453.5,443.7,452.8z"/>
	<path style="fill:#D48D86;" d="M443.7,656.8c2.1,0.7,3.9,1.8,5.2,3.5c-0.6,0-1.2,0.1-1.8,0.1c-0.6,0.5-1.2,0.5-1.7,0
		c0-0.7-0.2-1.4-0.9-1.7c-0.3,0.4-0.6,0.4-0.8,0C443.6,658,443.7,657.4,443.7,656.8z"/>
	<path style="fill:#ED7DA1;" d="M443.6,658.6c0.3,0,0.6,0,0.8,0c-1.4,2.4-3.3,2-6,0.8C440.5,658.2,442.1,658.8,443.6,658.6z"/>
	<path style="fill:#F77795;" d="M460.1,943.9c-1.6,1.1-2.7,1.1-4.3,0C457.4,942.8,458.6,942.8,460.1,943.9z"/>
	<path style="fill:#FED8C1;" d="M400,594.1c0,0.6-0.1,1.3-0.1,1.9c-1.5-1.5-1.6-3.4-1.9-5.3C400.6,590.7,399.8,592.7,400,594.1z"/>
	<path style="fill:#F47996;" d="M582.2,822.7c-1.1-1.7-0.8-3-0.5-5.1C583,819.6,583.6,820.7,582.2,822.7z"/>
	<path style="fill:#DE9793;" d="M461,666.6c1.7,0.9,3.9,0.9,5.3,2.5c-1.5,0.4-2.9-0.9-4.4,0c-0.7-0.4-0.8-1-0.9-1.7
		c-0.3-0.2-0.4-0.4-0.3-0.6C460.8,666.6,460.9,666.6,461,666.6z"/>
	<path style="fill:#C18B9B;" d="M930.4,395.2c0-1.5,0-3,0.1-4.5c1.1,1.9,1.5,4,1.7,6.1c-0.1,0.4-0.3,0.7-0.4,1.1
		c-0.1-0.2-0.4-0.3-0.4-0.5C931.2,396.6,931.2,395.7,930.4,395.2z"/>
	<path style="fill:#EE7EA6;" d="M616.3,618.5c-0.9-0.1-2.1,0.3-2.4-1c-0.4-1.3,0.5-2,1.5-2.5C615.7,616.2,616,617.3,616.3,618.5z"/>
	<path style="fill:#F47793;" d="M823.1,281.8c-1,1.9-2.3,1.9-4.4,1.3C820.3,281.2,821.8,282,823.1,281.8L823.1,281.8z"/>
	<path style="fill:#ED7D96;" d="M776.8,885.4c-0.9,0-1.7,0-2.6,0c-0.6-0.4-1.1-0.8-2.4-1.7c2.1,0,3.6,0,5,0
		C776.8,884.3,776.8,884.8,776.8,885.4z"/>
	<path style="fill:#C7AE78;" d="M527.2,438c-0.5,0-1.1,0.1-1.6,0.1c-1.7-0.1-3.4-0.2-5.1-0.3c-0.1-0.2-0.1-0.5-0.2-0.7
		c2.3,0.1,4.7,0.1,7,0.2c0,0,0.1,0.2,0.1,0.3C527.4,437.8,527.3,437.9,527.2,438z"/>
	<path style="fill:#FB789A;" d="M358,949.3c-1.6,0.9-2.7,1-3.6-0.5C355.6,948,356.7,947.9,358,949.3z"/>
	<path style="fill:#DA8998;" d="M625.9,323.7c-0.7-0.4-0.8-1-0.9-1.8c0.3-1.7-0.7-3.7,0.9-5.2C625.9,319,625.9,321.3,625.9,323.7z"
		/>
	<path style="fill:#D48B87;" d="M589.4,646.5c1.4-1.2,2.8-2.4,4.2-3.6C593.4,645.4,591.8,646.4,589.4,646.5z"/>
	<path style="fill:#CC857C;" d="M621.6,595.9c0.3-1.2,0.6-2.3,1-3.5c1.5,1.5,0.8,3-0.2,4.2C621.7,597.4,621.7,596.3,621.6,595.9z"/>
	<path style="fill:#BC8B99;" d="M623.3,262.6c1.5,2.1,0.6,4.6,1,6.9C622.3,267.5,623.8,264.9,623.3,262.6z"/>
	<path style="fill:#F17EA6;" d="M578.8,660.4c-0.6-0.6-1.1-1.1-1.7-1.7c0.7,0,1.5-0.1,2.2,0c0.7,0,1.8-0.1,1.6,0.9
		C580.8,660.7,579.6,660.3,578.8,660.4z"/>
	<path style="fill:#EF7AA5;" d="M622.4,604.1c-0.7-0.1-0.8-0.7-0.8-1.3c0-0.6,0-1.2,0.8-1.2c0.8,0,0.8,0.7,0.8,1.2
		C623.2,603.4,623.2,604,622.4,604.1z"/>
	<path style="fill:#CE8F81;" d="M401.7,501.6c-0.3,1.2-0.5,2.3-0.8,3.5c-0.3,0.3-0.6,0.6-1,1C400.3,504.5,398.9,502.2,401.7,501.6z"
		/>
	<path style="fill:#E97FA0;" d="M428.8,646.4c1.1,0,1.7,0.6,1.8,1.7c-1-0.4-1.6,1.6-2.4,0.6C427.8,648.5,428.5,647.2,428.8,646.4z"
		/>
	<path style="fill:#D48B87;" d="M593.6,642.9c0.6-1.1,1.3-2.3,1.9-3.4c0.2,0,0.5,0,0.7,0C596,641,595.8,642.7,593.6,642.9z"/>
	<path style="fill:#F5CED4;" d="M379.9,173.5c-0.5,0.4-1.1,0.7-1.6,1.1c-0.3-1.9,0.5-2.8,2.5-2.7
		C380.4,172.4,380.1,172.9,379.9,173.5z"/>
	<path style="fill:#DE9793;" d="M466.3,669.1c1.5,0.4,3.1,0.6,4.3,1.8C468.9,670.8,467.1,671.2,466.3,669.1z"/>
	<path style="fill:#F3CBD3;" d="M499.3,138.8c1.8,0.2,3.8-0.8,5.3,0.8C502.9,139.5,501,140.1,499.3,138.8z"/>
	<path style="fill:#CF9B83;" d="M416.5,479c-0.5,1.2-1.4,2.1-2.4,2.7C413.8,479.8,414.4,478.8,416.5,479z"/>
	<path style="fill:#E97FA0;" d="M430.5,648.2c0.9,0.6,1.7,1.2,2.6,1.8C431,651.2,430.8,649.7,430.5,648.2z"/>
	<path style="fill:#E47F9B;" d="M445.4,660.4c0.6,0,1.2,0,1.7,0c-0.1,0.7,0.2,1.8-0.5,1.9C445.5,662.4,445.5,661.2,445.4,660.4z"/>
	<path style="fill:#E9DDDF;" d="M887.6,312.3c-3.2,1.4-5.2,0.8-6.8-2.7c-1.2-2.8-3-5.9-7.2-4.8c-0.3,0.1-0.8,0-0.8-0.1
		c-0.9-4-5.9-3.1-7.7-6.6c2.9-0.6,5.4-1.7,7,1.9c0.8,1.7,2.6,1,3.9,1c7,0.2,8,0.8,8,7.4C884,311.4,886.3,311.1,887.6,312.3
		L887.6,312.3z"/>
	<path style="fill:#EADCDD;" d="M562.2,156.2c-5.3-2.3-10.7-4.7-16.1-7c-1-0.4-1.8-0.8-2.3-1.8c0.4-1.1,1.5-0.3,2.3-0.8
		c-0.6-1.5-2.7-0.7-3.6-3.2c8.7,3.4,16.8,6.7,25,9.9c0,0.4-0.1,0.8-0.1,1.2C565.3,154,564,155.6,562.2,156.2z"/>
	<path style="fill:#E9DDDF;" d="M887.6,312.3c1,1.6,2,2.7,4.3,2.7c4.7,0,6.1,1.6,6.2,6.1c0,1.3,0.1,2.6,0.3,3.9
		c0.1,0.9,1.1,2.1-0.3,2.5c-1.1,0.3-2.8-0.4-2.8-1.5c0.1-4.8-3.3-6.5-6.7-8.6C886.2,316.1,886.3,315.9,887.6,312.3
		C887.6,312.3,887.6,312.3,887.6,312.3z"/>
	<path style="fill:#E5DFDD;" d="M609,204.8c-3.5-5.6-6.8-10.7-9.9-15.9c-0.5-0.8-1.8-2.1,0.1-2.8c1-0.4,2.5-0.6,3,0.9
		c1.2,4,6,6,5.6,11.3C607.6,199.4,609.5,201.9,609,204.8z"/>
	<path style="fill:#E5DFDD;" d="M316.3,370.8c0.4,3.5-2.5,4.8-4.1,3.1c-3.9-4.2-8.7-4.9-14.8-5.1c2.1-1.9,3.6-1.3,4.9-1.5
		C307.2,367.5,311.7,369.2,316.3,370.8z"/>
	<path style="fill:#E9DCDC;" d="M665.2,299.2c-0.6,4-4.8,4.1-7.1,6.4c-1.4,1.4-3.7,2-5.8,3c-1-1.7-1.6-3.1,0.9-4.2
		c2.3-1,3.6-3.6,6.2-4.1C661.4,299.9,663.5,300.9,665.2,299.2L665.2,299.2z"/>
	<path style="fill:#E8DCDC;" d="M846.6,286c6-0.6,9.4,3.4,13.2,6.4c0.5,0.4,0.5,1,0.1,1.5c-0.4,0.5-1,0.7-1.5,0.4
		C854.4,291.9,849.8,290.2,846.6,286z"/>
	<path style="fill:#F9D4DB;" d="M914.6,354.3c-3.8-4.7-7.3-9.7-10.5-14.9c2-0.2,3.2,0.1,4.2,2.4c1.6,3.6,6.1,5.7,6.2,10.4
		C914.5,352.9,914.6,353.6,914.6,354.3z"/>
	<path style="fill:#F8D2D9;" d="M353,367.1c2.2,6.6,3.2,13.4,4.3,20.2c-0.5,0.8-1.1,1.6-2.2,1.2c-0.1-0.1-0.3-0.2-0.4-0.4
		C354.1,381.2,353.5,374.1,353,367.1z"/>
	<path style="fill:#F3D8E2;" d="M487.2,135.2c-1.3-0.2-3.3,0.6-3.3-1.7c-0.1-2.3,1.9-1.8,3.2-1.8c3.3,0.1,6.7-0.5,10.3,0.5
		c-1.8,2.8-5.7-0.7-6.7,3C489.6,136.3,488.4,136.1,487.2,135.2z"/>
	<path style="fill:#F4D7E3;" d="M462.8,135.2c-1-3.7-4.9-0.2-6.6-2.9c4.1-1,8.1-0.4,12-0.4c1,0,1.5,0.7,1.5,1.7c0,1-0.6,1.6-1.6,1.6
		c-1.4,0.1-2.9,0-4.3,0.1C463.4,135.5,463.1,135.6,462.8,135.2z"/>
	<path style="fill:#F5D7E4;" d="M630.6,283c-0.4-3.6-0.8-7.3-1.1-10.9c-0.1-1.2,0.2-2.4,1.8-2.3c1.6,0.1,1.8,1.4,1.6,2.5
		c-0.7,3.6-0.8,7.2-1,10.8C631.4,283,631,283,630.6,283z"/>
	<path style="fill:#F8D4DC;" d="M344.3,391.7c-1.8-1.1-3.6-2.3-5.4-3.4c4.5-0.3,8.3,1.9,12.2,3.5c0.7,0.4,1.1,1.1,1.4,1.8
		c0.1,0.6,0,1.2-0.5,1.6C349.4,394,346.8,392.8,344.3,391.7z"/>
	<path style="fill:#E3E1E0;" d="M350.3,225.8c-0.7,1.6-0.2,3.8-2,5.1c-0.2,0.1-0.9-0.1-1.1-0.3c-1-1.8-0.5-3.6,0.2-5.3
		c0.4-1-0.1-2.7,1.6-2.5C350.7,222.9,350.1,224.5,350.3,225.8z"/>
	<path style="fill:#F1FEFE;" d="M635.5,299.2c0,3.9,0,7.8,0,11.6c-0.5,0-1,0-1.5,0c-0.1-4.4-1.1-8.9,0.6-13.4
		C635.4,297.9,635.5,298.5,635.5,299.2z"/>
	<path style="fill:#DEE1DF;" d="M352,393.5c-0.7-0.4-0.9-1-0.9-1.7c-0.3-2.6-0.5-5.2,3.5-3.5c0,0,0,0,0,0c1.5,1.4,2.4,3,1.1,4.9
		C354.8,394.6,353.4,394.4,352,393.5z"/>
	<path style="fill:#DEE0DE;" d="M626.8,276.6c0.4-2.3-0.9-4.9,0.9-7c1.2,4.3,1.5,8.7,0.9,13.1C627.7,280.7,626.8,278.8,626.8,276.6z
		"/>
	<path style="fill:#F7D6DE;" d="M344.8,221.4c1.5,3.6,1,7.3,0.4,11C343.6,228.7,344.4,225,344.8,221.4z"/>
	<path style="fill:#E4E0DD;" d="M487.2,135.2c1.2,0,2.3,0,3.5,0c2.1,0.2,4.3-0.4,6.4,0.5C494.2,137.7,489.4,137.5,487.2,135.2z"/>
	<path style="fill:#E2E1DF;" d="M749.5,270.6c2.8-1.5,5.6-0.8,8.4-0.5C755.2,272,752.4,271.2,749.5,270.6z"/>
	<path style="fill:#F5D8DF;" d="M622.4,232.3c-1.2-2.5-0.8-5-0.3-7.5C623.8,227.2,623.5,229.8,622.4,232.3z"/>
	<path style="fill:#DFE3DD;" d="M462.8,135.2c0.3,0,0.6,0,0.9,0c-2,3.5-4.8,1.2-7.3,0.9C458.4,134.8,460.7,135.4,462.8,135.2z"/>
	<path style="fill:#D58C9D;" d="M925.2,376c-4.1-1.6-3.2-5.7-4.4-8.7C923.5,369.5,923.9,372.9,925.2,376z"/>
	<path style="fill:#CA8794;" d="M346.8,311.5c0,0.9,0,1.7,0,2.6c-0.3,0-0.5,0-0.8,0c0-0.9-0.1-1.7-0.1-2.6c-1-2.2,0.2-4.7-0.7-7
		c0-0.6,0-1.2-0.1-1.7C348.7,305.1,345.9,308.6,346.8,311.5z"/>
	<path style="fill:#F8D4DC;" d="M338.9,388.3c-2.7-0.5-5-1.7-7.1-3.5c0.9,0,1.8,0,2.8-0.1C335.8,386.2,338.5,385.8,338.9,388.3z"/>
	<path style="fill:#FDDFE5;" d="M346.6,323.7c0.1,1.4,0.1,2.8,0.2,4.2c-0.3,1.2,0.4,2.5-0.8,3.9
		C346.1,328.9,345.2,326.3,346.6,323.7z"/>
	<path style="fill:#F6D2D9;" d="M360.8,204.2c-0.6,1.9-0.8,4-2.6,5.3C358.1,207.3,358.6,205.3,360.8,204.2z"/>
	<path style="fill:#DAE3E3;" d="M665.2,299.2c0.7-2.6,2.1-1.8,4.1-0.7C667.8,299.6,666.4,299.1,665.2,299.2
		C665.2,299.2,665.2,299.2,665.2,299.2z"/>
	<path style="fill:#D6E1DC;" d="M417.8,144.2c-1.1,1.1-2,1.8-3.2,1c-0.1-0.1-0.2-0.6-0.1-0.7C415.3,143.7,416.3,143.9,417.8,144.2z"
		/>
	<path style="fill:#DAE5DC;" d="M359,200.3c0.8,0.1,0.8,0.7,0.8,1.3c0,0.6,0,1.2-0.8,1.2c-0.8,0-0.8-0.7-0.8-1.2
		C358.2,201,358.2,200.4,359,200.3z"/>
	<path style="fill:#DC8496;" d="M345.2,304.5c1.5,2.2,0.4,4.7,0.7,7C344.4,309.3,345.3,306.8,345.2,304.5z"/>
	<path style="fill:#EADCDE;" d="M190.6,663.9c-6.5,1.3-9.8-3.8-13.7-7.2c-1.3-1.1-2.3-1.7-3.6-1.4c-3.3,0.8-5.7-1.5-8.6-2.1
		c-1.6-0.3-2.4-2.4-1.6-3.9c1-1.9,3.6-1.5,4.6-0.8c4.4,3.4,10.2,3.9,14.4,7.7c0.1,1.5-1.9,0.2-2,1.9c4.1,0.4,9.4-1.7,11.5,4.1
		C191.9,663,191.4,663.5,190.6,663.9z"/>
	<path style="fill:#EADCDC;" d="M190.6,663.9c0.3-0.6,0.6-1.2,0.9-1.7c0-1.2,0.7-1.7,1.8-1.8c0,0,0,0,0,0c0.7,1.6,1.9,2.3,3.6,2.9
		c1.6,0.6,3.9,0.4,4.2,3c0,0.4,1.3,1.1,1.8,0.9c3.7-1.2,6.4,2.4,10.2,1.9c-1.2,1.6-2.5,1.9-4,1.8c-4.2-0.3-8.2-1.5-12-3.2
		c-0.5-0.2-1.2-0.9-1.5-0.8C192.3,668.3,191.6,666,190.6,663.9z"/>
	<path style="fill:#E6DFDD;" d="M113.1,574c-1,3.6,0.3,7,1.7,10c0.9,1.9,1.7,3.8,2.6,5.7c-2.9,1.5-4.6,1.7-5.5-2.6
		c-0.6-3-2.3-5.8-2.6-9.2c-0.2-2.7,0.3-4.7,2-6.6c0.8,0.3,0.1,2.2,1.7,1.7C113,573.4,113.1,573.7,113.1,574z"/>
	<path style="fill:#F2D8E0;" d="M274.4,683.1c0.3,2.5-0.6,3.7-3.3,3.5c-3.5-0.2-7.1,0-10.7,0c0-1.2,0-2.3,0-3.5h0
		C265.1,683.1,269.7,683.1,274.4,683.1z"/>
	<path style="fill:#E5DFDD;" d="M121.4,600.1c2.2,3.3,3.4,7,5.9,10c0.2,0.3,2,1.9,0.2,2.8c-1.4,0.8-2.4-0.2-2.6-1.3
		C124,607.6,120.6,604.5,121.4,600.1z"/>
	<path style="fill:#F2D8E0;" d="M260.4,683.1c-4.4,0-8.9,0-14,0C250.1,680.5,258.3,680.8,260.4,683.1L260.4,683.1z"/>
	<path style="fill:#DFE2DF;" d="M257.8,677.8c1.3,0,2.1,0.6,2.6,1.7c-4.3-0.1-8.6-0.1-12.9-0.2c-0.1,0-0.3-0.4-0.6-0.9
		C250.6,677.2,254.2,678.1,257.8,677.8z"/>
	<path style="fill:#EADCDE;" d="M166.3,645.5c-3.3,1.2-3.8,1.1-5.8-1.1c-0.9-1-1.7,0.9-2.9,0.3c1.2-2.1,2.7-2,4.4-1
		C163.3,644.4,164.6,645.5,166.3,645.5C166.3,645.5,166.3,645.5,166.3,645.5z"/>
	<path style="fill:#F8D6DF;" d="M125.6,618.5c-0.8-0.1-1.9,0-1.7-1.2c0.2-1.1,0.8-2.2,2.2-2.1c1,0,1.6,0.5,1.7,1.5
		C127.8,618.1,126.9,618.5,125.6,618.5z"/>
	<path style="fill:#E2E1DF;" d="M276.5,357.7c-2.2,0.7-4.3,1.6-6.1-0.1c-0.2-0.2,0.2-1.5,0.7-1.9
		C273.9,353.7,274.7,357.2,276.5,357.7z"/>
	<path style="fill:#E1E1DD;" d="M288.3,363.8c-1.2,0-2.3,0-3.5,0c-0.7-0.8-1.4-1.7-2.3-2.8C285.6,360.3,288.5,358.7,288.3,363.8z"/>
	<path style="fill:#F7CED6;" d="M282.2,363.8c-1.7,0-3.2-0.4-4.4-1.7C279.6,362,281.3,361.8,282.2,363.8z"/>
	<path style="fill:#F7CED6;" d="M277.8,362.1c-0.9-0.2-2.2,0.8-2.6-0.9C275.8,362.3,278.1,358.4,277.8,362.1z"/>
	<path style="fill:#EEDBDF;" d="M244.7,349.8c-1.9-0.2-4.1,0.7-5.2-1.7C241.5,348,243.4,348.1,244.7,349.8z"/>
	<path style="fill:#E38095;" d="M251.7,765.1c0.1,2.4,1,4.9-0.9,7C251.2,769.7,250,767.2,251.7,765.1z"/>
	<path style="fill:#F8EDA2;" d="M420.1,629c0.2-1.6-0.7-2.7-1.4-3.9c-0.5-0.7-1.5-1.8-0.4-2.6c1-0.8,2.3-0.6,3.2,0.1
		c1.3,1.1,2.8,2.3,3.1,4.1c0.5,3,3.1,4.8,3.5,7.7c0.3,1.9,1.8,1.5,3,1.6c5.3,0.4,6.4,1.5,6.5,6.7c0,1.9-0.3,3.7,2.7,3.8
		c2,0.1,1.2,2.2,1.7,3.4h0c-0.7,0.4-0.9,1-0.9,1.7c-0.8,0.4-1.4,0-2-0.4c-7.2-5.2-12.5-12.4-18.8-18.5
		C419,631.7,418.9,630.3,420.1,629z"/>
	<path style="fill:#FCECAE;" d="M570.1,566.2c0.1,0.3,0.2,0.5,0.3,0.8c0.4,1.7-3.5,0.1-2,2.5c1,1.6,2.7,2,4.5,1.9c2-0.1,4.1,0,6.1,0
		c1,0,2.2,0,2.3,1.4c0.1,0.5-0.1,1.3-0.4,1.6c-0.9,0.8-2,0.6-2.7-0.2c-1.2-1.2-2.7-1.2-4.1-0.9c-5.7,0.9-9.1-3.3-13.1-6
		c-1.8-1.2-2.3-3.3,0.6-3.5c3.7-0.1,6-2.5,8.7-4.3c3.5-2.3,7.1-3.1,11.2-2c-2.3,3.9-6.4,4.7-10.1,6
		C569.7,564,568.4,564.3,570.1,566.2z"/>
	<path style="fill:#F7EFA0;" d="M396,531.9c1.9,4.3,1.2,8.6,1.3,12.9c0.1,6.9,0.1,13.9,0.3,20.8c0,1.1,0.4,2.1-1.1,2.1
		c-1.3,0.1-1.8-0.8-1.8-1.9c0-0.9,0-1.7,0-2.6c0-8.7,0-17.4,0-26C394.8,535.5,394.5,533.7,396,531.9z"/>
	<path style="fill:#FDE1B3;" d="M420.1,629c0.1,1,0,2.6,0.5,2.8c4.5,2.1,6.1,7,9.9,9.9c3.7,2.8,6.8,6.8,10.5,9.9
		c0,0.6-0.1,1.3-0.1,1.9c-5.3-2.4-8.5-7.3-13-10.7c-4.6-5.6-10.1-10.6-13.2-17.4C417.5,625.1,418.3,627.8,420.1,629z"/>
	<path style="fill:#F8EDA4;" d="M481.1,670.9c-0.3,0-0.6,0-0.9,0c-0.9-1.2-2.6-0.6-3.5-1.7c-6.3,0.7-11.3-2.8-16.6-5.2
		c0.7-0.7,0-2.5,1.2-2.4c2.4,0.1,5.6,0,7,1.4c3.6,3.7,8.1,3.9,12.6,4.5c1.1,0.2,2.5-0.2,2.7,1.5
		C483.9,670.7,482.5,670.8,481.1,670.9z"/>
	<path style="fill:#E38095;" d="M449.8,451.1c-0.3,0-0.7-0.1-1-0.1c1.4-6.5,1.4-6.5,8.4-6.9c1.2-0.1,2.2-0.3,3.2-1
		c2.8-2,5.9-3.1,9.4-2.5c0.5,0.6,0.5,1.2,0,1.7c-0.1,0.3-0.2,0.5-0.2,0.8c-0.6,0.9-1.8,0.2-2.6,0.9c-0.5,0.1-1,0.1-1.6,0.2
		c-1.1,2-3.2,2.3-5.1,3c-3.2,1.2-6.4,2.5-9.3,4.2C450.6,451.4,450.2,451.3,449.8,451.1z"/>
	<path style="fill:#F6EEA1;" d="M476.8,443.2c3.5-0.9,7-1.7,10.5-2.6c1.7,0.7,3.5,0.7,5.2,0c0.3,0,0.6,0,0.9,0
		c1.3,0.1,2.6-0.3,3.8,0.4c0.3,1.8-1.4,0.9-2,1.7c0.5,1,2.1,0.1,2.6,1.3c-4.3,1.3-8.5,3.2-13.1,1.7
		C481.7,445.9,478.6,446.2,476.8,443.2z"/>
	<path style="fill:#FDE2B2;" d="M580.7,653.4c-2.3,3.2-6.2,4.3-8.8,6.9c-6.1,2.9-11.5,7.3-18.3,8.8c0.2-2.3,1.1-3.8,3.7-3.6
		c1.2,0.1,2.3-0.2,2.4-1.7c0.2-0.3,0.5-0.5,0.8-0.7c1-0.3,1.9-1,2.9-1.5c0.6-0.1,1.1,0,1.5,0.4c4.8-0.6,6.6-5.4,10.5-7.6
		C577.3,653.5,578.9,653.8,580.7,653.4z"/>
	<path style="fill:#FCF1C7;" d="M570.1,566.2c-1.3-0.1-3,0.1-3-1.6c-0.1-1.4,1.5-1.6,2.6-1.8c4.4-0.8,8.2-2.9,11.8-5.3
		C581.5,564.9,580.2,565.9,570.1,566.2z"/>
	<path style="fill:#F8EDA2;" d="M525.6,443.2c6.3-1.9,12.4-1.3,18.1,1.7c1.3,0.7,2.4,0.9,3.7,0.9c-1.6,0.9,2.1,3-0.5,3.3
		c-2.2,0.3-5.1,1.2-6.7-0.5C536.2,444.2,531,443.5,525.6,443.2z"/>
	<path style="fill:#FEDFB6;" d="M497.7,677.1c-1.2-0.3-2.6,0.2-3.6-1c4.8,0,9.6-0.4,14.3,0c10,1,19.6-1.9,29.5-1.8
		c-11.6,3.6-23.5,4.1-35.5,3.1C500.8,677.3,499.3,676.9,497.7,677.1z"/>
	<path style="fill:#F8EDA2;" d="M441.9,649.9c3.5,0.1,7.1-0.5,10.4,1.6c1.4,0.9,1.7,1.3,0.7,2.5c-0.9,1.1-1.8,4.2-3,2.5
		C447.9,653.3,442.9,654.1,441.9,649.9L441.9,649.9z"/>
	<path style="fill:#F5EFA1;" d="M623.9,571.5c0-9.1,0-18.3,0-27.4c0.2,0,0.4,0,0.7,0c0,9.1,0,18.3,0,27.4
		C624.4,571.5,624.1,571.5,623.9,571.5z"/>
	<path style="fill:#FDE8AC;" d="M484.6,445.8c4.4-0.5,8.5-2.6,13.1-1.7c0.3,2.5-0.6,3.7-3.3,3.5c-2.3-0.2-4.6,0-6.9,0
		C486.2,447.5,484.8,447.6,484.6,445.8z"/>
	<path style="fill:#F6ED9F;" d="M614.6,608c-1.1,3.1-5,5.4-2.9,9.4c-0.3,0.3-0.5,0.7-0.8,1c-3.1-2.6-1.7-5.7-0.7-8.6
		c0.3-0.9,1.1-1.6,1.5-2.5c0.5-1,0.4-2.6,2-2.2C615.2,605.4,614.4,607,614.6,608z"/>
	<path style="fill:#FAE0AA;" d="M450.6,451c4.5-3.3,9.7-4.9,14.9-6.9c0,0.6,0,1.1,0,1.7c0.1,0.8-0.4,1.3-0.9,1.7
		c-3.5,1.1-7.3,1.4-10.5,3.5c0,0-0.4,0-0.4,0l-0.4,0C452.3,451.7,451.4,451.8,450.6,451z"/>
	<path style="fill:#F6EFA1;" d="M601.9,622c2.2-0.4,2.2,1.7,2,2.5c-0.4,1.8-0.2,4.3-3.2,4.5c-2.2,0.2-1.8-1.1-1.7-2.2
		C598.9,624.6,598.9,622.3,601.9,622z"/>
	<path style="fill:#FDDEB8;" d="M567.5,453.4c4.6,1.5,8,5,12.1,7.2c0,0.3,0.1,0.5,0.1,0.8c-3.7,1.3-5.2-2.6-7.9-3.5
		c-1.6,0.3-2.5-0.8-3.5-1.8C568.1,455.3,567.8,454.4,567.5,453.4z"/>
	<path style="fill:#F4F19D;" d="M615.5,506.9c0,0.6,0.1,1.2,0,1.7c-0.5,1.7,1.3,4.9-1.6,4.7c-2.4-0.2-1.9-3.4-1.7-5.5
		c0-0.4,0.5-0.7,0.7-1C613.7,506.2,614.6,506.1,615.5,506.9z"/>
	<path style="fill:#F8EF9E;" d="M419.2,478.9c0-0.7,0.2-1.4,0.9-1.7c1.6,0,3.1-0.1,4.3,1.3c1.4,1.6-0.1,2.3-0.9,3.1
		c-1.2,1.3-2.3,0.8-3.1-0.6C420,480.3,420.9,478.9,419.2,478.9z"/>
	<path style="fill:#F2F19A;" d="M587.1,470.3c1.6,0.2,2.1,1.2,2.2,2.7c0.1,1.5-0.4,2.4-2.1,2.5c-1.7,0-2.2-0.9-2.2-2.4
		C585,471.6,585.5,470.6,587.1,470.3z"/>
	<path style="fill:#F5F0A0;" d="M486.1,450.2c3.7-1.2,7.3-1,11-0.2C493.4,451.4,489.8,451.1,486.1,450.2z"/>
	<path style="fill:#F3F0A2;" d="M568.4,456.2c1.6-0.3,2.5,0.8,3.5,1.8c-0.1,1.4,0.5,3.3-2,3.5c-2.7,0.2-2.3-1.8-2.4-3.5
		C567.5,457.3,567.7,456.6,568.4,456.2z"/>
	<path style="fill:#F5EF9F;" d="M564.9,662.1c-0.6,0-1.2,0-1.7,0c-0.7,0.9-2,0.8-2.6,1.7c-0.3,0-0.6,0-0.9,0
		c-2.2,0.3-2.9-1.3-4.1-3.3C559,660.8,562.3,658.8,564.9,662.1z"/>
	<path style="fill:#FCE0AE;" d="M602.4,484.1c2.9,2.3,4.4,5.6,6.2,8.7c-2.6,0.4-4.4-0.6-4.4-3.3
		C604.3,487.3,601.4,486.4,602.4,484.1z"/>
	<path style="fill:#F4EC9D;" d="M541.3,670.8c-0.3,0-0.6,0-0.9,0c-0.3-1.9-0.7-3.8,2.4-3.5c2.5,0.2,5.2-0.6,7.2,1.8
		c-0.9,0-1.7,0-2.6,0C545.7,670.8,543,669.2,541.3,670.8z"/>
	<path style="fill:#F1F399;" d="M406.1,498.1c2.4-0.3,3.8,0.5,3.5,3.3c-0.2,1.8-1.3,2-2.7,1.9c-1.9-0.1-1.5-1.3-0.9-2.4
		C406.5,500,406.6,499.1,406.1,498.1z"/>
	<path style="fill:#F6EFA1;" d="M597.1,629c0.6,0,1.2,0,1.7,0c0,0.4,0,0.9,0,1.3c-0.1,1.8-0.6,4.1-2.5,4c-2-0.2-0.6-2.6-1-4
		c-0.1-0.4,0-0.9,0-1.3C596,628.5,596.6,628.5,597.1,629z"/>
	<path style="fill:#EEF1A0;" d="M464.5,447.5c0-0.7,0.2-1.4,0.9-1.7c0.6,0,1.2,0,1.7-0.1c1-0.3,2-0.5,2.4,0.9
		c0.3,0.8,0.4,1.8-0.5,2.4c-0.9,0.6-2,0.7-2.9,0.2C465.7,448.7,465.7,447.4,464.5,447.5z"/>
	<path style="fill:#FEE4B0;" d="M597.1,629c-0.6,0-1.2,0-1.7,0c0-2.1,0-4.2,0-6.9C599.3,624.1,597.4,626.7,597.1,629z"/>
	<path style="fill:#FEE2B4;" d="M412.3,498.4c1.3-0.1,1.6,0.7,1.6,1.6c0,1.1,0.5,2.4-0.9,3c-1.1,0.5-1.6-0.4-1.6-1.3
		C411.4,500.5,410.9,499.1,412.3,498.4z"/>
	<path style="fill:#F2F197;" d="M413.1,487.7c1.4,1.3,0.7,2.9,0.8,4.4c0.1,0.8,0.2,1.8-0.8,2.2c-1.4,0.6-2.1-0.4-2.7-1.4
		C411.6,491.3,411.7,489.2,413.1,487.7L413.1,487.7z"/>
	<path style="fill:#FEE1B6;" d="M420,475.4c0.6-0.9,1.2-1.8,1.8-2.6c1.2-0.9,2.3-1.8,3.5-2.7C424.6,472.9,424.1,475.9,420,475.4z"/>
	<path style="fill:#FCE8B9;" d="M615.5,506.9c-0.9,0-1.7,0-2.6,0c1.8-1.5-1.1-3.6,0.7-5.2c0.9,1.3,1.7,2.7,1.9,4.3
		C615.5,506.3,615.5,506.6,615.5,506.9z"/>
	<path style="fill:#F1F097;" d="M617.9,515.6c0,2.1,1.8,3.1,0.5,4.6c-0.2,0.3-1.4,0.2-1.6,0C615.7,518.8,616.6,517.6,617.9,515.6z"
		/>
	<path style="fill:#FCDAB0;" d="M434.8,461.5c1-1.7,2.7-2.7,4.4-3.4C439.2,461,437.3,461.6,434.8,461.5z"/>
	<path style="fill:#F0F09A;" d="M398.2,517.3c0-0.6,0-1.1,0-1.7c1.5,2.3,1.5,2.3,1.1,4.8C397.6,519.9,398.6,518.3,398.2,517.3z"/>
	<path style="fill:#CD9E7D;" d="M469.8,442.3c0-0.6,0-1.2,0-1.7c0.3,0,0.6,0,0.8,0c1.5,0,2.9,0,4.4,0.1c-0.9,0.5-1.9,1.1-2.8,1.6
		C471.4,442.3,470.6,442.3,469.8,442.3z"/>
	<path style="fill:#B7786A;" d="M609.4,622c-0.2,1.4,0.5,3.4-2,3.4c-0.3-0.6-0.2-1.2,0.2-1.7C607.7,622.7,608.2,622,609.4,622z"/>
	<path style="fill:#F9CFB2;" d="M595.4,475.5c1.4,0.7,2.4,1.8,2.8,3.4C595.2,479.5,595.9,477,595.4,475.5z"/>
	<path style="fill:#F7D4AE;" d="M607.6,623.7c-0.1,0.6-0.1,1.1-0.2,1.7c-0.5,0.6-1,1.2-1.5,1.8c-0.3,0-0.6,0.1-0.8,0.1
		C605.2,625.7,605.5,624.1,607.6,623.7z"/>
	<path style="fill:#EEEF97;" d="M553.5,449.3c1.2,0,2.3,0,3.5,0C555.8,449.9,554.7,452.3,553.5,449.3z"/>
	<path style="fill:#FAE0AA;" d="M467,444c0.7-0.8,1.6-0.9,2.6-0.9c0.7,0.1,1.3,0.2,2,0.2c0,0.2-0.1,0.4-0.1,0.6
		C470,444,468.5,444,467,444z"/>
	<path style="fill:#EB7D97;" d="M925.7,380c-0.2,1.3-1.1,1.2-1.9,1.2c-1.4,0-2.2-0.5-2-2c0.1-1,0.8-1.4,1.8-1.4
		C925,377.9,925.2,379,925.7,380z"/>
	<path style="fill:#E38095;" d="M553.5,672.6c0.6-2.8,2.8-1.4,4.4-1.7C557.1,673.1,555.5,673.4,553.5,672.6z"/>
	<path style="fill:#ECDCDF;" d="M352,393.5c5.2,0.4,3-2.9,2.6-5.2c0.9-0.3,1.8-0.6,2.7-0.9c0.3,0.3,0.5,0.6,0.8,0.9
		c0.1,1.5-0.3,3.1,0.8,4.4c-0.3,2.1,0.4,4.1,1.1,6c-3.4,0.5-5.3-2.5-8-3.6C352,394.6,352,394,352,393.5z"/>
	<path style="fill:#E38095;" d="M176.7,646.4c-0.1,0.9-0.3,1.7-1.5,1.5c-0.3,0-0.7-0.6-0.7-0.8C174.9,646.2,175.9,646.5,176.7,646.4
		C176.7,646.4,176.7,646.4,176.7,646.4z"/>
	<path style="fill:#CF977F;" d="M461,666.6c0,0.3,0,0.6,0,0.9c-0.9,0-1.7,0-2.6-0.1c-2-1.2-4-2.4-6-3.6c-0.8-0.5-0.9-1-0.2-1.6
		C455.2,663.6,458.1,665.1,461,666.6z"/>
	<path style="fill:#FCEBA6;" d="M476.8,669.1c1.4,0.2,3.2-0.6,3.5,1.7C478.9,670.7,477.1,671.4,476.8,669.1z"/>
	<path style="fill:#FCEBA6;" d="M413.1,487.7c0,2.2-0.2,4.3-2.6,5.2C410.5,490.7,410.2,488.4,413.1,487.7z"/>
	<path style="fill:#FCEBA6;" d="M492.5,440.6c-1.7,1.3-3.5,1.3-5.2,0C489,440.6,490.7,440.6,492.5,440.6z"/>
	<path style="fill:#FCEBA6;" d="M450.6,451c0.9,0,1.8,0,2.6,0c-1.4,3.3-3.4,4.9-6.9,2.7c1.1-1,2.8-1.2,3.6-2.7
		C450.1,451,450.3,451,450.6,451z"/>
	<path style="fill:#FCEBA6;" d="M541.3,670.8c1.4-2.7,4-1.4,6.1-1.7C546.1,672.3,543.3,670.2,541.3,670.8z"/>
	<path style="fill:#FCEBA6;" d="M560.5,663.9c0.1-1.8,1.4-1.8,2.6-1.7C563,663.9,561.8,663.9,560.5,663.9z"/>
</g>
</svg>
