<?xml version="1.0" encoding="utf-8"?>
<!-- Generator: Adobe Illustrator 23.1.0, SVG Export Plug-In . SVG Version: 6.00 Build 0)  -->
<svg version="1.1" id="Layer_1" xmlns="http://www.w3.org/2000/svg" xmlns:xlink="http://www.w3.org/1999/xlink" x="0px" y="0px"
	 viewBox="0 0 1080 1080" style="enable-background:new 0 0 1080 1080;" xml:space="preserve">
<g>
	<path style="fill:#3A6BE7;" d="M56.7,307.2c4.1-29.9,17.4-54.3,38.2-76.7c21.5-23.1,48-36.7,75.1-50.5
		c97.1-49.5,194.2-98.9,290.9-149.2c15.8-8.2,32.7-13.6,48.8-20.9c8.2-0.9,15.8-1.8,24.1-2.7c10.3,2,20.7,0.4,31.2-0.2
		c2.9-0.2,5.8-0.4,8.6-0.6c17.8-1.2,34.1,4.5,49.7,12.6c111.2,57.5,223,114.1,334.5,171.1c30.6,15.6,55.1,38.9,73.1,68.9
		c4.1,6.8,6.6,13.9,8.6,21.2c1.3,14.4,3.3,37.3,4.5,51.7c-1.6,22,0,44.1,0.2,66.1c0.1,13.1-3.4,17.3-16.7,16.6
		c-35.9-1.8-71.9,1.9-107.8-2c-0.3-0.3-0.4-0.4-0.7-0.7c-0.3-19.7-1.7-39.5-0.4-59c1.6-24.2-5.9-38.3-29.6-50
		c-107.1-52.7-213.1-107.8-319.2-162.6c-14.5-7.5-26.9-7.8-41.3-0.3c-110.3,56.9-220.7,113.5-331.4,169.7
		c-12.2,6.2-17.3,14.3-17.3,27.5c0.2,23.8-0.3,47.6-0.6,71.4c-0.3,0.3-0.4,0.5-0.7,0.7c-34.6,3.7-69.2,0.4-103.8,1.7
		c-4.3,0.2-8.9-1-13.2-0.2c-3.8,0.7-7.6-1.9-8.4-5.7c-2.3-10.2,0.2-20.8,0.3-31c0.1-19.9-0.8-39.4,2.2-59.9"/>
	<path style="fill:#F2F5FD;" d="M1046.8,760.9l-1.5,0l-1.5,0c-2.4-1.9-4.4-4.3-4.5-7.2c-0.8-27-6.6-54.2,3.6-80.7
		c1.3-0.1,2.6-0.1,3.9-0.2C1046.8,702.2,1046.8,731.5,1046.8,760.9z"/>
	<path style="fill:#3A6BE7;" d="M789.9,548.1c-0.2,3.7,0.1,7.3-0.2,10.9c-0.4,6.8-0.6,13.1-2.1,19.4c-0.6,2.6-1.3,6.8-1.7,9.5
		c-8.1,54.5-35.3,98.5-75.5,136.3c-26.9,25.3-60.3,38-92.5,53.4c-0.2,0.1-0.3,0.2-0.3,0.3c-4.4,9.2-1.8,19-1.9,28.5
		c-0.4,32.7-0.3,65.4,0,98.1c0,4.3-2.5,9.2,1.9,12.9c0.1,0,0.1,0.1,0.2,0.1c6.5,3.3,11.2-1.5,16.1-4.1
		c88.3-45.7,176.4-91.7,264.8-137.1c12.5-6.4,18.4-14.7,18-28.9c-0.7-21.1,0.2-42.2-0.4-63.2c-0.3-9.5,2-13.5,12.5-13.3
		c37.8,0.7,75.6,0.5,113.4,0.7c0.4,0,0.7,0.3,0.7,0.7c0.3,29.1,0.6,58.1,0.8,87.2c0,0,0,0.1,0,0.1c-3.8,34.5-13.6,66.5-38.7,92.2
		c-0.1,0.1-0.2,0.1-0.3,0.2c-6.6,2.3-11.3,6.6-13.3,13.5c0,0.1-0.1,0.2-0.2,0.3c-11.9,11.1-25.3,19.8-39.8,27.2
		c-108,55.1-215.9,110.5-323.9,165.6c-15.5,7.9-30.9,16.5-48.9,17.5c-0.2,0-0.3-0.1-0.4-0.1c-0.8,0-1.4,0-1.8,0
		c-0.7,0-0.8-0.2-2.1,0.3c0,0-1.2,0.3-1.2,0.3c-1.1,0.4-1.3,0.4-1.8,0.5c-15.2,4.3-30.5,4.5-45.7,0.3c-0.5-0.1-1.4-0.1-2.3-0.5
		l-1.4-0.2c-3.3-0.3-1,0-4.9-0.5c-0.1,0-1.7-0.2-1.9-0.2c-13.8-0.6-25.9-6.4-37.8-12.5c-113.1-58.1-226.2-116.1-339-174.8
		c-43.7-22.8-72.4-57.8-80.4-107.8c0-0.2,0-0.4,0.1-0.5c1.8-2.5,1.4-5.3,1.2-8.1c-0.2-2.5,1.4-5.4-1.5-8.2c1.8,3.5,2.1,6.4,0.4,9
		c-0.4,0.5-1.2,0.4-1.3-0.2c-6-31.4-1.2-63.2-2.6-94.8c-0.3-7,5-6.8,9.8-6.8c35.8,0,71.6,0.2,107.3-0.2c9.9-0.1,9.7,5.5,9.7,12.4
		c-0.1,21.1,0.3,42.2-0.2,63.4c-0.3,13.2,5.1,22.6,16.6,28.5c94.1,47.6,188.3,95.1,282.5,142.5c1.3,0.7,3,0.6,5.8,1
		c0.4,0.1,0.8-0.3,0.8-0.7c0-45.9-0.1-91.1,0.1-136.4c0-10.4-8.4-9.7-14.4-12.1c-80.5-32.2-134-88.9-151.7-174.6
		c-14.8-71.3-0.9-137.3,47.6-194c3.3-3.9,4-7.4,9.2-12.3c9.6-10.2,9.8-11.3,14.9-16.3c7.1-6.9,12-9.8,18.4-15
		c26.3-21.1,56.4-34.8,90.2-41.3c0.2,0,0.4,0,0.5,0.1c1.4,1,3,1.3,4.6,1.2c0.4,0,0.7,0,1.1,0.1c0.7,0.1,1.1-0.7,0.6-1.2
		c-0.1-0.1-0.2-0.2-0.2-0.3c-0.3-0.4-0.1-1,0.4-1.1c79.8-15.1,148.6,5.1,207.8,61.7c34.9,33.4,58,72.3,68.7,119
		c1,4.5,1.1,9.2,1.7,13.8"/>
	<path style="fill:#3366E6;" d="M991.5,867c-0.2-9.2,3-15,13.5-13.7C1001.7,859,997.1,863.5,991.5,867z"/>
	<path style="fill:#3063E6;" d="M507.1,316.6c2.7,0.4,5.4,0.9,11.2,1.9c-7.9,2.6-12.6,3.8-16.9-0.9
		C503.3,317.3,505.2,316.9,507.1,316.6z"/>
	<path style="fill:#FEFEFE;" d="M441.8,536.3c1.6-6.2,3.1-12.4,4.9-18.5c13.2-44.4,43.6-69.6,88.6-76.1c41.7-6,77.2,9.4,101.5,42.7
		c27,37,28.1,77.4,6.4,119.1c-21.6,41.5-76.6,58.5-112.1,51.2c-44-9.1-76.9-39.1-86.6-85.2c-0.7-3.4-1.9-6.7-2.8-10
		c-3-3.1-2.5-6.5-0.5-9.9c0-1.2,0-2.4,0.1-3.6C439.2,542.7,438.6,539.4,441.8,536.3z"/>
	<path style="fill:#2E61E5;" d="M441.8,536.3c-0.2,3.2-0.4,6.5-0.5,9.7c-5.4-5-3.2-11.1-2.6-21.6
		C440.4,531.2,441.1,533.8,441.8,536.3z"/>
	<path style="fill:#2D61E5;" d="M441.2,549.7c0.2,3.3,0.3,6.6,0.5,9.9c-0.4,2.7-0.8,5.4-2,12.7C437.7,561.3,435.9,555.1,441.2,549.7
		z"/>
</g>
</svg>
