<?xml version="1.0" encoding="utf-8"?>
<!-- Generator: Adobe Illustrator 23.1.0, SVG Export Plug-In . SVG Version: 6.00 Build 0)  -->
<svg version="1.1" id="Layer_1" xmlns="http://www.w3.org/2000/svg" xmlns:xlink="http://www.w3.org/1999/xlink" x="0px" y="0px"
	 viewBox="0 0 1080 1080" style="enable-background:new 0 0 1080 1080;" xml:space="preserve">
<g id="Layer_x0020_1_1_" style="display:none;">
	<g id="_1421394342400" style="display:inline;">
		<g>
			<polygon style="fill:#343434;" points="539.9,0 532.7,24.6 532.7,738.7 539.9,746 871.4,550 			"/>
			<polygon style="fill:#8C8C8C;" points="539.9,0 208.5,550 539.9,746 539.9,399.3 			"/>
			<polygon style="fill:#3C3C3B;" points="539.9,808.7 535.9,813.7 535.9,1068.1 539.9,1080 871.6,612.9 			"/>
			<polygon style="fill:#8C8C8C;" points="539.9,1080 539.9,808.7 208.5,612.9 			"/>
			<polygon style="fill:#141414;" points="539.9,746 871.4,550 539.9,399.3 			"/>
			<polygon style="fill:#393939;" points="208.5,550 539.9,746 539.9,399.3 			"/>
		</g>
	</g>
</g>
<title>tether-usdt-logo</title>
<path style="display:none;fill-rule:evenodd;clip-rule:evenodd;fill:#FFFFFF;" d="M608.3,591.8L608.3,591.8
	c-3.8,0.3-23.4,1.5-67.1,1.5c-34.8,0-59.4-1-68.1-1.5l0,0c-134.3-5.9-234.6-29.3-234.6-57.3c0-28,100.2-51.3,234.6-57.3v91.3
	c8.8,0.6,33.9,2.1,68.7,2.1c41.7,0,62.6-1.7,66.3-2.1v-91.3c134,6,234,29.4,234,57.3c0,27.9-100,51.3-234,57.2l0,0L608.3,591.8z
	 M608.3,467.8V386h187V261.4H286.1V386h187v81.7c-152,7-266.3,37.1-266.3,73.2s114.3,66.2,266.3,73.2V876h135.2V614
	c151.7-7,265.8-37.1,265.8-73.1S760,474.8,608.3,467.8L608.3,467.8L608.3,467.8z M608.3,467.8L608.3,467.8z"/>
<g style="display:none;">
	<path style="fill:#C2A633;" d="M554,356.3h-77.2v152.1h121.4v63.7H476.8v152.1h80.9c20.8,0,170.7,2.3,170.5-177
		C728,368,582.8,356.3,554,356.3z"/>
	<path style="fill:#C2A633;" d="M541,0.5c-298.2,0-540,241.7-540,540s241.7,540,540,540s540-241.7,540-540S839.3,0.5,541,0.5z
		 M562.2,832.1H366.7v-260h-68.9v-63.7h68.9v-260h167.8c39.7,0,302.7-8.2,302.7,296.7C837.2,855.2,562.3,832.1,562.2,832.1
		L562.2,832.1z"/>
</g>
<g style="display:none;">
	<g id="Layer_1-2" style="display:inline;">
		<path style="fill:#FFFFFF;" d="M833.1,285.3l-98.2,50L260.7,576.9c-1.6-12.2-2.4-24.5-2.4-36.9c0.2-156,126.8-282.3,282.8-282.1
			c48.1,0.1,95.4,12.4,137.4,35.9l56.2-28.6l8.4-4.3c-154.2-111.9-370-77.7-481.9,76.6c-42.8,58.9-65.8,129.9-65.8,202.7
			c0,8.8,0.3,17.5,1,26.3c1.9,25.2-11.5,49.2-34.1,60.7l-29.6,15.1v70.5l87.3-44.5l0,0l28.3-14.4l27.8-14.2l0,0l499.9-254.7
			l56.2-28.6L948.2,297v-70.5L833.1,285.3z"/>
		<path style="fill:#FFFFFF;" d="M948.2,367.6L304.4,695.3L248.3,724l-115.6,58.9v70.4l114.8-58.5l98.2-50L820.3,503
			c1.6,12.3,2.4,24.7,2.4,37.1c-0.1,156-126.6,282.4-282.6,282.3c-48.3,0-95.8-12.5-138-36.1l-3.5,1.8l-60.9,31.1
			c154.2,111.9,369.9,77.7,481.9-76.5c42.8-58.9,65.8-129.8,65.8-202.6c0-8.9-0.3-17.7-1-26.5c-1.9-25.2,11.5-49.1,34.1-60.7
			l29.7-15.1V367.6z"/>
	</g>
</g>
<path style="display:none;fill-rule:evenodd;clip-rule:evenodd;fill:#FFFFFF;" d="M540.5,1080C243.8,1080,1,837,1,537.3
	C3.7,240.3,243.8-2.7,543.2,0C839.9,2.7,1080,243,1080,545.4C1077.3,839.7,837.2,1080,540.5,1080"/>
<path style="display:none;fill-rule:evenodd;clip-rule:evenodd;fill:#FFFFFF;" d="M591.8,475.2l-16.2,86.4l153.8,21.6l-10.8,40.5
	l-151.1-21.6c-10.8,35.1-16.2,72.9-29.7,105.3c-13.5,37.8-27,75.6-43.2,110.7c-21.6,45.9-59.3,78.3-110.6,86.4
	c-29.7,5.4-62,2.7-86.3-16.2c-8.1-5.4-16.2-16.2-16.2-24.3c0-10.8,5.4-24.3,13.5-29.7c5.4-2.7,18.9,0,27,2.7
	c8.1,8.1,16.2,18.9,21.6,29.7c16.2,21.6,37.8,24.3,59.3,8.1c24.3-21.6,37.8-51.3,45.9-81c16.2-64.8,32.4-126.9,45.9-191.7v-10.8
	l-143-21.6l5.4-40.5l148.4,21.6l18.9-83.7l-153.8-24.3l5.4-43.2l159.2,21.6c5.4-16.2,8.1-29.7,13.5-43.2
	c13.5-48.6,27-97.2,59.3-140.4c32.4-43.2,70.1-70.2,126.8-67.5c24.3,0,48.6,8.1,64.7,27c2.7,2.7,8.1,8.1,8.1,13.5
	c0,10.8,0,24.3-8.1,32.4c-10.8,8.1-24.3,5.4-35.1-5.4c-8.1-8.1-13.5-16.2-21.6-24.3c-16.2-21.6-40.5-24.3-59.3-5.4
	c-13.5,13.5-27,32.4-35.1,51.3c-18.9,56.7-32.4,116.1-51.3,175.5l148.4,21.6l-10.8,40.5L591.8,475.2"/>
<g style="display:none;">
	<path style="display:inline;fill:#FFFFFF;" d="M665,647.1h-35.8c-6.6,0-12.3-5.3-12.3-12.3v-94.1l-62.7,39.1
		c-5.3,3.3-11.9,3.3-17.2,0l-62.3-39.1v94.1c0,6.6-5.3,12.3-12.3,12.3H427c-6.6,0-12.3-5.3-12.3-12.3l0,0V453.1
		c0-9,7.3-16.2,16.2-16.2c3.3,0,6.3,1,9,3l98.8,68c4,3,9.6,3,13.6,0l98.8-68c7.3-5,17.6-3,22.5,4.3c2,2.7,2.7,6,3,9v181.7
		C677,641.4,671.6,647.1,665,647.1L665,647.1z"/>
	<path style="display:inline;fill:#FFFFFF;" d="M361.4,646.7H139.3c-9,0-16.2-7.3-16.2-16.2l0,0V447.8c0.3-7,5.6-12.3,12.6-12.3
		h35.8c6.6,0,12.3,5.3,12.3,12.3l0,0v138.9h134.6V447.8c0-6.6,5.3-12.3,12.3-12.3h34.8c6.6,0,12.3,5.3,12.3,12.3v182.7
		C377.6,639.4,370.3,646.7,361.4,646.7L361.4,646.7z"/>
	<path style="display:inline;fill:#FFFFFF;" d="M730.7,435.6h222.1c9,0,16.2,7.3,16.2,16.2v182.7c0,6.6-5.3,12.3-11.9,12.3l0,0
		h-35.8c-6.6,0-12.3-5.3-12.3-12.3l0,0V503.5c0-4.3-3.6-8-8-8l0,0H782.7c-4.3,0-8,3.6-8,8l0,0v130.9c0,6.6-5.3,12.3-12.3,12.3h-35.8
		c-6.6,0-12.3-5.3-12.3-12.3l0,0V451.8C714.4,442.9,721.7,435.6,730.7,435.6L730.7,435.6L730.7,435.6z"/>
	<path style="display:inline;fill:#FFFFFF;" d="M823.8,534h35.5c6.6,0,12.3,5.3,12.3,12.3v36.1c0,6.6-5.3,12.3-12.3,12.3h-35.5
		c-6.6,0-12.3-5.3-12.3-12.3V546C811.5,539.3,817.2,534,823.8,534z"/>
</g>
<title>litecoin-ltc-logo</title>
<circle style="fill:#FFFFFF;" cx="539.5" cy="539.7" r="539.7"/>
<title>ftx--logo</title>
<title>Asset 1</title>
<g id="Group_6" transform="translate(-128 57)">
	<g id="Group_5">
		<g id="Group_4">
			<g id="Group_3">
				<g id="Group_2" transform="translate(128 -57)">
					<g id="Group_1">
						
							<linearGradient id="Path_1_1_" gradientUnits="userSpaceOnUse" x1="1.4981" y1="1081.0762" x2="1.4981" y2="1079.9958" gradientTransform="matrix(819.395 0 0 -783.5355 -688.1436 847151.4375)">
							<stop  offset="0" style="stop-color:#222661"/>
							<stop  offset="0.272" style="stop-color:#212964"/>
							<stop  offset="0.49" style="stop-color:#1C326E"/>
							<stop  offset="0.688" style="stop-color:#15427F"/>
							<stop  offset="0.875" style="stop-color:#0B5797"/>
							<stop  offset="1" style="stop-color:#026AAB"/>
						</linearGradient>
						<path id="Path_1" style="fill:url(#Path_1_1_);" d="M802.8,749.9C877.6,668.1,978,525.9,978,525.9c5.9-9.4,5.3-21.5-1.6-30.2
							c-22.4-27.9-80.7-94.7-198.2-197.3C654.7,190.8,566.4,138.3,533,120.2c-8.9-4.9-19.8-4.1-27.9,1.9
							c-33.1,24.4-123.4,94.5-217.2,196.5C169.5,447.4,119.3,519,100.9,548.3c-5.9,9.3-5.3,21.4,1.6,30
							c24.8,31.2,91.8,110.1,199.9,196.9c110.5,88.9,210.3,158.5,247.3,183.7c9.1,6.2,21,6,29.9-0.4"/>
						
							<linearGradient id="Path_2_1_" gradientUnits="userSpaceOnUse" x1="0.9567" y1="1080.5015" x2="2.037" y2="1080.5015" gradientTransform="matrix(654.2809 0 0 -625.7827 -447.1717 676702)">
							<stop  offset="0" style="stop-color:#8565EF"/>
							<stop  offset="0.155" style="stop-color:#5E67D6"/>
							<stop  offset="0.304" style="stop-color:#4168C2"/>
							<stop  offset="0.431" style="stop-color:#2E69B6"/>
							<stop  offset="0.522" style="stop-color:#2869B2"/>
							<stop  offset="0.563" style="stop-color:#3169B8"/>
							<stop  offset="0.859" style="stop-color:#6D66DF"/>
							<stop  offset="1" style="stop-color:#8565EF"/>
						</linearGradient>
						<path id="Path_2" style="fill:url(#Path_2_1_);" d="M526.9,207.6c-7.1-3.8-16.3-3.9-22.3,1.5c-24,21.9-94.9,79.3-173.4,156.9
							C231.8,464,196.7,525.9,182,549.3c-4.7,7.4-4.2,17.1,1.3,24c19.8,25,73.4,87.9,159.6,157.3c88.2,71,168,126.6,197.4,146.7
							c7.3,5,16.9,4.9,24-0.3c30.2-22,110.6-91.5,189.9-180.4c54.3-61,109.1-134.8,128.2-165c4.7-7.5,4.2-17.2-1.3-24.1
							c-17.9-22.3-59.2-82.1-158.3-157.5C574,236.6,542.3,215.9,526.9,207.6z"/>
						
							<linearGradient id="Path_3_1_" gradientUnits="userSpaceOnUse" x1="1.4687" y1="1080.5344" x2="1.4687" y2="1079.4541" gradientTransform="matrix(348.5 0 0 -147.9 -98.4 160337.4219)">
							<stop  offset="0" style="stop-color:#8565EF"/>
							<stop  offset="0.155" style="stop-color:#5E67D6"/>
							<stop  offset="0.304" style="stop-color:#4168C2"/>
							<stop  offset="0.431" style="stop-color:#2E69B6"/>
							<stop  offset="0.522" style="stop-color:#2869B2"/>
							<stop  offset="0.563" style="stop-color:#3169B8"/>
							<stop  offset="0.859" style="stop-color:#6D66DF"/>
							<stop  offset="1" style="stop-color:#8565EF"/>
						</linearGradient>
						<path id="Path_3" style="opacity:0.33;fill:url(#Path_3_1_);enable-background:new    ;" d="M225.2,609.4l376.5-46.9
							L258.8,449.7L225.2,609.4z"/>
						
							<linearGradient id="Path_4_1_" gradientUnits="userSpaceOnUse" x1="1.4824" y1="1079.8719" x2="1.4824" y2="1079.5283" gradientTransform="matrix(124.6 0 0 -346.1 346 374406.2188)">
							<stop  offset="0" style="stop-color:#8565EF"/>
							<stop  offset="0.155" style="stop-color:#5E67D6"/>
							<stop  offset="0.304" style="stop-color:#4168C2"/>
							<stop  offset="0.431" style="stop-color:#2E69B6"/>
							<stop  offset="0.522" style="stop-color:#2869B2"/>
							<stop  offset="0.563" style="stop-color:#3169B8"/>
							<stop  offset="0.859" style="stop-color:#6D66DF"/>
							<stop  offset="1" style="stop-color:#8565EF"/>
						</linearGradient>
						<path id="Path_4" style="opacity:0.33;fill:url(#Path_4_1_);enable-background:new    ;" d="M463.4,249.4L598,623.3l-10.8-370
							L463.4,249.4z"/>
						<path id="Path_5" style="fill:#FFFFFF;" d="M575,554.1c-7.2,1-12.3,8.9-15.9,15.9c-3.6,7,12.7,18.4,12.7,18.4l56,34.5
							l46.7,25.6c0,0,11.5,4.4,18.5,2.6c7-1.7,13.2,0,17.6-24.6c4.4-24.6,3.6-53.8-2.6-125.1c-6.2-71.4-21.2-89.9-21.2-89.9
							c-1.9-1.3-4-2.3-6.2-3c-2.1-0.6-4.3-0.5-6.9-0.9c-3.2-0.4-17.1,8.3-33.2,21.3c-18.6,14.9-38,33.1-41.8,36.3
							c-7,6.2-99.6,92.6-99.6,92.6l-67.7,56.4c0,0-14.2,13.2-22-9.7c-7.9-22.9-10.2-85.1-10.2-85.1s-0.4-17.9,2.2-30.2
							c2.6-12.3,4.8-11.3,9.7-11.5c4.9-0.1,34.4,13.2,34.4,13.2s3.2,2.4,2.6,5.3c-0.5,2.9-40,40.5-40,40.5l-0.5,16.4
							c0,0,0.5,6.5,5.3,8.2c4.8,1.7,53.8-52.2,55.9-52.3c2.1-0.1,17.1,15.2,21.2,18.3c4.1,2.9,9.8-3.6,17.1-11.1
							c7.3-7.8,7.8-6.6,8.2-9.9c0.5-3.5-95-74-137.5-77.6c-42.5-3.6-3,219.3-3,219.3s3.2,13.3,7.7,21c7.3,12.7,24.2,1.1,36.4-5.8
							s33.8-27.2,33.8-27.2l172.8-159.9l19-12.7c0,0,11.8-3.6,16.4,5.8c4.8,9.4,10.6,36.4,10.6,36.4s3.6,37.6,1.2,58.8
							c-2.4,21.2-5.8,32.9-5.8,32.9s-1.2,14.2-21.2,1.2C625.6,585.4,582.2,553.2,575,554.1z"/>
						
							<linearGradient id="Path_6_1_" gradientUnits="userSpaceOnUse" x1="0.9999" y1="1080.542" x2="2.0802" y2="1080.542" gradientTransform="matrix(298.5 0 0 -80.7442 261.4 87756.9844)">
							<stop  offset="0" style="stop-color:#02C4F9"/>
							<stop  offset="1" style="stop-color:#8565EF"/>
						</linearGradient>
						<path id="Path_6" style="fill:url(#Path_6_1_);" d="M559.9,465.9L721.6,548c10.1,5.1,21.6,6.5,32.6,3.8l128.1-31.5
							c0,0-2.7-14.7-8.4-19.8C868,495.4,559.9,465.9,559.9,465.9z"/>
						<path id="Path_7" style="fill:#FFFFFF;" d="M856,842c0,0,3.2,2.4,2.6,5.3"/>
						
							<linearGradient id="Path_8_1_" gradientUnits="userSpaceOnUse" x1="1.4987" y1="1080.4044" x2="1.4987" y2="1079.3241" gradientTransform="matrix(617.8745 0 0 -492.1887 -376.2797 532288.625)">
							<stop  offset="0" style="stop-color:#2569B2;stop-opacity:0"/>
							<stop  offset="4.700000e-02" style="stop-color:#2E89C2;stop-opacity:4.700000e-02"/>
							<stop  offset="0.105" style="stop-color:#37A8D3;stop-opacity:0.106"/>
							<stop  offset="0.17" style="stop-color:#3FC4E1;stop-opacity:0.169"/>
							<stop  offset="0.244" style="stop-color:#45DAEC;stop-opacity:0.243"/>
							<stop  offset="0.33" style="stop-color:#4AEBF4;stop-opacity:0.329"/>
							<stop  offset="0.436" style="stop-color:#4EF6FB;stop-opacity:0.435"/>
							<stop  offset="0.585" style="stop-color:#4FFDFE;stop-opacity:0.584"/>
							<stop  offset="1" style="stop-color:#50FFFF"/>
						</linearGradient>
						<path id="Path_8" style="fill:url(#Path_8_1_);" d="M806.9,423.6c-96-87.3-199.6-166.7-276.1-213.7
							c-14.4-8.9-29.1,2.6-42.1,13.4C458.9,247.9,399,298,343.5,354.1c-57,57.6-85.9,94.5-113.4,124.8
							c-64.9,71.3,116.2,190.3,116.2,190.3s286.7,168.5,447.1-20c32.5-38.2,57.6-74.8,80-103.9c4.5-5.8,7.9-17.2,9.3-22.5
							c2.8-10.3-3.5-15.2-3.7-15.4"/>
						
							<linearGradient id="Path_9_1_" gradientUnits="userSpaceOnUse" x1="1.5041" y1="1080.9535" x2="1.5041" y2="1079.7155" gradientTransform="matrix(257.7728 0 0 -225.7704 186.6272 244476.3906)">
							<stop  offset="0" style="stop-color:#00AAFD"/>
							<stop  offset="1" style="stop-color:#37FDFF"/>
						</linearGradient>
						<path id="Path_9" style="opacity:0.78;fill:url(#Path_9_1_);enable-background:new    ;" d="M435.1,610.8
							c0.3,11,4.5,21.5,12,29.6c0.6,0.6,5.1-4.2,5.5-4.6l0.1-0.1l172.7-159.8l0.1-0.1l18.8-12.6c0.1-0.1,0.2-0.1,0.3-0.1
							c1.4-0.4,11.9-2.8,16.3,5.9c4.6,9.2,8.4,34.5,8.5,35.5v0.1c1.6,7.3,2.7,14.7,3.3,22.1c1.1,12.4,1,25-0.2,37.4
							c-2.4,21.2-5.8,32.9-5.8,32.9s-1.2,14.2-21.2,1.2c-20-13-63.3-45-70.5-44.1c-7.2,1-12.3,8.9-15.9,15.9
							c-3.5,6.9,12.1,17.9,12.7,18.4l0,0l56,34.5l46.7,25.5c0.1,0,0.1,0,0.1,0.1c1,0.3,11.7,4.3,18.5,2.6c7-1.7,13.2,0,17.6-24.6
							c4.4-24.6,3.6-53.8-2.6-125.1c-5.8-67.8-19.7-87.9-21.1-89.8c-0.1-0.1-0.1-0.2-0.2-0.2c-1-0.6-6.9-4.3-13.4-3.7
							c-5.3,0.5-16.6,8.3-32.8,21.2c-18.6,14.9-38,33.1-41.8,36.3c-7,6.2-98.2,91.2-99.6,92.5l0,0l-58.4,48.5"/>
						
							<linearGradient id="Path_10_1_" gradientUnits="userSpaceOnUse" x1="0.7676" y1="1079.7551" x2="1.2581" y2="1080.345" gradientTransform="matrix(80 0 0 -66.5 358.5 72367.6328)">
							<stop  offset="0" style="stop-color:#37FDFF"/>
							<stop  offset="0.245" style="stop-color:#24E0FE;stop-opacity:0.914"/>
							<stop  offset="0.549" style="stop-color:#10C3FE;stop-opacity:0.808"/>
							<stop  offset="0.812" style="stop-color:#04B0FD;stop-opacity:0.718"/>
							<stop  offset="1" style="stop-color:#00AAFD;stop-opacity:0.651"/>
						</linearGradient>
						<path id="Path_10" style="fill:url(#Path_10_1_);" d="M430.6,547c0,0-1.7-14.7-1.8-30.5c0-1.1,10-10.9,20.7-20.7
							c3.1-2.9,6.4-5.7,9.4-8.3c8.5-7.3,15.8-12.3,15.8-12.3l9,6l12.2,8.6l10.2,7.7l5.1,4.1l3.3,3.1l0.8,1v0.1c0,1.1-0.4,2.2-1.2,3
							c-0.9,0.9-8.1,8.1-13,13.2c-1.4,1.6-3.1,2.9-4.9,4.1c-0.7,0.6-1.6,1-2.5,1.3c-0.8,0.3-1.7,0.4-2.5,0.2c-0.5-0.2-1-0.4-1.4-0.6
							l-1.4-1.2L468.7,509L430.6,547z"/>
						<path id="Path_11" style="fill:#FFFFFF;" d="M663.7,476.1l42,3.9l5.7,62.9l-39.2-19.4L663.7,476.1z"/>
						<path id="Path_12" style="fill:#FFFFFF;" d="M594.2,469.2l-9.7,9.1l24.8,12.5l19.9-18.1L594.2,469.2z"/>
						<path id="Path_13" style="fill:#FFFFFF;" d="M443.3,455.6"/>
						
							<linearGradient id="Path_14_1_" gradientUnits="userSpaceOnUse" x1="1.495" y1="1083.3425" x2="1.495" y2="1081.653" gradientTransform="matrix(417.2 0 0 -222.4163 -91.6 241066.6875)">
							<stop  offset="0.363" style="stop-color:#0156DB"/>
							<stop  offset="0.375" style="stop-color:#0458D7;stop-opacity:0.98"/>
							<stop  offset="0.446" style="stop-color:#1360C6;stop-opacity:0.871"/>
							<stop  offset="0.534" style="stop-color:#1D65BB;stop-opacity:0.733"/>
							<stop  offset="0.657" style="stop-color:#2368B4;stop-opacity:0.537"/>
							<stop  offset="1" style="stop-color:#2569B2;stop-opacity:0"/>
						</linearGradient>
						<path id="Path_14" style="fill:url(#Path_14_1_);" d="M306.8,697.7c0,0,1.4,1.2,4,3.2c21.2,17.3,122,99,175.3,136.2
							c60,41.8,59.6,45,67.6,44.1c8-1,9.2,2.6,69.9-50.4c60.7-52.9,114-112,114-112l19.9-21.9c0,0-75.8-58.4-207.8-55.6
							C417.6,644,306.8,697.7,306.8,697.7z"/>
					</g>
				</g>
			</g>
		</g>
	</g>
</g>
</svg>
