<?xml version="1.0" encoding="utf-8"?>
<!-- Generator: Adobe Illustrator 23.1.0, SVG Export Plug-In . SVG Version: 6.00 Build 0)  -->
<svg version="1.1" id="Layer_1" xmlns="http://www.w3.org/2000/svg" xmlns:xlink="http://www.w3.org/1999/xlink" x="0px" y="0px"
	 viewBox="0 0 1080 1080" style="enable-background:new 0 0 1080 1080;" xml:space="preserve">
<path style="fill:#070A0E;" d="M540,1080c298.2,0,540-241.8,540-540S838.2,0,540,0S0,241.8,0,540S241.8,1080,540,1080z"/>
<path style="fill-rule:evenodd;clip-rule:evenodd;fill:#00D395;" d="M312,721.1c-16.1-9.9-26-27.4-26-46.3V569.2
	c0-12.5,10.2-22.7,22.7-22.6c4,0,7.9,1.1,11.4,3.1l238.1,138.8c13.9,8.1,22.5,23,22.5,39.2v109.3c0.1,15-12.1,27.2-27.1,27.2
	c-5,0-10-1.4-14.3-4L312,721.1z M666.8,520.8c13.9,8.1,22.5,23.1,22.5,39.2v221.8c0,6.5-3.5,12.6-9.2,15.8L628,826.8
	c-0.6,0.4-1.4,0.6-2.1,0.9V704.5c0-15.9-8.4-30.7-22.1-38.9L394.7,540.5v-139c0-12.5,10.2-22.7,22.7-22.6c4,0,7.9,1.1,11.4,3.1
	L666.8,520.8z M771.1,356.9c14,8.1,22.6,23.1,22.6,39.2v324c-0.1,6.6-3.7,12.7-9.6,15.9l-49.4,26.7V537.2c0-15.9-8.4-30.7-22-38.9
	L499,370.1V238.2c0-4,1.1-7.9,3-11.4c6.3-10.8,20.2-14.5,31-8.2L771.1,356.9z"/>
</svg>
