<?xml version="1.0" encoding="utf-8"?>
<!-- Generator: Adobe Illustrator 23.1.0, SVG Export Plug-In . SVG Version: 6.00 Build 0)  -->
<svg version="1.1" id="Layer_1" xmlns="http://www.w3.org/2000/svg" xmlns:xlink="http://www.w3.org/1999/xlink" x="0px" y="0px"
	 viewBox="0 0 1080 1080" style="enable-background:new 0 0 1080 1080;" xml:space="preserve">
<circle style="fill:#FDF504;" cx="538.3" cy="540" r="540"/>
<g>
	<path d="M492.8,294.2c-1.5-2.5-2.9-4.8-4.3-7.1c-6.2-10.1-9.8-20.9-10.7-32.7c-0.4-5.6,0.1-11.1,2.1-16.3
		c3.7-9.7,11.9-13.6,21.8-10.4c6.6,2.1,11.9,6.3,16.6,11.2c1.7,1.7,3.2,3.5,5.1,5.6c0.6-1.5,0.3-2.7,0.3-3.8
		c0-12.2,1.6-24.2,6.3-35.6c2.2-5.5,5.1-10.7,9.1-15.2c1.8-2,3.8-3.8,6.1-5.3c7.5-4.7,15-4.7,22.4,0.1c4.6,3,8.1,7.2,10.9,11.8
		c5.8,9.7,8.6,20.3,9.8,31.4c0.4,4,0.6,8,0.9,12.5c1.2-1.1,2.1-2,3-2.9c4.9-4.7,10.1-9,17-10.5s12.6,1,16.2,7
		c2.9,4.8,3.9,10,4.1,15.5c0.4,14.9-2.8,28.9-10.1,42c-0.6,1.1-1.6,2.2-1.8,3.7c1.9,1.1,4.1,1.2,6.2,1.7
		c39.6,9.9,75.6,27,107.1,53.1c33.3,27.6,57.5,61.9,74.5,101.5c10.8,25.3,18.1,51.6,22.7,78.7c4.5,26.4,6.6,53,6.4,79.8
		c0,0.8-0.1,1.6,0,2.4c0.1,1.5-0.5,2.3-2.1,2.1c-0.8-0.1-1.6,0-2.4,0c-22.9,0-45.9,0-68.8,0c-0.5,0-1.1,0-1.6,0
		c-2.9-0.1-3-0.1-3-2.8c0.1-7.6-0.3-15.1-0.7-22.7c-1.9-32.3-8-63.7-21-93.5c-18-41.3-46.4-73-86.7-93.7c-19.6-10-40.4-16.4-62.1-20
		c-17.6-2.9-35.4-3.8-53.2-3.1c-28.9,1.3-56.6,7.3-82.5,20.7c-31.4,16.3-54.7,40.8-71.8,71.5c-12.6,22.7-21,47-26.6,72.2
		c-4.9,21.9-7.9,44.1-9.1,66.5c-0.3,4.8-0.3,4.8-5,4.8c-22.8,0-45.6,0-68.4,0c-0.8,0-1.6-0.1-2.4,0c-1.9,0.2-2.6-0.5-2.5-2.5
		c0.4-4.6,0.6-9.2,0.9-13.7c2.4-29.5,6.5-58.7,13.6-87.5c8.7-35.6,21.3-69.6,40.4-101c23-37.8,53.3-68.1,92.5-88.9
		c23.9-12.7,49.3-20.9,75.9-25.6C489.4,295,490.9,294.6,492.8,294.2z"/>
	<path d="M559.8,732c0-24.2,0-48.3,0-72.5c0-0.8,0-1.6,0-2.4c0-3.5,0-3.5,3.6-3.5c20.5,0,41-0.1,61.5,0
		c37.3,0.3,69.5,26.8,76.5,63.4c8.4,44-19,83.9-61.8,92.6c-5,1-10.1,1.4-15.3,1.4c-20.1,0-40.2,0-60.3,0c-0.7,0-1.4,0-2,0
		c-1.5,0.1-2.3-0.4-2.2-2c0.1-0.9,0-1.9,0-2.8C559.8,781.4,559.8,756.7,559.8,732z"/>
	<path d="M225.4,732.2c0-24.7,0-49.4,0-74.1c0-5.2-0.3-4.5,4.6-4.5c20,0,39.9-0.1,59.9,0c36.1,0.1,67.4,24.3,76.1,59.3
		c11.6,46.9-18.8,89.9-63.5,97.1c-4,0.6-8,1-12.1,1c-20.4,0.1-40.7,0-61.1,0c-0.7,0-1.4,0-2,0c-1.4,0.1-2-0.5-1.9-1.9
		c0-1.1,0-2.2,0-3.2C225.4,781.3,225.4,756.8,225.4,732.2z"/>
	<path d="M461.5,653.7c44.1,0,78.5,34.5,78.4,78.8c-0.1,44-34.3,78.3-78.3,78.3c-44.4,0-78.8-34.4-78.7-78.8
		C382.9,688.3,417.6,653.7,461.5,653.7z"/>
	<path d="M796,653.7c44.1,0.2,78.6,34.9,78.3,78.9c-0.3,44.2-34.5,78.2-78.5,78.2c-42.1,0.1-78.6-32.2-78.6-78.6
		C717.3,688.3,751,654.1,796,653.7z"/>
	<path d="M598.9,517.9c0-6.5-0.1-13,0-19.4c0.2-7.5,5.7-13.8,12.9-15c7.4-1.2,14.5,2.8,17.2,9.8c0.8,1.9,1.1,3.9,1.1,5.9
		c0,12.6,0.1,25.1,0,37.7c-0.1,7.9-4.7,13.7-11.8,15.5c-9.7,2.5-19.1-4.5-19.4-14.6C598.7,531.1,598.9,524.5,598.9,517.9z"/>
	<path d="M509.2,518.5c0,6.3,0.1,12.7,0,19c-0.2,7.9-5.8,14-13.6,15.2c-7.3,1-14.5-3.7-16.8-11c-0.4-1.2-0.6-2.4-0.6-3.6
		c0-13.4-0.2-26.7,0.1-40.1c0.2-10.5,10.8-17.4,20.8-13.9c6,2.1,10.1,7.6,10.2,14.2C509.3,505,509.2,511.8,509.2,518.5z"/>
	<path style="fill:#FFF704;" d="M598.5,732.3c0-13.6,0-27.3,0-40.9c0-0.9,0-1.9,0-2.8c0-1.4,0.7-1.9,2-1.9c1.2,0,2.4,0,3.6,0
		c6.1,0,12.1,0.1,18.2,0c12.3-0.1,22.2,4.9,29.9,14.4c13.4,16.5,14.3,42.8,2,60.2c-7.7,11-18.4,16.8-31.9,16.7c-6.7,0-13.5,0-20.2,0
		c-3.5,0-3.6,0-3.6-3.6C598.4,760.4,598.5,746.4,598.5,732.3z"/>
	<path style="fill:#FFF704;" d="M263.9,732.3c0-13.8,0-27.5,0-41.3c0-0.9,0-1.9,0-2.8c0-1,0.6-1.4,1.5-1.5c1.2,0,2.4,0,3.6,0
		c6.3,0,12.7,0,19,0c12-0.1,21.7,4.8,29.2,13.9c8.9,10.9,12,23.6,10.7,37.5c-0.8,8.7-3.6,16.9-8.9,24c-7.7,10.4-18,15.9-31.1,15.9
		c-7,0-14,0-21,0c-3.1,0-3.1-0.1-3.1-3.2C263.9,760.6,263.9,746.5,263.9,732.3z"/>
	<path style="fill:#FFF704;" d="M501.1,732.4c-0.1,12.6-3.6,24-12.5,33.2c-17.2,17.8-45.3,15.2-59.2-5.3
		c-10.7-15.9-10.9-39.5-0.3-55.5c15.7-23.9,50-23.4,64.9,1C499,714,501.2,722.9,501.1,732.4z"/>
	<path style="fill:#FFF704;" d="M835.6,732.2c0,9.4-2.1,18.2-6.9,26.2c-15.4,25.6-51.6,25.4-66.2-0.7c-8.9-15.9-9.2-32.5-1.1-48.8
		c7-14,18.7-21.8,34.7-21.6s27.2,8.3,34.4,22.2C834.2,716.6,835.6,724.2,835.6,732.2z"/>
</g>
</svg>
