<?xml version="1.0" encoding="utf-8"?>
<!-- Generator: Adobe Illustrator 23.1.0, SVG Export Plug-In . SVG Version: 6.00 Build 0)  -->
<svg version="1.1" id="Layer_1" xmlns="http://www.w3.org/2000/svg" xmlns:xlink="http://www.w3.org/1999/xlink" x="0px" y="0px"
	 viewBox="0 0 1080 1080" style="enable-background:new 0 0 1080 1080;" xml:space="preserve">
<g id="图层_1">
	<g>
		<g>
			<g>
				<g>
					
						<radialGradient id="SVGID_1_" cx="213.1671" cy="907.5057" r="599.7219" gradientTransform="matrix(1 0 0 -1 0 1081)" gradientUnits="userSpaceOnUse">
						<stop  offset="0" style="stop-color:#77FFFF"/>
						<stop  offset="0.3939" style="stop-color:#87E4FF"/>
						<stop  offset="0.8606" style="stop-color:#6273FF"/>
						<stop  offset="1" style="stop-color:#9468FF"/>
					</radialGradient>
					<path style="fill:url(#SVGID_1_);" d="M1079.7,540c0,298.1-241.6,540-540,540C241.9,1080,0,838.4,0,540
						C0,241.9,241.9,0.3,540,0.3S1079.7,241.9,1079.7,540z"/>
					<g>
						<g>
							<defs>
								<circle id="SVGID_2_" cx="540" cy="540" r="540"/>
							</defs>
							<clipPath id="SVGID_3_">
								<use xlink:href="#SVGID_2_"  style="overflow:visible;"/>
							</clipPath>
							
								<radialGradient id="SVGID_4_" cx="520.7428" cy="366.1754" r="421.3293" gradientTransform="matrix(0.9944 -0.1056 -0.1221 -1.1498 106.2475 1202.4198)" gradientUnits="userSpaceOnUse">
								<stop  offset="0.497" style="stop-color:#00FFFF"/>
								<stop  offset="1" style="stop-color:#00F4FF;stop-opacity:0"/>
							</radialGradient>
							<path style="clip-path:url(#SVGID_3_);fill:url(#SVGID_4_);" d="M894,370.7c74.4,72.3,130.9,162.4,142.5,270.4
								c25.3,237.7-159.8,452.5-413.2,479.3c-253.5,26.8-479.3-144-504.6-381.7S236.8,517.1,490.3,490
								C628.7,475.4,849.1,327,894,370.7z"/>
						</g>
					</g>
					
						<linearGradient id="SVGID_5_" gradientUnits="userSpaceOnUse" x1="627.2362" y1="525.1654" x2="920.0853" y2="333.5217" gradientTransform="matrix(1 0 0 -1 0 1081)">
						<stop  offset="0" style="stop-color:#5A27ED"/>
						<stop  offset="1" style="stop-color:#AB37F4"/>
					</linearGradient>
					<path style="fill:url(#SVGID_5_);" d="M919.9,417.1l-0.6-6.8H831l89-76.2l-0.3-3.6c-3.6-87.8-44-144.6-45.5-147l-2.1-4.2H394.8
						c-45.2,0-132.7,14-196.9,86c-28,31.2-88.1,125.5-87.5,231.2c0.3,59.5,6.2,105.6,28.6,157.4c11.3,26.2,24.1,50.3,38.1,71.4
						c45.2,81.2,94.6,137.7,146.7,168.1c44,25.6,83.3,29.2,115.7,29.2h270.7l1.5-0.9c0.9-0.3,89.5-46.7,169.3-95.2l2.4-1.5l0.9-2.4
						c0.3-0.9,0.6-1.5,0.9-2.4c0.6-1.5,1.2-3,1.8-4.8c9.8-28.3,18.1-89,22-122.3c1.5-12.2,2.7-20.2,2.7-20.2l0.9-8.3h-0.3l0.6-6.8
						h-94.6L919.3,581l0.3-3.3C926.2,503.1,919.9,418,919.9,417.1z"/>
					<g>
						<path style="fill:#FFFFFF;" d="M522.4,749.1c0,0-88.7,8.6-350.2-59.8c106.8,208,206.5,219.3,280.8,219.3
							c61.3,0,253.8,0,253.8,0s84.2-45.8,164.2-94.3L522.4,749.1z"/>
						
							<linearGradient id="SVGID_6_" gradientUnits="userSpaceOnUse" x1="210.8819" y1="332.5787" x2="782.5296" y2="188.0731" gradientTransform="matrix(1 0 0 -1 0 1081)">
							<stop  offset="2.054068e-07" style="stop-color:#7618F4"/>
							<stop  offset="0.5036" style="stop-color:#575FF8"/>
							<stop  offset="1" style="stop-color:#09FFFF"/>
						</linearGradient>
						<path style="fill:url(#SVGID_6_);" d="M453.1,901.5c-32.1,0-77.1,0.3-121.7-28.9c-77.6-50.6-103.2-90.4-147.6-174
							c199.3,51.2,294.8,56.8,327.2,56.8c6,0,9.5-0.3,11-0.3L866.4,811c-70.5,42.2-153.8,85.4-163.3,90.4L453.1,901.5L453.1,901.5z"
							/>
						<path style="fill:#FFFFFF;" d="M354.7,667.9c0,0-42.8-49.7-57.7-87.5l484.9,87.5l124.4-94c-0.3-77.3-0.6-151.1-0.6-151.1
							H296.9c0,0,21.4-61.6,60.4-86.3l444.2,83L906.2,330c-4.2-84.2-44.6-135.7-44.6-135.7H618.8c-170.8,0-226.1,0-226.1,0
							c-41.1,0-124.7,8.9-187.4,79.4c-63.1,70.5-119,227.3-58.6,373.7c61.3,148.5,141,167.5,185.9,167.5c83,0,538.8,0,538.8,0
							c0.9-2.1,1.8-4.2,2.4-6.8c13.1-43.7,24.1-139.8,24.1-139.8h-116H354.7V667.9z"/>
						
							<linearGradient id="SVGID_7_" gradientUnits="userSpaceOnUse" x1="366.6254" y1="739.6155" x2="844.034" y2="691.2436" gradientTransform="matrix(1 0 0 -1 0 1081)">
							<stop  offset="2.054068e-07" style="stop-color:#7F4CFF"/>
							<stop  offset="1" style="stop-color:#3095FF"/>
						</linearGradient>
						<path style="fill:url(#SVGID_7_);" d="M484.4,243.7c0,0-174.9,34.2-183.6,38.4c-8.6,4.2-42.5,158-42.5,158h508.4L897,329.7
							L484.4,243.7z"/>
						
							<linearGradient id="SVGID_8_" gradientUnits="userSpaceOnUse" x1="350.5328" y1="582.312" x2="766.7053" y2="349.682" gradientTransform="matrix(1 0 0 -1 0 1081)">
							<stop  offset="2.054068e-07" style="stop-color:#7F52FF"/>
							<stop  offset="1" style="stop-color:#3096FF"/>
						</linearGradient>
						<path style="fill:url(#SVGID_8_);" d="M487.6,487.6c0,0-174.9,34.2-183.6,38.4s-42.8,158-42.8,158h489.7l149.6-113
							L487.6,487.6z"/>
						
							<linearGradient id="SVGID_9_" gradientUnits="userSpaceOnUse" x1="759.2349" y1="390.8354" x2="573.4629" y2="576.6077" gradientTransform="matrix(1 0 0 -1 0 1081)">
							<stop  offset="0" style="stop-color:#FFFFFF"/>
							<stop  offset="0.1573" style="stop-color:#FBFFFF"/>
							<stop  offset="0.3191" style="stop-color:#EFFFFF"/>
							<stop  offset="0.4829" style="stop-color:#DAFFFF"/>
							<stop  offset="0.6481" style="stop-color:#BDFFFE"/>
							<stop  offset="0.8144" style="stop-color:#98FFFE"/>
							<stop  offset="0.9795" style="stop-color:#6BFFFD"/>
							<stop  offset="1" style="stop-color:#65FFFD"/>
						</linearGradient>
						<path style="fill:url(#SVGID_9_);" d="M906.2,573.6h-609c14.9,37.8,57.7,87.5,57.7,87.5h543.2c0,0-10.7,107.1-24.7,146.7
							c0,0-509.9,0-524.8,0c-66.9,0-138.9-22.3-201.7-167.5c-63.1-145.2-4.2-303.2,58.6-373.7c63.1-70.5,146.7-79.4,187.4-79.4
							c0,0,55.6,0,226.1,0h242.5c0,0,40.5,55.9,44,142.5h-548c-38.7,24.4-60.4,86.3-60.4,86.3h608.7
							C906.2,415.9,912.2,499.5,906.2,573.6z"/>
					</g>
				</g>
				
					<linearGradient id="SVGID_10_" gradientUnits="userSpaceOnUse" x1="182.935" y1="353.461" x2="589.9958" y2="1058.5112" gradientTransform="matrix(1 0 0 -1 0 1081)">
					<stop  offset="0" style="stop-color:#FFFFFF;stop-opacity:0"/>
					<stop  offset="0.5154" style="stop-color:#E6FFFF"/>
					<stop  offset="1" style="stop-color:#CEFFFF;stop-opacity:0.5"/>
				</linearGradient>
				<path style="fill:url(#SVGID_10_);" d="M811.9,152.1c0,0-211.8-83.9-402.8,24.1c-167.8,94.6-357.6,246-216.6,556.9
					C64.9,551.3,63.7,403.4,163.7,248.4C258.6,102.1,537-31.2,811.9,152.1z"/>
			</g>
			<g>
				
					<linearGradient id="SVGID_11_" gradientUnits="userSpaceOnUse" x1="2.667808e-02" y1="735.8679" x2="841.3859" y2="735.8679" gradientTransform="matrix(1 0 0 -1 0 1081)">
					<stop  offset="0" style="stop-color:#FFFFFF"/>
					<stop  offset="0.8672" style="stop-color:#FFFFFF;stop-opacity:0.3062"/>
					<stop  offset="1" style="stop-color:#FFFFFF;stop-opacity:0.2"/>
				</linearGradient>
				<path style="opacity:0.4;fill:url(#SVGID_11_);enable-background:new    ;" d="M539.4,0C248.4,0,1.5,233.3,0,539.4
					c-0.3,52.4,7.1,103.5,20.5,150.8c0,0-0.3-5.4-0.6-14.6c-1.8-56.5,5.7-264.2,111.6-246c105.9,18.1,261.2,49.4,444.8-1.2
					S906.2,206.2,811.9,73.8C811.9,73.8,701.5,0,539.4,0z"/>
			</g>
			<path style="fill:#FFFFFF;" d="M451.3,190.1c13.1,33.6-31.8,73.5-88.1,85.7c-56.2,12.2-113-6.2-122.9-40.8
				c-15.8-54.7,39-74.4,95.2-86.6C391.8,136.6,424.9,122.9,451.3,190.1z"/>
		</g>
	</g>
</g>
</svg>
