<?xml version="1.0" encoding="utf-8"?>
<!-- Generator: Adobe Illustrator 23.1.0, SVG Export Plug-In . SVG Version: 6.00 Build 0)  -->
<svg version="1.1" id="Layer_1" xmlns="http://www.w3.org/2000/svg" xmlns:xlink="http://www.w3.org/1999/xlink" x="0px" y="0px"
	 viewBox="0 0 1080 1080" style="enable-background:new 0 0 1080 1080;" xml:space="preserve">
<circle style="display:none;fill:#02A6C2;" cx="541" cy="539.9" r="539.9"/>
<title>ftx--logo</title>
<g style="display:none;">
	<g id="Layer_1-2" style="display:inline;">
		<path style="fill:#FFFFFF;" d="M376.6,243.7c180.8-0.1,361.7-0.1,542.4,0c0.1,58.4,0.1,116.9,0,175.3
			c-180.8,0.1-361.7,0.1-542.4,0C376.6,360.5,376.6,302.1,376.6,243.7z"/>
		<path style="fill:#FFFFFF;" d="M163.1,484.9c58.3-0.3,116.7-0.3,175.1,0c0.3,58.3,0.3,116.7,0,175.1c-58.4,0.3-116.7,0.3-175.1,0
			C162.7,601.6,162.7,543.3,163.1,484.9z"/>
		<path style="fill:#FFFFFF;" d="M376.8,484.9c130.5-0.2,261-0.2,391.5,0c0.2,58.3,0.2,116.7,0,175.1c-130.5,0.2-261,0.2-391.5,0
			C376.5,601.6,376.5,543.3,376.8,484.9z"/>
		<path style="fill:#FFFFFF;" d="M376.9,726.2c58.2-0.6,116.4-0.6,174.7,0c0.6,58.2,0.6,116.4,0,174.7c-58.2,0.6-116.4,0.6-174.7,0
			C376.4,842.7,376.4,784.5,376.9,726.2z"/>
	</g>
</g>
<g>
	<g id="Layer_1-2_1_">
		<circle style="fill:#13B5EC;" cx="540" cy="540" r="540"/>
		<g>
			<path style="fill-rule:evenodd;clip-rule:evenodd;fill:#FFFFFF;" d="M580.5,435.4L702,364.5v141.8L580.5,435.4z M702,739.1
				l-162,94.5l-162-94.5V573.8l162,94.5l162-94.5L702,739.1z M378,364.5l121.5,70.9L378,506.3V364.5z M560.3,469.1L681.8,540
				l-121.5,70.9V469.1z M519.8,610.9L398.3,540l121.5-70.9V610.9z M681.8,330.7l-141.8,81l-141.8-81L540,246.4L681.8,330.7z
				 M337.5,317.3v442.1L540,874.1l202.5-114.8V317.3L540,202.5L337.5,317.3z"/>
		</g>
	</g>
</g>
</svg>
