<?xml version="1.0" encoding="utf-8"?>
<!-- Generator: Adobe Illustrator 23.1.0, SVG Export Plug-In . SVG Version: 6.00 Build 0)  -->
<svg version="1.1" id="Layer_1" xmlns="http://www.w3.org/2000/svg" xmlns:xlink="http://www.w3.org/1999/xlink" x="0px" y="0px"
	 viewBox="0 0 1080 1080" style="enable-background:new 0 0 1080 1080;" xml:space="preserve">
<circle style="fill:#02A6C2;" cx="541" cy="539.9" r="539.9"/>
<title>ftx--logo</title>
<g>
	<g id="Layer_1-2">
		<path style="fill:#FFFFFF;" d="M376.6,243.7c180.8-0.1,361.7-0.1,542.4,0c0.1,58.4,0.1,116.9,0,175.3
			c-180.8,0.1-361.7,0.1-542.4,0C376.6,360.5,376.6,302.1,376.6,243.7z"/>
		<path style="fill:#FFFFFF;" d="M163.1,484.9c58.3-0.3,116.7-0.3,175.1,0c0.3,58.3,0.3,116.7,0,175.1c-58.4,0.3-116.7,0.3-175.1,0
			C162.7,601.6,162.7,543.3,163.1,484.9z"/>
		<path style="fill:#FFFFFF;" d="M376.8,484.9c130.5-0.2,261-0.2,391.5,0c0.2,58.3,0.2,116.7,0,175.1c-130.5,0.2-261,0.2-391.5,0
			C376.5,601.6,376.5,543.3,376.8,484.9z"/>
		<path style="fill:#FFFFFF;" d="M376.9,726.2c58.2-0.6,116.4-0.6,174.7,0c0.6,58.2,0.6,116.4,0,174.7c-58.2,0.6-116.4,0.6-174.7,0
			C376.4,842.7,376.4,784.5,376.9,726.2z"/>
	</g>
</g>
</svg>
