<?xml version="1.0" encoding="utf-8"?>
<!-- Generator: Adobe Illustrator 23.1.0, SVG Export Plug-In . SVG Version: 6.00 Build 0)  -->
<svg version="1.1" id="Layer_1" xmlns="http://www.w3.org/2000/svg" xmlns:xlink="http://www.w3.org/1999/xlink" x="0px" y="0px"
	 viewBox="0 0 1080 1080" style="enable-background:new 0 0 1080 1080;" xml:space="preserve">
<g id="Layer_x0020_1_1_" style="display:none;">
	<g id="_1421394342400" style="display:inline;">
		<g>
			<polygon style="fill:#343434;" points="539.9,0 532.7,24.6 532.7,738.7 539.9,746 871.4,550 			"/>
			<polygon style="fill:#8C8C8C;" points="539.9,0 208.5,550 539.9,746 539.9,399.3 			"/>
			<polygon style="fill:#3C3C3B;" points="539.9,808.7 535.9,813.7 535.9,1068.1 539.9,1080 871.6,612.9 			"/>
			<polygon style="fill:#8C8C8C;" points="539.9,1080 539.9,808.7 208.5,612.9 			"/>
			<polygon style="fill:#141414;" points="539.9,746 871.4,550 539.9,399.3 			"/>
			<polygon style="fill:#393939;" points="208.5,550 539.9,746 539.9,399.3 			"/>
		</g>
	</g>
</g>
<title>tether-usdt-logo</title>
<path style="display:none;fill-rule:evenodd;clip-rule:evenodd;fill:#FFFFFF;" d="M608.3,591.8L608.3,591.8
	c-3.8,0.3-23.4,1.5-67.1,1.5c-34.8,0-59.4-1-68.1-1.5l0,0c-134.3-5.9-234.6-29.3-234.6-57.3c0-28,100.2-51.3,234.6-57.3v91.3
	c8.8,0.6,33.9,2.1,68.7,2.1c41.7,0,62.6-1.7,66.3-2.1v-91.3c134,6,234,29.4,234,57.3c0,27.9-100,51.3-234,57.2l0,0L608.3,591.8z
	 M608.3,467.8V386h187V261.4H286.1V386h187v81.7c-152,7-266.3,37.1-266.3,73.2s114.3,66.2,266.3,73.2V876h135.2V614
	c151.7-7,265.8-37.1,265.8-73.1S760,474.8,608.3,467.8L608.3,467.8L608.3,467.8z M608.3,467.8L608.3,467.8z"/>
<g style="display:none;">
	<path style="fill:#C2A633;" d="M554,356.3h-77.2v152.1h121.4v63.7H476.8v152.1h80.9c20.8,0,170.7,2.3,170.5-177
		C728,368,582.8,356.3,554,356.3z"/>
	<path style="fill:#C2A633;" d="M541,0.5c-298.2,0-540,241.7-540,540s241.7,540,540,540s540-241.7,540-540S839.3,0.5,541,0.5z
		 M562.2,832.1H366.7v-260h-68.9v-63.7h68.9v-260h167.8c39.7,0,302.7-8.2,302.7,296.7C837.2,855.2,562.3,832.1,562.2,832.1
		L562.2,832.1z"/>
</g>
<g style="display:none;">
	<g id="Layer_1-2" style="display:inline;">
		<path style="fill:#FFFFFF;" d="M833.1,285.3l-98.2,50L260.7,576.9c-1.6-12.2-2.4-24.5-2.4-36.9c0.2-156,126.8-282.3,282.8-282.1
			c48.1,0.1,95.4,12.4,137.4,35.9l56.2-28.6l8.4-4.3c-154.2-111.9-370-77.7-481.9,76.6c-42.8,58.9-65.8,129.9-65.8,202.7
			c0,8.8,0.3,17.5,1,26.3c1.9,25.2-11.5,49.2-34.1,60.7l-29.6,15.1v70.5l87.3-44.5l0,0l28.3-14.4l27.8-14.2l0,0l499.9-254.7
			l56.2-28.6L948.2,297v-70.5L833.1,285.3z"/>
		<path style="fill:#FFFFFF;" d="M948.2,367.6L304.4,695.3L248.3,724l-115.6,58.9v70.4l114.8-58.5l98.2-50L820.3,503
			c1.6,12.3,2.4,24.7,2.4,37.1c-0.1,156-126.6,282.4-282.6,282.3c-48.3,0-95.8-12.5-138-36.1l-3.5,1.8l-60.9,31.1
			c154.2,111.9,369.9,77.7,481.9-76.5c42.8-58.9,65.8-129.8,65.8-202.6c0-8.9-0.3-17.7-1-26.5c-1.9-25.2,11.5-49.1,34.1-60.7
			l29.7-15.1V367.6z"/>
	</g>
</g>
<path style="display:none;fill-rule:evenodd;clip-rule:evenodd;fill:#FFFFFF;" d="M540.5,1080C243.8,1080,1,837,1,537.3
	C3.7,240.3,243.8-2.7,543.2,0C839.9,2.7,1080,243,1080,545.4C1077.3,839.7,837.2,1080,540.5,1080"/>
<path style="display:none;fill-rule:evenodd;clip-rule:evenodd;fill:#FFFFFF;" d="M591.8,475.2l-16.2,86.4l153.8,21.6l-10.8,40.5
	l-151.1-21.6c-10.8,35.1-16.2,72.9-29.7,105.3c-13.5,37.8-27,75.6-43.2,110.7c-21.6,45.9-59.3,78.3-110.6,86.4
	c-29.7,5.4-62,2.7-86.3-16.2c-8.1-5.4-16.2-16.2-16.2-24.3c0-10.8,5.4-24.3,13.5-29.7c5.4-2.7,18.9,0,27,2.7
	c8.1,8.1,16.2,18.9,21.6,29.7c16.2,21.6,37.8,24.3,59.3,8.1c24.3-21.6,37.8-51.3,45.9-81c16.2-64.8,32.4-126.9,45.9-191.7v-10.8
	l-143-21.6l5.4-40.5l148.4,21.6l18.9-83.7l-153.8-24.3l5.4-43.2l159.2,21.6c5.4-16.2,8.1-29.7,13.5-43.2
	c13.5-48.6,27-97.2,59.3-140.4c32.4-43.2,70.1-70.2,126.8-67.5c24.3,0,48.6,8.1,64.7,27c2.7,2.7,8.1,8.1,8.1,13.5
	c0,10.8,0,24.3-8.1,32.4c-10.8,8.1-24.3,5.4-35.1-5.4c-8.1-8.1-13.5-16.2-21.6-24.3c-16.2-21.6-40.5-24.3-59.3-5.4
	c-13.5,13.5-27,32.4-35.1,51.3c-18.9,56.7-32.4,116.1-51.3,175.5l148.4,21.6l-10.8,40.5L591.8,475.2"/>
<g>
	<g>
		<defs>
			<rect id="SVGID_1_" x="-15" y="-16" width="1110" height="1110"/>
		</defs>
		<clipPath id="SVGID_2_">
			<use xlink:href="#SVGID_1_"  style="overflow:visible;"/>
		</clipPath>
		<g id="b" style="clip-path:url(#SVGID_2_);">
			<circle style="fill:#8834FF;" cx="540.2" cy="539.5" r="538.3"/>
			<path style="display:none;fill:#FFFFFF;" d="M775.6,752.9L593.8,313.4c-10.3-22.7-25.5-33.8-45.6-33.8h-15
				c-20.2,0-35.5,11.1-45.8,33.9L408,505.7h-60.1c-17.9,0.1-32.5,14.6-32.7,32.7v0.3c0,0,14.1,32.5,32,32.2h32.2L303.8,754
				c-1.4,4-2.2,8.2-2.2,12.5c0,10.3,3.2,18.3,8.9,24.6c5.7,6.2,13.9,9.3,24.1,9.3c6.8-0.1,13.3-2.2,18.7-6.2c5.8-4,9.9-9.9,13-16.5
				l83.3-205.3h57.7c17.9-1.3,32.7-33.8,32.7-33.8v-1.7c-0.1-17.9-14.7-32.4-32.6-32.6h-30.8l63.5-158.1l172.9,430.1
				c3.2,6.7,7.2,12.5,13,16.5c5.4,4,12.1,6.1,18.7,6.2c10.3,0,18.3-3,24.1-9.3c5.8-6.2,8.9-14.3,8.9-24.5
				C777.9,761.1,777.2,756.8,775.6,752.9z"/>
		</g>
	</g>
</g>
<g id="tron" style="display:none;">
	<path style="fill:#FFFFFF;" d="M896.4,451.8c-33.4-30.9-79.7-78-117.3-111.4l-2.2-1.6c-3.7-3-7.9-5.3-12.4-6.9l0,0
		C673.7,315,251.2,236,242.9,237c-2.3,0.3-4.5,1.2-6.5,2.5l-2.1,1.7c-2.6,2.6-4.6,5.8-5.8,9.4l-0.6,1.4v7.9v1.2
		c47.6,132.5,235.4,566.4,272.4,668.2c2.2,6.9,6.5,20.1,14.4,20.7h1.8c4.2,0,22.3-23.8,22.3-23.8s322.6-391.3,355.3-432.9
		c4.2-5.1,8-10.7,11.1-16.5C906.9,467.5,903.5,458,896.4,451.8z M621.6,497.4l137.7-114.2l80.8,74.4L621.6,497.4z M568.1,489.9
		L331,295.6l383.6,70.7L568.1,489.9z M589.5,540.8l242.6-39.1L554.8,835.9L589.5,540.8z M298.9,315l249.4,211.7l-36.1,309.5
		L298.9,315z"/>
</g>
<g style="display:none;">
	<path style="display:inline;fill:#FFFFFF;" d="M665,647.1h-35.8c-6.6,0-12.3-5.3-12.3-12.3v-94.1l-62.7,39.1
		c-5.3,3.3-11.9,3.3-17.2,0l-62.3-39.1v94.1c0,6.6-5.3,12.3-12.3,12.3H427c-6.6,0-12.3-5.3-12.3-12.3l0,0V453.1
		c0-9,7.3-16.2,16.2-16.2c3.3,0,6.3,1,9,3l98.8,68c4,3,9.6,3,13.6,0l98.8-68c7.3-5,17.6-3,22.5,4.3c2,2.7,2.7,6,3,9v181.7
		C677,641.4,671.6,647.1,665,647.1L665,647.1z"/>
	<path style="display:inline;fill:#FFFFFF;" d="M361.4,646.7H139.3c-9,0-16.2-7.3-16.2-16.2l0,0V447.8c0.3-7,5.6-12.3,12.6-12.3
		h35.8c6.6,0,12.3,5.3,12.3,12.3l0,0v138.9h134.6V447.8c0-6.6,5.3-12.3,12.3-12.3h34.8c6.6,0,12.3,5.3,12.3,12.3v182.7
		C377.6,639.4,370.3,646.7,361.4,646.7L361.4,646.7z"/>
	<path style="display:inline;fill:#FFFFFF;" d="M730.7,435.6h222.1c9,0,16.2,7.3,16.2,16.2v182.7c0,6.6-5.3,12.3-11.9,12.3l0,0
		h-35.8c-6.6,0-12.3-5.3-12.3-12.3l0,0V503.5c0-4.3-3.6-8-8-8l0,0H782.7c-4.3,0-8,3.6-8,8l0,0v130.9c0,6.6-5.3,12.3-12.3,12.3h-35.8
		c-6.6,0-12.3-5.3-12.3-12.3l0,0V451.8C714.4,442.9,721.7,435.6,730.7,435.6L730.7,435.6L730.7,435.6z"/>
	<path style="display:inline;fill:#FFFFFF;" d="M823.8,534h35.5c6.6,0,12.3,5.3,12.3,12.3v36.1c0,6.6-5.3,12.3-12.3,12.3h-35.5
		c-6.6,0-12.3-5.3-12.3-12.3V546C811.5,539.3,817.2,534,823.8,534z"/>
</g>
<g>
	<g id="Layer_1-2_1_">
		<path style="fill:#FFFFFF;" d="M199.7,278.9c-10.9,0.9-19.3,2.6-18.9,3.9c4.4,10.4,31.3,71.4,31.7,71.8s6.6,0.8,14,1.1
			c32.6,1.2,58.5,7.6,86.4,21.4c20.1,9.9,34.9,20.5,50.4,35.9c22.8,22.7,37.6,47.9,46.3,78.8c1,3.6,1.8,6.7,1.8,7.2
			c0,0.7-5,0.8-26.9,0.8c-14.8,0-27.6,0.2-28.4,0.6c-1.2,0.4-4.2,7.1-17,36.3c-8.6,19.7-15.7,36.3-15.8,36.8
			c-0.4,1.6,4.7,3,17.6,4.9c2.6,0.4,18.5,0.9,37.2,1.1l32.6,0.4l-2,6.7c-22,74.5-90.1,126.6-173.6,132.8c-4.7,0.3-10.9,0.6-13.8,0.6
			h-5.2l-16.1,37c-13.8,31.6-16,37-15,37.3c4.2,1.5,13.5,2.1,35.1,2.1c27.6,0,41-1.2,63.8-5.9c92.9-19.1,170.2-78.2,205.2-157.2
			c6.7-15.2,14.7-40.2,16.1-50.7l0.4-3h69.8l0.2,1.3c5,24.7,10.5,41.3,19.9,60.9C623.7,701,677,749.2,743,775.7
			c40,16,82.9,23.7,126.1,22.6c18-0.6,32.4-2.6,31.7-4.5c-0.6-1.6-31.2-71.7-31.4-71.9c-0.2-0.2-6.5-0.4-14.2-0.7
			c-21.5-0.9-37.7-3.4-56-8.6c-28.2-8.1-56-22.8-77.4-40.7c-26.9-22.6-46.3-50.8-56.6-82c-1.2-3.6-2.3-7.3-2.5-8.4l-0.4-2l26.3-0.2
			c14.4-0.1,26.7-0.4,27.2-0.7c0.8-0.4,32.2-71.7,32.2-73.1c0-0.9-7.9-3.3-15.1-4.4c-5.3-0.9-12-1.1-38.7-1.3l-32.3-0.3l1.2-4.4
			c17.9-63.4,72.9-113.8,143.7-131.7c15.6-3.9,30.9-6,50.6-6.7c11.8-0.5,13.3-0.7,14-1.7c0.5-0.7,7.7-16.9,16.1-36.1
			c10.2-23.5,15-35.1,14.5-35.4c-1.3-0.7-9.9-2.3-16.7-2.9c-9.8-1-38.5-0.9-51.1,0.2c-72.3,6.4-137.4,35.6-186.3,83.2
			c-29.8,29.1-50.7,61.7-63.6,99.4c-3.3,9.5-7.3,24.5-8.5,31.7l-0.7,4.5h-68.6l-0.2-1.4c-0.2-0.7-0.9-4.2-1.6-7.8
			c-10.1-50.3-38.7-99.2-79.1-135.2c-46-41-103.3-66.7-166.3-74.6C240.3,278.5,215.8,277.7,199.7,278.9z"/>
	</g>
</g>
</svg>
