<?xml version="1.0" encoding="utf-8"?>
<!-- Generator: Adobe Illustrator 23.1.0, SVG Export Plug-In . SVG Version: 6.00 Build 0)  -->
<svg version="1.1" id="Layer_1" xmlns="http://www.w3.org/2000/svg" xmlns:xlink="http://www.w3.org/1999/xlink" x="0px" y="0px"
	 viewBox="0 0 1080 1080" style="enable-background:new 0 0 1080 1080;" xml:space="preserve">
<circle style="fill:#FFFFFF;" cx="543.4" cy="550.1" r="422.6"/>
<g id="Layer_x0020_1_1_" style="display:none;">
	<g id="_1421394342400" style="display:inline;">
		<g>
			<polygon style="fill:#343434;" points="539.9,0 532.7,24.6 532.7,738.7 539.9,746 871.4,550 			"/>
			<polygon style="fill:#8C8C8C;" points="539.9,0 208.5,550 539.9,746 539.9,399.3 			"/>
			<polygon style="fill:#3C3C3B;" points="539.9,808.7 535.9,813.7 535.9,1068.1 539.9,1080 871.6,612.9 			"/>
			<polygon style="fill:#8C8C8C;" points="539.9,1080 539.9,808.7 208.5,612.9 			"/>
			<polygon style="fill:#141414;" points="539.9,746 871.4,550 539.9,399.3 			"/>
			<polygon style="fill:#393939;" points="208.5,550 539.9,746 539.9,399.3 			"/>
		</g>
	</g>
</g>
<title>tether-usdt-logo</title>
<path style="display:none;fill-rule:evenodd;clip-rule:evenodd;fill:#FFFFFF;" d="M608.3,591.8L608.3,591.8
	c-3.8,0.3-23.4,1.5-67.1,1.5c-34.8,0-59.4-1-68.1-1.5l0,0c-134.3-5.9-234.6-29.3-234.6-57.3s100.2-51.3,234.6-57.3v91.3
	c8.8,0.6,33.9,2.1,68.7,2.1c41.7,0,62.6-1.7,66.3-2.1v-91.3c134,6,234,29.4,234,57.3c0,27.9-100,51.3-234,57.2l0,0L608.3,591.8z
	 M608.3,467.8V386h187V261.4H286.1V386h187v81.7c-152,7-266.3,37.1-266.3,73.2s114.3,66.2,266.3,73.2V876h135.2V614
	c151.7-7,265.8-37.1,265.8-73.1S760,474.8,608.3,467.8L608.3,467.8L608.3,467.8z M608.3,467.8L608.3,467.8z"/>
<g style="display:none;">
	<path style="display:inline;fill:#C2A633;" d="M554,356.3h-77.2v152.1h121.4v63.7H476.8v152.1h80.9c20.8,0,170.7,2.3,170.5-177
		C728,368,582.8,356.3,554,356.3z"/>
	<path style="display:inline;fill:#C2A633;" d="M541,0.5C242.8,0.5,1,242.2,1,540.5s241.7,540,540,540s540-241.7,540-540
		S839.3,0.5,541,0.5z M562.2,832.1H366.7v-260h-68.9v-63.7h68.9v-260h167.8c39.7,0,302.7-8.2,302.7,296.7
		C837.2,855.2,562.3,832.1,562.2,832.1L562.2,832.1z"/>
</g>
<g style="display:none;">
	<g id="Layer_1-2" style="display:inline;">
		<path style="fill:#FFFFFF;" d="M833.1,285.3l-98.2,50L260.7,576.9c-1.6-12.2-2.4-24.5-2.4-36.9c0.2-156,126.8-282.3,282.8-282.1
			c48.1,0.1,95.4,12.4,137.4,35.9l56.2-28.6l8.4-4.3c-154.2-111.9-370-77.7-481.9,76.6c-42.8,58.9-65.8,129.9-65.8,202.7
			c0,8.8,0.3,17.5,1,26.3c1.9,25.2-11.5,49.2-34.1,60.7l-29.6,15.1v70.5l87.3-44.5l0,0l28.3-14.4l27.8-14.2l0,0L776,385l56.2-28.6
			l116-59.4v-70.5L833.1,285.3z"/>
		<path style="fill:#FFFFFF;" d="M948.2,367.6L304.4,695.3L248.3,724l-115.6,58.9v70.4l114.8-58.5l98.2-50L820.3,503
			c1.6,12.3,2.4,24.7,2.4,37.1c-0.1,156-126.6,282.4-282.6,282.3c-48.3,0-95.8-12.5-138-36.1l-3.5,1.8l-60.9,31.1
			c154.2,111.9,369.9,77.7,481.9-76.5c42.8-58.9,65.8-129.8,65.8-202.6c0-8.9-0.3-17.7-1-26.5c-1.9-25.2,11.5-49.1,34.1-60.7
			l29.7-15.1L948.2,367.6L948.2,367.6z"/>
	</g>
</g>
<path style="display:none;fill-rule:evenodd;clip-rule:evenodd;fill:#FFFFFF;" d="M540.5,1080C243.8,1080,1,837,1,537.3
	C3.7,240.3,243.8-2.7,543.2,0C839.9,2.7,1080,243,1080,545.4C1077.3,839.7,837.2,1080,540.5,1080"/>
<path style="display:none;fill-rule:evenodd;clip-rule:evenodd;fill:#FFFFFF;" d="M591.8,475.2l-16.2,86.4l153.8,21.6l-10.8,40.5
	l-151.1-21.6c-10.8,35.1-16.2,72.9-29.7,105.3c-13.5,37.8-27,75.6-43.2,110.7C473,864,435.3,896.4,384,904.5
	c-29.7,5.4-62,2.7-86.3-16.2c-8.1-5.4-16.2-16.2-16.2-24.3c0-10.8,5.4-24.3,13.5-29.7c5.4-2.7,18.9,0,27,2.7
	c8.1,8.1,16.2,18.9,21.6,29.7c16.2,21.6,37.8,24.3,59.3,8.1c24.3-21.6,37.8-51.3,45.9-81c16.2-64.8,32.4-126.9,45.9-191.7v-10.8
	l-143-21.6l5.4-40.5l148.4,21.6l18.9-83.7l-153.8-24.3l5.4-43.2l159.2,21.6c5.4-16.2,8.1-29.7,13.5-43.2
	c13.5-48.6,27-97.2,59.3-140.4c32.4-43.2,70.1-70.2,126.8-67.5c24.3,0,48.6,8.1,64.7,27c2.7,2.7,8.1,8.1,8.1,13.5
	c0,10.8,0,24.3-8.1,32.4c-10.8,8.1-24.3,5.4-35.1-5.4c-8.1-8.1-13.5-16.2-21.6-24.3c-16.2-21.6-40.5-24.3-59.3-5.4
	c-13.5,13.5-27,32.4-35.1,51.3c-18.9,56.7-32.4,116.1-51.3,175.5l148.4,21.6l-10.8,40.5L591.8,475.2"/>
<g id="tron" style="display:none;">
	<path style="display:inline;fill:#FFFFFF;" d="M896.4,451.8c-33.4-30.9-79.7-78-117.3-111.4l-2.2-1.6c-3.7-3-7.9-5.3-12.4-6.9l0,0
		C673.7,315,251.2,236,242.9,237c-2.3,0.3-4.5,1.2-6.5,2.5l-2.1,1.7c-2.6,2.6-4.6,5.8-5.8,9.4l-0.6,1.4v7.9v1.2
		c47.6,132.5,235.4,566.4,272.4,668.2c2.2,6.9,6.5,20.1,14.4,20.7h1.8c4.2,0,22.3-23.8,22.3-23.8s322.6-391.3,355.3-432.9
		c4.2-5.1,8-10.7,11.1-16.5C906.9,467.5,903.5,458,896.4,451.8z M621.6,497.4l137.7-114.2l80.8,74.4L621.6,497.4z M568.1,489.9
		L331,295.6l383.6,70.7L568.1,489.9z M589.5,540.8l242.6-39.1L554.8,835.9L589.5,540.8z M298.9,315l249.4,211.7l-36.1,309.5
		L298.9,315z"/>
</g>
<g style="display:none;">
	<path style="display:inline;fill:#FFFFFF;" d="M665,647.1h-35.8c-6.6,0-12.3-5.3-12.3-12.3v-94.1l-62.7,39.1
		c-5.3,3.3-11.9,3.3-17.2,0l-62.3-39.1v94.1c0,6.6-5.3,12.3-12.3,12.3H427c-6.6,0-12.3-5.3-12.3-12.3l0,0V453.1
		c0-9,7.3-16.2,16.2-16.2c3.3,0,6.3,1,9,3l98.8,68c4,3,9.6,3,13.6,0l98.8-68c7.3-5,17.6-3,22.5,4.3c2,2.7,2.7,6,3,9v181.7
		C677,641.4,671.6,647.1,665,647.1L665,647.1z"/>
	<path style="display:inline;fill:#FFFFFF;" d="M361.4,646.7H139.3c-9,0-16.2-7.3-16.2-16.2l0,0V447.8c0.3-7,5.6-12.3,12.6-12.3
		h35.8c6.6,0,12.3,5.3,12.3,12.3l0,0v138.9h134.6V447.8c0-6.6,5.3-12.3,12.3-12.3h34.8c6.6,0,12.3,5.3,12.3,12.3v182.7
		C377.6,639.4,370.3,646.7,361.4,646.7L361.4,646.7z"/>
	<path style="display:inline;fill:#FFFFFF;" d="M730.7,435.6h222.1c9,0,16.2,7.3,16.2,16.2v182.7c0,6.6-5.3,12.3-11.9,12.3l0,0
		h-35.8c-6.6,0-12.3-5.3-12.3-12.3l0,0v-131c0-4.3-3.6-8-8-8l0,0H782.7c-4.3,0-8,3.6-8,8l0,0v130.9c0,6.6-5.3,12.3-12.3,12.3h-35.8
		c-6.6,0-12.3-5.3-12.3-12.3l0,0V451.8C714.4,442.9,721.7,435.6,730.7,435.6L730.7,435.6L730.7,435.6z"/>
	<path style="display:inline;fill:#FFFFFF;" d="M823.8,534h35.5c6.6,0,12.3,5.3,12.3,12.3v36.1c0,6.6-5.3,12.3-12.3,12.3h-35.5
		c-6.6,0-12.3-5.3-12.3-12.3V546C811.5,539.3,817.2,534,823.8,534z"/>
</g>
<g style="display:none;">
	<circle style="display:inline;fill-rule:evenodd;clip-rule:evenodd;fill:#D71E21;" cx="539.5" cy="537.3" r="539.7"/>
	<path style="display:inline;fill-rule:evenodd;clip-rule:evenodd;fill:#FFFFFF;" d="M905.6,744.9c-17.3,28.8-54.3,38.5-83.5,22
		L629.4,657.6v-69.3l61.2-34.7l192.6,109.2C912.4,679.4,922.4,716.1,905.6,744.9L905.6,744.9z M600.7,892.3c0,33.2-27.4,60-61.1,60
		c-33.8,0-61.1-26.9-61.1-60V673.9l61.1-34.7l61.1,34.7V892.3z M257,766.8c-29.2,16.6-66.3,6.8-83.5-22
		c-16.6-28.4-7.1-64.8,21.3-81.4c0.4-0.2,0.7-0.4,1.1-0.6l192.6-109.2l61.2,34.7v69.3L257,766.8z M195.9,411.8
		c-28.7-16-39-52.2-23-80.9c0.2-0.4,0.4-0.7,0.6-1.1c17.2-28.8,54.3-38.6,83.5-22L449.6,417v69.3L388.4,521L195.9,411.8z
		 M478.4,182.3c0-33.2,27.4-60,61.1-60c33.8,0,61.1,26.9,61.1,60v218.4l-61.1,34.7l-61.1-34.7V182.3z M629.4,519l32.4,18.3
		l-32.4,18.3V519z M568.3,451.7l32.4-18.4V470L568.3,451.7z M478.4,470v-36.7l32.4,18.3L478.4,470z M449.6,555.7l-32.4-18.3
		l32.4-18.3V555.7z M510.8,623l-32.4,18.4v-36.7L510.8,623z M600.7,604.6v36.7L568.3,623L600.7,604.6z M539.5,606.6L478.4,572v-69.3
		l61.1-34.7l61.1,34.7V572L539.5,606.6z M822,307.8c29.2-16.6,66.3-6.8,83.5,22c16.9,28.7,6.9,65.5-22.4,82L690.6,521l-61.2-34.7
		V417L822,307.8z M897.6,638.4l-178.2-101l178.2-101c42.2-23.5,57.4-76.7,33.9-118.9c-0.3-0.6-0.6-1.1-1-1.7
		c-24.8-42.2-79.8-56.7-122.8-32.3l-178.2,101V182.3c0-48.7-40.3-88.3-89.9-88.3c-49.7,0-89.9,39.5-89.9,88.3v202.1l-178.2-101
		c-43-24.4-98-9.9-122.8,32.3c-24.4,41.7-10.4,95.3,31.3,119.7c0.6,0.3,1.1,0.6,1.7,1l178.1,101l-178.1,101
		c-42.2,23.5-57.4,76.7-33.9,118.9c0.3,0.6,0.6,1.1,1,1.7c24.8,42.2,79.8,56.7,122.8,32.3l178.2-101v202.1
		c0,48.8,40.3,88.3,89.9,88.3c49.7,0,89.9-39.5,89.9-88.3V690.3l178.2,101c43,24.4,98,9.9,122.8-32.3
		c24.4-41.7,10.4-95.3-31.3-119.7C898.7,639,898.1,638.7,897.6,638.4z"/>
</g>
<title>litecoin-ltc-logo</title>
<circle style="display:none;fill:#FFFFFF;" cx="539.5" cy="539.7" r="481.1"/>
<path style="fill:#345D9D;" d="M540,0.5C242,0.5,0.5,242.1,0.5,540S242,1079.5,540,1079.5S1079.5,838,1079.5,540l0,0l0,0
	C1080.4,243,840.2,1.4,543.1,0.5l0,0H540z M549.1,558.3l-56.2,189.4h300.4c8.4-0.3,15.4,6.2,15.7,14.6l0,0v5l-26.1,90.1
	c-2.4,8.8-10.5,14.7-19.6,14.4H303.6l77-262.5l-86.2,26.1l19.6-60.1l86.2-26.1l108.4-368.4c2.5-8.7,10.5-14.6,19.6-14.4h116.3
	c8.4-0.3,15.4,6.2,15.7,14.6l0,0v5l-91.4,310.9l86.2-26.1l-18.3,62.7L549.1,558.3z"/>
</svg>
