<?xml version="1.0" encoding="utf-8"?>
<!-- Generator: Adobe Illustrator 23.1.0, SVG Export Plug-In . SVG Version: 6.00 Build 0)  -->
<svg version="1.1" id="Layer_1" xmlns="http://www.w3.org/2000/svg" xmlns:xlink="http://www.w3.org/1999/xlink" x="0px" y="0px"
	 viewBox="0 0 1080 1080" style="enable-background:new 0 0 1080 1080;" xml:space="preserve">
<g id="Layer_x0020_1" style="display:none;">
	<g id="_1421344023328">
		<path style="display:inline;fill:#FFFFFF;" d="M1064.7,671.1c-72.1,289.3-365.2,465.3-654.5,393.2
			C120.9,992.2-55.1,699.2,17,409.9C89.1,120.6,382.1-55.5,671.4,16.6C960.8,88.8,1136.8,381.8,1064.7,671.1L1064.7,671.1
			L1064.7,671.1z"/>
		<path style="fill:#FFFFFF;" d="M779,463.5c10.7-71.9-44-110.5-118.8-136.3l24.3-97.3l-59.3-14.8L601.6,310
			c-15.6-3.9-31.6-7.5-47.5-11.2l23.8-95.4l-59.2-14.8l-24.3,97.3c-12.9-2.9-25.6-5.8-37.8-8.9l0.1-0.3l-81.7-20.4l-15.8,63.3
			c0,0,44,10.1,43,10.7c24,6,28.3,21.9,27.6,34.5l-27.6,110.9c1.7,0.4,3.8,1,6.2,2c-2-0.5-4.1-1-6.3-1.5l-38.8,155.4
			c-2.9,7.3-10.4,18.2-27.2,14.1c0.6,0.9-43.1-10.7-43.1-10.7l-29.4,67.8l77.1,19.2c14.3,3.6,28.4,7.4,42.3,10.9l-24.5,98.5
			l59.2,14.8l24.3-97.4c16.2,4.4,31.9,8.4,47.2,12.3l-24.2,97l59.3,14.8l24.5-98.3c101.1,19.1,177,11.4,209-80
			c25.8-73.6-1.3-116-54.4-143.7C742.1,541.6,771.2,516.2,779,463.5L779,463.5L779,463.5z M643.6,653.4
			c-18.3,73.6-142.2,33.8-182.4,23.8l32.5-130.4C533.9,556.8,662.7,576.7,643.6,653.4L643.6,653.4z M661.9,462.5
			c-16.7,66.9-119.8,32.9-153.3,24.6l29.5-118.3C571.6,377.1,679.3,392.7,661.9,462.5L661.9,462.5z"/>
	</g>
</g>
<g id="Layer_x0020_1_1_" style="display:none;">
	<g id="_1421394342400" style="display:inline;">
		<g>
			<polygon style="fill:#343434;" points="539.9,0 532.7,24.6 532.7,738.7 539.9,746 871.4,550 			"/>
			<polygon style="fill:#8C8C8C;" points="539.9,0 208.5,550 539.9,746 539.9,399.3 			"/>
			<polygon style="fill:#3C3C3B;" points="539.9,808.7 535.9,813.7 535.9,1068.1 539.9,1080 871.6,612.9 			"/>
			<polygon style="fill:#8C8C8C;" points="539.9,1080 539.9,808.7 208.5,612.9 			"/>
			<polygon style="fill:#141414;" points="539.9,746 871.4,550 539.9,399.3 			"/>
			<polygon style="fill:#393939;" points="208.5,550 539.9,746 539.9,399.3 			"/>
		</g>
	</g>
</g>
<title>tether-usdt-logo</title>
<path style="display:none;fill-rule:evenodd;clip-rule:evenodd;fill:#FFFFFF;" d="M608.3,591.8L608.3,591.8
	c-3.8,0.3-23.4,1.5-67.1,1.5c-34.8,0-59.4-1-68.1-1.5l0,0c-134.3-5.9-234.6-29.3-234.6-57.3c0-28,100.2-51.3,234.6-57.3v91.3
	c8.8,0.6,33.9,2.1,68.7,2.1c41.7,0,62.6-1.7,66.3-2.1v-91.3c134,6,234,29.4,234,57.3c0,27.9-100,51.3-234,57.2l0,0L608.3,591.8z
	 M608.3,467.8V386h187V261.4H286.1V386h187v81.7c-152,7-266.3,37.1-266.3,73.2s114.3,66.2,266.3,73.2V876h135.2V614
	c151.7-7,265.8-37.1,265.8-73.1S760,474.8,608.3,467.8L608.3,467.8L608.3,467.8z M608.3,467.8L608.3,467.8z"/>
<g style="display:none;">
	<path style="display:inline;fill:#C2A633;" d="M554,356.3h-77.2v152.1h121.4v63.7H476.8v152.1h80.9c20.8,0,170.7,2.3,170.5-177
		C728,368,582.8,356.3,554,356.3z"/>
	<path style="display:inline;fill:#C2A633;" d="M541,0.5c-298.2,0-540,241.7-540,540s241.7,540,540,540s540-241.7,540-540
		S839.3,0.5,541,0.5z M562.2,832.1H366.7v-260h-68.9v-63.7h68.9v-260h167.8c39.7,0,302.7-8.2,302.7,296.7
		C837.2,855.2,562.3,832.1,562.2,832.1L562.2,832.1z"/>
</g>
<g id="Group_938" transform="translate(-953.348 -232.003)">
	<g id="Group_931">
		<path id="Path_8573" style="fill:#F00500;" d="M1744.7,328c-28.1,27.8-53.9,57.9-76.8,89.9l-7.2-2.3
			c-41.8-13.5-85.1-21.8-128.7-24.6c-13.1-1-62.2-1-78.2,0c-48.4,3.2-85.4,10.3-127.5,24.8c-1.7,0.7-3.2,1.2-4.7,1.7
			c-23.8-31.9-50.2-61.8-79.4-89.3c139.8-70.7,303.4-79.1,449.8-23.4c15.7,5.8,31,12.6,46,19.9L1744.7,328z"/>
		<path id="Path_8574" style="fill:#F00500;" d="M2005.5,958.5c-21.2,59.7-53.1,115-94.3,163.2c-22.4,25.9-47.2,49.7-73.8,71.3
			c-62.3,49.5-135.1,84.9-212.8,103.6c-85.9,20.4-175.5,20.4-261.5,0c-77.8-18.6-150.4-54-212.8-103.6
			c-26.6-21.6-51.4-45.4-73.8-71.3c-118.8-138.5-154.8-328.7-94.3-500c11.5-31.8,25.8-62.3,43-91.4c7.9-13.3,17.7-28.3,22.4-34.4
			c16.2,68.7,36.1,129,43.5,150.8c-0.5,1.2-1.2,2.5-1.9,3.7c-39.3,78.5-60.5,154.1-65.5,234.6c0,1-0.2,2.2-0.2,3.2
			c-1.3,24.1-0.7,35.6,3.4,50.7c12.6,47.4,51.6,99.6,112.5,150.8c99.9,83.8,235.4,144.3,338,151.3c107,7.1,264.8-54.5,370-144.6
			c16.5-14.5,32-29.8,46.5-46c10.4-12,25.9-32.6,24.8-32.6c-0.3,0,0-0.3,0.7-0.7c0.5-0.3,1-0.8,0.7-1.2c-0.2-0.2,0.2-0.7,0.7-0.8
			s0.8-0.5,0.7-0.8s0-0.7,0.7-0.8c0.5-0.2,0.7-0.7,0.5-1c-0.2-0.3,0-0.7,0.3-0.7c0.3,0,0.7-0.5,0.7-0.8c0-0.3,0.3-0.8,0.7-0.8
			c0.3,0,0.7-0.3,0.7-0.7c0.5-1.3,1.3-2.7,2.2-3.8c2.5-3.8,12.6-21.6,14-24.6c9.6-21.4,15.7-40.6,18.5-59.7
			c1.3-9.1,2.2-25.9,1.5-29.9c-0.2-0.7-0.2-1.8-0.3-3.7c-0.3-3.3-0.5-8.3-0.8-13.3c-0.3-7.5-1-18-1.5-23.1
			c-7.2-75.5-26.8-137.1-63.9-202.5c-1.5-2.5-2.9-5-3.7-7c-0.3-0.5-0.5-1-0.7-1.3l0,0c5.2-15.5,26.6-80.1,43.6-154.1l0.3,0.3
			l2.5,3.3c4.4,5.8,16,23.1,21.2,31.4c23.8,38.2,42.3,79.3,55.4,122.2C2043.7,746.7,2041.2,856.8,2005.5,958.5z"/>
		<path id="Path_8575" d="M1786.8,759.9c-0.5,2.7-8.4,10.6-16.3,16.5c-23.2,16.8-64.9,32.4-107.1,39.9c-24.1,4.3-48.2,5-55.4,1.5
			c-4.7-2.3-5.4-4.2-3.7-10.1c3.5-12.5,15-26.1,32.9-38.9c9.1-6.5,46-28.6,63.2-37.9c28.3-15.3,51.2-24.4,66.7-26.6
			c4.9-0.7,10.8-0.8,12.6,0c3,1.2,6.4,10,7.7,20.6C1788,730.5,1787.7,755.4,1786.8,759.9z"/>
		<path id="Path_8576" d="M1389.9,814.9c-1,2-6.1,4.2-11.8,5c-5.7,0.8-23.2,0.3-33.2-0.8c-35.7-4.7-73.6-15.5-101.3-28.8
			c-15.5-7.5-26.6-15-34.9-23.1l-4.7-4.8l-0.5-6.3c-0.8-11-0.7-28.3,0.7-34.4c0.8-5.2,2.7-10.1,5.2-14.6c1.3-1.7,1.3-1.7,7.4-1.7
			c7.4,0,13.6,1.2,23.8,4.3c20.7,6.3,51.6,21.6,89.1,43.9c31,18.3,42.6,27.3,51.6,39.6C1387.4,800.8,1391.4,811.6,1389.9,814.9z"/>
		<path id="Path_8577" d="M1628.5,1046.3c0,0.5-2,8.5-4.5,18c-2.5,9.5-4.5,17.1-4.5,17.5c-1.9,0.2-3.5,0.3-5.4,0.2h-5.4l-7.4,17.3
			c-4,9.5-7.7,18.3-8.3,19.6l-1,2.3l-3.5-5.7l-3.5-5.7v-46l-1.3,0.3c-2.9,0.7-23.2,3.3-32.2,4.2c-36.9,3.7-74,2.8-110.7-2.3
			c-5.9-0.8-11-1.5-11.1-1.3c-0.2,0.2,0,10.8,0.3,23.9l0.5,23.6l-2.9,4.3c-1.5,2.3-3,4.3-3,4.5c-0.5,0.5-2.2-2.2-6.1-9.8
			c-4.2-8-7.2-16.5-9.4-25.3l-1.2-4.8l-5.2,0.3l-5.2,0.5l-1.3-6.2c-0.7-3.3-1.5-8.5-1.9-11.3l-0.5-5.3l-4.4-3.8
			c-2.5-2.2-5.1-4.3-5.6-4.7c-0.8-0.7-1.2-1.8-1.2-2.8v-2l21.1,0.2l21.1,0.2l0.7,2.2l0.7,2.2l7.2,0.3c4,0.2,16.8,0.5,28.3,0.8
			l21.1,0.5l5.4-8.3l5.6-8.3h7.1l-0.2-17.3l-0.2-17.3l-9.3-4c-29.8-13-47.3-27.8-53.9-45.7c-1.3-3.7-1.3-5-1.7-21.6
			c-0.2-16.5-0.2-18,1-21.6c2.4-8.3,8.9-14.8,17.4-17c2.9-0.8,10.4-0.8,50.2-0.8l46.8,0.2l5.2,2.5c6.2,3,9.1,5.2,12.6,9.8
			c4,5.3,5.2,9.5,5.2,19.6c0,14.5-1,26.9-2.5,31.9c-2.2,6.8-5.6,13.3-9.8,19.1c-8.4,10.6-23.8,21.3-37.7,26.1l-4,1.5l0.2,17.5
			l0.2,17.5l3.7,0.3l3.7,0.3l5.1,7.5l4.9,7.5h22.6c12.5,0,23.4,0.2,24.4,0.3c1.7,0.3,2,0.2,3.7-2.7l2-3h19.4
			C1624.1,1045.5,1628.5,1045.8,1628.5,1046.3z"/>
		<path id="Path_8578" d="M1539.5,1094c-3.2,1.8-5.4,2.7-5.9,2.3c-0.5-0.2-2.9-2.2-5.4-4l-4.5-3.7l-4.7,5
			c-10.3,11-10.6,11.5-13.6,11.6c-4.7,0.5-5.7-0.3-11.5-8.8c-3-4.3-5.4-8-5.4-8s-2.2-0.3-4.7-0.5l-4.7-0.5l-2.2,4.5l-2.2,4.5
			l-3.9-1.2c-3-1-6.1-2.2-8.9-3.5l-5.1-2.5v-9.5l44.8,0.2l44.8,0.2l0.2,4.5C1546.7,1090,1546.9,1089.9,1539.5,1094z"/>
	</g>
	<path id="Path_8579" style="fill:#FFFFFF;" d="M1960.7,891.2c-0.2-0.7-0.2-1.8-0.3-3.7c-40.4-4.3-155.8-7-263,80.3
		c0,0-34.5-156.3-196.3-156.3s-221.7,156.3-221.7,156.3c-90.6-96.3-211.9-89.3-255.7-83c0,1-0.2,2.2-0.2,3.2
		c-1.3,24.1-0.7,35.6,3.4,50.7c12.6,47.4,51.6,99.6,112.5,150.8c99.9,83.8,235.4,144.3,338,151.3c107,7.1,264.8-54.5,370-144.6
		c16.5-14.5,32-29.8,46.5-46c10.4-12,25.9-32.6,24.8-32.6c-0.3,0,0-0.3,0.7-0.7c0.5-0.3,1-0.8,0.7-1.2c-0.2-0.2,0.2-0.7,0.7-0.8
		s0.8-0.5,0.7-0.8s0-0.7,0.7-0.8c0.5-0.2,0.7-0.7,0.5-1c-0.2-0.3,0-0.7,0.3-0.7c0.3,0,0.7-0.5,0.7-0.8c0-0.3,0.3-0.8,0.7-0.8
		c0.3,0,0.7-0.3,0.7-0.7c0.5-1.3,1.3-2.7,2.2-3.8c2.5-3.8,12.6-21.6,14-24.6c9.6-21.4,15.7-40.6,18.5-59.7
		C1960.5,912,1961.4,895.2,1960.7,891.2z M1539.5,1094c-3.2,1.8-5.4,2.7-5.9,2.3c-0.5-0.2-2.9-2.2-5.4-4l-4.5-3.7l-4.7,5
		c-10.3,11-10.6,11.5-13.6,11.6c-4.7,0.5-5.7-0.3-11.5-8.8c-3-4.3-5.4-8-5.4-8s-2.2-0.3-4.7-0.5l-4.7-0.5l-2.2,4.5l-2.2,4.5
		l-3.9-1.2c-3-1-6.1-2.2-8.9-3.5l-5.1-2.5v-9.5l44.8,0.2l44.8,0.2l0.2,4.5C1546.7,1090,1546.9,1089.9,1539.5,1094z M1623.7,1064.1
		c-2.5,9.5-4.5,17.1-4.5,17.5c-1.9,0.2-3.5,0.3-5.4,0.2h-5.4l-7.2,17.5c-4,9.5-7.7,18.3-8.3,19.6l-1,2.3l-3.5-5.7l-3.5-5.7v-46
		l-1.3,0.3c-2.9,0.7-23.2,3.3-32.2,4.2c-36.9,3.7-74,2.8-110.7-2.3c-5.9-0.8-11-1.5-11.1-1.3c-0.2,0.2,0,10.8,0.3,23.9l0.5,23.6
		l-2.9,4.3c-1.5,2.3-3,4.3-3,4.5c-0.5,0.5-2.2-2.2-6.1-9.8c-4.2-8-7.2-16.5-9.4-25.3l-1.2-4.8l-5.2,0.3l-5.2,0.5l-1.3-6.2
		c-0.7-3.3-1.5-8.5-1.9-11.3l-0.5-5.3l-4.4-3.8c-2.5-2.2-5.1-4.3-5.6-4.7c-0.8-0.7-1.2-1.8-1.2-2.8v-2l21.1,0.2l21.1,0.2l0.7,2.2
		l0.7,2.2l7.2,0.3c4,0.2,16.8,0.5,28.3,0.8l21.1,0.5l5.4-8.3l5.6-8.3h7.1l-0.2-17.3l-0.2-17.3l-9.3-4c-29.8-13-47.3-27.8-53.9-45.7
		c-1.3-3.7-1.3-5-1.7-21.6c-0.2-16.5-0.2-18,1-21.6c2.4-8.3,8.9-14.8,17.4-17c2.9-0.8,10.4-0.8,50.2-0.8l46.8,0.2l5.2,2.5
		c6.2,3,9.1,5.2,12.6,9.8c4,5.3,5.2,9.5,5.2,19.6c0,14.5-1,26.9-2.5,31.9c-2.2,6.8-5.6,13.3-9.8,19.1c-8.4,10.6-23.8,21.3-37.7,26.1
		l-4,1.5l0.2,17.5l0.2,17.5l3.7,0.3l3.7,0.3l5.1,7.5l4.9,7.5h22.6c12.5,0,23.4,0.2,24.4,0.3c1.7,0.3,2,0.2,3.7-2.7l2-3h19.4
		c15,0,19.4,0.2,19.4,0.7C1628.5,1046.6,1626.3,1054.8,1623.7,1064.1z"/>
	<path id="Path_8580" style="fill:none;" d="M1023.3,884.9c-10.6,1.5-16.8,3.2-16.8,3.2"/>
	<path id="Path_8581" style="fill:none;" d="M1975.3,889.7c0,0-5.4-1.2-15-2.2"/>
	<path id="Path_8582" style="fill:#FFA409;" d="M1959.3,874.3c-0.3-7.5-1-18-1.5-23.1c-7.2-75.5-26.8-137.1-63.9-202.5
		c-1.5-2.5-2.9-5-3.7-7c-0.3-0.5-0.5-1-0.7-1.3l0,0c5.2-15.5,26.6-80.1,43.6-154.1c23.1-100.4,37.7-217.8-7.1-253
		c0,0-77.5-5.7-181.3,94.8c-28.1,27.8-53.9,57.9-76.8,89.9l-7.2-2.3c-41.8-13.5-85.1-21.8-128.7-24.6c-13.1-1-62.2-1-78.2,0
		c-48.4,3.2-85.4,10.3-127.5,24.8c-1.7,0.7-3.2,1.2-4.7,1.7c-23.8-31.9-50.2-61.8-79.4-89.3c-108-100.9-188.4-95.1-188.4-95.1
		c-47.5,36.4-31.3,159.1-6.7,262.8c16.2,68.7,36.1,129,43.5,150.8c-0.5,1.2-1.2,2.5-1.9,3.7c-39.3,78.5-60.5,154.1-65.5,234.6
		c44-6.3,165.1-13.5,255.9,83c0,0,60-156.3,221.7-156.3s196.3,156.3,196.3,156.3c107.1-87.3,222.6-84.4,263-80.3
		C1960,884.2,1959.7,879.2,1959.3,874.3z M1122.5,584c0,0-63-155.4-46.8-244.2l0,0c2.7-15,7.7-28.1,15.7-38.1
		c0,0,71.4,7,186.7,133.3c0,0-21.9,10.5-51.2,32.7c0,0-0.2,0.2-0.3,0.2C1194.6,492.1,1153.9,530.3,1122.5,584L1122.5,584z
		 M1389.9,814.9c-1,2-6.1,4.2-11.8,5c-5.7,0.8-23.2,0.3-33.2-0.8c-35.7-4.7-73.6-15.5-101.3-28.8c-15.5-7.5-26.6-15-34.9-23.1
		l-4.7-4.8l-0.5-6.3c-0.8-11-0.7-28.3,0.7-34.4c0.8-5.2,2.7-10.1,5.2-14.6c1.3-1.7,1.3-1.7,7.4-1.7c7.4,0,13.6,1.2,23.8,4.3
		c20.7,6.3,51.6,21.6,89.1,43.9c31,18.3,42.6,27.3,51.6,39.6C1387.4,800.8,1391.4,811.6,1389.9,814.9z M1786.8,759.9
		c-0.5,2.7-8.4,10.6-16.3,16.5c-23.2,16.8-64.9,32.4-107.1,39.9c-24.1,4.3-48.2,5-55.4,1.5c-4.7-2.3-5.4-4.2-3.7-10.1
		c3.5-12.5,15-26.1,32.9-38.9c9.1-6.5,46-28.6,63.2-37.9c28.3-15.3,51.2-24.4,66.7-26.6c4.9-0.7,10.8-0.8,12.6,0
		c3,1.2,6.4,10,7.7,20.6C1788,730.5,1787.7,755.4,1786.8,759.9z M1758.9,467.8l-0.3-0.2c-28.3-22.3-49.5-32.7-49.5-32.7
		c111.4-126.3,180.3-133.3,180.3-133.3c7.6,10.1,12.5,23.1,15.2,38.1l0,0c15.7,88.8-45.2,244.4-45.2,244.4
		C1833.8,539.3,1799.6,499.7,1758.9,467.8L1758.9,467.8z"/>
	<path id="Path_8583" style="fill:none;" d="M1667.9,417.9c-0.3,0.3-0.5,0.8-0.8,1.2"/>
	<path id="Path_8584" style="fill:none;" d="M1889.4,640.2c-0.8,2.3-1.2,3.5-1.2,3.5"/>
	<g id="Group_934">
		<g id="Group_933">
			<g id="Group_932">
				<path id="Path_8585" style="fill:#FF9300;" d="M1904.6,339.6c-13.1-1.7-75.3-2-145.7,128.2l-0.3-0.2
					c-28.3-22.3-49.5-32.7-49.5-32.7c111.4-126.3,180.3-133.3,180.3-133.3C1897,311.7,1901.9,324.7,1904.6,339.6z"/>
			</g>
			<path id="Path_8586" style="fill:#FF8300;" d="M1859.4,584c-25.6-44.9-59.6-84.3-100.6-116.2c70.4-130.2,132.4-129.8,145.7-128.2
				l0,0C1920.2,428.6,1859.4,584,1859.4,584z"/>
			<path id="Path_8587" style="fill:#FF8300;" d="M1907.1,340.1c-0.8-0.2-1.7-0.3-2.5-0.5L1907.1,340.1z"/>
		</g>
	</g>
	<path id="Path_8588" style="fill:none;" d="M1326.7,424.4c-1.7-2.3-3.5-4.7-5.2-7"/>
	<path id="Path_8589" style="fill:none;" d="M1090.7,646.7c1.9,5.7,3,8.6,3,8.6"/>
	<g id="Group_937">
		<g id="Group_936">
			<g id="Group_935">
				<path id="Path_8590" style="fill:#FF9300;" d="M1278,434.9c0,0-21.9,10.5-51.2,32.7c0,0-0.2,0.2-0.3,0.2
					c-72.9-130.3-137.1-129.8-151-128.2c2.7-15,7.7-28.1,15.7-38.1C1091.4,301.6,1162.8,308.5,1278,434.9z"/>
			</g>
			<path id="Path_8591" style="fill:#FF8300;" d="M1226.6,467.8c-32,24.3-72.8,62.3-104.1,116.2c0,0-63-155.4-46.8-244.4l0,0
				C1089.3,338,1153.7,337.6,1226.6,467.8z"/>
			<path id="Path_8592" style="fill:#FF8300;" d="M1075.7,339.6c-0.8,0.2-1.9,0.3-2.7,0.5L1075.7,339.6z"/>
		</g>
	</g>
	<path id="Path_8593" style="fill:#FFFFFF;" d="M1688.9,670.3c0,0-53.9,3.3-47.2-38.2c6.7-41.6,48.9-46.5,60.7-44.9
		s59,18.3,50.5,53.2c-8.4,34.9-20.2,28.3-27,29.9C1719.3,671.9,1688.9,670.3,1688.9,670.3z"/>
	<path id="Path_8594" style="fill:#FFFFFF;" d="M1291.3,670.3c0,0-53.9,3.3-47.2-38.2s48.9-46.5,60.7-44.9
		c11.8,1.7,59,18.3,50.5,53.2c-8.4,34.9-20.2,28.3-27,29.9C1321.7,671.9,1291.3,670.3,1291.3,670.3z"/>
</g>
</svg>
