<?xml version="1.0" encoding="utf-8"?>
<!-- Generator: Adobe Illustrator 23.1.0, SVG Export Plug-In . SVG Version: 6.00 Build 0)  -->
<svg version="1.1" id="Layer_1" xmlns="http://www.w3.org/2000/svg" xmlns:xlink="http://www.w3.org/1999/xlink" x="0px" y="0px"
	 viewBox="0 0 1080 1080" style="enable-background:new 0 0 1080 1080;" xml:space="preserve">
<circle style="fill:#FFFFFF;" cx="539" cy="539" r="539"/>
<g id="logo_solid_white">
	<path id="path1_stroke" style="fill:#3375BB;" d="M558.7,232.3l16.7-21.6c-9.8-7.6-23.5-7.6-33.4,0L558.7,232.3z M844.7,316.3
		l27.3,0.4c0.2-15.1-11.8-27.5-26.9-27.7c-0.1,0-0.3,0-0.4,0V316.3z M558.7,900.5l-15.1,22.7c9.2,6.1,21.1,6.1,30.2,0L558.7,900.5z
		 M273.2,316.3v-27.3c-15.1,0-27.3,12.2-27.3,27.3c0,0.1,0,0.3,0,0.4L273.2,316.3z M542.1,253.9c123.8,95.9,265.5,89.7,302.7,89.7
		v-54.6c-38.5,0-161.9,4.9-269.3-78.3L542.1,253.9z M817.4,315.9c-2,126.7-7.4,216.1-17.7,282.3c-10.1,65.5-24.6,104.8-43.3,132.4
		c-18.9,28.6-42.6,45.6-77.7,66.6c-35.4,21.2-80.2,44.1-135.1,80.6l30.2,45.4c52.3-34.9,95.9-57.1,132.9-79.2
		c37.3-22.4,70.1-47,94.9-82.9c25-37,41.2-85.1,51.9-154.6c10.6-68.8,16.2-161.8,18.3-289.8L817.4,315.9z M573.9,877.8
		c-55-36.5-99.7-59.3-135.1-80.6c-35.1-21-58.7-38-77.6-66.6c-18.5-27.6-33-66.7-43.1-132.4c-10.2-66.2-15.6-155.6-17.6-282.3
		l-54.5,0.9c2.1,127.9,7.7,221,18.3,289.7c10.7,69.4,26.9,117.6,51.9,154.6c24.7,35.9,57.5,60.5,94.8,82.9
		c37,22.1,80.6,44.4,132.9,79.2L573.9,877.8z M273.2,343.6c36.8,0,178.5,6.2,302.2-89.7L542,210.8
		c-107.4,83.2-230.8,78.3-268.8,78.3V343.6z"/>
</g>
</svg>
