<?xml version="1.0" encoding="utf-8"?>
<!-- Generator: Adobe Illustrator 23.1.0, SVG Export Plug-In . SVG Version: 6.00 Build 0)  -->
<svg version="1.1" id="Layer_1" xmlns="http://www.w3.org/2000/svg" xmlns:xlink="http://www.w3.org/1999/xlink" x="0px" y="0px"
	 viewBox="0 0 1080 1080" style="enable-background:new 0 0 1080 1080;" xml:space="preserve">
<circle style="fill:#21294A;" cx="542.5" cy="542.5" r="540"/>
<g id="Layer_x0020_1_1_" style="display:none;">
	<g id="_1421394342400" style="display:inline;">
		<g>
			<polygon style="fill:#343434;" points="539.9,0 532.7,24.6 532.7,738.7 539.9,746 871.4,550 			"/>
			<polygon style="fill:#8C8C8C;" points="539.9,0 208.5,550 539.9,746 539.9,399.3 			"/>
			<polygon style="fill:#3C3C3B;" points="539.9,808.7 535.9,813.7 535.9,1068.1 539.9,1080 871.6,612.9 			"/>
			<polygon style="fill:#8C8C8C;" points="539.9,1080 539.9,808.7 208.5,612.9 			"/>
			<polygon style="fill:#141414;" points="539.9,746 871.4,550 539.9,399.3 			"/>
			<polygon style="fill:#393939;" points="208.5,550 539.9,746 539.9,399.3 			"/>
		</g>
	</g>
</g>
<title>tether-usdt-logo</title>
<path style="display:none;fill-rule:evenodd;clip-rule:evenodd;fill:#FFFFFF;" d="M608.3,591.8L608.3,591.8
	c-3.8,0.3-23.4,1.5-67.1,1.5c-34.8,0-59.4-1-68.1-1.5l0,0c-134.3-5.9-234.6-29.3-234.6-57.3c0-28,100.2-51.3,234.6-57.3v91.3
	c8.8,0.6,33.9,2.1,68.7,2.1c41.7,0,62.6-1.7,66.3-2.1v-91.3c134,6,234,29.4,234,57.3c0,27.9-100,51.3-234,57.2l0,0L608.3,591.8z
	 M608.3,467.8V386h187V261.4H286.1V386h187v81.7c-152,7-266.3,37.1-266.3,73.2s114.3,66.2,266.3,73.2V876h135.2V614
	c151.7-7,265.8-37.1,265.8-73.1S760,474.8,608.3,467.8L608.3,467.8L608.3,467.8z M608.3,467.8L608.3,467.8z"/>
<g style="display:none;">
	<path style="fill:#C2A633;" d="M554,356.3h-77.2v152.1h121.4v63.7H476.8v152.1h80.9c20.8,0,170.7,2.3,170.5-177
		C728,368,582.8,356.3,554,356.3z"/>
	<path style="fill:#C2A633;" d="M541,0.5c-298.2,0-540,241.7-540,540s241.7,540,540,540s540-241.7,540-540S839.3,0.5,541,0.5z
		 M562.2,832.1H366.7v-260h-68.9v-63.7h68.9v-260h167.8c39.7,0,302.7-8.2,302.7,296.7C837.2,855.2,562.3,832.1,562.2,832.1
		L562.2,832.1z"/>
</g>
<g style="display:none;">
	<g id="Layer_1-2" style="display:inline;">
		<path style="fill:#FFFFFF;" d="M833.1,285.3l-98.2,50L260.7,576.9c-1.6-12.2-2.4-24.5-2.4-36.9c0.2-156,126.8-282.3,282.8-282.1
			c48.1,0.1,95.4,12.4,137.4,35.9l56.2-28.6l8.4-4.3c-154.2-111.9-370-77.7-481.9,76.6c-42.8,58.9-65.8,129.9-65.8,202.7
			c0,8.8,0.3,17.5,1,26.3c1.9,25.2-11.5,49.2-34.1,60.7l-29.6,15.1v70.5l87.3-44.5l0,0l28.3-14.4l27.8-14.2l0,0l499.9-254.7
			l56.2-28.6L948.2,297v-70.5L833.1,285.3z"/>
		<path style="fill:#FFFFFF;" d="M948.2,367.6L304.4,695.3L248.3,724l-115.6,58.9v70.4l114.8-58.5l98.2-50L820.3,503
			c1.6,12.3,2.4,24.7,2.4,37.1c-0.1,156-126.6,282.4-282.6,282.3c-48.3,0-95.8-12.5-138-36.1l-3.5,1.8l-60.9,31.1
			c154.2,111.9,369.9,77.7,481.9-76.5c42.8-58.9,65.8-129.8,65.8-202.6c0-8.9-0.3-17.7-1-26.5c-1.9-25.2,11.5-49.1,34.1-60.7
			l29.7-15.1V367.6z"/>
	</g>
</g>
<path style="display:none;fill-rule:evenodd;clip-rule:evenodd;fill:#FFFFFF;" d="M540.5,1080C243.8,1080,1,837,1,537.3
	C3.7,240.3,243.8-2.7,543.2,0C839.9,2.7,1080,243,1080,545.4C1077.3,839.7,837.2,1080,540.5,1080"/>
<path style="display:none;fill-rule:evenodd;clip-rule:evenodd;fill:#FFFFFF;" d="M591.8,475.2l-16.2,86.4l153.8,21.6l-10.8,40.5
	l-151.1-21.6c-10.8,35.1-16.2,72.9-29.7,105.3c-13.5,37.8-27,75.6-43.2,110.7c-21.6,45.9-59.3,78.3-110.6,86.4
	c-29.7,5.4-62,2.7-86.3-16.2c-8.1-5.4-16.2-16.2-16.2-24.3c0-10.8,5.4-24.3,13.5-29.7c5.4-2.7,18.9,0,27,2.7
	c8.1,8.1,16.2,18.9,21.6,29.7c16.2,21.6,37.8,24.3,59.3,8.1c24.3-21.6,37.8-51.3,45.9-81c16.2-64.8,32.4-126.9,45.9-191.7v-10.8
	l-143-21.6l5.4-40.5l148.4,21.6l18.9-83.7l-153.8-24.3l5.4-43.2l159.2,21.6c5.4-16.2,8.1-29.7,13.5-43.2
	c13.5-48.6,27-97.2,59.3-140.4c32.4-43.2,70.1-70.2,126.8-67.5c24.3,0,48.6,8.1,64.7,27c2.7,2.7,8.1,8.1,8.1,13.5
	c0,10.8,0,24.3-8.1,32.4c-10.8,8.1-24.3,5.4-35.1-5.4c-8.1-8.1-13.5-16.2-21.6-24.3c-16.2-21.6-40.5-24.3-59.3-5.4
	c-13.5,13.5-27,32.4-35.1,51.3c-18.9,56.7-32.4,116.1-51.3,175.5l148.4,21.6l-10.8,40.5L591.8,475.2"/>
<g style="display:none;">
	<path style="display:inline;fill:#FFFFFF;" d="M665,647.1h-35.8c-6.6,0-12.3-5.3-12.3-12.3v-94.1l-62.7,39.1
		c-5.3,3.3-11.9,3.3-17.2,0l-62.3-39.1v94.1c0,6.6-5.3,12.3-12.3,12.3H427c-6.6,0-12.3-5.3-12.3-12.3l0,0V453.1
		c0-9,7.3-16.2,16.2-16.2c3.3,0,6.3,1,9,3l98.8,68c4,3,9.6,3,13.6,0l98.8-68c7.3-5,17.6-3,22.5,4.3c2,2.7,2.7,6,3,9v181.7
		C677,641.4,671.6,647.1,665,647.1L665,647.1z"/>
	<path style="display:inline;fill:#FFFFFF;" d="M361.4,646.7H139.3c-9,0-16.2-7.3-16.2-16.2l0,0V447.8c0.3-7,5.6-12.3,12.6-12.3
		h35.8c6.6,0,12.3,5.3,12.3,12.3l0,0v138.9h134.6V447.8c0-6.6,5.3-12.3,12.3-12.3h34.8c6.6,0,12.3,5.3,12.3,12.3v182.7
		C377.6,639.4,370.3,646.7,361.4,646.7L361.4,646.7z"/>
	<path style="display:inline;fill:#FFFFFF;" d="M730.7,435.6h222.1c9,0,16.2,7.3,16.2,16.2v182.7c0,6.6-5.3,12.3-11.9,12.3l0,0
		h-35.8c-6.6,0-12.3-5.3-12.3-12.3l0,0V503.5c0-4.3-3.6-8-8-8l0,0H782.7c-4.3,0-8,3.6-8,8l0,0v130.9c0,6.6-5.3,12.3-12.3,12.3h-35.8
		c-6.6,0-12.3-5.3-12.3-12.3l0,0V451.8C714.4,442.9,721.7,435.6,730.7,435.6L730.7,435.6L730.7,435.6z"/>
	<path style="display:inline;fill:#FFFFFF;" d="M823.8,534h35.5c6.6,0,12.3,5.3,12.3,12.3v36.1c0,6.6-5.3,12.3-12.3,12.3h-35.5
		c-6.6,0-12.3-5.3-12.3-12.3V546C811.5,539.3,817.2,534,823.8,534z"/>
</g>
<title>litecoin-ltc-logo</title>
<title>ftx--logo</title>
<title>Asset 1</title>
<g>
	<path style="fill:#FEFEFE;" d="M1080,0.6c-4,0-7.9,0-11.9,0c-355.8,0-711.5,0-1067.3,0c-0.3,0-0.5,0-0.8,0c0.1-0.2-0.3-0.6,0.3-0.5
		c0.7,0,1.4,0,2.2,0c358.4,0,716.7,0,1075.1,0C1078.3,0.1,1079.4-0.5,1080,0.6z"/>
	<path style="fill:#D0A911;" d="M538.7,371.3c1.1-0.7,2.4-0.4,3.6-0.7c0.4-0.3,0.9-0.4,1.4-0.4c4.4,0,8.8,0,13.2,0
		c0.5,0,1,0.1,1.4,0.4c19.5,3.3,33.2,13.6,40.2,32.5c7.2,19.6,14.7,39.1,22,58.7c6.7,17.7,13.3,35.4,19.9,53.1
		c0.2,0.4,0.2,0.9,0.9,1.1c1.9-7.1,3.7-14.1,5.6-21.2c3.5-13.2,6.9-26.4,10.4-39.6c3.8-14.4,7.8-28.7,11.2-43.2
		c2.9-12.5,8.1-23.5,18.5-31.6c0.3-0.6,1.1-0.7,1.6-1.1c10.8-7.2,22.6-10.2,35.6-8.7c10.1,1.2,19,4.9,26.8,11.6
		c6.8,5.9,11.7,12.8,14.3,21.3c0.3,0.8,0.4,1.7,0.5,2.6c0.5,0.7-0.1,1.5,0.5,2.2c1,5.4,0.9,10.7-0.3,16.2
		c-1.6,7.7-3.8,15.1-5.7,22.7c-3.3,13-6.8,26-10.2,39c-2.7,10.3-5.4,20.6-8.1,30.9c-4.6,17.5-9.1,35-13.7,52.4
		c-3.7,14.2-7.5,28.4-11.2,42.7c-6,23-12.1,46-18,69.1c-2,7.8-3.9,15.7-8.9,22.3c-7.8,10.2-17.9,16.7-30.7,19
		c-0.8,0.4-1.9-0.2-2.7,0.5c-5.6,1-11.3,0.9-16.8-0.3c-19.2-3.9-31.9-15-38.4-33.6c-7.1-20-14.8-39.8-22.3-59.7
		c-8.8-23.5-17.6-47-26.3-70.5c-0.5-1.4-1.1-2.8-1.9-4.8c-13.6,38.9-27,77.1-40.4,115.4c-1.3,1.6-2.3,3.2-2,5.4l0,0
		c-1,0.7-0.6,2-1,2.9c-3.7,12.2-7.3,24.5-17.6,33.3c-6.8,5.8-14.6,9.8-23.5,11.3c-0.8,0.7-1.9,0.3-2.9,0.6c-0.3,0.1-0.7,0.2-1,0.4
		c-9.8,0.8-19.2-0.6-28.2-4.3c-2.4-0.1-4.1-1.5-5.7-3.1c-7.7-5.3-14.1-11.8-17.8-20.5c-1.7-3.9-3-8-3.8-12.2c0-1.1,0.1-2.2-1-2.9
		c-2.5-7.8-5-15.5-7.5-23.3c-4.3-13.6-8.5-27.2-12.7-40.8c-0.2-0.7-0.3-1.4-0.5-2.1c-0.3-1-0.1-2.1-1-2.9c-2.9-9-5.7-17.9-8.6-26.9
		c-3.9-12.3-7.7-24.6-11.5-37c-0.2-0.8-0.4-1.6-0.5-2.3c0.1-1.1-0.1-2.1-1-2.9c-2.9-9.1-5.8-18.3-8.7-27.4
		c-5.3-16.8-10.5-33.5-15.7-50.3c-4.1-13-8.6-25.9-12-39.1c-3.8-15,0.5-28.5,10.9-39.8c8.2-8.9,18.5-13.9,30.6-15.1
		c4.1-0.8,8.1-0.8,12.2,0c7.3,0.4,14.1,2.9,20.3,6.6c9.5,5.7,16.6,13.6,20.3,24.1c2.9,8.1,5.2,16.4,7.8,24.6
		c4.5,14.3,8.9,28.6,13.3,42.9c5.3,17.1,10.7,34.2,16,51.3c0.2,0.5,0.4,1,0.7,1.8c1.7-2.7,2.3-5.6,3.3-8.4
		c7.9-22.5,15.8-45,23.6-67.5c5.1-14.7,10.2-29.5,15.4-44.1c5.3-14.7,15.8-24,30.4-29c1.5-0.5,3-1.3,4.7-1.2
		C536.9,371.3,537.9,372,538.7,371.3z"/>
	<path style="fill:#FEFEFE;" d="M536.1,868.4c-62.8-0.5-121.2-16.4-174.3-50.3c-6.2-4-12.3-8.2-17.9-13c-9.5-8.2-10.8-22.3-3-32
		c7.7-9.6,21.9-11.6,31.7-3.9c24.5,19.2,52.1,32.2,81.7,41.1c32.2,9.7,65.1,13.1,98.6,11.3c51.3-2.9,99.1-18,144.8-40.8
		c8.1-4.1,16-8.5,23.9-12.9c14.6-8.1,31.5-0.2,34.5,16.2c1.6,8.9-2.9,18.6-11.1,23.3c-43.2,24.9-88.8,43.7-137.7,53.7
		C585,865.7,559.7,868.3,536.1,868.4z"/>
	<path style="fill:#FEFEFE;" d="M413.2,272.3c-0.1,29-23.4,52.1-52.4,52.1c-28.8-0.1-52-23.6-51.9-52.6
		c0.1-28.5,23.6-51.9,52.2-51.8C390.2,220.1,413.3,243.4,413.2,272.3z"/>
	<path style="fill:#FEFEFE;" d="M707.1,269.5c18.1,10,35.7,19.6,53.2,29.4c9,5,11.4,15.6,5.4,23.4c-4.7,6.1-13,7.6-20.1,3.7
		c-13.3-7.3-26.6-14.6-39.8-22c-8.5-4.7-16.9-9.6-25.3-14.3c-7.8-4.4-11.5-11.1-11.5-19.9c0.1-8.9,3.3-16.3,11.5-20.8
		c21.6-11.9,43.2-23.8,64.9-35.6c7.6-4.1,15.7-2.5,20.5,3.9c4.6,6.2,4,14.8-1.4,20.2c-1.4,1.4-3.1,2.4-4.9,3.3
		c-16.5,9-32.9,18-49.3,27C709.3,268.3,708.4,268.8,707.1,269.5z"/>
	<path style="fill:#31280A;" d="M543.1,370.8c-0.3,0-0.6-0.1-0.9-0.1c0.1-0.8,0.8-0.9,1.4-0.9c4.4,0,8.8,0,13.2,0
		c0.6,0,1.3,0,1.4,0.9c-0.3,0-0.6,0.1-0.8,0.1C552.6,370.4,547.9,370.3,543.1,370.8z"/>
	<path style="fill:#161F2A;" d="M428.7,716.2c1.9,1,3.8,2.1,5.7,3.1C431.6,720.5,431,720.2,428.7,716.2z"/>
	<path style="fill:#C9A024;" d="M508.7,675.1c-1.4-2.8-1.3-3.1,2-5.4C510.2,671.6,509.7,673.5,508.7,675.1z"/>
	<path style="fill:#2F2502;" d="M368.4,370.3c3.9-1,7.8-1,11.7,0C376.2,370.7,372.3,370.6,368.4,370.3z"/>
	<path style="fill:#AA9F6B;" d="M368.4,370.3c3.9,0,7.8,0,11.7,0c0.1,0.1,0.2,0.3,0.3,0.4c-4.1,0-8.1,0-12.2,0
		C368.3,370.6,368.3,370.5,368.4,370.3z"/>
	<path style="fill:#C7A42B;" d="M406.1,680.5c2.5,0.4,2.6,0.7,1,2.9C406.4,682.6,406.1,681.6,406.1,680.5z"/>
	<path style="fill:#C9A024;" d="M507.7,678.1c0.7-0.8-2.7-3.1,1-2.9C508.8,676.3,508.3,677.2,507.7,678.1z"/>
	<path style="fill:#C6A32C;" d="M363,542.4c1.4,0.6,2.5,1.3,1,2.9C363.3,544.4,363,543.4,363,542.4z"/>
	<path style="fill:#A69835;" d="M384.5,611.4c1.6,0.6,0.9,1.9,1,2.9C384.9,613.5,384.5,612.5,384.5,611.4z"/>
	<path style="fill:#2C280B;" d="M462.6,723.6c0.3-0.2,0.5-0.3,0.8-0.5c1-0.5,2-0.3,3-0.1C465.3,724.2,463.9,723.6,462.6,723.6z"/>
	<path style="fill:#B89A65;" d="M766.2,408.5c-0.1,0.2-0.2,1-0.4,0.2c-0.3-0.7,0-1.6,0-2.4C766.4,406.9,766.3,407.7,766.2,408.5z"/>
	<path style="fill:#989472;" d="M466.4,723.1c-1,0-2,0.1-3,0.1c0.9-0.9,2.1-0.5,3.1-0.5C466.5,722.8,466.5,722.9,466.4,723.1z"/>
	<path style="fill:#B0996C;" d="M538.7,371.3c-0.7,1-1.7,0.4-2.5,0.5C536.9,371.2,537.8,371.3,538.7,371.3z"/>
	<path style="fill:#423918;" d="M688.5,379.5c-0.4,0.6-0.9,1-1.6,1.1C687,379.6,687.7,379.4,688.5,379.5z"/>
	<path style="fill:#BE9B68;" d="M656.8,723.2c0.7-1.1,1.8-0.4,2.7-0.5C658.7,723.3,657.8,723.2,656.8,723.2z"/>
	<path style="fill:#AE9F6F;" d="M543.1,370.8c4.8-0.8,9.5-0.9,14.3,0C552.6,370.8,547.9,370.8,543.1,370.8z"/>
</g>
</svg>
