<?xml version="1.0" encoding="utf-8"?>
<!-- Generator: Adobe Illustrator 23.1.0, SVG Export Plug-In . SVG Version: 6.00 Build 0)  -->
<svg version="1.1" id="Layer_1" xmlns="http://www.w3.org/2000/svg" xmlns:xlink="http://www.w3.org/1999/xlink" x="0px" y="0px"
	 viewBox="0 0 1080 1080" style="enable-background:new 0 0 1080 1080;" xml:space="preserve">
<g id="Layer_x0020_1">
	<g id="_1421344023328">
		<path style="fill:#23292F;" d="M1064.7,671.1c-72.1,289.3-365.2,465.3-654.5,393.2C120.9,992.2-55.1,699.2,17,409.9
			C89.1,120.6,382.1-55.5,671.4,16.6C960.8,88.8,1136.8,381.8,1064.7,671.1L1064.7,671.1L1064.7,671.1z"/>
		<path style="display:none;fill:#23292F;" d="M779,463.5c10.7-71.9-44-110.5-118.8-136.3l24.3-97.3l-59.3-14.8L601.6,310
			c-15.6-3.9-31.6-7.5-47.5-11.2l23.8-95.4l-59.2-14.8l-24.3,97.3c-12.9-2.9-25.6-5.8-37.8-8.9l0.1-0.3l-81.7-20.4l-15.8,63.3
			c0,0,44,10.1,43,10.7c24,6,28.3,21.9,27.6,34.5l-27.6,110.9c1.7,0.4,3.8,1,6.2,2c-2-0.5-4.1-1-6.3-1.5l-38.8,155.4
			c-2.9,7.3-10.4,18.2-27.2,14.1c0.6,0.9-43.1-10.7-43.1-10.7l-29.4,67.8l77.1,19.2c14.3,3.6,28.4,7.4,42.3,10.9l-24.5,98.5
			l59.2,14.8l24.3-97.4c16.2,4.4,31.9,8.4,47.2,12.3l-24.2,97l59.3,14.8l24.5-98.3c101.1,19.1,177,11.4,209-80
			c25.8-73.6-1.3-116-54.4-143.7C742.1,541.6,771.2,516.2,779,463.5L779,463.5L779,463.5z M643.6,653.4
			c-18.3,73.6-142.2,33.8-182.4,23.8l32.5-130.4C533.9,556.8,662.7,576.7,643.6,653.4L643.6,653.4z M661.9,462.5
			c-16.7,66.9-119.8,32.9-153.3,24.6l29.5-118.3C571.6,377.1,679.3,392.7,661.9,462.5L661.9,462.5z"/>
	</g>
</g>
<g id="Layer_x0020_1_1_" style="display:none;">
	<g id="_1421394342400" style="display:inline;">
		<g>
			<polygon style="fill:#343434;" points="539.9,0 532.7,24.6 532.7,738.7 539.9,746 871.4,550 			"/>
			<polygon style="fill:#8C8C8C;" points="539.9,0 208.5,550 539.9,746 539.9,399.3 			"/>
			<polygon style="fill:#3C3C3B;" points="539.9,808.7 535.9,813.7 535.9,1068.1 539.9,1080 871.6,612.9 			"/>
			<polygon style="fill:#8C8C8C;" points="539.9,1080 539.9,808.7 208.5,612.9 			"/>
			<polygon style="fill:#141414;" points="539.9,746 871.4,550 539.9,399.3 			"/>
			<polygon style="fill:#393939;" points="208.5,550 539.9,746 539.9,399.3 			"/>
		</g>
	</g>
</g>
<title>tether-usdt-logo</title>
<path style="display:none;fill-rule:evenodd;clip-rule:evenodd;fill:#FFFFFF;" d="M608.3,591.8L608.3,591.8
	c-3.8,0.3-23.4,1.5-67.1,1.5c-34.8,0-59.4-1-68.1-1.5l0,0c-134.3-5.9-234.6-29.3-234.6-57.3c0-28,100.2-51.3,234.6-57.3v91.3
	c8.8,0.6,33.9,2.1,68.7,2.1c41.7,0,62.6-1.7,66.3-2.1v-91.3c134,6,234,29.4,234,57.3c0,27.9-100,51.3-234,57.2l0,0L608.3,591.8z
	 M608.3,467.8V386h187V261.4H286.1V386h187v81.7c-152,7-266.3,37.1-266.3,73.2s114.3,66.2,266.3,73.2V876h135.2V614
	c151.7-7,265.8-37.1,265.8-73.1S760,474.8,608.3,467.8L608.3,467.8L608.3,467.8z M608.3,467.8L608.3,467.8z"/>
<g>
	<g id="Layer_1-2">
		<path style="fill:#FFFFFF;" d="M808.9,226.5h109.6L690.4,452.3c-82.6,81.7-216.5,81.7-299.2,0L163.1,226.5h109.7l173.3,171.5
			c52.5,51.8,136.9,51.8,189.4,0L808.9,226.5z"/>
		<path style="fill:#FFFFFF;" d="M271.4,854.4H161.7l229.5-227.2c82.6-81.7,216.5-81.7,299.2,0L920,854.4H810.4L635.6,681.5
			c-52.5-51.8-136.9-51.8-189.4,0L271.4,854.4z"/>
	</g>
</g>
</svg>
