<?xml version="1.0" encoding="utf-8"?>
<!-- Generator: Adobe Illustrator 23.1.0, SVG Export Plug-In . SVG Version: 6.00 Build 0)  -->
<svg version="1.1" id="Layer_1" xmlns="http://www.w3.org/2000/svg" xmlns:xlink="http://www.w3.org/1999/xlink" x="0px" y="0px"
	 viewBox="0 0 1080 1080" style="enable-background:new 0 0 1080 1080;" xml:space="preserve">
<g id="Layer_x0020_1_1_" style="display:none;">
	<g id="_1421394342400" style="display:inline;">
		<g>
			<polygon style="fill:#343434;" points="539.9,0 532.7,24.6 532.7,738.7 539.9,746 871.4,550 			"/>
			<polygon style="fill:#8C8C8C;" points="539.9,0 208.5,550 539.9,746 539.9,399.3 			"/>
			<polygon style="fill:#3C3C3B;" points="539.9,808.7 535.9,813.7 535.9,1068.1 539.9,1080 871.6,612.9 			"/>
			<polygon style="fill:#8C8C8C;" points="539.9,1080 539.9,808.7 208.5,612.9 			"/>
			<polygon style="fill:#141414;" points="539.9,746 871.4,550 539.9,399.3 			"/>
			<polygon style="fill:#393939;" points="208.5,550 539.9,746 539.9,399.3 			"/>
		</g>
	</g>
</g>
<title>tether-usdt-logo</title>
<path style="display:none;fill-rule:evenodd;clip-rule:evenodd;fill:#FFFFFF;" d="M608.3,591.8L608.3,591.8
	c-3.8,0.3-23.4,1.5-67.1,1.5c-34.8,0-59.4-1-68.1-1.5l0,0c-134.3-5.9-234.6-29.3-234.6-57.3c0-28,100.2-51.3,234.6-57.3v91.3
	c8.8,0.6,33.9,2.1,68.7,2.1c41.7,0,62.6-1.7,66.3-2.1v-91.3c134,6,234,29.4,234,57.3c0,27.9-100,51.3-234,57.2l0,0L608.3,591.8z
	 M608.3,467.8V386h187V261.4H286.1V386h187v81.7c-152,7-266.3,37.1-266.3,73.2s114.3,66.2,266.3,73.2V876h135.2V614
	c151.7-7,265.8-37.1,265.8-73.1S760,474.8,608.3,467.8L608.3,467.8L608.3,467.8z M608.3,467.8L608.3,467.8z"/>
<g style="display:none;">
	<path style="fill:#C2A633;" d="M554,356.3h-77.2v152.1h121.4v63.7H476.8v152.1h80.9c20.8,0,170.7,2.3,170.5-177
		C728,368,582.8,356.3,554,356.3z"/>
	<path style="fill:#C2A633;" d="M541,0.5c-298.2,0-540,241.7-540,540s241.7,540,540,540s540-241.7,540-540S839.3,0.5,541,0.5z
		 M562.2,832.1H366.7v-260h-68.9v-63.7h68.9v-260h167.8c39.7,0,302.7-8.2,302.7,296.7C837.2,855.2,562.3,832.1,562.2,832.1
		L562.2,832.1z"/>
</g>
<g style="display:none;">
	<g id="Layer_1-2" style="display:inline;">
		<path style="fill:#FFFFFF;" d="M833.1,285.3l-98.2,50L260.7,576.9c-1.6-12.2-2.4-24.5-2.4-36.9c0.2-156,126.8-282.3,282.8-282.1
			c48.1,0.1,95.4,12.4,137.4,35.9l56.2-28.6l8.4-4.3c-154.2-111.9-370-77.7-481.9,76.6c-42.8,58.9-65.8,129.9-65.8,202.7
			c0,8.8,0.3,17.5,1,26.3c1.9,25.2-11.5,49.2-34.1,60.7l-29.6,15.1v70.5l87.3-44.5l0,0l28.3-14.4l27.8-14.2l0,0l499.9-254.7
			l56.2-28.6L948.2,297v-70.5L833.1,285.3z"/>
		<path style="fill:#FFFFFF;" d="M948.2,367.6L304.4,695.3L248.3,724l-115.6,58.9v70.4l114.8-58.5l98.2-50L820.3,503
			c1.6,12.3,2.4,24.7,2.4,37.1c-0.1,156-126.6,282.4-282.6,282.3c-48.3,0-95.8-12.5-138-36.1l-3.5,1.8l-60.9,31.1
			c154.2,111.9,369.9,77.7,481.9-76.5c42.8-58.9,65.8-129.8,65.8-202.6c0-8.9-0.3-17.7-1-26.5c-1.9-25.2,11.5-49.1,34.1-60.7
			l29.7-15.1V367.6z"/>
	</g>
</g>
<path style="display:none;fill-rule:evenodd;clip-rule:evenodd;fill:#FFFFFF;" d="M540.5,1080C243.8,1080,1,837,1,537.3
	C3.7,240.3,243.8-2.7,543.2,0C839.9,2.7,1080,243,1080,545.4C1077.3,839.7,837.2,1080,540.5,1080"/>
<path style="display:none;fill-rule:evenodd;clip-rule:evenodd;fill:#FFFFFF;" d="M591.8,475.2l-16.2,86.4l153.8,21.6l-10.8,40.5
	l-151.1-21.6c-10.8,35.1-16.2,72.9-29.7,105.3c-13.5,37.8-27,75.6-43.2,110.7c-21.6,45.9-59.3,78.3-110.6,86.4
	c-29.7,5.4-62,2.7-86.3-16.2c-8.1-5.4-16.2-16.2-16.2-24.3c0-10.8,5.4-24.3,13.5-29.7c5.4-2.7,18.9,0,27,2.7
	c8.1,8.1,16.2,18.9,21.6,29.7c16.2,21.6,37.8,24.3,59.3,8.1c24.3-21.6,37.8-51.3,45.9-81c16.2-64.8,32.4-126.9,45.9-191.7v-10.8
	l-143-21.6l5.4-40.5l148.4,21.6l18.9-83.7l-153.8-24.3l5.4-43.2l159.2,21.6c5.4-16.2,8.1-29.7,13.5-43.2
	c13.5-48.6,27-97.2,59.3-140.4c32.4-43.2,70.1-70.2,126.8-67.5c24.3,0,48.6,8.1,64.7,27c2.7,2.7,8.1,8.1,8.1,13.5
	c0,10.8,0,24.3-8.1,32.4c-10.8,8.1-24.3,5.4-35.1-5.4c-8.1-8.1-13.5-16.2-21.6-24.3c-16.2-21.6-40.5-24.3-59.3-5.4
	c-13.5,13.5-27,32.4-35.1,51.3c-18.9,56.7-32.4,116.1-51.3,175.5l148.4,21.6l-10.8,40.5L591.8,475.2"/>
<g id="tron" style="display:none;">
	<path style="fill:#FFFFFF;" d="M896.4,451.8c-33.4-30.9-79.7-78-117.3-111.4l-2.2-1.6c-3.7-3-7.9-5.3-12.4-6.9l0,0
		C673.7,315,251.2,236,242.9,237c-2.3,0.3-4.5,1.2-6.5,2.5l-2.1,1.7c-2.6,2.6-4.6,5.8-5.8,9.4l-0.6,1.4v7.9v1.2
		c47.6,132.5,235.4,566.4,272.4,668.2c2.2,6.9,6.5,20.1,14.4,20.7h1.8c4.2,0,22.3-23.8,22.3-23.8s322.6-391.3,355.3-432.9
		c4.2-5.1,8-10.7,11.1-16.5C906.9,467.5,903.5,458,896.4,451.8z M621.6,497.4l137.7-114.2l80.8,74.4L621.6,497.4z M568.1,489.9
		L331,295.6l383.6,70.7L568.1,489.9z M589.5,540.8l242.6-39.1L554.8,835.9L589.5,540.8z M298.9,315l249.4,211.7l-36.1,309.5
		L298.9,315z"/>
</g>
<g style="display:none;">
	<path style="display:inline;fill:#FFFFFF;" d="M665,647.1h-35.8c-6.6,0-12.3-5.3-12.3-12.3v-94.1l-62.7,39.1
		c-5.3,3.3-11.9,3.3-17.2,0l-62.3-39.1v94.1c0,6.6-5.3,12.3-12.3,12.3H427c-6.6,0-12.3-5.3-12.3-12.3l0,0V453.1
		c0-9,7.3-16.2,16.2-16.2c3.3,0,6.3,1,9,3l98.8,68c4,3,9.6,3,13.6,0l98.8-68c7.3-5,17.6-3,22.5,4.3c2,2.7,2.7,6,3,9v181.7
		C677,641.4,671.6,647.1,665,647.1L665,647.1z"/>
	<path style="display:inline;fill:#FFFFFF;" d="M361.4,646.7H139.3c-9,0-16.2-7.3-16.2-16.2l0,0V447.8c0.3-7,5.6-12.3,12.6-12.3
		h35.8c6.6,0,12.3,5.3,12.3,12.3l0,0v138.9h134.6V447.8c0-6.6,5.3-12.3,12.3-12.3h34.8c6.6,0,12.3,5.3,12.3,12.3v182.7
		C377.6,639.4,370.3,646.7,361.4,646.7L361.4,646.7z"/>
	<path style="display:inline;fill:#FFFFFF;" d="M730.7,435.6h222.1c9,0,16.2,7.3,16.2,16.2v182.7c0,6.6-5.3,12.3-11.9,12.3l0,0
		h-35.8c-6.6,0-12.3-5.3-12.3-12.3l0,0V503.5c0-4.3-3.6-8-8-8l0,0H782.7c-4.3,0-8,3.6-8,8l0,0v130.9c0,6.6-5.3,12.3-12.3,12.3h-35.8
		c-6.6,0-12.3-5.3-12.3-12.3l0,0V451.8C714.4,442.9,721.7,435.6,730.7,435.6L730.7,435.6L730.7,435.6z"/>
	<path style="display:inline;fill:#FFFFFF;" d="M823.8,534h35.5c6.6,0,12.3,5.3,12.3,12.3v36.1c0,6.6-5.3,12.3-12.3,12.3h-35.5
		c-6.6,0-12.3-5.3-12.3-12.3V546C811.5,539.3,817.2,534,823.8,534z"/>
</g>
<title>litecoin-ltc-logo</title>
<circle style="display:none;fill:#FFFFFF;" cx="539.5" cy="539.7" r="481.1"/>
<title>ftx--logo</title>
<title>Asset 1</title>
<g>
	<g id="Layer_1-2_1_">
		<path id="SVGID" style="fill-rule:evenodd;clip-rule:evenodd;fill:#006AE3;" d="M540,0.3c298.2,0,540,241.8,540,540
			s-241.8,540-540,540S0,838.5,0,540.3S241.8,0.3,540,0.3z"/>
		<polygon id="SVGID-2" style="fill:#FFFFFF;" points="517.8,768 517.8,318.7 566.7,318.7 566.7,768 		"/>
		<path id="SVGID-3" style="fill:#FFFFFF;" d="M766.8,468.4l-151.1,40.1L582,351.7l44.9-10.2l17.7,74.3c0,0,40.8-67-13.6-136.3
			c-32.1-35.6-47.3-37.2-83.3-42.8c-31.6-4.5-105.2,6.2-127.1,92c-9.3,55.3,1.2,96.2,72.5,149.8l-4,59.6c0,0-79.6-56.1-100.1-95.4
			c-15.9-31.1-43.1-92.6,6-178.1c26.5-42.8,78.6-83.8,170.5-79.5c46.2,1.9,159.1,58.4,141.6,190.4c-3,24.7-15.9,57.7-15.9,57.7
			l62-13.8L766.8,468.4z"/>
		<path id="SVGID-4" style="fill:#FFFFFF;" d="M680.5,820c-27.6,42-80.9,81.6-172.6,75c-46.2-3.1-157.5-62.6-136.5-194.1
			c3.7-24.6,17.4-57.1,17.4-57.1l-62.3,12.1l-12.2-49.1l152.2-36.1L496,728.3l-45.3,9L435,662.4c0,0-42.6,65.8,9.9,136.6
			c31.1,36.5,46.2,38.3,82.2,44.9c31.4,5.4,105.3-3.5,129.5-88.7c10.7-55,1.3-96.2-68.5-151.7l5.6-59.5c0,0,78.1,58.1,97.5,98
			C706.2,673.6,731.8,735.8,680.5,820L680.5,820z"/>
	</g>
</g>
</svg>
