<?xml version="1.0" encoding="utf-8"?>
<!-- Generator: Adobe Illustrator 23.1.0, SVG Export Plug-In . SVG Version: 6.00 Build 0)  -->
<svg version="1.1" id="Layer_1" xmlns="http://www.w3.org/2000/svg" xmlns:xlink="http://www.w3.org/1999/xlink" x="0px" y="0px"
	 viewBox="0 0 1080 1080" style="enable-background:new 0 0 1080 1080;" xml:space="preserve">
<g id="Layer_x0020_1">
	<g id="_1421344023328">
		<path style="fill:#FFFFFF;" d="M1063.8,670.6c-72.1,289.3-365.2,465.3-654.5,393.2C120.1,991.7-56,698.7,16.2,409.4
			C88.3,120.1,381.3-56,670.6,16.2C959.9,88.3,1136,381.3,1063.8,670.6L1063.8,670.6L1063.8,670.6z"/>
		<path style="display:none;fill:#50AF95;" d="M778.1,463.1c10.7-71.9-44-110.5-118.8-136.3l24.3-97.3l-59.3-14.8l-23.6,94.8
			c-15.6-3.9-31.6-7.5-47.5-11.2l23.8-95.4l-59.2-14.8l-24.3,97.3c-12.9-2.9-25.6-5.8-37.8-8.9l0.1-0.3L374,255.8l-15.8,63.3
			c0,0,44,10.1,43,10.7c24,6,28.3,21.9,27.6,34.5l-27.6,110.9c1.7,0.4,3.8,1,6.2,2c-2-0.5-4.1-1-6.3-1.5L362.4,631
			c-2.9,7.3-10.4,18.2-27.2,14.1c0.6,0.9-43.1-10.7-43.1-10.7l-29.4,67.8l77.1,19.2c14.3,3.6,28.4,7.4,42.3,10.9l-24.5,98.5
			l59.2,14.8l24.3-97.4c16.2,4.4,31.9,8.4,47.2,12.3l-24.2,97l59.3,14.8l24.5-98.3c101.1,19.1,177,11.4,209-80
			c25.8-73.6-1.3-116-54.4-143.7C741.2,541.1,770.4,515.7,778.1,463.1L778.1,463.1L778.1,463.1z M642.7,652.9
			c-18.3,73.6-142.2,33.8-182.4,23.8l32.5-130.4C533.1,556.3,661.9,576.2,642.7,652.9L642.7,652.9z M661.1,462
			c-16.7,66.9-119.8,32.9-153.3,24.6l29.5-118.3C570.7,376.6,678.5,392.2,661.1,462L661.1,462z"/>
	</g>
</g>
<g id="Layer_x0020_1_1_" style="display:none;">
	<g id="_1421394342400" style="display:inline;">
		<g>
			<polygon style="fill:#343434;" points="539.9,0 532.7,24.6 532.7,738.7 539.9,746 871.4,550 			"/>
			<polygon style="fill:#8C8C8C;" points="539.9,0 208.5,550 539.9,746 539.9,399.3 			"/>
			<polygon style="fill:#3C3C3B;" points="539.9,808.7 535.9,813.7 535.9,1068.1 539.9,1080 871.6,612.9 			"/>
			<polygon style="fill:#8C8C8C;" points="539.9,1080 539.9,808.7 208.5,612.9 			"/>
			<polygon style="fill:#141414;" points="539.9,746 871.4,550 539.9,399.3 			"/>
			<polygon style="fill:#393939;" points="208.5,550 539.9,746 539.9,399.3 			"/>
		</g>
	</g>
</g>
<title>tether-usdt-logo</title>
<path style="display:none;fill-rule:evenodd;clip-rule:evenodd;fill:#FFFFFF;" d="M608.3,591.8L608.3,591.8
	c-3.8,0.3-23.4,1.5-67.1,1.5c-34.8,0-59.4-1-68.1-1.5l0,0c-134.3-5.9-234.6-29.3-234.6-57.3c0-28,100.2-51.3,234.6-57.3v91.3
	c8.8,0.6,33.9,2.1,68.7,2.1c41.7,0,62.6-1.7,66.3-2.1v-91.3c134,6,234,29.4,234,57.3c0,27.9-100,51.3-234,57.2l0,0L608.3,591.8z
	 M608.3,467.8V386h187V261.4H286.1V386h187v81.7c-152,7-266.3,37.1-266.3,73.2s114.3,66.2,266.3,73.2V876h135.2V614
	c151.7-7,265.8-37.1,265.8-73.1S760,474.8,608.3,467.8L608.3,467.8L608.3,467.8z M608.3,467.8L608.3,467.8z"/>
<g id="Layer_2_1_">
	<g id="Layer_1-2_1_">
		<path style="fill:#0033AD;" d="M343.1,537.3c-1.9,32.4,23.1,60.2,55.5,62c1.2,0,2.3,0,3.5,0c32.7,0,59-26.4,58.8-59
			c0-32.7-26.4-59-59-58.8C370.7,481.6,344.8,506.1,343.1,537.3z"/>
		<path style="fill:#0033AD;" d="M123.4,522.2c-10.5-0.7-19.6,7.5-20.1,18c-0.5,10.5,7.5,19.6,18,20.1c10.5,0.7,19.4-7.5,20.1-18
			C142.1,531.7,133.9,522.9,123.4,522.2L123.4,522.2z"/>
		<path style="fill:#0033AD;" d="M339.4,195.4c9.3-4.7,13.1-16.3,8.4-25.7c-4.7-9.3-16.3-13.1-25.7-8.4c-9.3,4.7-13.1,16.1-8.4,25.4
			C318.4,196.4,329.8,200.3,339.4,195.4C339.2,195.4,339.4,195.4,339.4,195.4z"/>
		<path style="fill:#0033AD;" d="M399.1,299.7c14.5-7.2,20.3-25,13.1-39.4c-7.2-14.5-25-20.3-39.4-13.1c-14.5,7.2-20.3,25-13.1,39.4
			C366.9,301.1,384.7,306.9,399.1,299.7z"/>
		<path style="fill:#0033AD;" d="M198.1,371.3c11.2,7.2,26.1,4.2,33.6-7c7.2-11.2,4.2-26.1-7-33.6c-11.2-7.2-26.1-4.2-33.6,7l0,0
			C183.6,348.9,186.9,364.1,198.1,371.3z"/>
		<path style="fill:#0033AD;" d="M233.8,511.7c-16.3-0.9-30.1,11.4-31,27.8c-0.9,16.3,11.4,30.1,27.8,31c16.3,0.9,30.1-11.4,31-27.8
			l0,0C262.4,526.6,250.1,512.6,233.8,511.7z"/>
		<path style="fill:#0033AD;" d="M201.3,709.2c-11.9,6.1-16.8,20.5-10.7,32.7c6.1,11.9,20.5,16.8,32.7,10.7
			c11.9-6.1,16.8-20.5,10.7-32.7l0,0C227.9,708.1,213.2,703.2,201.3,709.2L201.3,709.2z"/>
		<path style="fill:#0033AD;" d="M315.6,450.8c16.1,10.5,37.5,6.1,47.8-10c10.5-16.1,6.1-37.5-10-47.8c-16.1-10.5-37.5-6.1-47.8,10
			C295.1,418.9,299.5,440.3,315.6,450.8L315.6,450.8z"/>
		<path style="fill:#0033AD;" d="M678.3,297.4c13.5,8.9,32,5.1,40.8-8.4c8.9-13.5,5.1-32-8.4-40.8s-32-5.1-40.8,8.4l0,0
			C660.8,270.3,664.5,288.5,678.3,297.4L678.3,297.4z"/>
		<path style="fill:#0033AD;" d="M738.5,193.6c8.9,5.8,20.5,3.3,26.4-5.6s3.3-20.5-5.6-26.4c-8.9-5.8-20.5-3.3-26.4,5.4
			C727.3,175.8,729.8,187.7,738.5,193.6L738.5,193.6z"/>
		<path style="fill:#0033AD;" d="M682.7,481.1c-32.4-1.9-60.4,23.1-62,55.5c-1.9,32.4,23.1,60.4,55.5,62c1.2,0,2.3,0,3.3,0
			c32.4,0,58.8-26.4,58.8-59C738.5,508.7,714,482.8,682.7,481.1L682.7,481.1z"/>
		<path style="fill:#0033AD;" d="M418.5,446.6c10,19.8,30.3,32.4,52.7,32.4c32.4,0,58.8-26.4,58.8-59c0-9.1-2.1-18.2-6.3-26.6
			c-14.7-29.2-50.1-40.8-79.1-26.1C415.4,382.2,403.8,417.7,418.5,446.6L418.5,446.6z"/>
		<path style="fill:#0033AD;" d="M880,371.3c11.9-6.1,16.6-20.8,10.5-32.7c-6.1-11.9-20.8-16.6-32.7-10.5
			c-11.9,6.1-16.6,20.5-10.7,32.4C853.4,372.4,867.9,377.3,880,371.3L880,371.3z"/>
		<path style="fill:#0033AD;" d="M730.8,389.9c-17,8.6-24,29.4-15.4,46.4c8.6,17,29.4,24,46.4,15.4c17-8.6,24-29.4,15.4-46.4
			C768.5,388.3,747.8,381.5,730.8,389.9z"/>
		<path style="fill:#0033AD;" d="M538.3,184.7c13.3,0.7,24.7-9.6,25.7-22.9c0.9-13.3-9.6-24.7-22.9-25.7
			c-13.3-0.7-24.7,9.3-25.7,22.6C514.8,172.3,525.1,183.8,538.3,184.7L538.3,184.7z"/>
		<path style="fill:#0033AD;" d="M538.1,337c19.1,1.2,35.5-13.5,36.4-32.7c1.2-19.1-13.5-35.5-32.7-36.4
			c-19.1-1.2-35.5,13.5-36.4,32.7C504.5,319.7,519,336.1,538.1,337L538.1,337z"/>
		<path style="fill:#0033AD;" d="M350.6,690.6c17-8.6,24-29.4,15.4-46.4c-8.6-17-29.4-24-46.4-15.4s-24,29.4-15.4,46.4
			C312.8,692.2,333.6,699.2,350.6,690.6z"/>
		<path style="fill:#0033AD;" d="M560.5,387.6c-17.7,27.3-10.3,63.7,17,81.4c27.3,17.7,63.7,10.3,81.4-17
			c17.7-27.3,10.3-63.7-17-81.4c-9.6-6.3-20.8-9.6-32.2-9.6C589.9,361,571.5,371,560.5,387.6z"/>
		<path style="fill:#0033AD;" d="M662.9,633.9c-14.7-29.2-50.1-40.8-79.1-26.1c-29.2,14.7-40.8,50.1-26.1,79.1
			c14.7,29.2,50.1,40.8,79.1,26.1l0,0c28.9-14.5,40.8-49.4,26.4-78.6C663.1,634.1,663.1,634.1,662.9,633.9z"/>
		<path style="fill:#0033AD;" d="M765.7,629.7c-16.1-10.5-37.5-6.1-47.8,10c-10.5,16.1-6.1,37.5,10,47.8c16.1,10.5,37.5,6.1,47.8-10
			C786.3,661.6,781.8,640.2,765.7,629.7L765.7,629.7z"/>
		<path style="fill:#0033AD;" d="M878.6,541.3c0.9-16.3-11.4-30.1-27.8-31c-16.3-0.9-30.1,11.4-31,27.8c-0.9,16.3,11.4,30.1,27.8,31
			l0,0C863.7,570,877.7,557.4,878.6,541.3z"/>
		<path style="fill:#0033AD;" d="M960,520.3c-10.5-0.7-19.6,7.5-20.1,18c-0.5,10.5,7.5,19.6,18,20.1c10.5,0.7,19.4-7.5,20.1-18
			C978.4,529.9,970.5,521,960,520.3z"/>
		<path style="fill:#0033AD;" d="M883.3,709.2c-11.2-7.2-26.1-4.2-33.6,7c-7.2,11.2-4.2,26.1,7,33.6c11.2,7.2,26.1,4.2,33.6-7
			C897.8,731.6,894.5,716.5,883.3,709.2L883.3,709.2z"/>
		<path style="fill:#0033AD;" d="M342.7,886.9c-8.9-5.8-20.5-3.3-26.4,5.4c-5.8,8.9-3.3,20.5,5.4,26.4c8.9,5.8,20.5,3.3,26.4-5.4
			l0,0C354.1,904.7,351.5,892.8,342.7,886.9z"/>
		<path style="fill:#0033AD;" d="M742,885.1c-9.3,4.7-13.1,16.3-8.4,25.7c4.7,9.3,16.3,13.1,25.7,8.4c9.3-4.7,13.1-16.1,8.4-25.4
			C762.9,884.1,751.5,880.2,742,885.1C742.2,885.1,742,885.1,742,885.1z"/>
		<path style="fill:#0033AD;" d="M520.9,692.9c17.7-27.3,10.3-63.7-17-81.6c-27.3-17.7-63.7-10.3-81.6,17
			c-18,27.3-10.3,63.7,17,81.6c9.6,6.3,20.8,9.6,32.2,9.6C491.5,719.7,509.9,709.7,520.9,692.9z"/>
		<path style="fill:#0033AD;" d="M403.1,783.2c-13.5-8.9-32-5.1-40.8,8.4c-8.9,13.5-5.1,32,8.4,40.8c13.5,8.9,32,5.1,40.8-8.4l0,0
			C420.6,810.4,416.8,792,403.1,783.2z"/>
		<path style="fill:#0033AD;" d="M540.4,895.8c-13.3-0.7-24.7,9.6-25.7,22.9c-0.9,13.3,9.6,24.7,22.9,25.7
			c13.3,0.7,24.7-9.3,25.7-22.6C564,908.2,553.7,896.7,540.4,895.8L540.4,895.8z"/>
		<path style="fill:#0033AD;" d="M540.7,743.5c-19.1-1.2-35.5,13.5-36.4,32.7c-1.2,19.1,13.5,35.5,32.7,36.4
			c19.1,0.9,35.5-13.5,36.4-32.7C574.5,761,559.8,744.4,540.7,743.5L540.7,743.5z"/>
		<path style="fill:#0033AD;" d="M682.3,780.8c-14.5,7.5-20.3,25.2-12.8,39.6c7.5,14.5,25.2,20.3,39.6,12.8
			c14.5-7.2,20.3-25,13.1-39.4C714.7,779.4,696.9,773.4,682.3,780.8L682.3,780.8z"/>
	</g>
</g>
</svg>
