<svg xmlns="http://www.w3.org/2000/svg" viewBox="0 0 166.6 168.2"><defs><style>.akitacls-1{fill:#fea726;}.akitacls-2{fill:#562b19;}.akitacls-3{fill:#56271b;}.akitacls-4{fill:none;}.akitacls-5{fill:#fff;}.akitacls-6{fill:#eee1be;}.akitacls-7{fill:#de7a1c;}.akitacls-8{fill:#542919;}.akitacls-9{fill:#fdfdfd;}.akitacls-10{fill:#fdfefe;}.akitacls-11{fill:#ea2e4c;}.akitacls-12{fill:#b91e34;}.akitacls-13{fill:#fd6b80;}.akitacls-14{fill:#fefed8;}</style></defs><title>Asset 2</title><g id="Layer_2" data-name="Layer 2"><g id="Layer_1-2" data-name="Layer 1"><path class="akitacls-1" d="M166.6,88.4c0,8.9-.5,12.1-2.2,16.5-4,10.3-14.3,23.1-26.2,32.9-18.9,15.5-23,20.5-23,27.6v2.8l-9.7-.6a93,93,0,0,1-60.3-27L39.6,135l-4.4,1.6c-5.5,2-17.9,2.2-23.5.4-2.2-.7-4.6-1.4-5.3-1.7-1.4-.4,2.3-6.5,6.7-11.1l2.1-2.2L11,119.2a37.24,37.24,0,0,1-7.6-7.3L0,107.4l5.8-2.7c3.3-1.5,6.8-2.8,7.9-2.8,1.9,0,2-.6,2-12.3,0-14.5,1.9-21.7,9.6-36.7,4.9-9.6,4.9-9.6,3.9-15.5C27.6,28,29,16.7,33.3,5.2l2-5.2,5.5,1.9A106.7,106.7,0,0,1,63.4,13.4L68,16.8l7.9-1.4a88.11,88.11,0,0,1,30.3-.1l7.5,1.4,7.8-5c8.9-5.6,21.2-11,24.1-10.6,1.4.2,2.6,2.3,4.5,7.3,2.2,6.2,2.5,8.7,2.6,22l.2,15,3.6,6.5a111.49,111.49,0,0,1,6.8,16C166.2,76.4,166.6,78.6,166.6,88.4Z"/><path class="akitacls-2" d="M163.3,67.9a111.49,111.49,0,0,0-6.8-16l-3.6-6.5-.2-15c-.1-13.3-.4-15.8-2.6-22-1.9-5-3.1-7.1-4.5-7.3-2.9-.4-15.2,5-24.1,10.6l-7.8,5-7.5-1.4a88.11,88.11,0,0,0-30.3.1L68,16.8l-4.6-3.4A106.7,106.7,0,0,0,40.8,1.9L35.3,0l-2,5.2C29,16.7,27.6,28,29.2,37.4c1,5.9,1,5.9-3.9,15.5-7.7,15-9.6,22.2-9.6,36.7,0,11.7-.1,12.3-2,12.3-1.1,0-4.6,1.3-7.9,2.8L0,107.4l3.4,4.5a37.24,37.24,0,0,0,7.6,7.3l4.2,2.8-2.1,2.2c-4.4,4.6-8.1,10.7-6.7,11.1.7.3,3.1,1,5.3,1.7,5.6,1.8,18,1.6,23.5-.4l4.4-1.6,5.6,5.6a93,93,0,0,0,60.3,27l9.7.6v-2.8c0-7.1,4.1-12.1,23-27.6,11.9-9.8,22.2-22.6,26.2-32.9,1.7-4.4,2.2-7.6,2.2-16.5C166.6,78.6,166.2,76.4,163.3,67.9Zm-1.1,27.2a45.6,45.6,0,0,1-1.81,7.68h0A44,44,0,0,1,150.5,119c-26.1,28.2-88.7,29-117.1,1.5a42.3,42.3,0,0,1-11.24-17.57A47.46,47.46,0,0,1,20,87.9c0-12.1,3.6-23.8,11.3-37.1,3.6-6.2,3.7-6.8,2.7-11a74.52,74.52,0,0,1-.5-14.4c.6-11.2,3-19.5,5.5-19.5,2.8,0,12.1,4.8,20.7,10.5l8,5.3,5.5-1.5c7.3-2,28.6-2,35.9,0l5.4,1.5,6.6-4.6c7-4.8,22.1-12.3,23.2-11.6.4.2,1.5,2.5,2.4,5.2,2,5.9,3,23.3,1.7,29.1-1,4.2-.9,4.8,2.7,11C160,66.3,164.2,82.7,162.2,95.1Z"/><path class="akitacls-3" d="M59.2,25.9c0,.3-2.4,1.9-5.2,3.7a42.61,42.61,0,0,0-7.7,5.7c-.54.54-1.09,1.06-1.57,1.49A5.34,5.34,0,0,1,43.2,37.9c-.94,0-1.7-6.17-1.64-11.53a35.54,35.54,0,0,1,.24-4.07c.3-3,.9-5.4,1.1-5.4C44,16.9,59.2,25.3,59.2,25.9Z"/><path class="akitacls-3" d="M134.7,19.1c-2.2,1.1-5.9,3.1-8.3,4.5l-4.3,2.5,5.8,3.4a73.24,73.24,0,0,1,8.4,6l2.6,2.5.7-3.2c.8-4.4.8-16.7-.1-17.2C139,17.3,136.9,18,134.7,19.1Z"/><path d="M111.2,101.9c-1.6,0-2,.7-2,3.5,0,4.2-2.7,6-7.5,5.1-5.7-1.1-8.5-4.1-8.5-9.1,0-4.1.3-4.5,4.5-6.9,4.3-2.6,6.5-6.2,5.1-8.5A5.34,5.34,0,0,0,100,84.3h0a24,24,0,0,0-4.35-.9L95,83.32a38,38,0,0,0-7.69,0c-.74.08-1.47.2-2.2.33l-.8.17-.14,0L83.5,84c-6.7,2-5.9,7,1.8,10.9,3.5,1.9,3.9,2.4,3.9,6,0,5.8-4.9,10-11.5,10-3.1,0-5.9-4.1-5-7,.6-1.8.3-2.1-1.7-1.8s-2.3.8-2.2,4.1c.1,3.8,2.7,7.7,5.1,7.7.7,0,2.1,1.6,3,3.6,4.8,9.9,23.4,10,28.1.1a11,11,0,0,1,4.1-4.2c3.3-1.6,4.1-3.3,4.1-8.1C113.2,102.6,112.8,101.9,111.2,101.9ZM99.9,118.3c-.6,1.7-4.9,3.6-8.5,3.6-3.1,0-10.2-2.3-10.2-3.4,0-.3,1.2-1.2,2.8-2,3.3-1.8,10.2-2,13.7-.4C99.1,116.7,100.1,117.7,99.9,118.3Z"/><path class="akitacls-4" d="M85.06,83.64l-.91.19Z"/><path class="akitacls-5" d="M160.38,102.78A44,44,0,0,1,150.5,119c-26.1,28.2-88.7,29-117.1,1.5a42.3,42.3,0,0,1-11.24-17.57h0a23.59,23.59,0,0,1,2.55-.73C35.28,133.48,83.3,137.4,83.3,137.4,59.2,128.87,47.2,116,42,102.5a29.29,29.29,0,0,1,10.21,5.28s12.67-19.84,32-24L83.5,84c-6.7,2-5.9,7,1.8,10.9,3.5,1.9,3.9,2.4,3.9,6,0,5.8-4.9,10-11.5,10-3.1,0-5.9-4.1-5-7,.6-1.8.3-2.1-1.7-1.8s-2.3.8-2.2,4.1c.1,3.8,2.7,7.7,5.1,7.7.7,0,2.1,1.6,3,3.6,4.8,9.9,23.4,10,28.1.1a11,11,0,0,1,4.1-4.2c3.3-1.6,4.1-3.3,4.1-8.1,0-2.7-.4-3.4-2-3.4s-2,.7-2,3.5c0,4.2-2.7,6-7.5,5.1-5.7-1.1-8.5-4.1-8.5-9.1,0-4.1.3-4.5,4.5-6.9,4.3-2.6,6.5-6.2,5.1-8.5A5.34,5.34,0,0,0,100,84.3c9.36,2.58,19.62,9.53,30.32,23.48A33.39,33.39,0,0,1,160.38,102.78Z"/><path class="akitacls-4" d="M68.8,106.2c-.1-3.3.2-3.8,2.2-4.1s2.3,0,1.7,1.8c-.9,2.9,1.9,7,5,7,6.6,0,11.5-4.2,11.5-10,0-3.6-.4-4.1-3.9-6C77.6,91,76.8,86,83.5,84c.49-.14,1-.26,1.56-.36.73-.13,1.46-.25,2.2-.33a32.43,32.43,0,0,1,7.69,0l.66.07a35.06,35.06,0,0,1,4.35.9h0A5.34,5.34,0,0,1,102.8,86c1.4,2.3-.8,5.9-5.1,8.5-4.2,2.4-4.5,2.8-4.5,6.9,0,5,2.8,8,8.5,9.1,4.8.9,7.5-.9,7.5-5.1,0-2.8.4-3.5,2-3.5s2,.7,2,3.4c0,4.8-.8,6.5-4.1,8.1a11,11,0,0,0-4.1,4.2c-4.7,9.9-23.3,9.8-28.1-.1-.9-2-2.3-3.6-3-3.6C71.5,113.9,68.9,110,68.8,106.2Z"/><path class="akitacls-4" d="M161.62,105.91l-11.4,17.53-52.6,32.85L21.36,125s-1.87-16.84.8-22A42.3,42.3,0,0,0,33.4,120.5c28.4,27.5,91,26.7,117.1-1.5a44,44,0,0,0,9.88-16.22h0Z"/><path class="akitacls-6" d="M83.3,137.4s-48-3.92-58.58-35.21A34.86,34.86,0,0,1,42,102.5C47.2,116,59.2,128.87,83.3,137.4Z"/><path class="akitacls-7" d="M42,102.5a34.86,34.86,0,0,0-17.24-.31C20.27,89,22.47,71,37.7,46.34c0,0-5.1-28.17,2.56-36.77a59,59,0,0,0,1.3,16.8c-.06,5.36.7,11.53,1.64,11.53a5.34,5.34,0,0,0,1.53-1.11,58.87,58.87,0,0,0,4,8.18S31.24,75,42,102.5Z"/><path class="akitacls-4" d="M44.73,36.79A5.34,5.34,0,0,1,43.2,37.9c-.94,0-1.7-6.17-1.64-11.53A62.79,62.79,0,0,0,44.73,36.79Z"/><path class="akitacls-8" d="M119.1,60.4c-2.9,1.6-5.9,7-5.9,10.8,0,3.2,3.9,8.9,7.3,10.5,6.4,3.1,13.7-3,13.7-11.5C134.2,62.2,125.7,56.6,119.1,60.4Zm.1,11.5c-4.3-2.3-2.9-8.4,1.8-7.8,2.2.2,2.8.9,3,3.3C124.4,70.9,121.9,73.3,119.2,71.9Z"/><path class="akitacls-9" d="M119.2,71.9c-4.3-2.3-2.9-8.4,1.8-7.8,2.2.2,2.8.9,3,3.3C124.4,70.9,121.9,73.3,119.2,71.9Z"/><path class="akitacls-8" d="M54.4,60.2c-8,4.6-7.4,17.3,1.2,21.5,6.3,3.1,13.6-3.1,13.6-11.5C69.2,62.4,60.6,56.6,54.4,60.2Zm9.2,12.1c-2,.8-5.4-2-5.4-4.4a4,4,0,0,1,7-2.5C66.7,67.3,65.8,71.5,63.6,72.3Z"/><path class="akitacls-9" d="M63.6,72.3c-2,.8-5.4-2-5.4-4.4a4,4,0,0,1,7-2.5C66.7,67.3,65.8,71.5,63.6,72.3Z"/><path class="akitacls-10" d="M109.59,52.06c-.6-1.79-1.38-5.43,1.18-7.61,3.49-3,8.76-3.58,11.4-3.41s4.64,1.41,5.28,2.72,1.36,4.56,0,5.37-4.9.21-7.92,1.36-3.27,2.13-4.68,2.64a12.78,12.78,0,0,1-4.4,0C110.17,53.15,109.81,52.72,109.59,52.06Z"/><path class="akitacls-10" d="M77.84,52.89c.6-1.79,1.37-5.43-1.18-7.61-3.49-3-8.77-3.58-11.41-3.41S60.61,43.28,60,44.59,58.61,49.15,60,50s4.89.21,7.91,1.36,3.28,2.13,4.68,2.64A12.84,12.84,0,0,0,77,54C77.25,54,77.62,53.55,77.84,52.89Z"/><path class="akitacls-11" d="M45,134.83s44.85,20.51,86.81,2.38c0,0-21.62,13.53-21.79,26.39C110.06,163.6,65.46,164.11,45,134.83Z"/><path class="akitacls-11" d="M25.63,120.19s-6.12,1.19-13.95,11.24c0,0,6.29,5.1,25.19,0Z"/><path class="akitacls-11" d="M18.14,119l5.11-2.89s-6-6.9-6-11.24A14,14,0,0,0,5.72,109S11.34,116,18.14,119Z"/><path class="akitacls-12" d="M76.9,146.73s27.23,16.26,34.89,0C111.79,146.73,89.41,149.37,76.9,146.73Z"/><path class="akitacls-13" d="M99.9,118.3c-.6,1.7-4.9,3.6-8.5,3.6-3.1,0-10.2-2.3-10.2-3.4,0-.3,1.2-1.2,2.8-2,3.3-1.8,10.2-2,13.7-.4C99.1,116.7,100.1,117.7,99.9,118.3Z"/><path class="akitacls-14" d="M162.2,95.05a45.6,45.6,0,0,1-1.81,7.68h0c-.14.42-.29.84-.44,1.26l-.33.87c-.31.79-.65,1.56-1,2.33q-.19.44-.42.87-.37.76-.81,1.53c-.15.28-.31.55-.47.83A47.21,47.21,0,0,1,153,116a53.62,53.62,0,0,0,4.34-14.12c4.87-29.62-14.61-58-14.61-58,5.1-7.28,1.56-38.51,1.56-38.51.4.2,1.5,2.5,2.4,5.2,2,5.9,3,23.3,1.7,29.1-1,4.2-.9,4.8,2.7,11C160,66.25,164.2,82.65,162.2,95.05Z"/></g></g></svg>