<?xml version="1.0" encoding="utf-8"?>
<!-- Generator: Adobe Illustrator 23.1.0, SVG Export Plug-In . SVG Version: 6.00 Build 0)  -->
<svg version="1.1" id="Layer_1" xmlns="http://www.w3.org/2000/svg" xmlns:xlink="http://www.w3.org/1999/xlink" x="0px" y="0px"
	 viewBox="0 0 1080 1080" style="enable-background:new 0 0 1080 1080;" xml:space="preserve">
<g id="Layer_x0020_1_1_" style="display:none;">
	<g id="_1421394342400" style="display:inline;">
		<g>
			<polygon style="fill:#343434;" points="539.9,0 532.7,24.6 532.7,738.7 539.9,746 871.4,550 			"/>
			<polygon style="fill:#8C8C8C;" points="539.9,0 208.5,550 539.9,746 539.9,399.3 			"/>
			<polygon style="fill:#3C3C3B;" points="539.9,808.7 535.9,813.7 535.9,1068.1 539.9,1080 871.6,612.9 			"/>
			<polygon style="fill:#8C8C8C;" points="539.9,1080 539.9,808.7 208.5,612.9 			"/>
			<polygon style="fill:#141414;" points="539.9,746 871.4,550 539.9,399.3 			"/>
			<polygon style="fill:#393939;" points="208.5,550 539.9,746 539.9,399.3 			"/>
		</g>
	</g>
</g>
<title>tether-usdt-logo</title>
<path style="display:none;fill-rule:evenodd;clip-rule:evenodd;fill:#FFFFFF;" d="M608.3,591.8L608.3,591.8
	c-3.8,0.3-23.4,1.5-67.1,1.5c-34.8,0-59.4-1-68.1-1.5l0,0c-134.3-5.9-234.6-29.3-234.6-57.3c0-28,100.2-51.3,234.6-57.3v91.3
	c8.8,0.6,33.9,2.1,68.7,2.1c41.7,0,62.6-1.7,66.3-2.1v-91.3c134,6,234,29.4,234,57.3c0,27.9-100,51.3-234,57.2l0,0L608.3,591.8z
	 M608.3,467.8V386h187V261.4H286.1V386h187v81.7c-152,7-266.3,37.1-266.3,73.2s114.3,66.2,266.3,73.2V876h135.2V614
	c151.7-7,265.8-37.1,265.8-73.1S760,474.8,608.3,467.8L608.3,467.8L608.3,467.8z M608.3,467.8L608.3,467.8z"/>
<g style="display:none;">
	<path style="display:inline;fill:#C2A633;" d="M554,356.3h-77.2v152.1h121.4v63.7H476.8v152.1h80.9c20.8,0,170.7,2.3,170.5-177
		C728,368,582.8,356.3,554,356.3z"/>
	<path style="display:inline;fill:#C2A633;" d="M541,0.5c-298.2,0-540,241.7-540,540s241.7,540,540,540s540-241.7,540-540
		S839.3,0.5,541,0.5z M562.2,832.1H366.7v-260h-68.9v-63.7h68.9v-260h167.8c39.7,0,302.7-8.2,302.7,296.7
		C837.2,855.2,562.3,832.1,562.2,832.1L562.2,832.1z"/>
</g>
<g style="display:none;">
	<g id="Layer_1-2" style="display:inline;">
		<path style="fill:#FFFFFF;" d="M833.1,285.3l-98.2,50L260.7,576.9c-1.6-12.2-2.4-24.5-2.4-36.9c0.2-156,126.8-282.3,282.8-282.1
			c48.1,0.1,95.4,12.4,137.4,35.9l56.2-28.6l8.4-4.3c-154.2-111.9-370-77.7-481.9,76.6c-42.8,58.9-65.8,129.9-65.8,202.7
			c0,8.8,0.3,17.5,1,26.3c1.9,25.2-11.5,49.2-34.1,60.7l-29.6,15.1v70.5l87.3-44.5l0,0l28.3-14.4l27.8-14.2l0,0l499.9-254.7
			l56.2-28.6L948.2,297v-70.5L833.1,285.3z"/>
		<path style="fill:#FFFFFF;" d="M948.2,367.6L304.4,695.3L248.3,724l-115.6,58.9v70.4l114.8-58.5l98.2-50L820.3,503
			c1.6,12.3,2.4,24.7,2.4,37.1c-0.1,156-126.6,282.4-282.6,282.3c-48.3,0-95.8-12.5-138-36.1l-3.5,1.8l-60.9,31.1
			c154.2,111.9,369.9,77.7,481.9-76.5c42.8-58.9,65.8-129.8,65.8-202.6c0-8.9-0.3-17.7-1-26.5c-1.9-25.2,11.5-49.1,34.1-60.7
			l29.7-15.1V367.6z"/>
	</g>
</g>
<path style="display:none;fill-rule:evenodd;clip-rule:evenodd;fill:#FFFFFF;" d="M540.5,1080C243.8,1080,1,837,1,537.3
	C3.7,240.3,243.8-2.7,543.2,0C839.9,2.7,1080,243,1080,545.4C1077.3,839.7,837.2,1080,540.5,1080"/>
<path style="display:none;fill-rule:evenodd;clip-rule:evenodd;fill:#FFFFFF;" d="M591.8,475.2l-16.2,86.4l153.8,21.6l-10.8,40.5
	l-151.1-21.6c-10.8,35.1-16.2,72.9-29.7,105.3c-13.5,37.8-27,75.6-43.2,110.7c-21.6,45.9-59.3,78.3-110.6,86.4
	c-29.7,5.4-62,2.7-86.3-16.2c-8.1-5.4-16.2-16.2-16.2-24.3c0-10.8,5.4-24.3,13.5-29.7c5.4-2.7,18.9,0,27,2.7
	c8.1,8.1,16.2,18.9,21.6,29.7c16.2,21.6,37.8,24.3,59.3,8.1c24.3-21.6,37.8-51.3,45.9-81c16.2-64.8,32.4-126.9,45.9-191.7v-10.8
	l-143-21.6l5.4-40.5l148.4,21.6l18.9-83.7l-153.8-24.3l5.4-43.2l159.2,21.6c5.4-16.2,8.1-29.7,13.5-43.2
	c13.5-48.6,27-97.2,59.3-140.4c32.4-43.2,70.1-70.2,126.8-67.5c24.3,0,48.6,8.1,64.7,27c2.7,2.7,8.1,8.1,8.1,13.5
	c0,10.8,0,24.3-8.1,32.4c-10.8,8.1-24.3,5.4-35.1-5.4c-8.1-8.1-13.5-16.2-21.6-24.3c-16.2-21.6-40.5-24.3-59.3-5.4
	c-13.5,13.5-27,32.4-35.1,51.3c-18.9,56.7-32.4,116.1-51.3,175.5l148.4,21.6l-10.8,40.5L591.8,475.2"/>
<g style="display:none;">
	<g style="display:inline;">
		<defs>
			<rect id="SVGID_1_" x="-15" y="-16" width="1110" height="1110"/>
		</defs>
		<clipPath id="SVGID_2_">
			<use xlink:href="#SVGID_1_"  style="overflow:visible;"/>
		</clipPath>
		<g id="b" style="clip-path:url(#SVGID_2_);">
			
				<linearGradient id="SVGID_3_" gradientUnits="userSpaceOnUse" x1="-596.0314" y1="180.3708" x2="-597.0637" y2="181.2394" gradientTransform="matrix(776 0 0 776 463462 -139766)">
				<stop  offset="0" style="stop-color:#B6509E"/>
				<stop  offset="1" style="stop-color:#2EBAC6"/>
			</linearGradient>
			<circle style="fill:url(#SVGID_3_);" cx="540.2" cy="539.5" r="538.3"/>
			<path style="fill:#FFFFFF;" d="M775.6,752.9L593.8,313.4c-10.3-22.7-25.5-33.8-45.6-33.8h-15c-20.2,0-35.5,11.1-45.8,33.9
				L408,505.7h-60.1c-17.9,0.1-32.5,14.6-32.7,32.7v0.3c0,0,14.1,32.5,32,32.2h32.2L303.8,754c-1.4,4-2.2,8.2-2.2,12.5
				c0,10.3,3.2,18.3,8.9,24.6c5.7,6.2,13.9,9.3,24.1,9.3c6.8-0.1,13.3-2.2,18.7-6.2c5.8-4,9.9-9.9,13-16.5l83.3-205.3h57.7
				c17.9-1.3,32.7-33.8,32.7-33.8v-1.7c-0.1-17.9-14.7-32.4-32.6-32.6h-30.8l63.5-158.1l172.9,430.1c3.2,6.7,7.2,12.5,13,16.5
				c5.4,4,12.1,6.1,18.7,6.2c10.3,0,18.3-3,24.1-9.3c5.8-6.2,8.9-14.3,8.9-24.5C777.9,761.1,777.2,756.8,775.6,752.9z"/>
		</g>
	</g>
</g>
<g id="tron" style="display:none;">
	<path style="display:inline;fill:#FFFFFF;" d="M896.4,451.8c-33.4-30.9-79.7-78-117.3-111.4l-2.2-1.6c-3.7-3-7.9-5.3-12.4-6.9l0,0
		C673.7,315,251.2,236,242.9,237c-2.3,0.3-4.5,1.2-6.5,2.5l-2.1,1.7c-2.6,2.6-4.6,5.8-5.8,9.4l-0.6,1.4v7.9v1.2
		c47.6,132.5,235.4,566.4,272.4,668.2c2.2,6.9,6.5,20.1,14.4,20.7h1.8c4.2,0,22.3-23.8,22.3-23.8s322.6-391.3,355.3-432.9
		c4.2-5.1,8-10.7,11.1-16.5C906.9,467.5,903.5,458,896.4,451.8z M621.6,497.4l137.7-114.2l80.8,74.4L621.6,497.4z M568.1,489.9
		L331,295.6l383.6,70.7L568.1,489.9z M589.5,540.8l242.6-39.1L554.8,835.9L589.5,540.8z M298.9,315l249.4,211.7l-36.1,309.5
		L298.9,315z"/>
</g>
<g style="display:none;">
	<path style="display:inline;fill:#FFFFFF;" d="M665,647.1h-35.8c-6.6,0-12.3-5.3-12.3-12.3v-94.1l-62.7,39.1
		c-5.3,3.3-11.9,3.3-17.2,0l-62.3-39.1v94.1c0,6.6-5.3,12.3-12.3,12.3H427c-6.6,0-12.3-5.3-12.3-12.3l0,0V453.1
		c0-9,7.3-16.2,16.2-16.2c3.3,0,6.3,1,9,3l98.8,68c4,3,9.6,3,13.6,0l98.8-68c7.3-5,17.6-3,22.5,4.3c2,2.7,2.7,6,3,9v181.7
		C677,641.4,671.6,647.1,665,647.1L665,647.1z"/>
	<path style="display:inline;fill:#FFFFFF;" d="M361.4,646.7H139.3c-9,0-16.2-7.3-16.2-16.2l0,0V447.8c0.3-7,5.6-12.3,12.6-12.3
		h35.8c6.6,0,12.3,5.3,12.3,12.3l0,0v138.9h134.6V447.8c0-6.6,5.3-12.3,12.3-12.3h34.8c6.6,0,12.3,5.3,12.3,12.3v182.7
		C377.6,639.4,370.3,646.7,361.4,646.7L361.4,646.7z"/>
	<path style="display:inline;fill:#FFFFFF;" d="M730.7,435.6h222.1c9,0,16.2,7.3,16.2,16.2v182.7c0,6.6-5.3,12.3-11.9,12.3l0,0
		h-35.8c-6.6,0-12.3-5.3-12.3-12.3l0,0V503.5c0-4.3-3.6-8-8-8l0,0H782.7c-4.3,0-8,3.6-8,8l0,0v130.9c0,6.6-5.3,12.3-12.3,12.3h-35.8
		c-6.6,0-12.3-5.3-12.3-12.3l0,0V451.8C714.4,442.9,721.7,435.6,730.7,435.6L730.7,435.6L730.7,435.6z"/>
	<path style="display:inline;fill:#FFFFFF;" d="M823.8,534h35.5c6.6,0,12.3,5.3,12.3,12.3v36.1c0,6.6-5.3,12.3-12.3,12.3h-35.5
		c-6.6,0-12.3-5.3-12.3-12.3V546C811.5,539.3,817.2,534,823.8,534z"/>
</g>
<g>
	<circle cx="539.6" cy="540.4" r="539.6"/>
	<g>
		<path style="fill:#FFFFFF;" d="M935.6,457.4c-5.3-25.9-13.2-51.2-23.5-75.6c-10.2-24-22.6-46.9-37.2-68.6
			c-14.4-21.4-30.9-41.3-49.1-59.5c-18.2-18.3-38.1-34.7-59.5-49.1c-21.6-14.5-44.6-26.9-68.5-37.2c-100-42.4-213-42.4-313,0
			c-47.9,20.2-91.4,49.5-128,86.3c-18.3,18.2-34.7,38.1-49.1,59.4c-14.5,21.7-26.9,44.6-37.2,68.6c-42.4,100-42.4,213,0,313
			c9.9,23.9,22.7,46.6,37.2,68.5c14.4,21.4,30.9,41.3,49.1,59.5c18.2,18.3,38.1,34.7,59.5,49.1c21.4,14.4,44.6,26.8,68.5,37.2
			c100,42.4,213,42.4,313,0c23.9-9.9,46.6-22.7,68.5-37.2c21.4-14.4,41.3-30.9,59.5-49.1c18.3-18.2,34.7-38.1,49.1-59.5
			c14.4-21.4,26.8-44.6,37.2-68.5C943.8,619.9,952,537.1,935.6,457.4z M541.6,890.6c-194.5,0-351.8-157.8-351.8-351.8
			s157.8-351.8,351.8-351.8c194.1,0,351.8,157.8,351.8,351.8S735.7,890.6,541.6,890.6z"/>
		<path style="fill:#FFFFFF;" d="M547.8,860h9.5c1.7,0,3.3,0,4.9-0.4h0.4c1.7,0,2.9,0,4.5-0.4h1.2c1.2,0,2.5,0,3.7-0.4h1.2
			c1.2,0,2.5-0.4,4.1-0.4h0.8c1.7,0,3.3-0.4,5-0.4c1.7,0,2.9-0.4,4.6-0.8h0.8c1.2,0,2.5-0.4,3.7-0.4h0.8c1.7-0.4,2.9-0.4,4.6-0.8
			c3.3-0.4,6.6-1.2,9.5-2.1h0.8c1.2-0.4,2.9-0.4,4.1-0.8h0.4c3.3-0.8,6.2-1.7,9.5-2.5c-30.9,1-61.9-1.9-92.1-8.7
			c-45.5-9.9-88.8-27.7-125.6-58.2c-58.7-48.8-92.3-121.4-91.7-197.8c0.3-56.2,20.3-110.6,56.6-153.6c47.1-55.7,114-85.1,182.5-86.7
			h9.5v-54.9h-10.7c-20.8,0.4-41.6,2.9-62,7.4c-20.5,4.6-40.4,11.4-59.5,20.2c-19.4,9.1-37.6,20.2-54.5,33
			c-17.5,13.3-33.4,28.5-47.5,45.4c-13.2,15.6-24.7,32.7-34.3,50.8c-9.4,17.5-17.1,35.9-22.7,54.9c-5.6,18.7-9.3,38-11.1,57.4
			L258,578v10.7c0.4,21.1,2.9,41.7,7.4,62c4.6,20.7,11.6,40.5,20.2,59.5c10.4,22.7,28.9,56.1,56.6,81.3
			c56.5,44.5,126.3,68.7,198.2,68.6C540.4,860,547.8,860,547.8,860z"/>
		<path style="fill:#FFFFFF;" d="M637.8,807.2c-20.4-0.7-40.7-2.9-60.7-6.6c-85.1-15.3-158.2-67.3-185-145.8
			c-32.6-95.4,17.3-198.6,112.3-230c18.1-6.1,37.1-9.1,56.1-9.1c24.4,0,48.7,5,71.1,14l23.1-49.1c-6.9-2.8-14-5.4-21-7.8
			c-23.7-7.4-48.3-11.2-73.1-11.2c-24.8,0-49.5,4.1-73.1,12c-30.1,9.9-57.8,25.9-81.3,47.1c-11.4,10.1-21.7,21.3-31,33.5
			c-9.1,12-17,24.9-23.5,38.4c-13.3,27.3-21.2,56.9-23.1,87.1c-2.1,31.4,2.1,62.7,12.4,92.5c10.5,30.6,27.4,58.6,49.6,82.2
			c20.2,21.9,43.8,38.4,72.2,53.7c29.7,15.7,66.5,23.9,104.9,29.3c24.8,3.3,57.8,4.1,77.2,4.1c16.9-6.2,23.9-9.1,33-12.8
			c7.9-3.7,15.7-7.4,23.5-12c7.9-4.6,9.1-5.4,22.3-14c1.2-0.7,2.3-1.6,3.3-2.5C681.6,808,670.1,807.6,637.8,807.2z"/>
		<path style="fill:#FFFFFF;" d="M739.5,745.7c-12.8,0.8-31,2-51.6,2c-36.8,0-81.8-3.3-120.2-16.1C508.2,711.8,452,661,452,598.2
			C452,535.8,502.5,485.1,565,485.1c0.1,0,0.1,0,0.2,0c42.5,0,79.3,23.5,98.7,57.8l49.1-24.3c-7.7-14.5-17.6-27.7-29.3-39.2
			c-65.3-65.5-171.4-65.5-236.8-0.2c-0.1,0.1-0.1,0.1-0.2,0.2c-31.5,31.4-49.1,74-49.1,118.5c0.1,23.1,5,45.9,14.5,66.9
			c8.6,19,20.6,36.8,35.9,53.3c26.8,28.9,63.6,52,102.8,65.2c37.6,12.4,92.9,16.9,146.6,13.2c14.8-1.2,26-2.5,45-6.6
			c18.3-14.5,35-30.9,49.6-49.1C779.1,741.9,755.5,744.4,739.5,745.7z"/>
	</g>
</g>
</svg>
