<?xml version="1.0" encoding="utf-8"?>
<!-- Generator: Adobe Illustrator 23.1.0, SVG Export Plug-In . SVG Version: 6.00 Build 0)  -->
<svg version="1.1" id="Layer_1" xmlns="http://www.w3.org/2000/svg" xmlns:xlink="http://www.w3.org/1999/xlink" x="0px" y="0px"
	 viewBox="0 0 1080 1080" style="enable-background:new 0 0 1080 1080;" xml:space="preserve">
<g id="Layer_x0020_1_1_" style="display:none;">
	<g id="_1421394342400" style="display:inline;">
		<g>
			<polygon style="fill:#343434;" points="539.9,0 532.7,24.6 532.7,738.7 539.9,746 871.4,550 			"/>
			<polygon style="fill:#8C8C8C;" points="539.9,0 208.5,550 539.9,746 539.9,399.3 			"/>
			<polygon style="fill:#3C3C3B;" points="539.9,808.7 535.9,813.7 535.9,1068.1 539.9,1080 871.6,612.9 			"/>
			<polygon style="fill:#8C8C8C;" points="539.9,1080 539.9,808.7 208.5,612.9 			"/>
			<polygon style="fill:#141414;" points="539.9,746 871.4,550 539.9,399.3 			"/>
			<polygon style="fill:#393939;" points="208.5,550 539.9,746 539.9,399.3 			"/>
		</g>
	</g>
</g>
<title>tether-usdt-logo</title>
<path style="display:none;fill-rule:evenodd;clip-rule:evenodd;fill:#FFFFFF;" d="M608.3,591.8L608.3,591.8
	c-3.8,0.3-23.4,1.5-67.1,1.5c-34.8,0-59.4-1-68.1-1.5l0,0c-134.3-5.9-234.6-29.3-234.6-57.3c0-28,100.2-51.3,234.6-57.3v91.3
	c8.8,0.6,33.9,2.1,68.7,2.1c41.7,0,62.6-1.7,66.3-2.1v-91.3c134,6,234,29.4,234,57.3c0,27.9-100,51.3-234,57.2l0,0L608.3,591.8z
	 M608.3,467.8V386h187V261.4H286.1V386h187v81.7c-152,7-266.3,37.1-266.3,73.2s114.3,66.2,266.3,73.2V876h135.2V614
	c151.7-7,265.8-37.1,265.8-73.1S760,474.8,608.3,467.8L608.3,467.8L608.3,467.8z M608.3,467.8L608.3,467.8z"/>
<g style="display:none;">
	<path style="fill:#C2A633;" d="M554,356.3h-77.2v152.1h121.4v63.7H476.8v152.1h80.9c20.8,0,170.7,2.3,170.5-177
		C728,368,582.8,356.3,554,356.3z"/>
	<path style="fill:#C2A633;" d="M541,0.5c-298.2,0-540,241.7-540,540s241.7,540,540,540s540-241.7,540-540S839.3,0.5,541,0.5z
		 M562.2,832.1H366.7v-260h-68.9v-63.7h68.9v-260h167.8c39.7,0,302.7-8.2,302.7,296.7C837.2,855.2,562.3,832.1,562.2,832.1
		L562.2,832.1z"/>
</g>
<g style="display:none;">
	<g id="Layer_1-2" style="display:inline;">
		<path style="fill:#FFFFFF;" d="M833.1,285.3l-98.2,50L260.7,576.9c-1.6-12.2-2.4-24.5-2.4-36.9c0.2-156,126.8-282.3,282.8-282.1
			c48.1,0.1,95.4,12.4,137.4,35.9l56.2-28.6l8.4-4.3c-154.2-111.9-370-77.7-481.9,76.6c-42.8,58.9-65.8,129.9-65.8,202.7
			c0,8.8,0.3,17.5,1,26.3c1.9,25.2-11.5,49.2-34.1,60.7l-29.6,15.1v70.5l87.3-44.5l0,0l28.3-14.4l27.8-14.2l0,0l499.9-254.7
			l56.2-28.6L948.2,297v-70.5L833.1,285.3z"/>
		<path style="fill:#FFFFFF;" d="M948.2,367.6L304.4,695.3L248.3,724l-115.6,58.9v70.4l114.8-58.5l98.2-50L820.3,503
			c1.6,12.3,2.4,24.7,2.4,37.1c-0.1,156-126.6,282.4-282.6,282.3c-48.3,0-95.8-12.5-138-36.1l-3.5,1.8l-60.9,31.1
			c154.2,111.9,369.9,77.7,481.9-76.5c42.8-58.9,65.8-129.8,65.8-202.6c0-8.9-0.3-17.7-1-26.5c-1.9-25.2,11.5-49.1,34.1-60.7
			l29.7-15.1V367.6z"/>
	</g>
</g>
<path style="display:none;fill-rule:evenodd;clip-rule:evenodd;fill:#FFFFFF;" d="M540.5,1080C243.8,1080,1,837,1,537.3
	C3.7,240.3,243.8-2.7,543.2,0C839.9,2.7,1080,243,1080,545.4C1077.3,839.7,837.2,1080,540.5,1080"/>
<path style="display:none;fill-rule:evenodd;clip-rule:evenodd;fill:#FFFFFF;" d="M591.8,475.2l-16.2,86.4l153.8,21.6l-10.8,40.5
	l-151.1-21.6c-10.8,35.1-16.2,72.9-29.7,105.3c-13.5,37.8-27,75.6-43.2,110.7c-21.6,45.9-59.3,78.3-110.6,86.4
	c-29.7,5.4-62,2.7-86.3-16.2c-8.1-5.4-16.2-16.2-16.2-24.3c0-10.8,5.4-24.3,13.5-29.7c5.4-2.7,18.9,0,27,2.7
	c8.1,8.1,16.2,18.9,21.6,29.7c16.2,21.6,37.8,24.3,59.3,8.1c24.3-21.6,37.8-51.3,45.9-81c16.2-64.8,32.4-126.9,45.9-191.7v-10.8
	l-143-21.6l5.4-40.5l148.4,21.6l18.9-83.7l-153.8-24.3l5.4-43.2l159.2,21.6c5.4-16.2,8.1-29.7,13.5-43.2
	c13.5-48.6,27-97.2,59.3-140.4c32.4-43.2,70.1-70.2,126.8-67.5c24.3,0,48.6,8.1,64.7,27c2.7,2.7,8.1,8.1,8.1,13.5
	c0,10.8,0,24.3-8.1,32.4c-10.8,8.1-24.3,5.4-35.1-5.4c-8.1-8.1-13.5-16.2-21.6-24.3c-16.2-21.6-40.5-24.3-59.3-5.4
	c-13.5,13.5-27,32.4-35.1,51.3c-18.9,56.7-32.4,116.1-51.3,175.5l148.4,21.6l-10.8,40.5L591.8,475.2"/>
<g style="display:none;">
	<path style="display:inline;fill:#FFFFFF;" d="M665,647.1h-35.8c-6.6,0-12.3-5.3-12.3-12.3v-94.1l-62.7,39.1
		c-5.3,3.3-11.9,3.3-17.2,0l-62.3-39.1v94.1c0,6.6-5.3,12.3-12.3,12.3H427c-6.6,0-12.3-5.3-12.3-12.3l0,0V453.1
		c0-9,7.3-16.2,16.2-16.2c3.3,0,6.3,1,9,3l98.8,68c4,3,9.6,3,13.6,0l98.8-68c7.3-5,17.6-3,22.5,4.3c2,2.7,2.7,6,3,9v181.7
		C677,641.4,671.6,647.1,665,647.1L665,647.1z"/>
	<path style="display:inline;fill:#FFFFFF;" d="M361.4,646.7H139.3c-9,0-16.2-7.3-16.2-16.2l0,0V447.8c0.3-7,5.6-12.3,12.6-12.3
		h35.8c6.6,0,12.3,5.3,12.3,12.3l0,0v138.9h134.6V447.8c0-6.6,5.3-12.3,12.3-12.3h34.8c6.6,0,12.3,5.3,12.3,12.3v182.7
		C377.6,639.4,370.3,646.7,361.4,646.7L361.4,646.7z"/>
	<path style="display:inline;fill:#FFFFFF;" d="M730.7,435.6h222.1c9,0,16.2,7.3,16.2,16.2v182.7c0,6.6-5.3,12.3-11.9,12.3l0,0
		h-35.8c-6.6,0-12.3-5.3-12.3-12.3l0,0V503.5c0-4.3-3.6-8-8-8l0,0H782.7c-4.3,0-8,3.6-8,8l0,0v130.9c0,6.6-5.3,12.3-12.3,12.3h-35.8
		c-6.6,0-12.3-5.3-12.3-12.3l0,0V451.8C714.4,442.9,721.7,435.6,730.7,435.6L730.7,435.6L730.7,435.6z"/>
	<path style="display:inline;fill:#FFFFFF;" d="M823.8,534h35.5c6.6,0,12.3,5.3,12.3,12.3v36.1c0,6.6-5.3,12.3-12.3,12.3h-35.5
		c-6.6,0-12.3-5.3-12.3-12.3V546C811.5,539.3,817.2,534,823.8,534z"/>
</g>
<title>litecoin-ltc-logo</title>
<circle style="fill:#FFFFFF;" cx="539.5" cy="539.7" r="539.7"/>
<title>ftx--logo</title>
<title>Asset 1</title>
<g id="Group_4_1_" transform="translate(543 -601)">
	<g id="fegicon" transform="translate(-533.431 605.014)">
		<path id="Path_1_1_" style="fill:none;" d="M459,480.6c0.2,0.1,0.3,0.1,0.5,0C459,480.5,458.7,480.5,459,480.6z M497.4,423.7
			c-11.3,19.8-24,38.8-37.9,56.8C465.8,480.7,512.6,483.3,497.4,423.7L497.4,423.7z M497.4,423.7c-11.3,19.8-24,38.8-37.9,56.8
			C465.8,480.7,512.6,483.3,497.4,423.7L497.4,423.7z M459,480.6c0.2,0.1,0.3,0.1,0.5,0C459,480.5,458.7,480.5,459,480.6z
			 M459,480.6c0.2,0.1,0.3,0.1,0.5,0C459,480.5,458.7,480.5,459,480.6z M497.4,423.7c-11.3,19.8-24,38.8-37.9,56.8
			C465.8,480.7,512.6,483.3,497.4,423.7L497.4,423.7z M497.4,423.7c-11.3,19.8-24,38.8-37.9,56.8
			C465.8,480.7,512.6,483.3,497.4,423.7L497.4,423.7z M459,480.6c0.2,0.1,0.3,0.1,0.5,0C459,480.5,458.7,480.5,459,480.6z
			 M459,480.6c0.2,0.1,0.3,0.1,0.5,0C459,480.5,458.7,480.5,459,480.6z M497.4,423.7c-11.3,19.8-24,38.8-37.9,56.8
			C465.8,480.7,512.6,483.3,497.4,423.7L497.4,423.7z M497.4,423.7c-11.3,19.8-24,38.8-37.9,56.8
			C465.8,480.7,512.6,483.3,497.4,423.7L497.4,423.7z M459,480.6c0.2,0.1,0.3,0.1,0.5,0C459,480.5,458.7,480.5,459,480.6z
			 M459,480.6c0.2,0.1,0.3,0.1,0.5,0C459,480.5,458.7,480.5,459,480.6z M497.4,423.7c-11.3,19.8-24,38.8-37.9,56.8
			C465.8,480.7,512.6,483.3,497.4,423.7L497.4,423.7z M497.4,423.7c-11.3,19.8-24,38.8-37.9,56.8
			C465.8,480.7,512.6,483.3,497.4,423.7L497.4,423.7z M459,480.6c0.2,0.1,0.3,0.1,0.5,0C459,480.5,458.7,480.5,459,480.6z
			 M459,480.6c0.2,0.1,0.3,0.1,0.5,0C459,480.5,458.7,480.5,459,480.6z M497.4,423.7c-11.3,19.8-24,38.8-37.9,56.8
			C465.8,480.7,512.6,483.3,497.4,423.7L497.4,423.7z M501.6,342.9v0.8C501.6,343.7,509.7,343.8,501.6,342.9z M497.4,423.7
			c-11.3,19.8-24,38.8-37.9,56.8C465.8,480.7,512.6,483.3,497.4,423.7L497.4,423.7z M459,480.6c0.2,0.1,0.3,0.1,0.5,0
			C459,480.5,458.7,480.5,459,480.6z M501.6,342.9v0.8C501.6,343.7,509.8,343.8,501.6,342.9L501.6,342.9z M459,480.6
			c0.2,0.1,0.3,0.1,0.5,0C459,480.5,458.7,480.5,459,480.6z M497.4,423.7c-11.3,19.8-24,38.8-37.9,56.8
			C465.8,480.7,512.6,483.3,497.4,423.7L497.4,423.7z M501.6,342.9v0.8C501.6,343.7,509.7,343.8,501.6,342.9z M497.4,423.7
			c-11.3,19.8-24,38.8-37.9,56.8C465.8,480.7,512.6,483.3,497.4,423.7L497.4,423.7z M459,480.6c0.2,0.1,0.3,0.1,0.5,0
			C459,480.5,458.7,480.5,459,480.6z M501.6,342.9v0.8C501.6,343.7,509.8,343.8,501.6,342.9L501.6,342.9z M459,480.6
			c0.2,0.1,0.3,0.1,0.5,0C459,480.5,458.7,480.5,459,480.6z M497.4,423.7c-11.3,19.8-24,38.8-37.9,56.8
			C465.8,480.7,512.6,483.3,497.4,423.7L497.4,423.7z M501.6,342.9v0.8C501.6,343.7,509.7,343.8,501.6,342.9z M556.9,395.8v7.4
			c33.6,5.6,65.7,18.2,94,37.1l4.9-7.9c-30.6-17.7-64.1-30.1-98.8-36.6L556.9,395.8z M501.6,342.9v0.8
			C501.6,343.7,509.7,343.8,501.6,342.9z M459,480.6c0.2,0.1,0.3,0.1,0.5,0C458.8,480.5,458.6,480.5,459,480.6L459,480.6z
			 M497.4,423.7c-11.3,19.8-24,38.8-37.9,56.8C465.7,480.7,512.5,483.3,497.4,423.7L497.4,423.7z M501.5,342.9v0.8
			C501.5,343.7,509.7,343.8,501.5,342.9z M497.4,423.7c-11.3,19.8-24,38.8-37.9,56.8C465.7,480.7,512.5,483.3,497.4,423.7
			L497.4,423.7z M459,480.6c0.2,0.1,0.3,0.1,0.5,0C458.8,480.5,458.6,480.5,459,480.6L459,480.6z M501.6,342.9v0.8
			C501.6,343.7,509.7,343.8,501.6,342.9z M459,480.6c0.2,0.1,0.3,0.1,0.5,0C458.8,480.5,458.6,480.5,459,480.6L459,480.6z
			 M497.4,423.7c-11.3,19.8-24,38.8-37.9,56.8C465.7,480.7,512.5,483.3,497.4,423.7L497.4,423.7z M501.5,342.9v0.8
			C501.5,343.7,509.7,343.8,501.5,342.9z M497.4,423.7c-11.3,19.8-24,38.8-37.9,56.8C465.7,480.7,512.5,483.3,497.4,423.7
			L497.4,423.7z M459,480.6c0.2,0.1,0.3,0.1,0.5,0C458.8,480.5,458.6,480.5,459,480.6L459,480.6z M459,480.6c0.2,0.1,0.3,0.1,0.5,0
			C458.8,480.5,458.6,480.5,459,480.6L459,480.6z M497.4,423.7c-11.3,19.8-24,38.8-37.9,56.8C465.7,480.7,512.5,483.3,497.4,423.7
			L497.4,423.7z M497.4,423.7c-11.3,19.8-24,38.8-37.9,56.8C465.7,480.7,512.5,483.3,497.4,423.7L497.4,423.7z M459,480.6
			c0.2,0.1,0.3,0.1,0.5,0C458.8,480.5,458.6,480.5,459,480.6L459,480.6z M459,480.6c0.2,0.1,0.3,0.1,0.5,0
			C458.8,480.5,458.6,480.5,459,480.6L459,480.6z M497.4,423.7c-11.3,19.8-24,38.8-37.9,56.8C465.7,480.7,512.5,483.3,497.4,423.7
			L497.4,423.7z M497.4,423.7c-11.3,19.8-24,38.8-37.9,56.8C465.7,480.7,512.5,483.3,497.4,423.7L497.4,423.7z M459,480.6
			c0.2,0.1,0.3,0.1,0.5,0C458.8,480.5,458.6,480.5,459,480.6L459,480.6z M459,480.6c0.2,0.1,0.3,0.1,0.5,0
			C458.8,480.5,458.6,480.5,459,480.6L459,480.6z M497.4,423.7c-11.3,19.8-24,38.8-37.9,56.8C465.7,480.7,512.5,483.3,497.4,423.7
			L497.4,423.7z M497.4,423.7c-11.3,19.8-24,38.8-37.9,56.8C465.7,480.7,512.5,483.3,497.4,423.7L497.4,423.7z M459,480.6
			c0.2,0.1,0.3,0.1,0.5,0C458.8,480.5,458.6,480.5,459,480.6L459,480.6z M459,480.6c0.2,0.1,0.3,0.1,0.5,0
			C458.8,480.5,458.6,480.5,459,480.6L459,480.6z M497.4,423.7c-11.3,19.8-24,38.8-37.9,56.8C465.7,480.7,512.5,483.3,497.4,423.7
			L497.4,423.7z M497.4,423.7c-11.3,19.8-24,38.8-37.9,56.8C465.7,480.7,512.5,483.3,497.4,423.7L497.4,423.7z M459,480.6
			c0.2,0.1,0.3,0.1,0.5,0C458.8,480.5,458.6,480.5,459,480.6L459,480.6z"/>
		<path id="Path_2_1_" d="M815,564.9c0,0,14.5-210-132.4-306c0,0-7.4-130.3-121.1-158.1s-161.5,34-189.1,73.7
			c-19.5,33.3-33.2,69.7-40.4,107.7c-43.4,22.9-70,68.5-68.7,117.6c0,0-23,12.8-14.2,51.7l-25,19.1v27.6l12.1,5.7
			c0,0-10,23.4,34,59.5c0,0-28.7,82.9-4.9,140.9c0,0-21.6,43.2,0,58.3s24.8,24.1,24.8,24.1s-3.9,75.8,94.9,102
			c23.1,33.3,59.6,54.8,99.9,58.9c34.9,0.5,68.9,11.4,97.7,31.2c0,0,10.3-80.4,29.7-89.3c-4.2,19.9-4.2,40.4,0,60.2
			c0,0,85.8-102,127.5-117.7c49.5-26.1,84.4-73.3,94.9-128.2C841.4,654.1,815,564.9,815,564.9z M648.5,257.7c2.7-9.9,3-20.2,1-30.3
			c16.2,7.9,10.6,39.2,10.6,39.2c14.7,2.2,25.2,15.5,23.9,30.3c-5.4-9.6-15.5-15.6-26.6-15.9c6.2,8,8.9,18.2,7.4,28.2
			c-6.7-14.4-18.9-25.5-33.8-30.9c5.1-30.6-3.7-41.7-3.7-41.7c7.4-2.9,20.9,20.8,20.9,20.8L648.5,257.7z M446.7,234.3
			c-7.5,7.9-12.8,17.6-15.4,28.1c0,0,45.4-19.1,61.6-2.7c-42.3,5.1-81.7,23.8-112.6,53.1c0.7-2.3,29-74.4,66.2-78.5L446.7,234.3z
			 M380.1,365c27.6-18.3,60.5-26.9,93.5-24.5c15.6,1.2,24,1.9,28.1,2.5c0-3.1-2.2-14.5-18.5-20.4c32.9,1.8,59.7,26.8,63.8,59.5
			c0,0-20.8-23.9-84.4-5.8c-63.6,18-60.1,24.5-79.7,24.5C363.2,400.6,373.2,371.7,380.1,365L380.1,365z M494.8,480.6
			c-18.2,8.7-38.1,13.1-58.3,12.9c-10-8.3-21.2-14.9-33.3-19.6c-25-11.3-7.4-51-7.4-51s65.9-35.9,99.3-27.1
			C528.7,404.6,516.3,470.4,494.8,480.6L494.8,480.6z M380.1,478.7c0.2,5.3-11.5-5.6-17.5,15.9s-9.6,2.7-9.6,2.7v-33.5
			c0-7.2,9.6-7.4,9.6-7.4C389.1,461.9,379.9,473.3,380.1,478.7L380.1,478.7z M349.8,384.6c0,0,2.7,32.8,17.4,33.3v19.6
			c-8.7,3.5-18.3,3.5-27,0c0,0,15.6,0.8,12.7-5.9C353,431.9,309.7,404.6,349.8,384.6L349.8,384.6z M273.4,417.9
			c6.2-12.1,21-17,33.2-10.8c8.8,4.5,14.1,13.8,13.4,23.6c-11-0.1-21.8,2.1-31.9,6.4c-22.3,7.7-29.6,4.5-14.9-19.1L273.4,417.9z
			 M252.1,480.5c20.2-15.2,43.5-25.5,68.3-30.2c25.7,15.4,8.7,54.4,8.7,54.4c0.5-19.4-4.2-17.7-4.2-17.7
			c-7.6,16.8-18.4,32-31.9,44.6c2.2,3.5,10.6,1.1,10.6,1.1c-1.8,4.7-5.5,8.4-10.3,10.1C243,548,252,480.7,252,480.7L252.1,480.5z
			 M537.7,610.3c0,0,22.8,25.2,19.3,41.9c0,0-9.6-16.7-42.5-10.6c0,0,58.3,28.2,9,65.9c0,0,10.3,11.7,39.8-13.8
			c9.7,38.4-7.7,78.6-42.5,97.7c-38.2,17.3-82.4,15-118.5-6.3c-2.1,9.4-1.2,19.3,2.7,28.1c0,0-15.9,2.2-42.5-25
			c-4.8,26.3,0.9,53.4,15.9,75.4c0,0-81.3-6.1-69.1-115.8c0,0-54.1,23.1-29.7-22.3c24.4-45.4,147.1-72,244.9-56.8
			c0,0-18.3-28.7-140.8-14.3c0,0-27.6-9.5-20.8-85.8c0,0-23.1,7.2-10.6,90c-19.5,8.2-38.1,18.1-55.8,29.7
			c-13,11.2-19.1-6.1-19.1-23.2c0.2-26.2,3.7-52.3,10.6-77.6c7.2-19.3,1.6-28.2,32.4-18.9s25-3.5,25-3.5s-42.2-4.9-17-40.9
			c0,0,30.3-15.7,37.2,11.9c0,0,8.8-57.4,43-38.5s-9.5,54.7-9.5,54.7s34.8,7.2,43.8-35.8c0,0,82.1-8.3,84.2-50.2
			c0,0,3.7-61.6,23.9-51.5c20.2,10.1-4.2,60.1-4.2,60.1c-11.1,19.9-25.9,37.6-43.5,52.1c0,0,32.1-1.9,43.5,9.3
			c0,0-40.6,0.5-39.2,10.3c0,0,63.3,30.3,69.5,82.3c0-0.2-6.7-15.3-39.5-18.8L537.7,610.3z M651,440.2c-28.4-18.9-60.4-31.5-94-37.1
			v-7.4c34.8,6.5,68.2,18.9,98.9,36.7L651,440.2z M720.6,498.2c0,0-3.5,53.1-23.4,70.4c-19.9,17.3-22.3-7.7-22.3-7.7
			c20.8-22.6-8.3-40.9-8.3-40.9c13-41.7,24.5,12.7,24.5,12.7c12.3,0.6,5.6-25.2,7.4-31.3c1.8-6.1-9.3-5.6-8.3-13.3
			c1-7.7,9.4-5.9,16.3-11.2c6.9-5.3-7.2-8.3-16.3-11.7c-9.1-3.4-24.3,11.7-29.4,0.5c-2.4-7.6-0.1-15.9,5.9-21.3
			c10.7-6.2,23.9-6.2,34.5,0C722.9,454.3,720.6,498.3,720.6,498.2L720.6,498.2z M800.3,600.2c-4.8-7.8-11.8-13.9-20.2-17.5
			c4.9,20.8,0,27.6,0,27.6c-1.8-15.4-10.7-29.1-23.9-37.2c13-28.1,5.9-36.9,5.9-36.9c8.7-1.1,12.3,22.6,12.3,22.6
			c11.7-8.3,9.6-31.9,9.6-31.9c16.7,27.6,2.7,41.7,2.7,41.7c24.5,32.1,13.8,31.9,13.8,31.9L800.3,600.2z"/>
		<path id="Path_3_1_" style="fill:#FE1646;" d="M492.7,259.8c-42.3,5.1-81.7,23.8-112.6,53.1c0.9-2.3,29.1-74.4,66.6-78.5
			c-7.5,7.9-12.8,17.6-15.4,28.1C431.1,262.5,476.5,243.4,492.7,259.8z"/>
		<path id="Path_4_1_" style="fill:#FE1646;" d="M684,297c-5.4-9.6-15.5-15.6-26.6-15.9c6.2,8,8.9,18.2,7.4,28.2
			c-6.7-14.4-18.8-25.5-33.7-30.9c5.1-30.6-3.7-41.7-3.7-41.7c7.2-3.2,20.8,20.8,20.8,20.8c2.7-9.8,3.1-20.2,1.1-30.2
			c16.2,7.9,10.6,39.2,10.6,39.2C674.7,268.7,685.3,282.1,684,297z"/>
		<path id="Path_5_1_" style="fill:#FE1646;" d="M800.3,600.3c-4.8-7.8-11.8-13.9-20.2-17.5c4.9,20.8,0,27.6,0,27.6
			c-1.8-15.4-10.7-29.1-23.9-37.2c13-28.1,5.9-36.9,5.9-36.9c8.7-1.1,12.3,22.6,12.3,22.6c11.7-8.3,9.6-31.9,9.6-31.9
			c16.7,27.6,2.7,41.7,2.7,41.7C810.9,600.6,800.3,600.3,800.3,600.3z"/>
		<path id="Path_6_1_" style="fill:#FEB033;" d="M720.6,498.4c0,0-3.5,53.1-23.4,70.4c-19.9,17.3-22.3-7.7-22.3-7.7
			c20.8-22.6-8.3-40.9-8.3-40.9c13-41.7,24.5,12.7,24.5,12.7c12.3,0.6,5.6-25.2,7.4-31.3c1.8-6.1-9.3-5.6-8.3-13.3
			c1-7.7,9.4-5.9,16.3-11.2c6.9-5.3-7.2-8.3-16.3-11.7c-9.1-3.4-24.3,11.7-29.4,0.5c-2.4-7.6-0.1-15.9,5.9-21.3
			c10.7-6.2,23.9-6.2,34.5,0C723,454.5,720.6,498.4,720.6,498.4z"/>
		<path id="Path_7_1_" style="fill:#FE1646;" d="M655.8,432.3l-4.9,7.9c-28.4-18.9-60.4-31.5-94-37.1v-7.4
			C591.7,402.3,625.1,414.7,655.8,432.3z"/>
		<path id="Path_8_1_" style="fill:#FEB033;" d="M546.8,382c0,0-20.8-23.9-84.4-5.8c-63.6,18-60.1,24.5-79.7,24.5
			c-19.6,0-9.6-28.9-2.7-35.6c27.6-18.3,60.5-26.9,93.5-24.5c15.6,1.2,24,1.9,28.1,2.5v0.8c0,0,8.1,0,0-0.8
			c0-3.1-2.2-14.5-18.5-20.4C515.9,324.3,542.7,349.4,546.8,382z"/>
		<path id="Path_9_1_" style="fill:none;" d="M501.7,343.7v-0.8C509.8,343.8,501.7,343.7,501.7,343.7z"/>
		<path id="Path_10_1_" style="fill:#FEB033;" d="M577.1,629c-6.2-52.1-69.5-82.3-69.5-82.3c-1.3-9.8,39.2-10.3,39.2-10.3
			c-11.4-11.2-43.5-9.3-43.5-9.3c17.6-14.5,32.4-32.1,43.5-52.1c0,0,24.5-49.9,4.2-60.1s-23.9,51.5-23.9,51.5
			c-2.1,41.7-84.2,50.2-84.2,50.2c-9,43-43.8,35.8-43.8,35.8s43.8-35.8,9.5-54.7c-34.3-18.9-42.9,38.5-42.9,38.5
			c-6.9-27.6-37.2-11.9-37.2-11.9c-25.3,36.1,17,40.9,17,40.9s5.9,12.7-25,3.5c-30.8-9.3-25.2-0.5-32.4,18.9
			c-7,25.3-10.5,51.5-10.7,77.7c0,17.4,6.1,34.5,19.2,23.3c17.6-11.6,36.3-21.6,55.8-29.7c-12.5-82.9,10.6-90,10.6-90
			c-6.9,76.2,20.8,85.8,20.8,85.8c122.5-14.3,140.8,14.3,140.8,14.3c-97.7-15.2-220.5,11.5-244.9,56.8
			c-24.4,45.4,29.7,22.3,29.7,22.3C297.1,857.9,378.5,864,378.5,864c-15-22.1-20.8-49.2-15.9-75.4c26.6,27.1,42.5,25,42.5,25
			c-3.9-8.9-4.8-18.7-2.7-28.1c36.1,21.3,80.3,23.7,118.5,6.4c34.7-19.1,52.2-59.3,42.5-97.7c-29.4,25.5-39.8,13.8-39.8,13.8
			c49.4-37.9-8.9-66-8.9-66c32.9-6.1,42.5,10.6,42.5,10.6c3.5-16.7-19.3-41.9-19.3-41.9C570.4,613.9,577.1,629,577.1,629z
			 M348.2,555.6c-1.1-0.4-22.5-9.1-12-19.3c5.2-5.1,13.6-5,18.8,0.2c0.5,0.5,1,1.1,1.4,1.7c-7,2.3-10.7,9.8-8.4,16.8
			C348,555.2,348.1,555.4,348.2,555.6z M397.8,536.3c-3-8.6-14.2-6.8-14.2-6.8s-3.9-4.2,1.8-11.6c4.4-6.4,13.1-8,19.4-3.6
			c0.9,0.6,1.7,1.4,2.5,2.2C414.8,523.1,400.8,544.9,397.8,536.3L397.8,536.3z M333.3,731.9c0,0,26.8-36.5,111.5-29.1
			C444.9,702.7,371.1,739.7,333.3,731.9L333.3,731.9z"/>
		<path id="Path_11_1_" d="M444.9,702.8c0,0-73.8,36.9-111.5,29.1C333.4,731.9,360.2,695.5,444.9,702.8z"/>
		<path id="Path_12_1_" style="fill:#FEB033;" d="M380.1,478.7c0.2,5.3-11.5-5.6-17.5,15.9c-6.1,21.5-9.6,2.7-9.6,2.7v-33.5
			c0-7.2,9.6-7.4,9.6-7.4C389.1,461.9,379.9,473.3,380.1,478.7z"/>
		<path id="Path_13_1_" style="fill:#FEB033;" d="M367.2,418v19.6c-8.7,3.5-18.3,3.5-27,0c0,0,15.6,0.8,12.7-5.9
			c0,0-43.3-27.3-3.2-47.3C349.8,384.6,352.4,417.5,367.2,418z"/>
		<path id="Path_14_1_" style="fill:#FEB033;" d="M320.1,430.9c-11-0.1-21.8,2.1-31.9,6.4c-22.3,7.7-29.6,4.4-14.7-19.2
			c6.2-12.1,21.1-17,33.2-10.8C315.4,411.8,320.7,421,320.1,430.9z"/>
		<path id="Path_15" style="fill:#FE1646;" d="M494.8,395.8c-33.3-8.7-99.3,27.1-99.3,27.1s-17.6,39.6,7.4,51
			c12.1,4.7,23.3,11.3,33.3,19.6c20.2,0.2,40.1-4.2,58.3-12.9C516.3,470.4,528.3,404.6,494.8,395.8z M430,459
			c-7.2,7.7-19.2,3.2-18-15.1c1.1-18.2,13.3-18.4,13.3-18.4c3.3-2.5,7.9-2.5,11.2,0C442.3,429.8,437.2,451.3,430,459z M459.5,480.5
			c-0.2,0.1-0.3,0.1-0.5,0H459.5c14-18,26.6-37,37.9-56.8c15.3,59.6-31.6,57-37.8,56.8H459.5z"/>
		<path id="Path_16" style="fill:none;" d="M459.6,480.5c-0.2,0.1-0.3,0.1-0.5,0H459.6z"/>
		<path id="Path_17" style="fill:none;" d="M459.6,480.5c14-18,26.6-37,37.9-56.8C512.6,483.3,465.8,480.7,459.6,480.5z"/>
		<path id="Path_18" style="fill:#FEFEFE;" d="M430.1,459.1c-7.2,7.7-19.2,3.2-18-15.1c1.1-18.2,13.3-18.4,13.3-18.4
			c3.3-2.5,7.9-2.5,11.2,0C442.3,429.8,437.2,451.3,430.1,459.1z"/>
		<path id="Path_19" style="fill:none;" d="M459.6,480.5c-0.2,0.1-0.3,0.1-0.5,0H459.6z"/>
		<path id="Path_20" d="M459.6,480.5c14-18,26.6-37,37.9-56.8C512.6,483.3,465.8,480.7,459.6,480.5z"/>
		<path id="Path_21" style="fill:#FE1646;" d="M320.4,450.5c-24.8,4.7-48.2,15-68.3,30.2c0,0-9.1,67.3,41.3,62.4
			c4.7-1.7,8.5-5.4,10.3-10.1c0,0-8.3,2.5-10.6-1.1c13.5-12.6,24.3-27.8,31.9-44.6c0,0,4.9-1.7,4.2,17.7
			C329,504.9,346.2,465.8,320.4,450.5z M282.4,511.6c-5.8,7.7-4.2,7.4-12.7,3.8c-8.6-3.6-8.8-12.5-4.2-25
			c3.7-7.7,11.4-12.6,19.9-12.8C295.4,486.4,288.2,503.9,282.4,511.6z"/>
		<path id="Path_22" style="fill:#FEFEFE;" d="M282.4,511.6c-5.8,7.7-4.2,7.4-12.7,3.8c-8.6-3.6-8.8-12.5-4.2-25
			c3.7-7.7,11.4-12.6,19.9-12.8C295.4,486.4,288.2,503.9,282.4,511.6z"/>
		<path id="Path_23" d="M397.8,536.3c-3-8.6-14.2-6.8-14.2-6.8s-3.9-4.2,1.8-11.6c4.4-6.4,13.1-8,19.4-3.6c0.9,0.6,1.7,1.4,2.5,2.2
			C414.8,523.1,400.8,544.9,397.8,536.3z"/>
		<path id="Path_24" d="M348.2,555.7c-1.1-0.4-22.5-9.1-12-19.3c5.2-5.1,13.6-5,18.8,0.2c0.5,0.5,1,1.1,1.4,1.7
			c-7,2.3-10.7,9.8-8.4,16.8C348.1,555.3,348.2,555.5,348.2,555.7z"/>
	</g>
</g>
</svg>
