<?xml version="1.0" encoding="utf-8"?>
<!-- Generator: Adobe Illustrator 23.1.0, SVG Export Plug-In . SVG Version: 6.00 Build 0)  -->
<svg version="1.1" id="Layer_1" xmlns="http://www.w3.org/2000/svg" xmlns:xlink="http://www.w3.org/1999/xlink" x="0px" y="0px"
	 viewBox="0 0 1080 1080" style="enable-background:new 0 0 1080 1080;" xml:space="preserve">
<circle style="fill:#FFFFFF;" cx="539" cy="539" r="539"/>
<g>
	<path style="fill:#231F20;" d="M242.6,193.2c2.2,2.1,5.7,2.8,7.4,5.6c4.5,7.6,8.1,14.2,5,24.3c-7.5,25.2-8.9,50.9-3.9,77.2
		c5.7,30.4,24.8,50.4,46.3,70c12.5,11.3,26.3,20.4,40.6,28.8c11.9,7,25.3,10.3,38.3,14.3c5.3,1.6,7.9-3.2,10.6-5.9
		c11-10.9,24.1-19.7,37.8-25.6c20-8.7,40.5-18.1,63.4-17.4c3.9,0.1,6-1.1,6.5-5.5c3.5-28.4,5.3-29.5,34.2-36.3
		c16.7-4,32.4,0.5,47.8,4.6c8.6,2.2,13.9,11.4,15.5,20.9c2.7,15.4,2.7,14.5,18.7,16.6c15,2,29.2,8,43.2,13.7
		c10.8,4.4,20.8,10.5,30.8,16.7c6.7,4.2,12.8,9.1,17.8,14.8c2.7,3.1,5.4,4.1,8.4,3.2c12.8-3.8,25.6-7.3,37.5-13.7
		c25-13.5,46.3-31.8,64.9-52.8c14.1-16,22.1-35.3,23.8-57.3c1.8-22.7,0.5-44.8-5.4-66.8c-4.3-16.1,4.7-28.3,21.2-35.7
		c1.3,0,2.5,0,3.8,0c33.1,15.3,54.5,41.6,70.3,72.6c12.5,24.4,19.4,50.4,19.4,78.1c0,0.6,0,1.1,0.1,1.6c0.1,9.9,0.4,25.9,0.5,35.8
		c-2,18.3-4.8,36.4-11.4,53.9c-16.4,43.2-44.1,77.2-81.1,104.2c-4.9,3.6-9.7,7.2-14.9,10.3c-14.4,8.7-18,16.7-13.6,33
		c2.7,9.9,2.5,19.7,2.1,29.6c-0.3,6.4-2.6,12.4-5.7,18c-3.5,5.5-8.5,9-14.2,11.8c-2.6,0.7-5.6,0.4-8,1.5c-17,8.6-31.9,3.3-48-4.1
		c-22.8-10.5-48-14.1-72.7-17.4c-52.9-7.1-106.3-8.7-159.6-7.4c-33,0.8-66.2,1.3-99.1,5.9c-27.5,3.9-54.8,8-81.2,16.9
		c-2.3,0.8-4.7,1.4-6.7,2.6c-12.9,7.9-26.7,10.5-41.6,6.9c-4.6-2.9-9.5-5.2-14.5-7.2c-20.7-12.3-19.9-31.9-17.5-51.8
		c0.8-6.1,5.2-10.7,9.3-15.2c6.3-7,6.2-8.2-2-12.2c-24.8-12.4-46.7-28.7-66-48.3c-26-26.4-44.6-57.4-55-93.1c-0.4-1.5-0.8-3-1.1-4.6
		c-2.3-11.9-3.2-23.9-3.2-36v-34c0-38.5,12.3-76.1,35.9-106.6c0.7-0.8,1.3-1.7,2-2.5c12.2-15.2,25.6-29.7,43.8-38.4
		C229.4,191.4,236.1,192.3,242.6,193.2z"/>
	<path style="fill:#212121;" d="M820.3,623.6c7.2,17.7,15.3,35.2,21.3,53.3c9.8,29.5,21.7,59,18.5,90.9c-2.8,28-12.6,53.8-29.5,76.8
		c-17,23.2-37.9,42.2-61.8,57.7c-14.4,9.3-29.6,17.5-45.7,23.6c-14.4,5.5-29,10.6-43.9,14.3c-17.4,4.3-35.1,7.6-53,9.7
		c-3.9,0.5-8,0.4-12,1.3c-5.9,1.3-11.9,2.1-18,2.1h-91.2c-6.7,0-13.4-0.8-19.9-2.4c-6.8-1.7-13.8-2.2-20.6-2.6
		c-12.6-0.7-24.6-4.1-36.5-6.9c-20.3-4.8-40.3-11.1-59.4-20.1c-23.9-11.3-46-24.9-66.1-42.5c-19-16.6-34.3-35.6-45.9-57.6
		c-8.4-16.1-12.1-33.7-14.3-51.9c-1.8-14.4,1.6-28.2,2.3-42.2c0.4-7.4,4-14.6,6.2-21.8c6.2-20.2,13.6-40.1,20.9-59.9
		c1.6-4.3,5.7-7.6,5.5-12.7c4.3,2.1,12-1.4,12.4,7.3c1,11-5.7,19.7-9.1,29.3c-7.4,20.8-15.3,41.5-19.3,63.3c-2.2,15-2.6,29.9-0.7,45
		c3.5,26.8,15.7,49.2,32.9,69.2c28.5,33.1,64.6,54.7,105.7,68.6c43.3,14.6,87.8,21.6,133.6,20.9c12.7-0.2,25.4-0.2,38.1,0
		c46.2,0.7,91.2-6.7,134.7-21.8c41.2-14.3,77.2-37,105.1-71.1c21.4-26.1,32.5-56.1,32.7-90c0-7-1.8-13.7-3.2-20.5
		c-5.8-28.3-15.9-55.2-26.7-81.9c-2.1-5.1-5.5-10-4.1-16.1C810.5,628.7,818.7,629.3,820.3,623.6z"/>
	<path style="fill:#F5A328;" d="M809.6,634.9c12,26.8,21.6,54.4,30.1,82.4c1.5,4.8,1.8,10,2.6,15c-2.7,2.7-6.1,2.5-9.3,2
		c-30.9-5.3-58,4.8-84,20.1c-7.1,4.2-13.5,10.3-22.3,11c-4.6-4.5-4.9-10.8-7.1-16.4c-6.2-15.6-15.3-29.3-27.2-41.2
		c-2.5-2.5-6-5-4.5-9.1c1.4-3.9,5.6-4.4,9.1-4.7c17.7-1.7,33.4,2.4,45.8,16c1.7,1.9,3.3,3.8,4.9,5.6c0.3,0.3,0.6,0.6,0.9,0.9
		c-0.3-0.3-0.7-0.6-1-1c-1.3-1.6-2.5-3.1-3.8-4.5c-7-8.9-14.9-16.5-25.5-21.1c-5.9-2.6-11.7-4.6-18.3-4.3c-3,0.1-6.1,0.2-8.7-1.9
		c-2.6-3.8-1.6-8.1-2-12.3c-1.3-13.3-5.3-25.5-16.3-34.1c-10-7.8-20.7-7.6-29.4,1.3c-20.5,21.1-13.6,54.8,5.6,70
		c8.4,6.7,17,3.8,25.9,2.5c20.1,11.3,32.5,29,41.6,49.5c1.4,3.1,2.5,6.9,0.1,10.4c-9.8,3.2-18.8,2.1-27.5-3.7
		c-13.4-8.8-24.9-20-37.6-29.7c-24.4-18.6-51.9-28.7-82.3-32c-56.9-6.2-104.7,12.6-145.6,51.6c-9.2,8.7-19.5,16.5-33.5,15.3
		c-2.1-0.2-4.2-0.3-6.1-1.4c-2.2-2-1.6-4.3-0.7-6.6c8-21.6,20.3-39.8,40.2-52.2c2.8-1.4,5.6-1.8,8.8-1.6
		c20.3,1.3,35.2-12.2,35.9-32.6c0.2-5.7,0.3-11.5,0-17.2c-0.9-12.9-7.8-22-18.9-27.8c-7.5-3.9-17.7-0.7-25,7.7
		c-6.8,7.9-11.2,17-11.1,27.9c0,4.8,0.9,9.7-1.4,14.2c-5.5,4.7-12.7,1.7-18.9,4.6c-10.2,4.9-19.2,11.1-26.9,20.2
		c11.8-9.7,24.7-15.4,39.9-14.2c2.4,0.2,4.8,0.3,7,1.3c3.3,1.6,4.7,3.7,1.8,7c-2.3,2.8-5,5.3-7.5,7.8c-12.9,13.1-21.9,28.5-27.7,46
		c-1.2,3.6-1.8,7.7-5.6,9.9c-8.7-1.2-15.2-6.9-22.4-11.1c-17.3-10.1-35.3-18.3-55.4-20.9c-8.7-1.1-17.4-1.3-26.1,0
		c-3.9,0.6-7.8,1.5-11.2-1.5c-0.6-9.3,3.8-17.6,6.3-26c6.7-22.5,14.9-44.7,24.3-66.3c2-0.7,1.8-5.2,5.3-3.1c12,7.4,22.5,1,33-3.8
		c16.8-7.6,34.5-11.5,52.4-15.4c22.2-4.8,44.7-7.2,67.1-8.9c45.7-3.3,91.5-4.4,137.4-2.8c31,1.1,62.1,2.3,92.8,6.7
		c31.1,4.5,62.3,9.5,90.6,24.7c7.4,4,15.1,3.4,22.5-0.2C796.9,634.5,802.9,632.7,809.6,634.9z"/>
	<path style="fill:#F6931D;" d="M288.1,532.7c-9.1,2-15.6-4.2-22.1-8.2c-30.3-18.5-56.2-41.8-74.9-72.6c-21.8-36-29-74.8-25.5-116.4
		c1.9-22.1,7.4-42.8,16.8-62.9c10.4-22.2,26.2-39.5,44.5-55.2c1.2-1,2.7-1.9,4-0.9c1.3,1.1,0.6,2.8,0.1,4.2
		c-3.7,9.4-4,19.3-5.3,29.2c-3.7,29.9-0.8,58.9,12.3,86.2c9.2,19.2,24.1,34.2,39.6,48.5c22,20.5,46.8,36.5,75.1,46.8
		c2.2,0.8,4.6,1.5,6.9,1.9c13.2,2.2,13.3,2.4,13.3,16.3c-4.6,4-9.2,1.4-13.6-0.1c-20.5-7.2-40.9-14.6-59.7-28.9
		c-0.5,8.1-0.1,14.9-0.2,21.6c-0.4,18.4-15.6,30.6-33.6,27c-16.2-3.3-28.1-13.2-37.6-23.5c4,5.1,8.2,12.4,13.8,18.6
		c1.5,1.6,2.3,3.5,1.9,5.8c-0.3,1-0.8,1.7-1.7,2.2c-4.3,1.5-6.8-1.4-9.5-3.7c-15.6-13.4-26.7-30.2-34.5-49
		c-11-26.4-16.9-54.1-15.7-82.7c0.8-20,2.9-40.1,9.7-59.3c0.8-2.9,2-5.5,3.3-8.1c-1.3,2.4-2.5,4.8-3.3,7.4c-1.9,9.5-5.7,18.3-8,27.7
		c-5.9,24-7.2,48-5,72.6c2,23,8.4,44.3,18.9,64.6c11.3,21.7,27.8,39.3,46.9,54.3c13.3,10.4,26.3,21.1,41.6,28.8
		C289.3,526.2,297.1,528.6,288.1,532.7z"/>
	<path style="fill:#F6931D;" d="M856.9,216.1c21.5,14.3,37.1,33.9,48,56.8c10.5,21.9,16.8,45.4,16.9,70c-1.1,8.4-1,16.8,0,25.2
		c-0.8,25.1-7.7,48.5-18.8,70.8c-18.1,36.3-46.3,63.4-80.4,84.4c-7.6,4.7-14.9,11.9-25.4,9.2c-2-4.9-2.1-5.1,3.4-8.1
		c17.5-9.6,33.3-21.7,48.4-34.6c39.7-34,58.5-77.6,60-129.4c0.7-23.2-2.8-45.6-10.2-67.4c-1.2-3.4-1.7-7-2.3-10.6
		c-0.6-1.6-1.5-3.1-1.9-4.9c0.2,2,1.3,3.8,2,5.7c9.3,27.2,8.2,55.6,5.9,83.2c-3.2,37.3-16.8,71.3-44.1,98.4
		c-2.6,2.6-5.4,4.8-9.1,5.7c-1.5,0.1-2.8-0.3-3.7-1.6c-1-7.7,5.4-11.5,8.7-16.9c2.1-3.3,5-6,7.1-9.3c1.7-3.1,4.7-5.3,6-8.7
		c0.1-0.6,0.6-1,1.3-0.9c-0.7-0.1-1.1,0.2-1.3,0.9c-1.4,3.4-4.4,5.6-6.2,8.6c-8.4,10.2-18.7,18.2-30.4,23.7
		c-10.9,5.1-22.7,5.7-32.6-2.4c-10.8-8.7-13.2-21.1-11.7-34.4c0.3-2.7,1.8-5.1,1.7-8.2c-2.7-0.4-4.2,1.7-6,2.9
		c-17.5,11.6-36.8,19.4-56.6,25.9c-8.1,2.6-9.9,1.3-10.1-6.1c-0.7-5.5,1.2-8.7,7.1-10.3c52.5-13.6,91.5-46.3,121.5-89.7
		c12.2-17.7,18.3-39,18.1-61.2c-1-7.8-1-15.6,0-23.4c1.8-13.2-4.2-25.3-5.3-38.1C855.8,219.7,855.5,217.9,856.9,216.1z"/>
	<path style="fill:#929497;" d="M296.9,577.9c13.4-11.3,29.6-17.8,45.4-24.4c18.8-7.7,38.3-13.5,58.1-18.5
		c28.7-7.2,57.8-12.2,87.1-14.1c41.8-2.7,83.7-3.2,125.5,1.3c40.7,4.4,80.7,12.2,119.2,26.5c21.2,7.9,42.1,16.9,60.5,30.7
		c10,7.4,12.1,15.9,6.4,28c-2.7,0.9-4.3-1.5-6.4-2.3c-5.2-2.8-7.5-6.9-5.3-12.8c1.8-4.8,0-8.1-4.3-10.6c-3.9-2.3-8-4.3-11.7-6.8
		c-6.4-4.2-12.2-7.1-17.1,2c-1.2,2.1-3.8,3.2-6.4,2c-2.9-1.3-2-4-1.9-6.3c0-0.9,0.2-1.8,0.5-2.7c1.2-4.1,0.2-7-4.3-8.4
		c-4.2-1.3-6.6,0.2-8.9,3.8c-7.5,11.8-10.4,12-24,9.3c-32.8-6.8-65.7-12.1-99.2-14c-32-1.8-63.9-1.6-95.9-1.3
		c-27.7,0.2-55.4,1.7-82.9,5.9c-19.4,2.9-38.6,6.2-57.7,10.7c-7.9,1.9-13.5-1.2-18-7.2c-1.3-1.7-1.9-3.8-3.3-5.4
		c-3-3.4-6.5-2.6-9.9-1.1c-3.6,1.6-3.4,4.6-2.3,7.7c0.7,2,1.7,3.9,1.7,6.1c0,4.5-2,6.2-6.3,4c-1.9-1-3.5-2.5-4.6-4.3
		c-3.3-5.5-7.4-4.7-12.3-2.3c-6.4,3.1-11.9,8.6-19.8,8.1C297.4,580.7,296.2,579.9,296.9,577.9z"/>
	<path style="fill:#58595B;" d="M299.1,580.2c8-3.9,16.3-7.4,24.1-11.8c3.9-2.2,6.3-3.6,7.4,2.2c0.1,0.6,0.4,1.3,0.8,1.6
		c2.9,2.1,3.8,8.7,8.1,6.4c3-1.6-1.1-5.8-2.4-8.6c-2-4.4-3.1-8.7,2.8-9.9c4.9-1,10.8-7.3,15.2,1.7c6.5,13.4,8.9,13.7,23.1,10.4
		c31.6-7.3,63.5-12,96-14c36.2-2.2,72.3-2.5,108.4-1.4c25.2,0.8,50.3,2,75.4,6.2c19.8,3.3,39.6,6.5,59.2,11
		c8.3,1.9,13-4.4,14.6-11.5c2.3-10.2,8.4-3.9,12.5-3.2c4.1,0.7,9.2,2.5,5.5,9.1c-1.5,2.7-1.7,6.1-2.5,9.2c5.4,1,6.5-2.7,7.5-5.6
		c2.2-6.4,5.6-6.4,10.7-3.3c7.4,4.5,15.1,8.3,22.5,12.7c4,2.4,4.9,6.2,2.4,10.1c-4.4,6.7-1,9.9,5,12.1c2.2,4-1.1,4.4-3.5,5.2
		c-3.7,1.2-8,0.9-10.7,4.3c-8.8,1.1-15.3-5.4-22.9-7.9c-8.7-2.9-17.6-6-26.4-8.2c-16.8-4.2-34-7.1-51.2-9.5
		c-18.1-2.5-36.4-3.9-54.6-5.6c-41.8-3.8-83.8-1.6-125.7-1.7c-36.4-0.1-72.5,4.3-108.4,10c-23.2,3.7-45.9,8.8-68.1,16.7
		c-3.8,1.3-6.8,3.7-10.5,5c-2.9,1-5.6,4.3-9,1c-3.1-4.8-8.9-2.9-12.9-5.4c-1.3-2-1.4-4.3,0.3-5.8c3.8-3.3,4-6.8,2.2-11.2
		C291.6,585.3,294,581.9,299.1,580.2z"/>
	<path style="fill:#AC5A00;" d="M193.8,275.8c-3.4,14.9-5.6,29.9-7.5,45c-1.8,14.4-1.6,28.6,0.1,43c3.4,29.6,12,57.3,29.2,81.8
		c7.2,10.3,14.5,21,27.1,26c1.9-0.6,0.2-1.3,0-2c-7.2-10.1-14.4-20.1-22-30.7c3.6-0.9,4.6,1.1,6.3,2.7
		c11.3,11.2,22.7,22.1,39.2,25.4c16.6,3.4,30.6-7.5,30.9-24.6c0.1-8.3,0-16.5,0-25.9c10.7,7.4,20.9,14.7,32.5,19.1
		c14.1,5.4,27.5,13.4,43.2,14.1c3.2,39.3-20.3,66.6-55.2,77c-9.8,2.9-19.5,5.2-29.6,6.1c3.4-2.2,2.9-3.8-0.6-5.3
		c-22.5-10-41-26-58.7-42.5c-30.4-28.4-47.4-63.6-51.7-105.5c-2.8-27.6-0.8-54.5,6.1-81.1c2-7.7,5.7-15,8.7-22.5
		C192.6,275,193.2,274.9,193.8,275.8z"/>
	<path style="fill:#AC5A00;" d="M715.3,444.2c0.4,6.6,4,5.8,8.7,4.2c22.4-7.7,44.3-16.1,63.3-30.9c0.9-0.7,2.2-0.8,3.4-1.2
		c2.2,4.3-0.6,7.7-1.5,11.3c-4.9,19,5.3,37.4,22.8,39.8c9.6,1.3,18.6-1.9,26.1-7.6c7.9-5.9,16.3-11.3,22.5-19.1
		c1.6-0.4,2.4,0.1,1.9,1.9c-3.7,9.6-12.1,16-16.6,25c-0.9,2.4-0.2,3.1,2.2,2.2c21.1-15,31.9-37,41.7-60.1
		c13.3-31.3,10.8-64.1,10.6-96.7c-0.1-10.9-6.1-20.8-5.5-31.8c0.7-0.7,1.3-0.7,2-0.1c8,17,12.2,35.3,13.9,53.6
		c3.6,39.3-2.4,77.4-22,112.2c-14.6,25.9-36.7,45-60.3,62.4c-9.1,6.7-18.3,13.5-28.8,18c-2.3,1-4.6,2.1-2.5,5.3
		c-21.8-2.4-42.3-8.2-59.4-22.7C717.2,492.4,712.1,469.7,715.3,444.2z"/>
	<path style="fill:#929497;" d="M550.6,346.8c4-0.7,7.7,0.5,11.6,1.1c5.3,0.8,6.3,3.7,6.8,8.6c3.1,32.8,6.6,65.6,9.8,98.5
		c1,10.2,1.1,20.4,1.9,30.6c0.4,5.5-3.3,3.6-6,3.6c-5.4-9.7-2.6-20.5-4.4-30.7c-1.7-9.3-2.2-18.9-2.6-29.1
		c-21.5,19.4-31.5,19.1-47.9-1.8c-1.7,17.3-3.4,33.9-2.9,50.6c0.1,4.8,0.3,9.9-6.1,11.3c-3.9,0.6-5.4-0.9-5-5
		c4.6-40.8,6.5-81.9,12.3-122.6c2-14.4,3.2-15.3,18.3-15C541.1,347.7,545.8,347.7,550.6,346.8z"/>
	<path style="fill:#303030;" d="M483.6,388.2c2.5,1.7,2.3,4.3,1.7,6.5c-5.9,19.8-2.2,40.7-7,60.6c-2.5,10.4-1.8,20.9-1.8,31.5
		c0,3.8-0.7,6.3-5.3,6.4c-26.5,0.5-51.9,7.9-79.1,12c9.9-22.9,12.8-46.2,8.6-70.3c9.9-7,18-16.9,31-19.1c0.9,0.3,1.6,0.8,2.1,1.6
		c1.2,4.2-1.8,6.8-3.9,9.5c-5.8,7.2-6.1,15.6-4.8,24c1.5,10.3,9.9,14.2,19.3,9.5c16.4-8.2,27.3-29.6,23.7-48.6
		c-1.5-7.9-1.5-13.5,7.7-15.5C479.9,395.4,481.2,391.2,483.6,388.2z"/>
	<path style="fill:#303030;" d="M686.5,433.3c-7.9,24.9,0.2,48.2,8.5,72.1c-21.8-4-42.6-7.8-63.5-11.6c-2.4-0.4-4.9-1-7.1-0.6
		c-9.1,1.6-12.9-2.5-13.7-11.2c-2.3-28.4-4.9-56.7-7.4-85c10.9-2.3,16.2,1.5,16.7,12.1c0.2,4.8,0.1,9.6,0.1,14.4
		c-0.1,15.5,7.4,27,19.8,35.3c10.9,7.3,20.5,3.2,23.6-9.6c1.4-5.5,0.3-10.6-2.6-15.6c-2.5-4.4-6-8.4-6.7-13.6c0-0.9,0.3-1.8,0.6-2.6
		c3.2-3.2,5.8-1.1,8.6,0.8C671,423.6,678.4,429,686.5,433.3z"/>
	<path style="fill:#58595B;" d="M510.8,489.4c4-2.5,3.7-6.5,3.6-10.4c-0.3-18.9,0.9-37.7,4-57.5c7,8.8,12.5,19.3,24.1,19.9
		c12.1,0.6,18.8-8.8,26.2-20.2c3,24.2,5.2,45.9,6,67.9C553.3,487.2,532,487.8,510.8,489.4z"/>
	<path style="fill:#58595B;" d="M655.7,419.1c2.6,4.7,5.1,9.4,7.9,14c5.8,9.6,3.2,23.3-5.9,29.9c-4.5,3.2-8.8,3.9-14.2,1
		c-17.5-9.7-27-23.9-25.8-44.3c0.1-1.8,0-3.6,0-5.4c0.1-14.2,0.1-14.2-14.3-17.1c-1.6-5.3-4.1-9.7,5.9-7.6
		c27.4,5.8,51.9,16.9,73.8,34.2c3.3,2.6,3.9,5.9,3.4,9.6c-3.7,2.1-6-0.4-8.7-2.3c-7.1-5-13.9-10.7-22-14
		C653.9,417.6,655.6,418.4,655.7,419.1z"/>
	<path style="fill:#58595B;" d="M483.6,388.2c1.2,6.5-2.3,9.9-8.1,10.7c-7.2,1.1-7.1,4.9-5.7,10.6c5.1,20.8-6.2,43.9-25.6,53.6
		c-10.1,5-20.6-0.2-22-11.4c-1.3-10.4-0.6-20.5,7.4-28.6c1.7-1.7,3.4-3.4,3.5-6.1c-0.6-2.5-1.3,0.2-2-0.1
		c-8.2,3.1-14.9,8.6-21.8,13.8c-2.6,2-5.2,4.1-8.7,4.1c-0.8-5.4,0.7-9.1,5.5-12.9C429.1,404,455.1,393.4,483.6,388.2z"/>
	<path style="fill:#929396;" d="M299.1,580.2c-3.6,3.6-5.5,7.1-2.4,12.4c1.9,3.2,2.8,7.6-2.7,9.5c-2.6,0.9-2.3,3.1-2.3,5.2
		c-1.3,1.1-2.7,1-4.1,0.2c-4.9-15.7-2.6-23,9.2-29.6C297.6,578.7,298.4,579.5,299.1,580.2z"/>
	<path style="fill:#848688;" d="M781,613.2c1-5,5.5-5,9.1-5.8c2.4-0.6,4.9-0.4,5.2-3.7c1.2,1.2,2.5,2.5,3.7,3.7
		C793.4,610.4,787.4,612.3,781,613.2z"/>
	<path style="fill:#7D7E80;" d="M287.7,607.5c1.4-0.1,2.7-0.2,4.1-0.2c5-0.8,9.7,0.5,13.7,3.4c2.7,2-0.6,1.6-1.3,2.2
		C298.3,612.1,292.9,610.2,287.7,607.5z"/>
	<path style="fill:#FD971D;" d="M921.8,368.1c-2.4-8.4-2.4-16.8,0-25.2C921.8,351.3,921.8,359.7,921.8,368.1z"/>
	<path style="fill:#1B1A20;" d="M862,259.6c0,7.8,0,15.6,0,23.4C859.5,275.2,859.5,267.4,862,259.6z"/>
	<path style="fill:#989A9D;" d="M550.6,346.8c-4.7,2.3-9.5,2.3-14.3,0C541.1,346.8,545.8,346.8,550.6,346.8z"/>
	<path style="fill:#6E491F;" d="M856.9,216.1c-0.1,1.8-0.1,3.6-0.2,5.4c-1.8-1.9-2.5-4.1-1.7-6.6
		C855.6,215.3,856.2,215.7,856.9,216.1z"/>
	<path style="fill:#F9FAFA;" d="M726.8,764.8c14-7.8,27.2-16.9,41.9-23.4c20.2-9,40.8-13.3,62.8-9.8c3.5,0.6,7.2,0.5,10.8,0.8
		c5.4,15.6,4.4,31.5,1.3,47.3c-9.4,49.5-40.9,83-80.9,109.9c-34.9,23.4-74.3,36.2-115.3,42.8c-59.2,9.5-118.8,10-178.5,1.9
		c-26.1-3.5-51.6-9.1-76.1-18.1c-47.5-17.4-88.6-44.5-116.2-88c-18.5-29.2-24.6-61.6-17.4-95.9c13.2-1,26.1-2.7,39.6-0.7
		c19.2,2.8,36,10.9,52.5,20c7.8,4.3,15.4,9,23.1,13.5c3.7,5.2,0.4,10.9,1.3,16.3c-0.2,5.1-0.1,10.1-0.1,15.2
		c0.6,15.4,6.5,29.8,9.5,44.7c0.7,2.6,1.2,5.2,2.3,7.6c0.2,1.4,0.6,2.7,1,4c-0.6-2.4-0.8-5-2-7.2c-0.6-2.2-1.2-4.5-1.5-6.8
		c-5.4-19.7-10.4-39.5-4.8-60c0.9-3.1,1.2-6.6,4.3-8.6c18.8,3.5,30.9-8.3,43.2-19.2c18.7-16.5,38.7-31.3,62.6-39
		c27.4-8.9,55.5-12.1,84.6-8.3c41,5.3,73.9,25.3,103.6,52.5c10.6,9.7,22.3,17.6,38.1,14c6.3,3.4,6.7,9.6,7,15.5
		c0.5,9.8,0.7,19.7-0.3,29.6c-2,7.4-4.4,14.8-6,22.3c0.6-3.5,1.7-6.9,2.8-10.3c0.7-2,1.1-4.1,1.9-6.1c4.2-15.5,4.2-31.3,3.4-47.2
		C725.1,770.8,723.7,767.4,726.8,764.8z"/>
	<path style="fill:#171717;" d="M675.6,712.7c-28.2,7.2-51.1-16.8-46.1-48.7c1.2-7.7,3.4-15.2,8.1-21.7c14-19.3,32.8-16,45.5,2
		c8.3,11.8,8.9,25.2,9.5,38.8c-10.3,1.8-15.8,6.3-12.4,18.2C681.1,704.4,678.1,709.2,675.6,712.7z"/>
	<path style="fill:#171717;" d="M410.6,683c1.1-11.2-0.8-22.5,5.2-33.3c6.9-12.3,17.3-21.2,28-20.6c10.7,0.6,23.4,11.3,26.1,25
		c3.4,16.9,3.6,34-8.8,48.5c-7.9,9.2-16.9,15.4-29.7,10.1c-3.3-1.3-4.9,1.6-7.5,1.8c-1.5-2.2,0.3-4.9-0.9-7c-2.5-4.3-2-7.6,2.2-10.8
		c2.5-1.9,5-5.2,3.5-8.7c-1.4-3.3-5.3-2.1-8.2-2.4C417.2,685.3,413.2,686.6,410.6,683z"/>
	<path style="fill:#080807;" d="M410.6,683c5.1,0.1,10.2,0.3,15.2,0.4c7,0.1,8.8,3.7,5,9.1c-2,2.8-1.6,7.8-6.7,8.4
		c-2.9,0.4-1.3,2.4-0.4,3c5.1,3.5,2.4,7,0.2,10.6c-19.4,14.1-32.8,32.6-39.5,55.8c-8.1,23.6-2.4,46.9,1.7,70.2
		c0.8,1.9-0.1,2.5-1.9,2.2c-2.8-9.6-5.7-19.2-8.5-28.7c-1.6-5.4-3.3-10.8-2.3-16.5c1-5.4,1.1-10.8,0-16.2c-1.1-5.5,0.6-10.8,1-16.1
		c5.7-18.7,12.8-36.6,26.2-51.3c4.7-5.2,10.2-9.8,16.3-15.7c-23.1-7.4-39.4,3.1-55.4,16.3C364.4,698.4,387.5,683.9,410.6,683z"/>
	<path style="fill:#080807;" d="M675.6,712.7c-1.4-2.8-0.6-5.4,1.1-7.6c3.4-4.6,2.7-9.4,0-13.5c-4.7-7.1,0.4-7.5,5-8.1
		c3.6-0.5,7.2-0.3,10.8-0.4c23.5-1.6,40.8,8.8,53.6,27.7c0.1,2.8-1,2.9-3,1.5c-7.9-6.8-16.3-12.5-26.7-15.2
		c-7.8-2-15.3-2.3-23.1,0.1c-5.5,1.7-6.2,3.3-1.5,7.5c18.1,16.2,29.2,36.6,34.8,60.1c2.3,15.8,2.8,31.5-0.3,47.3
		c-0.8,3.8-1.2,7.7-3.4,11c-5.2-0.4-2.6-3.8-2.4-6.2c0.1-12.5,1.5-25.1-0.9-37.6c-0.6-3.1-2.2-6.1-3.3-9.1
		c-5.1-23.4-19-40.5-37.8-54.4C677.6,714.9,676.6,713.7,675.6,712.7z"/>
	<path style="fill:#644413;" d="M748.1,716.1c2.7-0.6,4.5,0.2,5.1,3c0.2,0.9-0.2,1.7-1.4,1.4c-2.4-0.6-4.4-1.5-3.6-4.6L748.1,716.1z
		"/>
	<path style="fill:#3E2B0E;" d="M743.3,712.2c1.2-0.1,2.5,0,3-1.5c3.2,0.9,1.9,3.3,1.8,5.3c0,0,0.1-0.1,0.1-0.1
		C745.7,715.8,744,714.7,743.3,712.2z"/>
	<path style="fill:#CB720C;" d="M193.8,275.8c-0.6,0-1.2,0-1.8-0.1c1-3,2.1-6,3.2-9c0.1-0.3,0.9-0.3,1.6-0.6
		C198,270.2,194.8,272.7,193.8,275.8z"/>
	<path style="fill:#E68717;" d="M242.8,469.6c1.6,1.2,4,1.3,4.6,3.6c0.1,0.3-0.5,1.2-0.8,1.2c-2.2,0.3-3.1-1.2-3.8-2.9
		C242.7,470.9,242.8,470.3,242.8,469.6z"/>
	<path style="fill:#C56D0A;" d="M896.8,281.1c-0.7,0-1.4,0.1-2,0.1c-2-3.1-3.9-6.1-1.8-12.5C894.7,274.3,895.8,277.7,896.8,281.1z"
		/>
	<path style="fill:#C26B09;" d="M862.4,442.6c-0.6-0.6-1.3-1.3-1.9-1.9c1.7-3.1,4-5.7,7.2-7.3l0,0
		C868.3,437.8,865.7,440.4,862.4,442.6z"/>
	<path style="fill:#D67A11;" d="M867.7,433.4c0.3-2.3,0.5-4.8,3.9-4.6C872,431.9,870.4,433.1,867.7,433.4
		C867.7,433.4,867.7,433.4,867.7,433.4z"/>
	<path style="fill:#EC8B19;" d="M848,469.8c-1.7,1.7-3.4,3.1-6.2,2.9c0-2.9,2.4-3.7,4.1-5.1C846.5,468.3,847.3,469.1,848,469.8z"/>
	<path style="fill:#383839;" d="M431,417c1.5-2.1,2.7-4.6,6.2-4.9c-0.3,2.8-2.2,3.9-4.2,4.9C432.4,417.1,431.7,417.1,431,417z"/>
	<path style="fill:#373838;" d="M655.7,419.1c-1.5-1.2-3.9-1.4-4.5-3.7c-0.1-0.3,0.5-1.2,0.8-1.2c2.1-0.3,3,1.3,3.8,2.8
		C655.7,417.7,655.7,418.4,655.7,419.1z"/>
	<path style="fill:#171717;" d="M595.8,826.4c-5.2,10.9-8.9,22.6-18.2,31.1c-22.5,20.6-50.2,10.3-63.1-13.9
		c-2.9-5.4-4.8-11.4-7.2-17.1c-2.9-6.4-7.3-11.2-14-14c-5.7-2.4-9.1-7.4-11.4-13.1c-1.5-6-5.7-11-5.6-17.6c0.1-4.8,0-9.4,5.7-10.5
		c5.8-1.1,6.2,4,7.6,7.8c0.3,0.8,0.8,1.5,1.2,2.3c1.6,1.4,2.6,3.2,3.4,5.2c7.1,18,30.5,18.6,41.4,5.3c4.2-5.1,11.2-10.5,7.7-19.3
		c-11.7-2.8-22.5-6.8-30.5-16.7c-3.1-3.9-5.4-7.6-5.8-12.6c0.2-1.8,0.2-3.7,0.2-5.5c2.2-8.2,9.1-10.3,15.8-10.5
		c17.4-0.6,34.8-0.5,52.2-0.1c6.1,0.2,12.7,2.1,15.5,8.5c3.2,7.3,0.5,13.6-4.6,19.5c-6.5,7.6-13.8,13.7-23.9,15.3
		c-6.4,1-4.1,5.3-4,8.9c4.5,6.5,7.5,14.2,15.4,18.2c14.4,7.2,27.4,3.2,34.6-11.1c1.2-2.4,2.1-5,3.9-7c0.4-5.2,2.9-9.3,8.3-8
		c4.7,1.1,5.4,6,4.6,10.4c-1,5.3-2.5,10.4-3.7,15.7c-2.7,6.5-6.7,12.1-13,15.3C602.1,815.7,597.9,820,595.8,826.4z"/>
	<path style="fill:#B7B7B7;" d="M543.3,772.5c4,9.1-1.2,15.5-6.6,21.7c-9,10.2-26.5,11.9-37.2,3.9c-5.6-4.2-8.2-10-8.7-16.8
		c0.6,0,1.3,0,1.9-0.1c0.6,0.1,1.3,0.1,1.7,0.4c15.7,11.4,30.7,8.9,45.3-2.3c0.4-0.3,1.1-0.3,1.7-0.2
		C544.2,777.5,542.8,774.7,543.3,772.5z"/>
	<path style="fill:#B7B7B7;" d="M612,779.3c-2.1,15.4-10.9,23-25,23.8c-12.8,0.7-28.1-10.1-28.8-23.7c1.1,0.5,2.3,1.1,3.4,1.6
		c4.1,0,7.2,2.8,10.6,4.4c12.8,5.9,24.4,4.6,35.1-4.4c0.9-0.8,2-1.2,3.3-1.3C611.1,779.5,611.6,779.4,612,779.3z"/>
	<path style="fill:#FDFDFD;" d="M541.5,779.1c-9,14.2-38.5,17.4-48.7,2.2c0-1.4-2.7-4.3,0.1-4C509,779.1,525.4,775.3,541.5,779.1z"
		/>
	<path style="fill:#FDFDFD;" d="M610.6,779.6c-10.3,16.1-35.7,14.5-49,1.3c0.3-2.1,1.5-3.2,3.6-3.2c14.1,0,28.3,0,42.4,0.2
		C608.7,777.8,609.6,779,610.6,779.6z"/>
	<path style="fill:#B4B5B5;" d="M595.8,826.4c-0.6-7,0.2-12,8.9-14.2c7.3-1.8,11.3-9.5,16.5-14.9
		C617.9,811.5,610.2,821.9,595.8,826.4z"/>
	<path style="fill:#B2B3B3;" d="M481.9,799.3c6.2,6.2,11.8,12.8,21.1,15.3c4.6,1.3,3.7,7.5,4.3,11.9
		C493.7,822.2,485.1,813.3,481.9,799.3z"/>
	<path style="fill:#1D1D1D;" d="M720.7,816.8c0.7,2.1-0.1,4.8,2.4,6.2c-1.9,6-1.6,12.8-7.2,18.5
		C714.9,832.2,718.5,824.6,720.7,816.8z"/>
	<path d="M373.4,781.2c2.4,5.4,2.4,10.8,0,16.2C373.5,792.1,373.4,786.7,373.4,781.2z"/>
	<path style="fill:#838383;" d="M715.4,851.7c0.4,2.1,0.1,4.1-1.4,5.7c-3.6,0.2-2.9-2.1-2.4-4.2c0.7-1.8,1.3-3.5,2-5.3
		C715.1,848.8,714.2,850.8,715.4,851.7z"/>
	<path style="fill:#313131;" d="M384.3,842.7c0.6-0.7,1.3-1.5,1.9-2.2c2,1.3,1.5,3.5,1.9,5.4c0.2,1.8,1.6,4.1-2,4.1
		C385.5,847.5,383.3,845.5,384.3,842.7z"/>
	<path style="fill:#5D5D5D;" d="M386.1,849.9c1.7-0.9,1.6-2.6,2-4.1c2.5,2.9,1.4,6.1,1.2,9.9C386.9,854.2,386.6,852,386.1,849.9z"/>
	<path style="fill:#A6A6A6;" d="M711.5,853.3c0.4,1.6,0.4,3.5,2.4,4.2c-0.4,1.7-1.4,4.7-2.3,4C708.6,859.3,710.2,856.1,711.5,853.3z
		"/>
	<path style="fill:#444545;" d="M715.4,851.7c-1.7-0.7-1.3-2.5-1.9-3.8c0.7-1.7,1.4-3.5,2.1-5.2c0.4,0.1,0.8,0.3,1.3,0.4
		C716.4,846,715.9,848.9,715.4,851.7z"/>
	<path style="fill:#0E0E0E;" d="M507.2,737.7c2.4,1.9,2.3,3.8-0.2,5.5C505.7,741.4,505.6,739.5,507.2,737.7z"/>
	<path style="fill:#C7C8C8;" d="M391.3,867c-0.4-0.6-1-1.3-1.3-2c-0.3-1.1,0.4-1.8,1.4-1.5c0.6,0.2,1.2,1.2,1.4,2
		C393.1,866.3,392.8,867.2,391.3,867z"/>
	<path style="fill:#F9F9F9;" d="M661.2,666.9c1,7-1.2,12.9-7.6,13.6c-6.6,0.7-9.1-5.2-10-11.2c-0.9-5.9-0.3-11.4,4.1-15.8
		c1.7-1.7,4.4-2.6,6.6-1.1C659.6,655.9,662.7,660.7,661.2,666.9z"/>
	<path style="fill:#FAFAFA;" d="M459.5,663.3c0.2,8.2-5.3,16.7-10.2,16.4c-7.9-0.5-9.4-6.9-9.2-12.9c0.2-6.6,1.9-14.5,9.8-15
		C457.1,651.4,458,659.1,459.5,663.3z"/>
	<path style="fill:#EB2E79;" d="M579.7,828.3c-2.4,14.2-14.4,26.4-26.9,27.3c-11.9,0.9-23.7-9.1-29.6-25.2c-0.2-0.6-0.4-1.4-0.1-1.7
		c6.8-5.9,14.2-10.8,23.7-11.2c0.2,4.2,0.4,8.4,0.6,12.6c0.1,2.8,0.1,5.9,3.8,6c3.2,0.1,3.3-2.9,3.6-5.3c0.5-3.9,1-7.8,1.5-11.7
		c2.4-2.3,5-1.5,7.2,0.1C568.6,823,575.1,824,579.7,828.3z"/>
	<path style="fill:#A9275B;" d="M546.7,817.6c-7.6,4.7-16.7,6.9-23.6,12.9c-6.3-12.1-5.7-13.7,7-16.7c5.9-1.4,9.7-6.8,16-7.7
		C547.4,810,547,813.8,546.7,817.6z"/>
	<path style="fill:#A9275A;" d="M579.7,828.3c-6.2-0.9-12-3-16.8-7c-2-1.6-4.1-2.2-6.5-2c0.1-2.4,0.1-4.8,0.3-7.2
		c0.5-4.8,3-5.4,6.6-2.8c2.7,1.9,5.4,3.7,8.7,4.4C584.5,816.5,584.5,816.5,579.7,828.3z"/>
	<path style="fill:#EAEAEA;" d="M531.7,736.1c11.9-2.7,23.2-2.8,35.1,0C557.4,746,541.7,745.9,531.7,736.1z"/>
</g>
</svg>
