<?xml version="1.0" encoding="utf-8"?>
<!-- Generator: Adobe Illustrator 23.1.0, SVG Export Plug-In . SVG Version: 6.00 Build 0)  -->
<svg version="1.1" id="Layer_1" xmlns="http://www.w3.org/2000/svg" xmlns:xlink="http://www.w3.org/1999/xlink" x="0px" y="0px"
	 viewBox="0 0 1080 1080" style="enable-background:new 0 0 1080 1080;" xml:space="preserve">
<g id="Layer_x0020_1_1_" style="display:none;">
	<g id="_1421394342400" style="display:inline;">
		<g>
			<polygon style="fill:#343434;" points="539.9,0 532.7,24.6 532.7,738.7 539.9,746 871.4,550 			"/>
			<polygon style="fill:#8C8C8C;" points="539.9,0 208.5,550 539.9,746 539.9,399.3 			"/>
			<polygon style="fill:#3C3C3B;" points="539.9,808.7 535.9,813.7 535.9,1068.1 539.9,1080 871.6,612.9 			"/>
			<polygon style="fill:#8C8C8C;" points="539.9,1080 539.9,808.7 208.5,612.9 			"/>
			<polygon style="fill:#141414;" points="539.9,746 871.4,550 539.9,399.3 			"/>
			<polygon style="fill:#393939;" points="208.5,550 539.9,746 539.9,399.3 			"/>
		</g>
	</g>
</g>
<title>tether-usdt-logo</title>
<path style="display:none;fill-rule:evenodd;clip-rule:evenodd;fill:#FFFFFF;" d="M608.3,591.8L608.3,591.8
	c-3.8,0.3-23.4,1.5-67.1,1.5c-34.8,0-59.4-1-68.1-1.5l0,0c-134.3-5.9-234.6-29.3-234.6-57.3c0-28,100.2-51.3,234.6-57.3v91.3
	c8.8,0.6,33.9,2.1,68.7,2.1c41.7,0,62.6-1.7,66.3-2.1v-91.3c134,6,234,29.4,234,57.3c0,27.9-100,51.3-234,57.2l0,0L608.3,591.8z
	 M608.3,467.8V386h187V261.4H286.1V386h187v81.7c-152,7-266.3,37.1-266.3,73.2s114.3,66.2,266.3,73.2V876h135.2V614
	c151.7-7,265.8-37.1,265.8-73.1S760,474.8,608.3,467.8L608.3,467.8L608.3,467.8z M608.3,467.8L608.3,467.8z"/>
<g style="display:none;">
	<path style="display:inline;fill:#C2A633;" d="M554,356.3h-77.2v152.1h121.4v63.7H476.8v152.1h80.9c20.8,0,170.7,2.3,170.5-177
		C728,368,582.8,356.3,554,356.3z"/>
	<path style="display:inline;fill:#C2A633;" d="M541,0.5c-298.2,0-540,241.7-540,540s241.7,540,540,540s540-241.7,540-540
		S839.3,0.5,541,0.5z M562.2,832.1H366.7v-260h-68.9v-63.7h68.9v-260h167.8c39.7,0,302.7-8.2,302.7,296.7
		C837.2,855.2,562.3,832.1,562.2,832.1L562.2,832.1z"/>
</g>
<g style="display:none;">
	<g id="Layer_1-2" style="display:inline;">
		<path style="fill:#FFFFFF;" d="M833.1,285.3l-98.2,50L260.7,576.9c-1.6-12.2-2.4-24.5-2.4-36.9c0.2-156,126.8-282.3,282.8-282.1
			c48.1,0.1,95.4,12.4,137.4,35.9l56.2-28.6l8.4-4.3c-154.2-111.9-370-77.7-481.9,76.6c-42.8,58.9-65.8,129.9-65.8,202.7
			c0,8.8,0.3,17.5,1,26.3c1.9,25.2-11.5,49.2-34.1,60.7l-29.6,15.1v70.5l87.3-44.5l0,0l28.3-14.4l27.8-14.2l0,0l499.9-254.7
			l56.2-28.6L948.2,297v-70.5L833.1,285.3z"/>
		<path style="fill:#FFFFFF;" d="M948.2,367.6L304.4,695.3L248.3,724l-115.6,58.9v70.4l114.8-58.5l98.2-50L820.3,503
			c1.6,12.3,2.4,24.7,2.4,37.1c-0.1,156-126.6,282.4-282.6,282.3c-48.3,0-95.8-12.5-138-36.1l-3.5,1.8l-60.9,31.1
			c154.2,111.9,369.9,77.7,481.9-76.5c42.8-58.9,65.8-129.8,65.8-202.6c0-8.9-0.3-17.7-1-26.5c-1.9-25.2,11.5-49.1,34.1-60.7
			l29.7-15.1V367.6z"/>
	</g>
</g>
<path style="display:none;fill-rule:evenodd;clip-rule:evenodd;fill:#FFFFFF;" d="M540.5,1080C243.8,1080,1,837,1,537.3
	C3.7,240.3,243.8-2.7,543.2,0C839.9,2.7,1080,243,1080,545.4C1077.3,839.7,837.2,1080,540.5,1080"/>
<path style="display:none;fill-rule:evenodd;clip-rule:evenodd;fill:#FFFFFF;" d="M591.8,475.2l-16.2,86.4l153.8,21.6l-10.8,40.5
	l-151.1-21.6c-10.8,35.1-16.2,72.9-29.7,105.3c-13.5,37.8-27,75.6-43.2,110.7c-21.6,45.9-59.3,78.3-110.6,86.4
	c-29.7,5.4-62,2.7-86.3-16.2c-8.1-5.4-16.2-16.2-16.2-24.3c0-10.8,5.4-24.3,13.5-29.7c5.4-2.7,18.9,0,27,2.7
	c8.1,8.1,16.2,18.9,21.6,29.7c16.2,21.6,37.8,24.3,59.3,8.1c24.3-21.6,37.8-51.3,45.9-81c16.2-64.8,32.4-126.9,45.9-191.7v-10.8
	l-143-21.6l5.4-40.5l148.4,21.6l18.9-83.7l-153.8-24.3l5.4-43.2l159.2,21.6c5.4-16.2,8.1-29.7,13.5-43.2
	c13.5-48.6,27-97.2,59.3-140.4c32.4-43.2,70.1-70.2,126.8-67.5c24.3,0,48.6,8.1,64.7,27c2.7,2.7,8.1,8.1,8.1,13.5
	c0,10.8,0,24.3-8.1,32.4c-10.8,8.1-24.3,5.4-35.1-5.4c-8.1-8.1-13.5-16.2-21.6-24.3c-16.2-21.6-40.5-24.3-59.3-5.4
	c-13.5,13.5-27,32.4-35.1,51.3c-18.9,56.7-32.4,116.1-51.3,175.5l148.4,21.6l-10.8,40.5L591.8,475.2"/>
<g style="display:none;">
	<g style="display:inline;">
		<defs>
			<rect id="SVGID_1_" x="-15" y="-16" width="1110" height="1110"/>
		</defs>
		<clipPath id="SVGID_2_">
			<use xlink:href="#SVGID_1_"  style="overflow:visible;"/>
		</clipPath>
		<g id="b" style="clip-path:url(#SVGID_2_);">
			
				<linearGradient id="SVGID_3_" gradientUnits="userSpaceOnUse" x1="-596.0314" y1="180.3708" x2="-597.0637" y2="181.2394" gradientTransform="matrix(776 0 0 776 463462 -139766)">
				<stop  offset="0" style="stop-color:#B6509E"/>
				<stop  offset="1" style="stop-color:#2EBAC6"/>
			</linearGradient>
			<circle style="fill:url(#SVGID_3_);" cx="540.2" cy="539.5" r="538.3"/>
			<path style="fill:#FFFFFF;" d="M775.6,752.9L593.8,313.4c-10.3-22.7-25.5-33.8-45.6-33.8h-15c-20.2,0-35.5,11.1-45.8,33.9
				L408,505.7h-60.1c-17.9,0.1-32.5,14.6-32.7,32.7v0.3c0,0,14.1,32.5,32,32.2h32.2L303.8,754c-1.4,4-2.2,8.2-2.2,12.5
				c0,10.3,3.2,18.3,8.9,24.6c5.7,6.2,13.9,9.3,24.1,9.3c6.8-0.1,13.3-2.2,18.7-6.2c5.8-4,9.9-9.9,13-16.5l83.3-205.3h57.7
				c17.9-1.3,32.7-33.8,32.7-33.8v-1.7c-0.1-17.9-14.7-32.4-32.6-32.6h-30.8l63.5-158.1l172.9,430.1c3.2,6.7,7.2,12.5,13,16.5
				c5.4,4,12.1,6.1,18.7,6.2c10.3,0,18.3-3,24.1-9.3c5.8-6.2,8.9-14.3,8.9-24.5C777.9,761.1,777.2,756.8,775.6,752.9z"/>
		</g>
	</g>
</g>
<g style="display:none;">
	<circle style="display:inline;fill:#FF060A;" cx="540.2" cy="540.4" r="539.8"/>
</g>
<g id="tron" style="display:none;">
	<path style="display:inline;fill:#FFFFFF;" d="M896.4,451.8c-33.4-30.9-79.7-78-117.3-111.4l-2.2-1.6c-3.7-3-7.9-5.3-12.4-6.9l0,0
		C673.7,315,251.2,236,242.9,237c-2.3,0.3-4.5,1.2-6.5,2.5l-2.1,1.7c-2.6,2.6-4.6,5.8-5.8,9.4l-0.6,1.4v7.9v1.2
		c47.6,132.5,235.4,566.4,272.4,668.2c2.2,6.9,6.5,20.1,14.4,20.7h1.8c4.2,0,22.3-23.8,22.3-23.8s322.6-391.3,355.3-432.9
		c4.2-5.1,8-10.7,11.1-16.5C906.9,467.5,903.5,458,896.4,451.8z M621.6,497.4l137.7-114.2l80.8,74.4L621.6,497.4z M568.1,489.9
		L331,295.6l383.6,70.7L568.1,489.9z M589.5,540.8l242.6-39.1L554.8,835.9L589.5,540.8z M298.9,315l249.4,211.7l-36.1,309.5
		L298.9,315z"/>
</g>
<linearGradient id="SVGID_4_" gradientUnits="userSpaceOnUse" x1="542.7925" y1="-303.7537" x2="542.7925" y2="-222.7702" gradientTransform="matrix(1 0 0 -1 0 414)">
	<stop  offset="0" style="stop-color:#B5E0DA"/>
	<stop  offset="0.63" style="stop-color:#3CBAB2"/>
	<stop  offset="0.97" style="stop-color:#00A89E"/>
	<stop  offset="1" style="stop-color:#00A69C"/>
</linearGradient>
<polygon style="fill:url(#SVGID_4_);" points="510.7,637 517.5,670.7 530.6,653.9 543.1,717.5 555.6,653.9 568.1,670.7 574.9,637 
	"/>
<path style="fill:#27233E;" d="M576.8,582.7v-96.1c0-18.7-33.7-66.1-33.7-66.1s-33.7,47.4-33.7,66.1v96.1
	c-21.8,6.9-41.2,21.2-54.9,39.9h177.2C618,604,598.6,589.6,576.8,582.7z"/>
<linearGradient id="SVGID_5_" gradientUnits="userSpaceOnUse" x1="901.2327" y1="-316.6065" x2="901.2327" y2="-216.0312" gradientTransform="matrix(1 0 0 -1 0 414)">
	<stop  offset="0" style="stop-color:#B5E0DA"/>
	<stop  offset="0.63" style="stop-color:#3CBAB2"/>
	<stop  offset="0.97" style="stop-color:#00A89E"/>
	<stop  offset="1" style="stop-color:#00A69C"/>
</linearGradient>
<path style="fill:url(#SVGID_5_);" d="M951.8,680.1c0-28.1-22.5-50.5-50.5-50.5s-50.5,22.5-50.5,50.5c0,28.1,22.5,50.5,50.5,50.5
	l0,0C929.3,730.6,951.8,707.5,951.8,680.1z M871.9,680.1c0-16.2,13.1-29.3,29.3-29.3s29.3,13.1,29.3,29.3
	c0,16.2-13.1,29.3-29.3,29.3l0,0C885,709.4,871.9,696.3,871.9,680.1z"/>
<linearGradient id="SVGID_6_" gradientUnits="userSpaceOnUse" x1="540" y1="-666" x2="540" y2="414" gradientTransform="matrix(1 0 0 -1 0 414)">
	<stop  offset="0" style="stop-color:#B5E0DA"/>
	<stop  offset="0.63" style="stop-color:#3CBAB2"/>
	<stop  offset="0.97" style="stop-color:#00A89E"/>
	<stop  offset="1" style="stop-color:#00A69C"/>
</linearGradient>
<path style="fill:url(#SVGID_6_);" d="M543.1,0C244.9,0.6,3.4,242.1,2.8,540.3c0,205.9,126.7,371.2,294.5,385.6
	c102.3,8.7,200.9-28.1,265.8-59.9c38.7-16.2,74.9-38.1,107.3-64.9l6.9-5.6l0,0c5-4.4,10-8.7,15-13.1
	c61.1-57.4,133.5-161.6,133.5-328.8v-18.7L545,242.1L264.8,434.2v18.1c0,167.2,72.4,270.8,133.5,328.8c6.9,6.9,14.4,13.1,22.5,20
	c25.6-9.4,51.2-18.7,76.1-29.9C433.3,730,341,640.8,335.3,470.4l210.3-144.1l210.3,144.1c-5,137.3-66.8,221.5-120.4,268.9l-6.9,5
	c-1.9,1.2-163.5,124.2-325.1,111.1c-100.5-8.1-182.2-90.5-215.3-204.6c25.6-18.1,31.8-54.3,13.7-79.9c-6.9-10-16.8-17.5-28.7-21.2
	c0-3.7,0-6.9,0-10.6c0-66.1,13.7-131.6,41.2-191.5c16.2,6.9,34.3,10,51.8,10c75.5,0,136.6-61.1,136-136.6c0-22.5-5.6-44.3-16.2-63.6
	c-1.2-3.1-3.1-5.6-5-8.1C496.3,4.4,788.3,61.8,933.1,277c1.9,2.5,3.7,5.6,5.6,8.1c-41.2,34.9-46.2,96.7-11.2,137.9
	c18.7,21.8,46.2,34.9,74.9,34.9c1.2,0,3.1,0,4.4,0c5,26.8,7.5,54.3,7.5,81.7c0,244-194,436.7-471.7,470.4
	c-222.7,28.1-365-64.3-365-64.3c83,91.7,199,134.1,365.6,134.1c298.2-3.1,537.2-247.7,534.1-545.9C1074.1,240.2,836.3,3.1,543.1,0z
	 M90.1,612.7c-1.2,6.2-4.4,11.9-8.1,16.2c-4.4-18.1-6.9-36.2-8.1-54.9C87,582.1,93.3,597.7,90.1,612.7z M267.3,167.2
	c29.9,56.2,8.7,126.7-48,156.6c-29.9,16.2-65.5,18.1-97.3,5.6c33.7-66.1,82.4-123.5,141.6-167.8
	C264.8,163.5,266.1,165.3,267.3,167.2L267.3,167.2z M1001.7,437.4c-42.4,0-77.4-34.3-77.4-76.7c0-21.8,8.7-42.4,25-56.8
	C973.6,345,991.1,389.9,1001.7,437.4L1001.7,437.4z"/>
</svg>
