<?xml version="1.0" encoding="utf-8"?>
<!-- Generator: Adobe Illustrator 23.1.0, SVG Export Plug-In . SVG Version: 6.00 Build 0)  -->
<svg version="1.1" id="Layer_1" xmlns="http://www.w3.org/2000/svg" xmlns:xlink="http://www.w3.org/1999/xlink" x="0px" y="0px"
	 viewBox="0 0 1080 1080" style="enable-background:new 0 0 1080 1080;" xml:space="preserve">
<circle cx="540" cy="540" r="540"/>
<g>
	<path style="fill:#FEFEFE;" d="M201.2,540.5c0-105,0.3-210-0.4-315.1c-0.1-14.5,3.7-17.7,17.7-17.7c181,0.5,362.1,0.4,543.1,0
		c12.9,0,18.9,2.7,17.2,16.5c-1,8.1-0.2,16.4-0.2,24.7c0,29.6,0,29.4-30.6,29.4c-150-0.1-300,0.2-450-0.4c-14-0.1-18.1,3.2-18,17.6
		c0.5,163.2,0.5,326.4,0.1,489.6c0,13.2,3.5,16.8,16.9,16.7c151.9-0.5,303.8-0.4,455.7-0.4c26.1,0,26.1-0.1,26,26.5
		c-0.1,43.9-0.1,43.9-44.4,43.9c-170.9,0-341.8-0.2-512.7,0.4c-16.2,0.1-21-3.1-20.8-20.5C201.8,748,201.2,644.3,201.2,540.5z"/>
	<path style="fill:#FEFEFE;" d="M786.7,528.7"/>
</g>
<g>
	<g>
		<path style="fill:#FFFFFF;" d="M675.4,615c8.8,38.4,36.7,55.2,81.4,55.2c44.6,0,63.7-17.4,63.7-45.4c0-31.1-18.6-44.6-84.8-59.8
			c-105.2-24.4-131.3-62.2-131.3-113.8c0-66.6,50.4-111.8,142-111.8c102.7,0,143.6,54.5,149.1,110.4h-84.3
			c-4-23.5-17.2-49.1-67.1-49.1c-33.9,0-54.4,13.9-54.4,41c0,26.6,16.4,37.3,78.9,51.7c112.5,26.2,137.2,67.5,137.2,121.4
			c0,69.8-53.4,117.6-155.7,117.6c-98.2,0-149.9-47.8-159.1-117.4H675.4z"/>
	</g>
</g>
</svg>
