<?xml version="1.0" encoding="utf-8"?>
<!-- Generator: Adobe Illustrator 23.1.0, SVG Export Plug-In . SVG Version: 6.00 Build 0)  -->
<svg version="1.1" id="Layer_1" xmlns="http://www.w3.org/2000/svg" xmlns:xlink="http://www.w3.org/1999/xlink" x="0px" y="0px"
	 viewBox="0 0 1080 1080" style="enable-background:new 0 0 1080 1080;" xml:space="preserve">
<g>
	<path style="fill:#0B4431;" d="M517.2,934.4c-11.3-1-22.6-1.9-33.9-3.5c-54.4-7.7-105-25.1-149.6-58
		c-36.1-26.6-63.8-60.3-84.1-100.2c-14.3-28-24.6-57.4-30.4-88.3c-4.2-22.5-6-45.3-5.4-68.2c1.7-58.3,17-113.2,42.3-165.4
		c21.2-43.7,48.4-83.3,80.4-119.6c20.4-23.2,42.4-44.7,66.6-63.9c10.8-8.6,22-16.5,34.7-22c1.5-0.7,1.6-1.5,1.3-2.9
		c-4.2-18.7-6.2-37.6-8.1-56.6c-0.4-4.5-1-9.1-0.3-13.6c1.2-8.2,5.3-14.9,11.2-20.6c5.1-4.9,10.9-8.6,17.1-11.7
		c14.8-7.3,30.4-11.9,46.7-14.4c5.8-0.9,11.7-1.3,17.6-2c0.7-0.4,1.5-0.2,2.3-0.3c1,0,2,0,3,0c5.8,0,11.6,0,17.5,0c1,0,2,0,3,0
		c1,0.1,2-0.2,2.9,0.3c10,0.9,19.9,1.6,29.8,3.5c8.4,1.6,16.7,3.6,24.6,6.8c5,2,9.6,4.6,13.8,8c7.5,6.2,11.6,14.1,11.8,23.9
		c0.4,15.1,1,30.2,1.4,45.3c0.2,7.5-0.1,15-1.1,22.5c-0.2,1.6-0.1,2.4,1.6,3c37.8,13.8,70.2,36.2,99.9,62.7
		c37.5,33.4,69.9,71.3,96.4,114c27.4,44.3,46.6,92.1,57.7,143.1c6.2,28.6,9.1,57.5,8,86.7c-1.8,49-15.1,94.7-40.6,136.6
		c-30.2,49.7-72,86.8-123.7,113.1c-29.8,15.2-61.3,25.7-94,32.7c-21,4.5-42.3,7.3-63.7,9c-0.9,0.5-1.8,0.2-2.7,0.3
		c-0.9,0-1.8,0-2.7,0s-1.8,0-2.8,0c-0.7,0-1.5,0-2.2,0c-1.3,0-2.6,0-3.9,0c-2,0.2-4.1-0.4-6.1,0.4c-4.1,0-8.2,0-12.3,0
		c-2.2-0.8-4.6-0.2-6.8-0.4c-1.7,0-3.5,0-5.2,0c-1,0-1.9,0-2.9,0c-1.1,0-2.3,0-3.4,0c-0.9,0-1.9,0-2.8,0
		C519.1,934.6,518.1,934.9,517.2,934.4z"/>
	<path style="fill:#ADC0BA;" d="M546.6,123.5c-6.2,0-12.3,0-18.5,0c-0.2-0.1-0.3-0.3-0.2-0.4s0.1-0.2,0.2-0.2c6.1,0,12.3,0,18.4,0
		c0.2,0.1,0.3,0.3,0.2,0.4C546.7,123.4,546.7,123.5,546.6,123.5z"/>
	<path style="fill:#1F5442;" d="M534.3,934.4c2.3,0.2,4.7-0.7,6.9,0.7c-2.3,0-4.6,0-6.8,0c-0.2-0.1-0.3-0.3-0.2-0.4
		C534.1,934.5,534.2,934.4,534.3,934.4z"/>
	<path style="fill:#215443;" d="M553.4,935.1c1.9-1.3,4.1-0.5,6.2-0.7c0.2,0.2,0.3,0.3,0.2,0.4c-0.1,0.1-0.1,0.2-0.2,0.2
		C557.5,935.1,555.5,935.1,553.4,935.1z"/>
	<path style="fill:#3C695A;" d="M534.3,934.4c0,0.2,0,0.4,0,0.7c-1.8,0-3.6,0-5.5,0c-0.2-0.1-0.3-0.3-0.2-0.4
		c0.1-0.1,0.1-0.2,0.2-0.2C530.6,934.4,532.4,934.4,534.3,934.4z"/>
	<path style="fill:#3D6A5B;" d="M559.6,935.1c0-0.2,0-0.4,0-0.7c1.4,0,2.7,0,4.1,0c0.2,0.1,0.3,0.3,0.2,0.4
		c-0.1,0.1-0.1,0.2-0.2,0.2C562.3,935.1,560.9,935.1,559.6,935.1z"/>
	<path style="fill:#8DA79F;" d="M522.7,934.5c1.1,0,2.3,0,3.4,0c0.2,0.1,0.3,0.2,0.3,0.4c-0.1,0.1-0.1,0.2-0.2,0.2
		c-1.1,0-2.3,0-3.4,0c-0.2-0.1-0.3-0.2-0.2-0.4C522.5,934.5,522.6,934.5,522.7,934.5z"/>
	<path style="fill:#C3D1CC;" d="M528.2,122.9c0,0.2,0,0.4,0,0.6c-0.9,0.1-1.8,0.2-2.7,0c-0.2-0.1-0.3-0.3-0.2-0.4s0.1-0.2,0.2-0.2
		C526.3,122.9,527.2,122.9,528.2,122.9z"/>
	<path style="fill:#E1E8E6;" d="M552.1,123.5c-0.9,0.2-1.8,0.1-2.7,0c-0.2-0.1-0.3-0.3-0.2-0.4s0.1-0.2,0.2-0.2c0.9,0,1.8,0,2.7,0
		C552.1,123.1,552.1,123.3,552.1,123.5z"/>
	<path style="fill:#C1CFCA;" d="M549.3,122.9c0,0.2,0,0.4,0,0.6c-0.9,0.2-1.8,0.1-2.7,0c0-0.2,0-0.4,0-0.6
		C547.5,122.9,548.4,122.9,549.3,122.9z"/>
	<path style="fill:#E1E8E6;" d="M517.2,934.4c0.9-0.2,1.8-0.1,2.7,0c0.2,0.1,0.3,0.3,0.2,0.4c-0.1,0.1-0.1,0.2-0.2,0.2
		c-0.9,0-1.8,0-2.7,0C517.2,934.9,517.2,934.6,517.2,934.4z"/>
	<path style="fill:#C4D2CD;" d="M520,935.1c0-0.2,0-0.4,0-0.6c0.9,0,1.8,0,2.7,0c0,0.2,0,0.4,0,0.6
		C521.8,935.1,520.9,935.1,520,935.1z"/>
	<path style="fill:#608579;" d="M526.1,935.1c0-0.2,0-0.4,0-0.6c0.9,0,1.8,0,2.7,0c0,0.2,0,0.4,0,0.6
		C527.9,935.1,527,935.1,526.1,935.1z"/>
	<path style="fill:#89A49B;" d="M565.7,934.5c0.9,0,1.8,0,2.7,0c0.2,0.1,0.2,0.3,0.2,0.4c-0.1,0.1-0.1,0.2-0.2,0.2
		c-0.9,0-1.8,0-2.7,0c-0.2-0.1-0.3-0.3-0.2-0.4C565.6,934.5,565.7,934.5,565.7,934.5z"/>
	<path style="fill:#BECDC8;" d="M568.4,935.1c0-0.2,0-0.4,0-0.6c0.9,0,1.8,0,2.7,0c0.2,0.1,0.3,0.3,0.2,0.4
		c-0.1,0.1-0.1,0.2-0.2,0.2C570.2,935.1,569.3,935.1,568.4,935.1z"/>
	<path style="fill:#E0E7E5;" d="M571.2,935.1c0-0.2,0-0.4,0-0.6c0.9-0.1,1.8-0.3,2.7,0c0,0.2,0,0.4,0,0.6
		C573,935.1,572.1,935.1,571.2,935.1z"/>
	<path style="fill:#E5EBE9;" d="M525.4,122.9c0,0.2,0,0.4,0,0.6c-0.7,0-1.4,0-2,0c0-0.2,0-0.4,0-0.6
		C524.1,122.9,524.7,122.9,525.4,122.9z"/>
	<path style="fill:#5D8276;" d="M565.7,934.5c0,0.2,0,0.4-0.1,0.6c-0.7,0-1.4,0-2,0c0-0.2,0-0.4,0-0.6
		C564.4,934.5,565.1,934.5,565.7,934.5z"/>
	<path style="fill:#77BAA1;" d="M598.4,270.9c4.6-2.5,9.1-5.2,13.5-8c2.9-1.9,5.6-2.2,9-1c17.9,6.3,34.6,14.9,50.6,25.2
		c16.6,10.7,32,22.8,46.6,36.1c33.9,30.9,63.2,65.7,88,104.2c10.7,16.7,19.5,34.4,27.5,52.5c11.2,25.3,20,51.4,26,78.5
		c3.1,13.9,5.3,27.9,6.7,42c1.6,15.2,1.8,30.4,1.1,45.6c-1,19.9-4.3,39.5-9.8,58.7c-9.2,32.1-24.5,61.1-44.9,87.4
		c-18.9,24.3-41.5,44.6-67.3,61.2c-28.4,18.3-59.2,31.2-91.8,40.2c-18.5,5.1-37.3,8.7-56.4,11.1c-10.9,1.3-21.9,2.2-32.9,2.8
		c-10.6,0.6-21.1,0.6-31.7,0.3c-11.5-0.3-22.9-1.2-34.3-2.4c-26.3-2.9-52-8.4-77-17.1c-29.4-10.3-56.6-24.9-80.8-44.6
		c-22.1-18-40.4-39.2-55.2-63.6c-17-27.9-29.2-57.7-36.5-89.6c-2.7-12-4.6-24.1-5.9-36.3c-1.7-15.7-1.8-31.3-1-47
		c1.3-26.2,6-51.8,13.2-77c12.2-42.5,31.1-81.9,55.1-119c13.7-21.2,29-41.3,45.7-60.3c13.2-15.1,27.1-29.5,41.9-42.9
		c12.3-11.2,25-21.8,39-30.9c5.1-3.3,10.3-6.3,16-8.4c3.5-1.3,6.9-1.2,10.2,0.5c4,2.1,8.1,4.1,12.1,6.1c1.9,3.5,1.8,7.5,2.3,11.3
		c1.4,10.8,2.7,21.6,5.4,32.2c1.3,5.4,3.2,10.6,6.3,15.4c3.7,5.9,9.1,9.4,15.4,11.8c6,2.3,12.2,3.3,18.7,3.4
		c19.3,0.5,38.1-2,56.4-8.1c2.7-0.9,5.2-2.3,7.8-3.3c7.1-2.9,9.8-8.3,10.5-15.7c0.8-9,0.6-17.9,0.6-26.9c0-7,0.5-14.1-0.5-21.1
		C597.4,272.9,597.7,271.8,598.4,270.9z"/>
	<path style="fill:#DD8843;" d="M603.9,168.6c0.2,2.4,0.5,4.7,0.5,7.1c0.4,13.4,1,26.8,1.2,40.2c0.2,13-2.3,25.6-9.4,36.7
		c-5.8,9.1-12.9,17.3-21.6,23.8c-0.9,0.7-1.8,1.4-2.7,2.1c-0.5,1-1.4,1.6-2.2,2.3c-19.5,12.5-39.9,13.2-61,4.7
		c-1.1-0.6-2.4-0.9-3-2.1c-11.3-5.4-20.8-12.9-28.3-23c-4.9-6.5-7.7-13.8-9.1-21.8c-3.6-19.4-6.8-38.9-10.2-58.4
		c-0.1-0.4,0-0.9,0-1.4c0.7-0.2,1.4,0.1,1.9,0.5c9,6.8,19.7,9.2,30.4,11.4c13.6,2.8,27.4,4,41.3,3.5c21.1-0.8,41.1-5.8,59.6-16.3
		c3.7-2.1,7.3-4.6,10.2-7.9C602,169.3,602.6,168.3,603.9,168.6z"/>
	<path style="fill:#89B772;" d="M508.3,284.6c5,1.8,10.1,3.3,15.3,4.3c15.7,3,30.3,0.3,44-7.9c0.7-0.4,1.4-0.8,2.1-1.1
		c1-0.9,2.4,0,3.5-0.7c6.9-1.3,13.6-3.6,20.1-6.3c1.7-0.7,3.2-1.7,5-2c1.4,14.4,0.6,28.8,0.6,43.3c0,4.8-0.7,9.7-1.6,14.5
		c-0.7,3.3-2.6,5.5-5.2,7.3c-5.1,3.5-10.8,5.7-16.7,7.5c-7.9,2.5-16,4.1-24.2,5.4c-8.3,1.3-16.7,1.6-25.1,1.5
		c-5.3,0-10.7-0.2-15.9-1.5c-6.5-1.6-12.6-4-17.6-8.4c-4.4-3.9-7.1-9-9.1-14.6c-2.4-6.6-3.6-13.5-4.8-20.4c-1.6-9-2.2-18.2-3.9-27.1
		c-0.2-1-0.1-2-0.1-3.1c5.7,2.1,11.2,4.7,17.1,6.3c4,1.1,8,2.2,12.2,2.7C505.5,284.6,507.1,283.8,508.3,284.6z"/>
	<path style="fill:#EBB646;" d="M603.9,168.6c-7.2,8.9-17.4,13.2-27.5,17.5c-9.3,3.9-19.1,6.1-29.1,7.7c-9.8,1.6-19.6,2-29.5,1.3
		c-15.2-1-30.3-2.8-44.9-8c-4-1.4-7.8-3-11.4-5.3c-1.4-0.9-2.3-2.2-3.7-3c-1.1-2.3-0.1-4.2,1.4-5.9c2.2-2.5,5-4.3,7.8-6
		c7.5-4.4,15.5-7.5,23.8-9.9c19.7-5.9,39.9-7.2,60.4-5.7c11.5,0.8,22.8,2.2,34,5c5.3,1.3,10.5,3,15.2,5.9
		C602.9,163.6,604.6,165.5,603.9,168.6z"/>
	<path style="fill:#476543;" d="M508.3,284.6c-1.4-0.1-2.9,0.4-4.1-0.6c0.5-0.1,1.1-0.2,1.4-0.7
		C506.6,283.6,507.6,283.8,508.3,284.6z"/>
	<path style="fill:#30593B;" d="M573.3,279.2c-1,0.9-2.3,0.6-3.5,0.7c0.6-0.6,1.3-1.1,2.1-1.4C572.2,279.1,572.7,279.1,573.3,279.2z
		"/>
	<path style="fill:#F3ACBB;" d="M786.4,486.5c3.1,5.4,5.2,11.3,7.4,17.1c3.3,8.5,6.1,17.1,8.3,25.9c0.1,0.3,0.3,0.6,0.5,0.9
		c0.4,1-0.3,1.7-0.8,2.4c-14.6,19.2-27.1,39.9-41.8,59c-1.8,2.3-3.6,4.7-5.6,6.8c-0.8,0.8-1.4,1.8-2.8,1.5
		c-11.8-5.4-24.1-9.3-36.9-11.1c-10-1.4-20-2.2-30.1-1.6c-1.6,0.4-2.8-0.6-4.1-1.3c-16.9-9.1-33.3-19.2-50.7-27.4
		c-3.5-1.7-7.1-3-10.8-4.2c-3.2-1.1-6.2-0.7-9.2,0.8c-10,5.1-18.8,11.9-27.5,18.9c-16.3,13-32,26.9-47.7,40.7
		c-12.9,11.3-25.6,22.8-39,33.6c-9.4,7.6-10,7.7-20.1,0.9c-18.3-12.2-35.1-26.3-52.3-39.8c-16.3-12.7-32.2-26-49.3-37.7
		c-0.8-0.6-1.8-1.1-2.6-1.7c-5.6-4.4-11-4-16.9-0.1c-8.9,5.9-17.4,12.4-25.6,19.3c-10.9,9-21.3,18.4-32.1,27.4
		c-0.4,0.4-0.8,0.8-1.3,1.1c-2,1.2-2.5,0.5-2-1.5c1.1-11.3,3-22.4,5.3-33.5c4-19.4,9.3-38.5,15.5-57.3c2.2-6.8,4.8-13.5,7.2-20.2
		c0.4-1.2,0.8-2.3,1-3.6c2.8,2.9,6.4,4.7,10,6.6c6.6,8.4,15.8,9,25.3,8.4c1.7-0.1,3.4-0.5,5.1,0c26.9,5.5,54,9.4,81.2,12
		c14.9,1.4,29.9,2.6,44.8,3.4c11.1,0.6,22.2,0.8,33.3,1.4c16.4,0.9,32.7,0.7,49.1,0.4c16.7-0.3,33.3-1.4,49.9-3.1
		c23.3-2.4,46.5-5.5,69.4-10.2c25.1-5.1,49.9-11.3,73.7-21c5.2-2.1,10.2-4.5,15-7.3C782.1,490.8,783.8,488.1,786.4,486.5z"/>
	<path style="fill:#F3ACBB;" d="M720.7,815.7c-6.5,4.2-13.6,7.3-20.7,10.4c-11,4.9-22.1,9.7-33.3,14c-21.3,8.2-43.1,15-65.6,19.2
		c-9.7,1.8-19.5,3.1-29.3,4.2c-16.7,1.9-33.4,1.8-50.1,1c-23.6-1.2-46.9-4.8-69.8-10.7c-26.4-6.8-50.5-18.4-72.1-35.2
		c-9.1-7-17.5-14.9-25.2-23.4c-11.5-12.7-21.3-26.5-29.6-41.5c-7.2-13-13.1-26.5-17.9-40.4c-4.5-13.1-7.9-26.5-9.9-40.2
		c-0.5-3.7-1.2-7.4-1.4-11.1c-0.9-1.9,0.3-3,1.5-4.1c6.6-6.5,12.5-13.8,19.4-20.1c4.2-3.9,7.6-8.4,11.7-12.3
		c0.9-0.9,1.7-2.3,3.4-1.6c1.2,3.7,0.5,7.6,1.2,11.4c1.9,10.2,4.3,11.6,13.7,6.7c8.9-4.6,15-12.3,20.8-20.2
		c4.1-5.5,7.8-11.1,11.2-17.1c0.6-1.1,1.2-2.2,2.3-2.9c1.5-0.5,2.6,0.5,3.7,1.2c9,5.8,17.1,12.7,25.1,19.8
		c15.5,13.8,30.2,28.5,45.2,42.9c10.6,10.2,20.8,20.9,32.5,30c0.9,0.7,2.3,1.3,1.7,3c-15.8,22.3-26.6,46.7-31.5,73.7
		c-3.2,17.6,3.1,32,14.3,44.7c14,15.9,32.8,22.7,53.1,26.2c16,2.8,32.1,2.5,48.3,1.5c27.8-1.6,54.1-9.7,80.1-18.8
		c13.3-4.6,26.2-10.3,39-16.2c5.8-2.6,11.1-6.3,16.9-8.8c0.7,0.3,1,0.9,1.1,1.6c0.9,5.6,4.3,9.2,9.1,11.9
		C720,814.8,720.5,815.2,720.7,815.7z"/>
	<path style="fill:#F8D0D9;" d="M789.7,486.5c-1.3,3.6-4.4,5.4-7.4,7.2c-7.6,4.4-15.7,7.6-23.9,10.6c-14.1,5.2-28.5,9.1-43,12.6
		c-13.1,3.1-26.2,5.9-39.5,8.1c-9,1.5-18.1,2.8-27.1,4.1c-5.8,0.8-11.7,1.4-17.5,2c-7.5,0.8-15.1,1.5-22.6,2.1
		c-8.8,0.7-17.6,0.9-26.4,1.4c-16.9,1.1-33.8,0.6-50.8,0.4c-7.1-0.1-14.3-0.1-21.4-0.6c-8.6-0.6-17.2-1-25.8-1.4
		c-6-0.3-11.9-1-17.9-1.3c-7.7-0.4-15.3-1.2-22.9-2c-7.7-0.8-15.5-1.6-23.2-2.8c-7.3-1.1-14.5-2.1-21.8-3.2
		c-10.8-1.6-21.6-3.8-32.3-5.8c-0.2,0-0.3-0.3-0.5-0.4c-0.1-1.6,1.3-1.4,2.1-1.6c11.3-2.9,20.7-9.2,29.2-17
		c7.5-7,14.3-14.6,20.1-23.1c0.6-0.9,1-2.1,2.5-2c3.5,0.4,7-0.6,10.4-1c7-0.9,13.9-1.8,20.9-2.5c8.3-0.8,16.7-1.7,25-2.5
		c3.2-0.3,6.3-0.3,9.5-0.7c5.2-0.5,10.4-0.5,15.6-0.9c15-1.1,29.9-1.1,44.9-1.5c8.3-0.2,16.6-0.6,24.9-0.2c14.8,0.6,29.5,0,44.3,0.7
		c7.8,0.3,15.7,0.2,23.5,0.6c10.1,0.5,20.2,0.8,30.3,1.3c11.1,0.5,22.2,1.2,33.3,2.1c9.8,0.7,19.7,1.6,29.5,2.7
		c15.3,1.7,30.6,3.4,45.6,7.4c3.5,0.9,7,2,10.1,3.9C788.6,483.9,789.7,484.8,789.7,486.5z"/>
	<path style="fill:#A5D4C1;" d="M331.6,623.9c-2.3,1.5-4.1,3.6-5.8,5.6c-2.7,3.2-5.7,6.1-8.6,9.1c-6.5,6.8-13,13.5-19.6,20.2
		c-0.9,0.9-1.6,1.9-1.6,3.2c-0.7-0.4-1.2-0.3-1.8,0.2c-2.5,2.1-4.9,4.4-7.3,6.6c-2.7,2.5-5.5,5-8.9,6.7c-2.4,1.2-3.6,0.7-4.2-1.9
		c-0.9-4.3-1.6-8.7-2.2-13c-0.7-5-1.4-10.1-1.9-15.1c-0.4-3-0.4-6.1-0.9-9.1c-0.6-3.7-0.4-7.4-1.1-11.1c-0.6-3-0.5-6.1-0.7-9.1
		c-0.2-5-1-9.9-0.9-14.9c0-5.5-0.9-11.1-0.6-16.6c0.1-1.1-0.3-2.3,0.5-3.6c1.5,1.3,1.7,3.2,2,4.8c2,9.5,3.7,19.1,5.7,28.6
		c0.9,4.2,1.9,8.4,2.9,12.6c0.2,1,0.6,1.9,1,2.9c1.1,2.3,1.3,2.4,3.5,1.1c4.3-2.7,8.1-6.1,12.1-9.3c1.7-1.4,2.9-3.1,3.4-5.2
		c0.1,0.4,0.2,0.9,0.3,1.8c2.1-1.7,4.1-3.3,6-4.9c6.1-5.2,12.2-10.5,18.3-15.7c4.8-4.1,9.6-8.3,14.5-12.3
		c8.3-6.7,16.5-13.5,26.2-18.3c3.2-1.6,6-1.4,9,0.3c9.8,5.4,18.4,12.4,27.3,19.2c7.8,6,15.6,12.1,23.3,18.2
		c7.1,5.6,14.2,11.3,21.3,16.9c5.3,4.1,10.5,8.3,15.8,12.4c7.1,5.5,14.2,10.9,21.8,15.7c1.7,1.1,3.5,2.1,5.3,3.1
		c2.2,1.2,4.2,1.2,6.4-0.3c3.4-2.3,6.6-4.8,9.7-7.5c9-7.5,17.8-15.2,26.5-23c7.4-6.7,14.9-13.2,22.5-19.8
		c12.4-10.7,24.9-21.5,37.8-31.6c7.5-5.9,15.1-11.6,23.7-15.9c3.6-1.8,7-2.2,10.8-0.9c3.3,1.2,6.6,2.4,9.8,3.9
		c14,6.8,27.5,14.5,41.1,22.2c4.3,2.5,8.6,5.1,13.2,7.1c2.6,0.1,4.7,1.7,6.8,2.9c9.9,5.3,19.9,10.5,30.3,14.7
		c3.9,1.6,7.9,2.7,12,3.7c5.3,1.2,9.8,0.1,13.8-3.8c1.7-1.6,3-3.7,5.4-4.6c6.1-6.6,11.3-13.9,16.4-21.2c8.7-12.4,17.3-25,25.9-37.4
		c2.6-3.7,5.4-7.3,8.1-10.9c0.5-0.4,1.1-0.8,1.6-1.3c1.2-1.1,2.4-1,3.7-0.2c1.6,0.9,2.8,2.3,4,3.7c6.9,8.7,12.9,18.1,18.6,27.6
		c5.4,9,10.4,18.1,14.9,27.6c0.7,1.5,1.3,3.1,1.8,5.1c-3.4-1.2-5.4-3.6-7.2-6c-2.3-3-5-5.6-7.4-8.4c-4.8-5.4-9.5-11-14.5-16.2
		c-2.4-2.5-4.5-5.4-7.5-7.4c-1.2-0.8-2.1-1-2.5,0.7c-4.8,4.4-7.5,10.2-10.5,15.8c-8.1,14.8-15.5,30-23,45.2
		c-4.8,8.8-9.1,17.8-14.6,26.2c-0.8,1.2-1.7,2.4-2.6,3.6c-2.8,3.6-4.9,4.3-9.2,2.9c-8.7-2.9-16.5-7.6-24.4-12.1
		c-19.9-11.5-39.3-23.7-59.2-35.1c-5.8-3.3-11.6-6.7-17.6-9.6c-5.2-2.9-10.7-5-16.1-7.3c-7.5-3.1-14.8-2.5-22,1.1
		c-7.6,3.8-14.3,8.8-20.7,14.2c-10.3,8.7-19.3,18.8-29,28.3c-1,1-1.7,2.2-2.6,3.2c-0.2,0.3-0.4,0.5-0.7,0.7
		c-0.2,0.2-0.5,0.5-0.7,0.7c-8.4,9.1-16.3,18.6-24.3,28c-10.9,12.7-20.9,26-32.7,37.8c-4.4,4.4-8,4.1-12.2-0.9
		c-8.3-6.7-16.1-13.9-23.8-21.3c-10.1-9.8-20.2-19.7-30.3-29.5c-6.6-6.4-13.3-12.7-20.2-18.8c-9.9-8.8-19.8-17.7-30.9-25
		c-0.9-0.6-1.8-1-2.6-1.6c-2.9-0.5-5.2-2.2-7.6-3.6c-6-3.4-11.1-3.1-16.4,1.6c-7.7,6.7-14.9,13.9-22.2,21
		C334.1,622,333.2,623.4,331.6,623.9z"/>
	<path style="fill:#FFFFFF;" d="M419.6,473.7c-3.8,5.4-7.7,10.7-12,15.6c-3.6,4.1-7.5,8-11.5,11.6c-5.4,4.8-11.4,9-18,12.1
		c-3.7,1.7-7.5,3.2-11.5,3.9c-0.3,0-0.5,0.4-0.8,0.6c-1.9-0.2-3.8,0.5-5.7,0.6c-5.1,0.4-10.2-0.3-15.1-1.7c-4.3-1.3-7.6-3.8-10-7.7
		c-3.6-3.1-5-7.2-4.8-11.8c-2.5-11.3-1.3-22.3,1.8-33.3c3.5-12.3,9.1-23.7,15.7-34.6c10-16.3,21.3-31.7,34.7-45.4
		c7.2-7.4,15.1-14.1,24.3-19.1c6-3.2,12.3-5.5,19.1-5.7c8.6-0.3,15.7,3.3,21.2,9.8c4.4,5.2,6.8,11.4,7.6,18.3
		c1.4,11.4-1.4,22.1-5.4,32.6c-2.7,7.1-6.1,13.9-10.1,20.5c-3.5,5.7-6.1,11.9-9.4,17.8C426.4,463,423.1,468.4,419.6,473.7z"/>
	<path style="fill:#F3ACBB;" d="M777.3,616.3c0.1-1.2,0.8-2.1,1.3-3.1c5.1-10.1,10-20.3,15.3-30.4c3.7-7.1,7.4-14.3,11.6-21.2
		c1.2-1.9,2.6-3.7,3.9-5.5c0.5-0.7,1.2-1,2-0.4c0.8,5.5,1.6,11,2.3,16.5c0.7,5.3,1.4,10.6,1.8,15.9c1.8,18.9,1.8,37.9,1.3,56.8
		c-0.2,8.9-0.8,17.9-1.8,26.8c-0.5,5-0.9,9.9-1.5,14.9c-1.3,10.4-3.8,20.5-7.3,30.3c-4.7,13.2-11.2,25.6-19,37.2
		c-0.6,0.9-1.2,1.7-1.3,2.7c-1.6,0.3-2.4-1-3.3-1.9c-2.9-2.9-6-5.4-9.8-7.1c-0.9-0.4-2.4-0.7-1.6-2.3c5.8-7.7,8.8-16.6,11.7-25.6
		c4.2-13,7.2-26.3,8.1-39.9c1.5-21.1-1.3-41.5-12.5-60C777.9,618.8,777,617.8,777.3,616.3z"/>
	<path style="fill:#FFFFFF;" d="M771.1,746c5.9,2.3,10.5,6.4,14.8,10.8c5.7,6.1,4.9,13,2.2,20.1c-2.1,5.2-5.2,9.9-8.8,14.2
		c-8,9.5-17.2,17.4-29,22.1c-9.7,3.9-19.5,4.9-29.7,2.6c-6.7-2.5-10.6-7.1-11.1-14.5c-1.2-1.3-0.6-2.8-0.3-4.2
		c2.7-12.7,8.8-23.8,17.4-33.5c5-5.6,10.4-10.8,16.8-14.8c6.8-4.2,14.1-6.3,22.1-5C767.6,744.2,769.7,744.2,771.1,746z"/>
	<path style="fill:#F7D0D8;" d="M330.1,496.7c1.3,4.1,2.4,8.2,4.8,11.8c-2.2-0.7-4.1-1.8-6.1-3c-1.6-0.9-2.6-2.1-3.2-3.7
		C326.1,499.2,328,497.9,330.1,496.7z"/>
	<path style="fill:#F08FA2;" d="M755.4,599.9c-1.8,2.5-4.1,4.5-6.4,6.6c-3.7,3.3-8.1,3.6-12.8,2.7c-7.2-1.5-13.9-4.2-20.5-7.2
		c-9.5-4.4-18.7-9.2-27.9-14.3c-0.3-0.2-0.5-0.4-0.8-0.7c0.5-0.6,1.1-0.7,1.8-0.7c4.4,0,8.9-0.3,13.3,0.1c14.8,1,29.4,3.4,43.4,8.9
		C749,596.5,752.5,597.7,755.4,599.9z"/>
	<path style="fill:#F08FA2;" d="M771.1,746c-11.3-3.8-21.5-1.1-30.6,5.9c-13.8,10.6-24.1,23.8-29.2,40.7c-0.8,2.8-1.6,5.7-1.7,8.6
		c-1.5,1.4-3.3,2.4-5.1,3.3c-6,3.2-12.1,6.3-18.3,9.1c-9.5,4.3-19.1,8.3-28.9,12c-8.5,3.2-17.1,6.1-25.8,8.6
		c-11.7,3.4-23.4,6.8-35.5,8.8c-7.4,1.2-14.7,2-22.2,2.7c-10.7,1-21.3,0.5-32,0.4c-6.1,0-12.1-1.1-18.1-2.1
		c-8.7-1.5-17.2-3.9-25.4-7.4c-8.4-3.5-16-8.3-22.8-14.6c-8.1-7.4-13.7-16.4-17.3-26.5c-2.1-5.9-2.9-12-2-18.3
		c0.8-5.3,1.7-10.5,2.8-15.7c1.6-7.6,4-14.9,6.8-22c5.4-13.8,12.3-26.8,20.8-38.9c0.7-1,1-2.4,2.6-2.5c1.5,0.9,2.9,1.7,4.4,2.6
		c2,1.3,3.9,0.9,5.6-0.6c2.2-2.1,4.5-4.2,6.5-6.5c5.9-6.8,11.7-13.5,17.4-20.4c5.1-6.3,10.5-12.5,15.7-18.7
		c5.2-6.1,10.5-12.2,15.7-18.3c1.1-1.3,2.2-2.6,3.7-3.5c0.3-0.2,0.5-0.4,0.7-0.7l0,0c7.2-5.7,15.2-9.8,23.2-14.1
		c20.3-10.9,41.2-20,63.6-25.7c1.5-0.4,3.1-0.8,4.7-0.5c4.1,1.2,7.5,3.7,11.2,5.7c20.8,11.6,41,24.2,61.5,36.3
		c7.8,4.6,15.6,9.3,24,12.8c1.8,0.8,3.6,1.5,5.4,2c3.4,1,5,0.5,7.1-2.2c4.1-5.3,7.3-11.2,10.5-17.1c2.4-4.4,4.5-8.9,7.2-13.1
		c6.6,9.5,10.7,19.9,12.9,31.2c1.2,5.9,2.1,11.8,2.1,17.8c0,6.9,0.2,13.8-0.7,20.7c-1.3,9.2-3,18.3-5.6,27.2
		c-2.8,9.8-6,19.5-11,28.5C774.1,743.3,773.6,745.6,771.1,746z"/>
	<path style="fill:#F08FA2;" d="M331.6,623.9c0.4-1,1.2-1.6,2-2.3c6.8-6.8,13.5-13.8,20.8-20.1c2.4-2.1,4.9-4,7.7-5.6
		c1.4-0.8,2.7-1.2,4.5-0.8c5.6,1.1,10.4,3.8,14.9,7c-5.6,9.7-11.7,19-19,27.7c-4.1,4.8-8.6,8.9-13.8,12.4c-2.8,1.9-5.9,2.8-9.1,3.5
		c-2.3,0.5-3.9-0.3-5.1-2.4c-1.1-2-1.7-4.2-2.2-6.4C331.4,632.5,331.6,628.2,331.6,623.9z"/>
	<path style="fill:#F3ACBB;" d="M650.3,591.7c-3.8,1.1-7.6,2.2-11.4,3.3c-11.6,3.2-22.7,7.6-33.7,12.4c-7.5,3.3-14.7,7-22,10.8
		c-7.7,4-15.2,8.6-22.6,13.1c-0.6,0.4-1.1,0.8-1.8,0.7c1.1-1.9,2.5-3.5,4.1-5c7.3-7.3,14.5-14.8,22-21.9
		c8.2-7.7,16.9-14.8,27.1-19.8c4.2-2,8.6-3.6,13.4-3.2c1.5,0.1,2.9,0.3,4.3,0.7C637,585.1,643.9,587.8,650.3,591.7z"/>
	<path style="fill:#F3ACBB;" d="M558.9,632c-0.2,0.2-0.5,0.5-0.7,0.7C558.4,632.5,558.6,632.2,558.9,632z"/>
</g>
</svg>
