<?xml version="1.0" encoding="utf-8"?>
<!-- Generator: Adobe Illustrator 23.1.0, SVG Export Plug-In . SVG Version: 6.00 Build 0)  -->
<svg version="1.1" id="Layer_1" xmlns="http://www.w3.org/2000/svg" xmlns:xlink="http://www.w3.org/1999/xlink" x="0px" y="0px"
	 viewBox="0 0 1080 1080" style="enable-background:new 0 0 1080 1080;" xml:space="preserve">
<g id="Layer_x0020_1">
	<g id="_1421344023328">
		<path style="fill:#FDEBF4;" d="M1064.7,671.1c-72.1,289.3-365.2,465.3-654.5,393.2C120.9,992.2-55.1,699.2,17,409.9
			C89.1,120.6,382.1-55.5,671.4,16.6C960.8,88.8,1136.8,381.8,1064.7,671.1L1064.7,671.1L1064.7,671.1z"/>
		<path style="display:none;fill:#FDEBF4;" d="M779,463.5c10.7-71.9-44-110.5-118.8-136.3l24.3-97.3l-59.3-14.8L601.6,310
			c-15.6-3.9-31.6-7.5-47.5-11.2l23.8-95.4l-59.2-14.8l-24.3,97.3c-12.9-2.9-25.6-5.8-37.8-8.9l0.1-0.3l-81.7-20.4l-15.8,63.3
			c0,0,44,10.1,43,10.7c24,6,28.3,21.9,27.6,34.5l-27.6,110.9c1.7,0.4,3.8,1,6.2,2c-2-0.5-4.1-1-6.3-1.5l-38.8,155.4
			c-2.9,7.3-10.4,18.2-27.2,14.1c0.6,0.9-43.1-10.7-43.1-10.7l-29.4,67.8l77.1,19.2c14.3,3.6,28.4,7.4,42.3,10.9l-24.5,98.5
			l59.2,14.8l24.3-97.4c16.2,4.4,31.9,8.4,47.2,12.3l-24.2,97l59.3,14.8l24.5-98.3c101.1,19.1,177,11.4,209-80
			c25.8-73.6-1.3-116-54.4-143.7C742.1,541.6,771.2,516.2,779,463.5L779,463.5L779,463.5z M643.6,653.4
			c-18.3,73.6-142.2,33.8-182.4,23.8l32.5-130.4C533.9,556.8,662.7,576.7,643.6,653.4L643.6,653.4z M661.9,462.5
			c-16.7,66.9-119.8,32.9-153.3,24.6l29.5-118.3C571.6,377.1,679.3,392.7,661.9,462.5L661.9,462.5z"/>
	</g>
</g>
<g id="Layer_x0020_1_1_" style="display:none;">
	<g id="_1421394342400" style="display:inline;">
		<g>
			<polygon style="fill:#343434;" points="539.9,0 532.7,24.6 532.7,738.7 539.9,746 871.4,550 			"/>
			<polygon style="fill:#8C8C8C;" points="539.9,0 208.5,550 539.9,746 539.9,399.3 			"/>
			<polygon style="fill:#3C3C3B;" points="539.9,808.7 535.9,813.7 535.9,1068.1 539.9,1080 871.6,612.9 			"/>
			<polygon style="fill:#8C8C8C;" points="539.9,1080 539.9,808.7 208.5,612.9 			"/>
			<polygon style="fill:#141414;" points="539.9,746 871.4,550 539.9,399.3 			"/>
			<polygon style="fill:#393939;" points="208.5,550 539.9,746 539.9,399.3 			"/>
		</g>
	</g>
</g>
<title>tether-usdt-logo</title>
<path style="display:none;fill-rule:evenodd;clip-rule:evenodd;fill:#FFFFFF;" d="M608.3,591.8L608.3,591.8
	c-3.8,0.3-23.4,1.5-67.1,1.5c-34.8,0-59.4-1-68.1-1.5l0,0c-134.3-5.9-234.6-29.3-234.6-57.3c0-28,100.2-51.3,234.6-57.3v91.3
	c8.8,0.6,33.9,2.1,68.7,2.1c41.7,0,62.6-1.7,66.3-2.1v-91.3c134,6,234,29.4,234,57.3c0,27.9-100,51.3-234,57.2l0,0L608.3,591.8z
	 M608.3,467.8V386h187V261.4H286.1V386h187v81.7c-152,7-266.3,37.1-266.3,73.2s114.3,66.2,266.3,73.2V876h135.2V614
	c151.7-7,265.8-37.1,265.8-73.1S760,474.8,608.3,467.8L608.3,467.8L608.3,467.8z M608.3,467.8L608.3,467.8z"/>
<g style="display:none;">
	<path style="display:inline;fill:#C2A633;" d="M554,356.3h-77.2v152.1h121.4v63.7H476.8v152.1h80.9c20.8,0,170.7,2.3,170.5-177
		C728,368,582.8,356.3,554,356.3z"/>
	<path style="display:inline;fill:#C2A633;" d="M541,0.5c-298.2,0-540,241.7-540,540s241.7,540,540,540s540-241.7,540-540
		S839.3,0.5,541,0.5z M562.2,832.1H366.7v-260h-68.9v-63.7h68.9v-260h167.8c39.7,0,302.7-8.2,302.7,296.7
		C837.2,855.2,562.3,832.1,562.2,832.1L562.2,832.1z"/>
</g>
<g>
	<path style="fill:#FF007A;" d="M472.9,301.5c-7.6-1.1-7.9-1.4-4.3-1.8c6.9-1.1,22.7,0.4,33.9,2.9c26,6.1,49.4,22,74.3,49.8l6.5,7.6
		l9.4-1.4c40.1-6.5,81.2-1.4,115.5,14.4c9.4,4.3,24.2,13,26,15.2c0.7,0.7,1.8,5.4,2.5,10.1c2.5,17,1.4,29.6-4,39.3
		c-2.9,5.4-2.9,6.9-1.1,11.5c1.4,3.6,5.8,6.1,9.7,6.1c8.7,0,17.7-13.7,22-32.8l1.8-7.6l3.2,3.6c18.4,20.6,32.8,49.1,35,69.3l0.7,5.4
		l-3.2-4.7c-5.4-8.3-10.5-13.7-17.3-18.4c-12.3-8.3-25.3-10.8-59.5-12.6c-31-1.8-48.7-4.3-66-10.1c-29.6-9.7-44.7-22.4-79.7-68.9
		c-15.5-20.6-25.3-31.8-35-41.1C522,316.6,500.7,305.8,472.9,301.5z"/>
	<path style="fill:#FF007A;" d="M741.8,347.3c0.7-13.7,2.5-22.7,6.5-31c1.4-3.2,2.9-6.1,3.2-6.1c0.4,0-0.4,2.5-1.4,5.4
		c-2.9,7.9-3.2,19.1-1.4,31.8c2.5,16.2,3.6,18.4,20.9,36.1c7.9,8.3,17.3,18.8,20.9,23.1l6.1,7.9l-6.1-5.8
		c-7.6-7.2-24.9-20.9-28.9-22.7c-2.5-1.4-2.9-1.4-4.7,0.4c-1.4,1.4-1.8,3.6-1.8,14.1c-0.4,16.2-2.5,26.3-7.9,36.8
		c-2.9,5.4-3.2,4.3-0.7-1.8c1.8-4.7,2.2-6.9,2.2-22.4c0-31.4-3.6-39-25.6-51.6c-5.4-3.2-14.8-7.9-20.2-10.5
		c-5.8-2.5-10.1-4.7-9.7-4.7c0.7-0.7,22,5.4,30.3,9c12.6,5.1,14.8,5.4,16.2,5.1C740.7,359.2,741.4,356.3,741.8,347.3z"/>
	<path style="fill:#FF007A;" d="M487.7,401c-15.2-20.9-24.9-53.4-22.7-77.6l0.7-7.6l3.6,0.7c6.5,1.1,17.7,5.4,23.1,8.7
		c14.4,8.7,20.9,20.6,27.1,50.2c1.8,8.7,4.3,18.8,5.4,22c1.8,5.4,8.7,18,14.4,26c4,5.8,1.4,8.7-7.6,7.9
		C518,429.9,499.6,417.3,487.7,401z"/>
	<path style="fill:#FF007A;" d="M723.4,558c-71.4-28.9-96.7-53.8-96.7-96c0-6.1,0.4-11.2,0.4-11.2c0.4,0,2.9,2.2,6.1,4.7
		c14.4,11.5,30.7,16.6,75.8,23.1c26.3,4,41.5,6.9,55.2,11.5c43.7,14.4,70.7,44,77.2,84.1c1.8,11.5,0.7,33.6-2.2,45.1
		c-2.5,9-9.7,25.6-11.5,26c-0.4,0-1.1-1.8-1.1-4.7c-0.7-15.2-8.3-29.6-20.9-40.8C790.5,586.9,771,577.1,723.4,558z"/>
	<path style="fill:#FF007A;" d="M672.8,569.9c-0.7-5.4-2.5-12.3-3.6-15.2l-1.8-5.4l3.2,4c4.7,5.4,8.3,11.9,11.5,20.9
		c2.5,6.9,2.5,9,2.5,20.2c0,10.8-0.4,13.4-2.5,19.5c-3.6,9.7-7.9,16.6-15.2,24.2c-13,13.4-30,20.6-54.1,23.8
		c-4.3,0.4-16.6,1.4-27.4,2.2c-27.1,1.4-45.1,4.3-61.3,10.1c-2.2,0.7-4.3,1.4-4.7,1.1c-0.7-0.7,10.5-7.2,19.5-11.5
		c12.6-6.1,25.6-9.4,54.1-14.4c14.1-2.2,28.5-5.1,32.1-6.5C660.9,631.6,678.6,603.8,672.8,569.9z"/>
	<path style="fill:#FF007A;" d="M705.7,628c-9.4-20.6-11.5-40.1-6.5-58.5c0.7-1.8,1.4-3.6,2.2-3.6c0.7,0,2.9,1.1,5.1,2.5
		c4.3,2.9,13.4,7.9,36.4,20.6c29.2,15.9,45.8,28.1,57.4,42.2c10.1,12.3,16.2,26.3,19.1,43.7c1.8,9.7,0.7,33.2-1.8,42.9
		c-7.9,30.7-26,55.2-52.3,69.3c-4,2.2-7.2,3.6-7.6,3.6c-0.4,0,1.1-3.6,3.2-7.9c8.7-18.4,9.7-36.1,3.2-55.9
		c-4-12.3-12.3-27.1-28.9-52C715.4,646.1,710.7,638.5,705.7,628z"/>
	<path style="fill:#FF007A;" d="M436.9,738.4c26.7-22.4,59.5-38.2,89.9-43.3c13-2.2,34.6-1.4,46.5,1.8c19.1,5.1,36.4,15.9,45.5,29.2
		c8.7,13,12.6,24.2,16.6,49.1c1.4,9.7,3.2,19.8,3.6,22c2.9,13,8.7,23.1,15.9,28.5c11.2,8.3,30.7,8.7,49.8,1.4
		c3.2-1.1,6.1-2.2,6.1-1.8c0.7,0.7-9,7.2-15.5,10.5c-9,4.7-16.2,6.1-26,6.1c-17.3,0-32.1-9-44-27.1c-2.5-3.6-7.6-14.1-11.9-23.8
		c-12.6-29.2-19.1-37.9-33.9-47.6c-13-8.3-29.6-10.1-42.2-4c-16.6,7.9-20.9,29.2-9.4,42.2c4.7,5.4,13.4,9.7,20.6,10.8
		c13.4,1.8,24.9-8.7,24.9-22c0-8.7-3.2-13.7-11.9-17.7c-11.5-5.1-24.2,0.7-23.8,11.9c0,4.7,2.2,7.6,6.9,9.7c2.9,1.4,2.9,1.4,0.7,1.1
		c-10.5-2.2-13-15.2-4.7-23.5c10.1-10.1,31.4-5.8,38.6,8.3c2.9,5.8,3.2,17.3,0.7,24.5c-6.1,15.9-23.5,24.2-41.1,19.5
		c-11.9-3.2-17-6.5-31.4-21.3c-25.3-26-35-31-71.1-36.4l-6.9-1.1L436.9,738.4z"/>
	<path style="fill-rule:evenodd;clip-rule:evenodd;fill:#FF007A;" d="M247,157.8C331.1,260,460.7,418.7,467.2,427.4
		c5.4,7.2,3.2,14.1-5.8,19.1c-5.1,2.9-15.5,5.8-20.6,5.8c-5.8,0-12.6-2.9-17.3-7.6c-3.2-3.2-17.3-23.8-49.1-73.3
		c-24.2-37.9-44.7-69.3-45.1-69.6c-1.4-0.7-1.4-0.7,42.6,77.9c27.8,49.4,36.8,67.1,36.8,69.3c0,4.7-1.4,7.2-7.2,13.7
		c-9.7,10.8-14.1,23.1-17.3,48.7c-3.6,28.5-13.4,48.7-41.1,83c-16.2,20.2-18.8,23.8-22.7,32.1c-5.1,10.1-6.5,15.9-7.2,28.9
		c-0.7,13.7,0.7,22.4,4.7,35.4c3.6,11.5,7.6,19.1,17.3,33.9c8.3,13,13.4,22.7,13.4,26.3c0,2.9,0.7,2.9,13.7,0
		c31-7.2,56.7-19.5,70.7-34.6c8.7-9.4,10.8-14.4,10.8-27.4c0-8.3-0.4-10.1-2.5-15.2c-3.6-7.9-10.5-14.4-25.3-24.5
		c-19.5-13.4-27.8-24.2-30-38.6c-1.8-12.3,0.4-20.6,11.2-43.3c11.2-23.5,14.1-33.2,15.9-57c1.1-15.2,2.9-21.3,7.2-26
		c4.7-5.1,8.7-6.9,19.8-8.3c18.4-2.5,30.3-7.2,39.7-16.2c8.3-7.6,11.9-15.2,12.3-26.3l0.4-8.3l-4.7-5.1
		c-17-19.5-251.9-277.8-253-277.8C234.4,142.3,240.2,149.2,247,157.8z M357.8,671c4-6.9,1.8-15.5-4.7-19.8c-6.1-4-15.5-2.2-15.5,3.2
		c0,1.4,0.7,2.9,2.9,3.6c3.2,1.8,3.6,3.6,1.1,7.6s-2.5,7.6,0.7,10.1C347.4,679.6,354.2,677.5,357.8,671z"/>
	<path style="fill-rule:evenodd;clip-rule:evenodd;fill:#FF007A;" d="M504,481.2c-8.7,2.5-17,11.9-19.5,21.3
		c-1.4,5.8-0.7,16.2,1.8,19.5c4,5.1,7.6,6.5,17.7,6.5c19.8,0,36.8-8.7,38.6-19.1c1.8-8.7-5.8-20.6-16.2-26
		C520.9,480.4,509.7,479.4,504,481.2z M527.1,499.2c2.9-4.3,1.8-9-3.6-12.3c-9.7-6.1-24.5-1.1-24.5,8.3c0,4.7,7.6,9.7,14.8,9.7
		C518.4,505,524.9,502.1,527.1,499.2z"/>
</g>
</svg>
