<?xml version="1.0" encoding="utf-8"?>
<!-- Generator: Adobe Illustrator 23.1.0, SVG Export Plug-In . SVG Version: 6.00 Build 0)  -->
<svg version="1.1" id="Layer_1" xmlns="http://www.w3.org/2000/svg" xmlns:xlink="http://www.w3.org/1999/xlink" x="0px" y="0px"
	 viewBox="0 0 1080 1080" style="enable-background:new 0 0 1080 1080;" xml:space="preserve">
<g id="Layer_x0020_1">
	<g id="_1421344023328">
		<path style="fill:#F7931A;" d="M1063.8,670.6c-72.1,289.3-365.2,465.3-654.5,393.2C120.1,991.7-56,698.7,16.2,409.4
			C88.3,120.1,381.3-56,670.6,16.2C959.9,88.3,1136,381.3,1063.8,670.6L1063.8,670.6L1063.8,670.6z"/>
		<path style="fill:#FFFFFF;" d="M778.1,463.1c10.7-71.9-44-110.5-118.8-136.3l24.3-97.3l-59.3-14.8l-23.6,94.8
			c-15.6-3.9-31.6-7.5-47.5-11.2l23.8-95.4l-59.2-14.8l-24.3,97.3c-12.9-2.9-25.6-5.8-37.8-8.9l0.1-0.3L374,255.8l-15.8,63.3
			c0,0,44,10.1,43,10.7c24,6,28.3,21.9,27.6,34.5l-27.6,110.9c1.7,0.4,3.8,1,6.2,2c-2-0.5-4.1-1-6.3-1.5L362.4,631
			c-2.9,7.3-10.4,18.2-27.2,14.1c0.6,0.9-43.1-10.7-43.1-10.7l-29.4,67.8l77.1,19.2c14.3,3.6,28.4,7.4,42.3,10.9l-24.5,98.5
			l59.2,14.8l24.3-97.4c16.2,4.4,31.9,8.4,47.2,12.3l-24.2,97l59.3,14.8l24.5-98.3c101.1,19.1,177,11.4,209-80
			c25.8-73.6-1.3-116-54.4-143.7C741.2,541.1,770.4,515.7,778.1,463.1L778.1,463.1L778.1,463.1z M642.7,652.9
			c-18.3,73.6-142.2,33.8-182.4,23.8l32.5-130.4C533.1,556.3,661.9,576.2,642.7,652.9L642.7,652.9z M661.1,462
			c-16.7,66.9-119.8,32.9-153.3,24.6l29.5-118.3C570.7,376.6,678.5,392.2,661.1,462L661.1,462z"/>
	</g>
</g>
</svg>
