<?xml version="1.0" encoding="utf-8"?>
<!-- Generator: Adobe Illustrator 23.1.0, SVG Export Plug-In . SVG Version: 6.00 Build 0)  -->
<svg version="1.1" id="Layer_1" xmlns="http://www.w3.org/2000/svg" xmlns:xlink="http://www.w3.org/1999/xlink" x="0px" y="0px"
	 viewBox="0 0 1080 1080" style="enable-background:new 0 0 1080 1080;" xml:space="preserve">
<g>
	<g>
		<path style="fill:#DA0000;" d="M1042.5,724.2h-76.2V721h-8.1v3.1h-76.2V721h-8.4v3.1h-76.2V721h-8.4v3.1h-76.2V721h-8.4v3.1h-76.2
			V721h-8.4v3.1h-76.2V721h-8.4v3.1h-76.2V721h-8.4v3.1h-76.2V721h-8.4v3.1H290V721h-8.4v3.1h-76.2V721H197v3.1h-75.2V721h-8.4v3.1
			H37.5V721h-6.2c2.2,5.9,4.4,12.2,6.9,18.1h25v5.9H40.6c1.6,3.7,3.1,7.2,4.7,10.9h27.5v-18.1h5.9v35h10.9v-35h5.9v35h10.9v-35h5.9
			v40.9h-40v-16.9H47.8c1.6,3.7,3.4,7.2,5,10.9h10v5.9h-7.2C143.9,957.3,327.4,1080,540,1080s396.1-122.7,484.4-301.2h-22.8v-16.9
			h-27.8V780h-6.2v-24h40v16.9h19.7c1.9-3.7,3.4-7.2,5-10.9h-15V756h17.8c1.6-3.7,3.1-7.2,4.7-10.9h-73v-5.9h75.5
			c2.5-5.9,4.7-12.2,6.9-18.1h-6.2v3.1H1042.5z M121.7,739.1h109.9v5.9H121.7V739.1z M147.3,778.8h-8.4v-5.9h8.4V778.8z
			 M196.6,778.8h-40v-16.9h-27.8V780H123v-24h40v16.9h27.8v-10.9h-18.1V756h24L196.6,778.8L196.6,778.8z M281.2,778.8h-40v-16.9
			h-27.8v10.9h18.1v5.9h-24V756h33.7v-18.1h5.9v35h10.9v-35h5.9v35H275v-35h5.9v40.9H281.2z M290.9,739.1h109.9v5.9H290.9V739.1z
			 M316.2,778.8h-8.4v-5.9h8.4V778.8z M365.5,778.8h-40v-16.9h-27.8V780h-5.9v-24h40v16.9h27.8v-10.9h-18.1V756h24L365.5,778.8
			L365.5,778.8z M450.1,778.8h-40v-16.9h-27.8v10.9h18.1v5.9h-24V756h33.7v-18.1h5.9v35H427v-35h5.9v35h10.9v-35h5.9v40.9H450.1z
			 M485.1,778.8h-8.4v-5.9h8.4V778.8z M534.7,778.8h-40v-16.9H467V780H461v-24h40v16.9h27.8v-10.9h-18.1V756h24L534.7,778.8
			L534.7,778.8z M459.8,745.1v-5.9h109.9v5.9H459.8z M619,778.8h-40v-16.9h-27.8v10.9h18.1v5.9h-24V756H579v-18.1h5.9v35h10.9v-35
			h5.9v35h10.9v-35h5.9v40.9H619z M628.6,739.1h109.9v5.9H628.6V739.1z M653.9,778.8h-8.4v-5.9h8.4V778.8z M703.6,778.8h-40v-16.9
			h-27.8V780h-5.9v-24h40v16.9h27.8v-10.9h-18.1V756h24L703.6,778.8L703.6,778.8z M787.8,778.8h-40v-16.9h-27.8v10.9h18.1v5.9h-24
			V756h33.7v-18.1h5.9v35h10.9v-35h5.9v35h10.9v-35h5.9v40.9H787.8z M797.5,739.1h109.9v5.9H797.5V739.1z M823.1,778.8h-8.4v-5.9
			h8.4V778.8z M872.4,778.8h-40v-16.9h-27.8V780h-5.9v-24h40v16.9h27.8v-10.9h-18.1V756h24L872.4,778.8L872.4,778.8z M957,778.8h-40
			v-16.9h-27.8v10.9h18.1v5.9h-24V756h33.7v-18.1h5.9v35h10.9v-35h5.9v35h10.9v-35h5.9v40.9H957z M983.5,772.9h8.4v5.9h-8.4V772.9z"
			/>
		<path style="fill:#FFFFFF;" d="M1042.5,362.1h-76.2V359h-8.1v3.1h-76.2V359h-8.4v3.1h-76.2V359h-8.4v3.1h-76.2V359h-8.4v3.1h-76.2
			V359h-8.4v3.1h-76.2V359h-8.4v3.1h-76.2V359h-8.4v3.1h-76.2V359h-8.4v3.1H290V359h-8.4v3.1h-76.2V359H197v3.1h-75.2V359h-8.4v3.1
			H37.5V359h-6.2C11.2,415.5,0,476.3,0,540s10.9,124.5,31.2,181h6.2v-3.1h76.2v3.1h8.4v-3.1h76.2v3.1h8.4v-3.1h76.2v3.1h8.4v-3.1
			h76.2v3.1h8.4v-3.1H452v3.1h8.4v-3.1h76.2v3.1h8.4v-3.1h76.2v3.1h8.4v-3.1h76.2v3.1h8.4v-3.1h76.2v3.1h8.4v-3.1h76.2v3.1h8.4v-3.1
			h74.9v3.1h8.4v-3.1h75.8v3.1h6.2c20-56.5,31.2-117.4,31.2-181s-10.9-124.5-31.2-181h-6.2V362.1z M505.7,408.6
			c1.9,10,11.5,16.5,21.5,14.7c5.3-0.9,10-4.4,12.5-9.1c2.8,4.7,7.2,7.8,12.5,9.1c10,1.9,19.7-4.7,21.5-14.7
			c3.4,8.4,0.6,18.1-6.9,23.4c-8.7,6.2-21.2,4.1-27.2-4.7c-6.2,8.7-18.4,10.9-27.2,4.7C505.4,426.7,502.5,417,505.7,408.6z
			 M418.3,488.2c14-24.3,37.5-41.8,64.6-48.7c-59.9,44.9-72.1,130.2-26.8,190.1c0,0,0,0.3,0.3,0.3
			C406.4,601.2,389.5,537.8,418.3,488.2z M561.2,645.5c16.9,6.2,35,9.1,53.1,8.1c-21.2,6.9-43.1,7.8-63.7,3.4l-0.3,4.4l-10.6,14.7
			l-10.6-14.7l-0.3-4.4c-20.6,4.4-42.5,3.4-63.7-3.4c18.1,0.9,36.2-1.9,53.1-8.1c-27.8-14.4-49.9-39.3-60.2-71.5
			c-15.3-47.4-0.9-99.6,37.1-132c-41.2,60.9-26.2,143,32.8,185.7l-4.1-101.4v-79.9c6.2-3.1,11.9-7.8,15.9-13.4
			c4.1,5.6,9.7,10.3,15.9,13.4v79.9l-4.1,101.4c59-42.8,73.7-124.9,32.8-185.7c37.8,32.5,52.4,84.6,37.1,132
			C611.2,606.2,589,630.8,561.2,645.5z M624,629.9C624,629.6,624,629.6,624,629.9c45.3-60.2,33.1-145.5-26.8-190.4
			c27.2,6.9,50.6,24.3,64.6,48.7C690.5,537.8,673.6,601.2,624,629.9z"/>
		<path style="fill:#239F40;" d="M540,0C327.4,0,143.9,122.7,55.6,301.2h7.2v5.9h-10c-1.9,3.7-3.4,7.2-5,10.9h24.7V300h5.9v35h10.9
			v-35h5.9v35h10.9v-35h5.9v40.9h-40V324H44.6c0,0.3-0.3,0.6-0.3,0.6v10h18.1v5.9h-24v-1.9c-2.5,6.6-5,13.1-7.5,20h6.2v-3.1h76.2
			v3.1h8.4v-3.1h76.2v3.1h8.4v-3.1h76.2v3.1h8.4v-3.1h76.2v3.1h8.4v-3.1h76.2v3.1h8.4v-3.1h76.2v3.1h8.4v-3.1h76.2v3.1h8.4v-3.1
			h76.2v3.1h8.4v-3.1H790v3.1h8.4v-3.1h76.2v3.1h8.4v-3.1h75.2v3.1h8.4v-3.1h75.8v3.1h6.2c-2.5-6.6-5-13.4-7.5-20v1.9h-40v-16.9
			h-27.5v18.1h-6.2v-24h40v16.9h27.8v-10c0-0.3-0.3-0.6-0.3-0.6h-17.8v-5.9h15c-1.6-3.7-3.4-7.2-5-10.9h-60.9v-5.9h57.7
			C936.1,122.7,752.6,0,540,0z M147.3,340.9h-8.4v-5.9h8.4V340.9z M196.6,340.9h-40V324h-27.8v18.1H123v-24h40v16.9h27.8V324h-18.1
			v-5.9h24L196.6,340.9L196.6,340.9z M121.7,307.1v-5.9h109.9v5.9H121.7z M281.2,340.9h-40V324h-27.8v10.9h18.1v5.9h-24v-22.8h33.7
			V300h5.9v35h10.9v-35h5.9v35H275v-35h5.9v40.9H281.2z M316.2,340.9h-8.4v-5.9h8.4V340.9z M365.5,340.9h-40V324h-27.8v18.1h-5.9
			v-24h40v16.9h27.8V324h-18.1v-5.9h24L365.5,340.9L365.5,340.9z M290.9,307.1v-5.9h109.9v5.9H290.9z M450.1,340.9h-40V324h-27.8
			v10.9h18.1v5.9h-24v-22.8h33.7V300h5.9v35H427v-35h5.9v35h10.9v-35h5.9v40.9H450.1z M485.1,340.9h-8.4v-5.9h8.4V340.9z
			 M534.7,340.9h-40V324H467v18.1H461v-24h40v16.9h27.8V324h-18.1v-5.9h24L534.7,340.9L534.7,340.9z M459.8,307.1v-5.9h109.9v5.9
			H459.8z M619,340.9h-40V324h-27.8v10.9h18.1v5.9h-24v-22.8H579V300h5.9v35h10.9v-35h5.9v35h10.9v-35h5.9v40.9H619z M653.9,340.9
			h-8.4v-5.9h8.4V340.9z M703.6,340.9h-40V324h-27.8v18.1h-5.9v-24h40v16.9h27.8V324h-18.1v-5.9h24L703.6,340.9L703.6,340.9z
			 M628.6,307.1v-5.9h109.9v5.9H628.6z M787.8,340.9h-40V324h-27.8v10.9h18.1v5.9h-24v-22.8h33.7V300h5.9v35h10.9v-35h5.9v35h10.9
			v-35h5.9v40.9H787.8z M983.5,334.9h8.4v5.9h-8.4V334.9z M823.1,340.9h-8.4v-5.9h8.4V340.9z M872.4,340.9h-40V324h-27.8v18.1h-5.9
			v-24h40v16.9h27.8V324h-18.1v-5.9h24L872.4,340.9L872.4,340.9z M797.5,307.1v-5.9h109.9v5.9H797.5z M933.9,334.9v-35h5.9v35h10.9
			v-35h5.9v40.9h-40V324H889v10.9h18.1v5.9h-23.7v-22.8h33.7V300h5.9v35H933.9z"/>
		<path style="fill:#FFFFFF;" d="M62.7,301.2h-7.2c-0.9,1.9-1.9,4.1-2.8,5.9h10V301.2z"/>
		<path style="fill:#FFFFFF;" d="M62.7,340.9v-5.9H44.6v-10.3c-2.2,4.7-4.1,9.7-5.9,14.4v1.9L62.7,340.9L62.7,340.9z"/>
		<path style="fill:#FFFFFF;" d="M72.4,340.9h40V300h-6.2v35H95.2v-35h-5.9v35H78.3v-35h-5.9v18.1H47.8c-0.9,1.9-1.9,4.1-2.5,5.9
			h27.5v16.9H72.4z"/>
		<polygon style="fill:#FFFFFF;" points="113.3,362.1 113.3,359 113.3,355.8 37.5,355.8 37.5,359 37.5,362.1 		"/>
		<polygon style="fill:#FFFFFF;" points="113.3,724.2 113.3,721 113.3,717.9 37.5,717.9 37.5,721 37.5,724.2 		"/>
		<path style="fill:#FFFFFF;" d="M62.7,739.1h-25c0.9,1.9,1.6,4.1,2.5,5.9h22.5V739.1z"/>
		<path style="fill:#FFFFFF;" d="M62.7,772.9h-10c0.9,1.9,1.9,4.1,2.8,5.9h7.2V772.9z"/>
		<path style="fill:#FFFFFF;" d="M72.4,778.8h40v-40.9h-6.2v35H95.2v-35h-5.9v35H78.3v-35h-5.9V756H44.9c0.9,1.9,1.9,4.1,2.5,5.9
			h24.7v16.9H72.4z"/>
		<rect x="121.7" y="301.2" style="fill:#FFFFFF;" width="109.9" height="5.9"/>
		<polygon style="fill:#FFFFFF;" points="275,334.9 264.4,334.9 264.4,300 258.1,300 258.1,334.9 247.5,334.9 247.5,300 241.3,300 
			241.3,318.1 207.6,318.1 207.6,340.9 231.6,340.9 231.6,334.9 213.5,334.9 213.5,324 241.3,324 241.3,340.9 281.2,340.9 
			281.2,300 275,300 		"/>
		<polygon style="fill:#FFFFFF;" points="172.6,324 190.7,324 190.7,334.9 162.9,334.9 162.9,318.1 123,318.1 123,342.1 
			129.2,342.1 129.2,324 157,324 157,340.9 196.6,340.9 196.6,318.1 172.6,318.1 		"/>
		<rect x="138.9" y="334.9" style="fill:#FFFFFF;" width="8.4" height="5.9"/>
		<polygon style="fill:#FFFFFF;" points="197.9,362.1 197.9,359 197.9,355.8 121.7,355.8 121.7,359 121.7,362.1 		"/>
		<polygon style="fill:#FFFFFF;" points="282.5,362.1 282.5,359 282.5,355.8 206.3,355.8 206.3,359 206.3,362.1 		"/>
		<polygon style="fill:#FFFFFF;" points="197.9,724.2 197.9,721 197.9,717.9 121.7,717.9 121.7,721 121.7,724.2 		"/>
		<polygon style="fill:#FFFFFF;" points="282.5,724.2 282.5,721 282.5,717.9 206.3,717.9 206.3,721 206.3,724.2 		"/>
		<rect x="138.9" y="772.9" style="fill:#FFFFFF;" width="8.4" height="5.9"/>
		<polygon style="fill:#FFFFFF;" points="172.6,761.9 190.7,761.9 190.7,772.9 162.9,772.9 162.9,756 123,756 123,780 129.2,780 
			129.2,761.9 157,761.9 157,778.8 196.6,778.8 196.6,756 172.6,756 		"/>
		<polygon style="fill:#FFFFFF;" points="275,772.9 264.4,772.9 264.4,737.9 258.1,737.9 258.1,772.9 247.5,772.9 247.5,737.9 
			241.3,737.9 241.3,756 207.6,756 207.6,778.8 231.6,778.8 231.6,772.9 213.5,772.9 213.5,761.9 241.3,761.9 241.3,778.8 
			281.2,778.8 281.2,737.9 275,737.9 		"/>
		<rect x="121.7" y="739.1" style="fill:#FFFFFF;" width="109.9" height="5.9"/>
		<polygon style="fill:#FFFFFF;" points="341.5,324 359.6,324 359.6,334.9 331.8,334.9 331.8,318.1 292.2,318.1 292.2,342.1 
			298.1,342.1 298.1,324 325.9,324 325.9,340.9 365.5,340.9 365.5,318.1 341.5,318.1 		"/>
		<polygon style="fill:#FFFFFF;" points="444.2,334.9 433.2,334.9 433.2,300 427.3,300 427.3,334.9 416.4,334.9 416.4,300 
			410.2,300 410.2,318.1 376.4,318.1 376.4,340.9 400.5,340.9 400.5,334.9 382.4,334.9 382.4,324 410.2,324 410.2,340.9 
			450.1,340.9 450.1,300 444.2,300 		"/>
		<rect x="307.8" y="334.9" style="fill:#FFFFFF;" width="8.4" height="5.9"/>
		<rect x="290.9" y="301.2" style="fill:#FFFFFF;" width="109.9" height="5.9"/>
		<polygon style="fill:#FFFFFF;" points="451.4,362.1 451.4,359 451.4,355.8 375.2,355.8 375.2,359 375.2,362.1 		"/>
		<polygon style="fill:#FFFFFF;" points="366.8,362.1 366.8,359 366.8,355.8 290.9,355.8 290.9,359 290.9,362.1 		"/>
		<polygon style="fill:#FFFFFF;" points="451.4,724.2 451.4,721 451.4,717.9 375.2,717.9 375.2,721 375.2,724.2 		"/>
		<polygon style="fill:#FFFFFF;" points="366.8,724.2 366.8,721 366.8,717.9 290.9,717.9 290.9,721 290.9,724.2 		"/>
		<rect x="307.8" y="772.9" style="fill:#FFFFFF;" width="8.4" height="5.9"/>
		<rect x="290.9" y="739.1" style="fill:#FFFFFF;" width="109.9" height="5.9"/>
		<polygon style="fill:#FFFFFF;" points="444.2,772.9 433.2,772.9 433.2,737.9 427.3,737.9 427.3,772.9 416.4,772.9 416.4,737.9 
			410.2,737.9 410.2,756 376.4,756 376.4,778.8 400.5,778.8 400.5,772.9 382.4,772.9 382.4,761.9 410.2,761.9 410.2,778.8 
			450.1,778.8 450.1,737.9 444.2,737.9 		"/>
		<polygon style="fill:#FFFFFF;" points="341.5,761.9 359.6,761.9 359.6,772.9 331.8,772.9 331.8,756 292.2,756 292.2,780 
			298.1,780 298.1,761.9 325.9,761.9 325.9,778.8 365.5,778.8 365.5,756 341.5,756 		"/>
		<rect x="459.8" y="301.2" style="fill:#FFFFFF;" width="109.9" height="5.9"/>
		<polygon style="fill:#FFFFFF;" points="510.3,324 528.5,324 528.5,334.9 500.7,334.9 500.7,318.1 461,318.1 461,342.1 467,342.1 
			467,324 494.7,324 494.7,340.9 534.7,340.9 534.7,318.1 510.3,318.1 		"/>
		<polygon style="fill:#FFFFFF;" points="613,334.9 602.1,334.9 602.1,300 596.2,300 596.2,334.9 585.3,334.9 585.3,300 579.3,300 
			579.3,318.1 545.3,318.1 545.3,340.9 569.7,340.9 569.7,334.9 551.5,334.9 551.5,324 579.3,324 579.3,340.9 619,340.9 619,300 
			613,300 		"/>
		<rect x="476.6" y="334.9" style="fill:#FFFFFF;" width="8.4" height="5.9"/>
		<polygon style="fill:#FFFFFF;" points="620.2,362.1 620.2,359 620.2,355.8 544.4,355.8 544.4,359 544.4,362.1 		"/>
		<polygon style="fill:#FFFFFF;" points="535.6,362.1 535.6,359 535.6,355.8 459.8,355.8 459.8,359 459.8,362.1 		"/>
		<polygon style="fill:#FFFFFF;" points="620.2,724.2 620.2,721 620.2,717.9 544.4,717.9 544.4,721 544.4,724.2 		"/>
		<polygon style="fill:#FFFFFF;" points="535.6,724.2 535.6,721 535.6,717.9 459.8,717.9 459.8,721 459.8,724.2 		"/>
		<rect x="476.6" y="772.9" style="fill:#FFFFFF;" width="8.4" height="5.9"/>
		<polygon style="fill:#FFFFFF;" points="510.3,761.9 528.5,761.9 528.5,772.9 500.7,772.9 500.7,756 461,756 461,780 467,780 
			467,761.9 494.7,761.9 494.7,778.8 534.7,778.8 534.7,756 510.3,756 		"/>
		<polygon style="fill:#FFFFFF;" points="613,772.9 602.1,772.9 602.1,737.9 596.2,737.9 596.2,772.9 585.3,772.9 585.3,737.9 
			579.3,737.9 579.3,756 545.3,756 545.3,778.8 569.7,778.8 569.7,772.9 551.5,772.9 551.5,761.9 579.3,761.9 579.3,778.8 
			619,778.8 619,737.9 613,737.9 		"/>
		<rect x="459.8" y="739.1" style="fill:#FFFFFF;" width="109.9" height="5.9"/>
		<rect x="645.5" y="334.9" style="fill:#FFFFFF;" width="8.4" height="5.9"/>
		<polygon style="fill:#FFFFFF;" points="781.9,334.9 771,334.9 771,300 765.1,300 765.1,334.9 754.1,334.9 754.1,300 748.2,300 
			748.2,318.1 714.5,318.1 714.5,340.9 738.5,340.9 738.5,334.9 720.4,334.9 720.4,324 748.2,324 748.2,340.9 787.8,340.9 
			787.8,300 781.9,300 		"/>
		<polygon style="fill:#FFFFFF;" points="679.5,324 697.6,324 697.6,334.9 669.8,334.9 669.8,318.1 629.9,318.1 629.9,342.1 
			635.8,342.1 635.8,324 663.6,324 663.6,340.9 703.6,340.9 703.6,318.1 679.5,318.1 		"/>
		<rect x="628.6" y="301.2" style="fill:#FFFFFF;" width="109.9" height="5.9"/>
		<polygon style="fill:#FFFFFF;" points="789.1,362.1 789.1,359 789.1,355.8 713.2,355.8 713.2,359 713.2,362.1 		"/>
		<polygon style="fill:#FFFFFF;" points="704.8,362.1 704.8,359 704.8,355.8 628.6,355.8 628.6,359 628.6,362.1 		"/>
		<polygon style="fill:#FFFFFF;" points="789.1,724.2 789.1,721 789.1,717.9 713.2,717.9 713.2,721 713.2,724.2 		"/>
		<polygon style="fill:#FFFFFF;" points="704.8,724.2 704.8,721 704.8,717.9 628.6,717.9 628.6,721 628.6,724.2 		"/>
		<polygon style="fill:#FFFFFF;" points="679.5,761.9 697.6,761.9 697.6,772.9 669.8,772.9 669.8,756 629.9,756 629.9,780 
			635.8,780 635.8,761.9 663.6,761.9 663.6,778.8 703.6,778.8 703.6,756 679.5,756 		"/>
		<polygon style="fill:#FFFFFF;" points="781.9,772.9 771,772.9 771,737.9 765.1,737.9 765.1,772.9 754.1,772.9 754.1,737.9 
			748.2,737.9 748.2,756 714.5,756 714.5,778.8 738.5,778.8 738.5,772.9 720.4,772.9 720.4,761.9 748.2,761.9 748.2,778.8 
			787.8,778.8 787.8,737.9 781.9,737.9 		"/>
		<rect x="645.5" y="772.9" style="fill:#FFFFFF;" width="8.4" height="5.9"/>
		<rect x="628.6" y="739.1" style="fill:#FFFFFF;" width="109.9" height="5.9"/>
		<rect x="797.5" y="301.2" style="fill:#FFFFFF;" width="109.9" height="5.9"/>
		<polygon style="fill:#FFFFFF;" points="848.4,324 866.5,324 866.5,334.9 838.7,334.9 838.7,318.1 798.8,318.1 798.8,342.1 
			805,342.1 805,324 832.5,324 832.5,340.9 872.4,340.9 872.4,318.1 848.4,318.1 		"/>
		<polygon style="fill:#FFFFFF;" points="917.1,300 917.1,318.1 883.4,318.1 883.4,340.9 907.4,340.9 907.4,334.9 889.3,334.9 
			889.3,324 917.1,324 917.1,340.9 957,340.9 957,300 950.8,300 950.8,334.9 940.2,334.9 940.2,300 933.9,300 933.9,334.9 
			923,334.9 923,300 		"/>
		<rect x="814.4" y="334.9" style="fill:#FFFFFF;" width="8.4" height="5.9"/>
		<polygon style="fill:#FFFFFF;" points="958.3,362.1 958.3,359 958.3,355.8 882.1,355.8 882.1,359 882.1,362.1 		"/>
		<polygon style="fill:#FFFFFF;" points="873.7,362.1 873.7,359 873.7,355.8 797.5,355.8 797.5,359 797.5,362.1 		"/>
		<polygon style="fill:#FFFFFF;" points="873.7,724.2 873.7,721 873.7,717.9 797.5,717.9 797.5,721 797.5,724.2 		"/>
		<polygon style="fill:#FFFFFF;" points="958.3,724.2 958.3,721 958.3,717.9 882.1,717.9 882.1,721 882.1,724.2 		"/>
		<rect x="814.4" y="772.9" style="fill:#FFFFFF;" width="8.4" height="5.9"/>
		<polygon style="fill:#FFFFFF;" points="950.8,772.9 940.2,772.9 940.2,737.9 933.9,737.9 933.9,772.9 923,772.9 923,737.9 
			917.1,737.9 917.1,756 883.4,756 883.4,778.8 907.4,778.8 907.4,772.9 889.3,772.9 889.3,761.9 917.1,761.9 917.1,778.8 
			957,778.8 957,737.9 950.8,737.9 		"/>
		<rect x="797.5" y="739.1" style="fill:#FFFFFF;" width="109.9" height="5.9"/>
		<polygon style="fill:#FFFFFF;" points="848.4,761.9 866.5,761.9 866.5,772.9 838.7,772.9 838.7,756 798.8,756 798.8,780 805,780 
			805,761.9 832.5,761.9 832.5,778.8 872.4,778.8 872.4,756 848.4,756 		"/>
		<path style="fill:#FFFFFF;" d="M1017.3,324h17.8c-0.9-1.9-1.9-4.1-2.5-5.9h-15v5.9H1017.3z"/>
		<path style="fill:#FFFFFF;" d="M1007.6,334.9v-16.9h-40v24h5.9V324h27.8v16.9h40V339c-1.9-5-4.1-9.7-5.9-14.4v10h-27.8V334.9z"/>
		<path style="fill:#FFFFFF;" d="M966.7,307.1h60.9c-0.9-1.9-1.9-4.1-2.8-5.9H967v5.9H966.7z"/>
		<rect x="983.5" y="334.9" style="fill:#FFFFFF;" width="8.4" height="5.9"/>
		<polygon style="fill:#FFFFFF;" points="1042.5,362.1 1042.5,359 1042.5,355.8 966.7,355.8 966.7,359 966.7,362.1 		"/>
		<polygon style="fill:#FFFFFF;" points="1042.5,724.2 1042.5,721 1042.5,717.9 966.7,717.9 966.7,721 966.7,724.2 		"/>
		<rect x="983.5" y="772.9" style="fill:#FFFFFF;" width="8.4" height="5.9"/>
		<path style="fill:#FFFFFF;" d="M1017.3,761.9h15c0.9-1.9,1.9-4.1,2.5-5.9h-17.8v5.9H1017.3z"/>
		<path style="fill:#FFFFFF;" d="M966.7,745.1h73c0.9-1.9,1.6-4.1,2.5-5.9h-75.5V745.1z"/>
		<path style="fill:#FFFFFF;" d="M1007.6,756h-40v24h5.9v-18.1h27.8v16.9h22.8c0.9-1.9,1.9-4.1,2.8-5.9h-19.7V756H1007.6z"/>
		<path style="fill:#DA0000;" d="M518.8,645.5c-16.9,6.2-35,9.1-53.1,8.1c21.2,6.9,43.1,7.8,63.7,3.4l-0.3-6.9
			C525.6,648.9,522.2,647.1,518.8,645.5z"/>
		<path style="fill:#DA0000;" d="M584.6,442c41.2,60.9,26.2,143-32.8,185.7l-0.6,13.7c3.1,1.6,6.6,2.8,10,4.1
			c27.8-14.4,49.9-39.3,60.2-71.5C637.1,526.6,622.4,474.5,584.6,442z"/>
		<path style="fill:#DA0000;" d="M597.1,439.5c59.9,44.9,72.1,130.2,26.8,190.1c0,0,0,0.3-0.3,0.3c49.6-28.7,66.5-92.1,37.8-141.7
			C647.7,463.8,624.6,446.4,597.1,439.5z"/>
		<path style="fill:#DA0000;" d="M541.9,636.5c3.1,1.6,6.2,3.4,9.4,4.7l0.6-13.7l4.1-101.4V446c-6.2-3.1-11.9-7.8-15.9-13.4
			l6.9,106.8L541.9,636.5z"/>
		<path style="fill:#DA0000;" d="M540,675.8l10.6-14.7l0.3-4.4c-3.1-0.6-6.6-1.6-9.7-2.5L540,675.8z"/>
		<path style="fill:#DA0000;" d="M540,427c6.2,8.7,18.4,10.9,27.2,4.7c7.5-5.3,10.3-15,6.9-23.4c-1.9,10-11.5,16.5-21.5,14.7
			c-5.3-0.9-10-4.4-12.5-9.1l2.8,10L540,427z"/>
		<path style="fill:#DA0000;" d="M528.1,627.7c-59-42.8-73.7-124.9-32.8-185.7c-37.8,32.5-52.4,84.6-37.1,132
			c10.3,32.2,32.8,56.8,60.2,71.5c3.4,1.9,6.9,3.4,10.3,4.7L528.1,627.7z"/>
		<path style="fill:#DA0000;" d="M541.9,636.5l-0.9,17.8c3.1,0.9,6.6,1.9,9.7,2.5c20.6,4.4,42.5,3.4,63.7-3.4
			c-18.1,0.9-36.2-1.9-53.1-8.1c-3.4-1.2-6.6-2.5-10-4.1C548.1,639.9,545,638.3,541.9,636.5z"/>
		<path style="fill:#DA0000;" d="M482.9,439.5c-27.2,6.9-50.6,24.3-64.6,48.7c-28.7,49.6-11.5,113,37.8,141.7c0,0,0-0.3-0.3-0.3
			C410.8,569.7,422.9,484.4,482.9,439.5z"/>
		<path style="fill:#DA0000;" d="M541.9,636.5l4.7-96.5l-6.9-106.8c-4.1,5.6-9.7,10.3-15.9,13.4v79.9l4.1,101.4l0.9,22.5l0.3,6.9
			l0.3,4.4l10.6,14.7l0.9-21.2L541.9,636.5z"/>
		<path style="fill:#DA0000;" d="M512.8,432c8.7,6.2,21.2,4.1,27.2-4.7l2.8-2.5l-2.8-10c-2.8,4.7-7.2,7.8-12.5,9.1
			c-10,1.9-19.7-4.7-21.5-14.7C502.5,417,505.4,426.7,512.8,432z"/>
	</g>
</g>
</svg>
