<?xml version="1.0" encoding="utf-8"?>
<!-- Generator: Adobe Illustrator 23.1.0, SVG Export Plug-In . SVG Version: 6.00 Build 0)  -->
<svg version="1.1" id="Layer_1" xmlns="http://www.w3.org/2000/svg" xmlns:xlink="http://www.w3.org/1999/xlink" x="0px" y="0px"
	 viewBox="0 0 1080 1080" style="enable-background:new 0 0 1080 1080;" xml:space="preserve">
<g style="display:none;">
	<path style="display:inline;fill:#FEFFFF;" d="M693,524.2c-0.3,2.3-2.4,2.4-3.9,3.1c-41.1,20.8-82.3,41.5-123.4,62.2
		c-31.6,15.9-63.2,31.9-94.7,47.8c-18.2,9.2-36.3,18.5-55,28.1c4.4,2.2,8.4,4.2,12.4,6.1c25.1,12.1,50.3,24.1,75.4,36.2
		c49.5,23.8,99,47.7,148.6,71.3c13.5,6.4,26.7,13.5,40.6,19c1.8,1.8,1.6,4.1,1.6,6.3c0,31.9,0,63.7,0,95.6c0,2.2,0.2,4.5-1.5,6.3
		c-10.5-3.8-20.2-9.3-30.2-14c-35.4-16.8-70.6-34-105.9-51c-31.2-15-62.3-29.9-93.5-44.8c-47.8-22.9-95.6-45.9-143.5-68.8
		c-11.5-5.5-23-11-34.5-16.3c-2.8-1.3-3.6-2.9-3.6-5.8c0.1-33.2,0.1-66.4,0-99.7c0-3.4,1.2-5,4.1-6.5
		c41.9-20.3,83.6-40.7,125.5-61.1c35.8-17.4,71.6-34.9,107.4-52.3c14.9-7.2,29.8-14.4,45.5-22.1c-7.7-3.8-14.6-7.3-21.5-10.7
		c-23-11-45.9-22-68.9-33c-39.8-19.1-79.5-38.2-119.3-57.3c-23-11-45.9-22.1-69-33c-2.6-1.2-3.8-2.6-3.8-5.7
		c0.1-33.4,0.1-66.8,0.1-100.1c0-1.3-0.7-2.9,0.9-3.9c4.1,0.5,7.6,2.4,11.1,4.2c22.9,11.4,46,22.3,69,33.4
		c36.3,17.6,72.8,35.1,109.2,52.7c24.6,11.9,49.2,23.7,73.8,35.5c33.8,16.3,67.7,32.5,101.5,48.8c13.8,6.7,27.6,13.4,41.5,19.9
		c2.1,1,4.6,1.8,5.3,4.5c0.5,2.2,0.4,4.5,0.4,6.7c0,30,0,60,0,90C694.5,518.7,694.9,521.6,693,524.2z"/>
	<path style="display:inline;fill:#BFEAE9;" d="M692.9,417.6c-6.9-3.2-13.9-6.3-20.8-9.6c-31-15-61.9-30-92.9-44.9
		c-24.8-12-49.7-23.8-74.5-35.8c-34.4-16.6-68.8-33.2-103.2-49.8c-18.2-8.8-36.3-17.6-54.5-26.3c-19.9-9.5-39.8-18.9-59.7-28.4
		c-1.6-0.7-3-1.7-4.5-2.6c10.8-4.8,21.5-9.8,32.3-14.5c16-7,32.1-13.8,48.1-20.7c7.9-3.4,15.9-6.9,23.8-10.4
		c3.3-1.5,5.9,0.4,8.4,1.6c12.7,6,25.3,12.3,37.9,18.4c25,12.1,50,24,75.1,36.1c15.2,7.3,30.4,14.6,45.6,21.9
		c24,11.5,48.1,23,72.1,34.6c15.5,7.4,31,14.8,46.5,22.3c23.9,11.5,47.8,22.9,71.7,34.4c15.5,7.4,31,14.8,46.5,22.4
		c2.9,1.4,6.4,1.6,8.6,4.4c-0.7,1.9-2.5,2.3-4.1,3c-27.9,12.6-55.9,24.8-83.8,37.3c-4.5,2-8.9,4.3-13.5,6.1
		C696.2,417.6,694.7,418.8,692.9,417.6z"/>
	<path style="display:inline;fill:#DFF4F4;" d="M693,906.2c0-36.1-0.1-72.1-0.1-108.2c0-71.9,0.1-143.8-0.1-215.6
		c0-4.5,1.3-6.7,5.4-8.4c32.8-14.3,65.4-28.9,98.1-43.3c0.8-0.4,1.8-0.5,3.1-0.9c0,2.2,0,4.1,0,5.9c0,105.9,0,211.8,0.1,317.7
		c0,4.4-1,6.5-5.4,8.4c-33.2,14.4-66.3,29.2-99.4,43.9C694.2,906,693.6,906.1,693,906.2z"/>
	<path style="display:inline;fill:#DFF4F4;" d="M692.9,417.6c10.2-4.5,20.4-8.9,30.5-13.4c22-9.7,43.9-19.4,65.8-29.1
		c3.3-1.5,6.7-3,10-4.5c0.1,8.8,0.3,17.5,0.3,26.3c0,25.4,0,50.7,0,76.1c0,2.4,0,4.3-2.9,5.6c-34,15-67.8,30.1-101.8,45.2
		c-0.6,0.3-1.2,0.3-1.9,0.4C693,488.6,692.9,453.1,692.9,417.6z"/>
</g>
<g>
	<path style="fill:#00C6FD;" d="M1078,538.7c0.2,296.4-240.2,536.5-536.7,537.4c-291,1-535.9-233.5-538.4-533
		C0.6,241.9,243.9,1.8,537.7,1.4C837.3,0.9,1077.8,240.5,1078,538.7z"/>
	<ellipse style="fill:#F3E7E6;" cx="541.4" cy="1078.3" rx="28.3" ry="0.6"/>
	<path style="fill:#FEFEFE;" d="M374.7,787c-20.1-42.1-15-85.2-6.7-129c11.7-61.4,22-123.1,33-184.7c1-5.7,0-7.9-6.4-7.8
		c-22.9,0.3-45.7-0.1-68.6,0.3c-7,0.1-9.3-1.3-7.9-8.8c5-25.9,9.5-51.9,13.8-77.9c1.1-6.6,3.9-10,10.1-12.8
		c61.3-27.1,116-63.3,158-116.7c8.1-10.3,15.6-21,22-32.3c2.5-4.3,5.4-5.5,10-5.4c16.6,0.2,33.3,0.4,49.9-0.1c7-0.2,7.6,2.3,6.5,8.2
		c-7.4,41.4-14.4,82.9-22.1,124.3c-1.3,6.9,0.6,7.8,6.8,7.8c60.3-0.2,120.5,0,180.8-0.3c8.1,0,9.9,1.6,8.3,9.8
		c-6.1,31.7-11.6,63.6-16.9,95.5c-1.1,6.7-3.3,8.7-10.1,8.6c-59.7-0.3-119.3,0-179-0.3c-8,0-11.6,1.3-13.2,10.4
		c-12.8,75.4-26.5,150.6-39.6,226c-4.2,23.9,11.9,42.7,36.6,42.8c45.4,0.3,90.8,0.4,136.2,0c8.4-0.1,9.8,2,8,9.9
		c-7.8,34.7-15.1,69.5-22.2,104.4c-1.1,5.3-3.2,6.5-8.2,6.5c-51.1-0.2-102.1,0.1-153.2-0.2c-22.9-0.1-44.4-6.7-65.1-16.1
		c-5.7-1.4-11.9-2.1-14.6-8.7l0,0c-10.8-3.7-18.2-11.4-24.5-20.5c-0.5-3.4-0.5-7-5.3-7.1C382.3,806.4,378.5,796.7,374.7,787z"/>
	<path style="fill:#07C6FA;" d="M397.8,819.3c6.4,8.6,15.4,14.2,23.3,21.1c-4-1.6-11.8,7.3-12.2-4.4c-10.1,3.2-6.9-8.6-13-11.5
		c-8.3-4-13.7-12.6-16.1-22.4c-0.7-2.9-2.5-6.2-6.1-8.3c-2.7-1.6-3.7-5.2,1-6.8c5.7,8.6,9.8,18.3,17.5,25.6
		C395.6,813.6,396.9,816.3,397.8,819.3z"/>
	<path style="fill:#07C6FA;" d="M421.1,840.4c4.9,2.9,9.8,5.8,14.6,8.7C424.9,850.5,421,848.2,421.1,840.4z"/>
	<path style="fill:#EEFAF9;" d="M397.8,819.3c-2.4-1.8-4.4-3.9-5.5-6.7c0.8-1.5,2.1-4.1,3.3-2.9
		C397.9,812.1,400.6,815.3,397.8,819.3z"/>
	<circle style="fill:none;stroke:#FFFFFF;stroke-width:10;stroke-miterlimit:10;" cx="541.5" cy="538.5" r="485.5"/>
</g>
</svg>
