<?xml version="1.0" encoding="utf-8"?>
<!-- Generator: Adobe Illustrator 23.1.0, SVG Export Plug-In . SVG Version: 6.00 Build 0)  -->
<svg version="1.1" id="Layer_1" xmlns="http://www.w3.org/2000/svg" xmlns:xlink="http://www.w3.org/1999/xlink" x="0px" y="0px"
	 viewBox="0 0 1080 1080" style="enable-background:new 0 0 1080 1080;" xml:space="preserve">
<circle style="fill:#F6B94C;" cx="540" cy="540" r="540"/>
<g style="display:none;">
	<path style="display:inline;fill:#FEFFFF;" d="M693,524.2c-0.3,2.3-2.4,2.4-3.9,3.1c-41.1,20.8-82.3,41.5-123.4,62.2
		c-31.6,15.9-63.2,31.9-94.7,47.8c-18.2,9.2-36.3,18.5-55,28.1c4.4,2.2,8.4,4.2,12.4,6.1c25.1,12.1,50.3,24.1,75.4,36.2
		c49.5,23.8,99,47.7,148.6,71.3c13.5,6.4,26.7,13.5,40.6,19c1.8,1.8,1.6,4.1,1.6,6.3c0,31.9,0,63.7,0,95.6c0,2.2,0.2,4.5-1.5,6.3
		c-10.5-3.8-20.2-9.3-30.2-14c-35.4-16.8-70.6-34-105.9-51c-31.2-15-62.3-29.9-93.5-44.8c-47.8-22.9-95.6-45.9-143.5-68.8
		c-11.5-5.5-23-11-34.5-16.3c-2.8-1.3-3.6-2.9-3.6-5.8c0.1-33.2,0.1-66.4,0-99.7c0-3.4,1.2-5,4.1-6.5
		c41.9-20.3,83.6-40.7,125.5-61.1c35.8-17.4,71.6-34.9,107.4-52.3c14.9-7.2,29.8-14.4,45.5-22.1c-7.7-3.8-14.6-7.3-21.5-10.7
		c-23-11-45.9-22-68.9-33c-39.8-19.1-79.5-38.2-119.3-57.3c-23-11-45.9-22.1-69-33c-2.6-1.2-3.8-2.6-3.8-5.7
		c0.1-33.4,0.1-66.8,0.1-100.1c0-1.3-0.7-2.9,0.9-3.9c4.1,0.5,7.6,2.4,11.1,4.2c22.9,11.4,46,22.3,69,33.4
		c36.3,17.6,72.8,35.1,109.2,52.7c24.6,11.9,49.2,23.7,73.8,35.5c33.8,16.3,67.7,32.5,101.5,48.8c13.8,6.7,27.6,13.4,41.5,19.9
		c2.1,1,4.6,1.8,5.3,4.5c0.5,2.2,0.4,4.5,0.4,6.7c0,30,0,60,0,90C694.5,518.7,694.9,521.6,693,524.2z"/>
	<path style="display:inline;fill:#BFEAE9;" d="M692.9,417.6c-6.9-3.2-13.9-6.3-20.8-9.6c-31-15-61.9-30-92.9-44.9
		c-24.8-12-49.7-23.8-74.5-35.8c-34.4-16.6-68.8-33.2-103.2-49.8c-18.2-8.8-36.3-17.6-54.5-26.3c-19.9-9.5-39.8-18.9-59.7-28.4
		c-1.6-0.7-3-1.7-4.5-2.6c10.8-4.8,21.5-9.8,32.3-14.5c16-7,32.1-13.8,48.1-20.7c7.9-3.4,15.9-6.9,23.8-10.4
		c3.3-1.5,5.9,0.4,8.4,1.6c12.7,6,25.3,12.3,37.9,18.4c25,12.1,50,24,75.1,36.1c15.2,7.3,30.4,14.6,45.6,21.9
		c24,11.5,48.1,23,72.1,34.6c15.5,7.4,31,14.8,46.5,22.3c23.9,11.5,47.8,22.9,71.7,34.4c15.5,7.4,31,14.8,46.5,22.4
		c2.9,1.4,6.4,1.6,8.6,4.4c-0.7,1.9-2.5,2.3-4.1,3c-27.9,12.6-55.9,24.8-83.8,37.3c-4.5,2-8.9,4.3-13.5,6.1
		C696.2,417.6,694.7,418.8,692.9,417.6z"/>
	<path style="display:inline;fill:#DFF4F4;" d="M693,906.2c0-36.1-0.1-72.1-0.1-108.2c0-71.9,0.1-143.8-0.1-215.6
		c0-4.5,1.3-6.7,5.4-8.4c32.8-14.3,65.4-28.9,98.1-43.3c0.8-0.4,1.8-0.5,3.1-0.9c0,2.2,0,4.1,0,5.9c0,105.9,0,211.8,0.1,317.7
		c0,4.4-1,6.5-5.4,8.4c-33.2,14.4-66.3,29.2-99.4,43.9C694.2,906,693.6,906.1,693,906.2z"/>
	<path style="display:inline;fill:#DFF4F4;" d="M692.9,417.6c10.2-4.5,20.4-8.9,30.5-13.4c22-9.7,43.9-19.4,65.8-29.1
		c3.3-1.5,6.7-3,10-4.5c0.1,8.8,0.3,17.5,0.3,26.3c0,25.4,0,50.7,0,76.1c0,2.4,0,4.3-2.9,5.6c-34,15-67.8,30.1-101.8,45.2
		c-0.6,0.3-1.2,0.3-1.9,0.4C693,488.6,692.9,453.1,692.9,417.6z"/>
</g>
<path style="fill:#FFFFFF;" d="M837.6,602.2c-1.8,4.8-3.3,9.6-6.6,13.7c-6.1,7.3-13.6,11.7-23.2,12.1c-2.2,0.1-4.4,0.1-6.6,0.1
	c-47.5,0-95,0-142.5,0c-2,0-4.1-0.7-5.9,0.7c-2.2,2.5-2.8,5.7-3.9,8.6c-6.2,16.2-12.4,32.5-18.5,48.8c-0.5,1.3-0.7,2.6-1.1,3.9
	c-3.8,8.1-6.6,16.7-9.8,25.1c-7.9,20.6-15.6,41.2-23.4,61.8c-0.4,0.9-0.5,2-0.8,2.9c-3.3,6.5-5.4,13.5-8,20.4
	c-8.5,22.1-17,44.1-25.2,66.3c-4.4,12-16.8,21.2-30.8,21.1c-10.7-0.1-19.7-3-26.9-11c-2.8-3.1-4.7-6.7-6.1-10.5
	c-14.8-39.1-29.7-78.2-44.5-117.4c-14.6-38.5-29.1-77-43.7-115.5c-1.8-4.8-1.9-4.8-7.4-4.8c-41,0-82.1,0-123.1,0
	c-8.3,0-16.3-1-23.3-6.1c-10.8-7.9-15.3-18.7-13.2-31.7c2-12.7,9.9-20.9,22-25.2c1.1-0.4,2.3-0.7,3.4-1.1c1.4-0.8,3-0.5,4.5-0.4
	c102.2,0.6,204.3-1.5,306.5-1c57.2,0.3,114.5,0.1,171.7,0c17.5,0,35.1-0.2,52.6-0.2c2.7,0,5.5-0.2,8.1,0.4c1.6,0.4,2.9,1.6,4.3,2.3
	l0,0c0.8,1,2.3,0,3,1.1l-0.1,0c0.6,0.5,1.6,0.3,2.1,1.1l-0.1-0.1c0.4,0.3,0.7,0.6,1.1,0.9c0.2,0.2,0.4,0.3,0.7,0.2
	c0.6,0.1,1,0.5,1.4,1l0,0c0.4,0.3,0.7,0.7,1.1,0.9l0.1,0c0.4,0.7,1.5,0.4,1.9,1.2l-0.1-0.1c0.5,0.2,0.9,0.6,1.1,1.1l-0.1-0.1
	c0.5,0.2,0.8,0.6,1.1,1.1l-0.1-0.1c0.5,0.2,0.9,0.6,1.1,1.1l-0.1-0.1c0.8,0.4,0.5,1.5,1.2,1.9l0,0c0.3,0.4,0.7,0.7,0.9,1.1l0-0.1
	c0.7,0.5,0.4,1.5,1.1,1.9l0,0.1c0.3,0.4,0.7,0.7,0.9,1.2l-0.1-0.1c0.8,0.5,0.6,1.5,1.1,2.1l0-0.1c1.1,0.8,0.2,2.3,1.1,3.1l0,0
	c0.9,0.9,0.2,2.3,1,3.3c-0.1,0.3-0.1,0.5,0.1,0.8C838.4,594,838.4,598.1,837.6,602.2z"/>
<path style="fill:#FFFFFF;" d="M810.8,504c-177.4,0-354.9,0-532.3,0c-2,0-4.1,0.1-6.1,0.1c-0.3,0.3-0.7,0.3-1,0
	c-7.5-1.5-14.3-4.1-19.7-9.8c-8.4-8.7-11-19-8.1-30.5c3-12,11.1-19.5,22.9-23c1.3-0.4,2.6-0.7,3.9-1.1c21.7,0,43.4,0,65.1,0
	c0.6-2.7-0.6-4.5-1.3-6.4c-13.7-36.2-27.4-72.5-41.2-108.7c-6.8-18-13.4-36-20.5-53.8c-4.3-10.8-5.7-21.2-0.9-32.1
	c0.7-4.3,3.3-7.4,6.4-10.1c17.5-15.4,44-9.4,53.1,12.2c7.2,16.9,13.2,34.3,19.8,51.5c17.9,47.1,35.6,94.2,53.5,141.3
	c0.6,1.6,1.1,3.3,2.7,4.2c2,0.9,4,0.6,6.1,0.6c77.4,0.1,154.9,0,232.3-0.1c8.5,0,8.6-0.1,11.7-8.3c14.2-37.9,28.6-75.8,43-113.6
	c0.6-1.3,1.1-2.6,2-3.7c0.2-0.2,0.5-0.3,0.7-0.5c3.1-5.5,4.8-11.6,7-17.4c6.8-17.6,13.4-35.3,20.2-52.9c5.3-13.9,18.6-21,31.2-20.4
	c15.3,0.8,27.3,11.5,30,26c1.1,5.9,0.7,11.8-1.5,17.6c-6.5,17-12.8,34-19.3,51.1c-15.1,39.9-30.3,79.8-45.4,119.7
	c-0.4,1.1-1.2,2.1-0.5,3.5c1.7,0.9,3.6,0.5,5.4,0.5c25,0,50.1,0,75.1,0c14,0,25.4,7.8,30.6,20.6c2.4,5.9,2,12,1.8,18.1c0,0,0,0,0,0
	c-1.1,1.2,0.2,3-1.1,4.1l0-0.1c-0.5,0.6-0.4,1.5-1,2.1l0,0c-0.6,0.5-0.4,1.5-1,2l0,0c-0.7,0.5-0.4,1.5-1.1,2l0,0
	c-0.6,0.6-0.4,1.6-1.2,2l0.1-0.1c-0.2,0.5-0.6,0.8-1,1.1l0.1-0.1c-0.3,0.4-0.6,0.8-1,1.1l0,0c-0.3,0.3-0.7,0.7-1,1l0,0
	c-0.6,0.8-1.2,1.5-2,2l0,0c-0.4,0.3-0.7,0.7-1.1,1l0,0c-0.3,0.4-0.7,0.8-1.1,1l0.1-0.1c-0.9,0.9-2,1.4-3.1,2.1l0.1,0
	c-0.5,0.7-1.5,0.5-2.1,1.1l0,0c-0.5,0.7-1.5,0.5-2.1,1l0.1,0c-0.8,1.1-2.3,0.2-3.1,1.1l0.1,0C813.9,504.1,812.1,503,810.8,504z"/>
<path style="fill:#F6B94C;" d="M477.4,628.6c35.2,0,70.1,0,105,0c-0.2,3.8-48.3,131.9-52,138.8C528.1,764.7,479.1,636.5,477.4,628.6
	z"/>
</svg>
